<svg width="164" height="209" viewBox="0 0 164 209" fill="none" xmlns="http://www.w3.org/2000/svg">
<circle cx="82" cy="127" r="82" fill="#FFEDB0" fill-opacity="0.26"/>
<path d="M153.6 123.393C153.57 138.933 153.54 154.473 153.51 170.013C153.5 173.973 153.5 173.963 149.56 173.983C146.61 174.003 143.67 174.053 140.72 174.093C138.4 174.863 136.03 175.293 133.58 174.913C130.27 175.213 126.96 175.163 123.65 175.163C95.7003 175.163 67.7603 175.163 39.8103 175.163C36.4103 175.163 33.0003 175.213 29.6103 174.923C27.2803 175.373 25.0603 174.993 22.9303 173.993C19.5303 173.983 16.1303 173.903 12.7303 173.983C10.8403 174.033 9.98034 173.463 10.0003 171.413C10.0903 155.223 10.1103 139.033 10.1303 122.843C10.1403 118.913 10.0003 114.973 10.0503 111.043C10.2903 91.7828 25.6403 76.6028 44.8803 76.5628C48.4603 76.5528 52.0403 76.6428 55.6103 76.5328C57.5003 76.4728 58.1003 77.2028 58.1003 79.0328C58.1003 80.9728 57.6703 82.9528 58.3503 84.8628C59.6003 84.8028 60.4003 86.0128 61.6203 86.0228C67.2603 87.3828 73.0003 87.0128 78.7203 87.0428C82.4403 87.0628 82.7703 87.4028 82.9003 91.2128C82.9403 92.5128 82.7503 93.8428 83.2503 95.1128C83.6703 93.4428 83.4703 91.7428 83.6003 90.0628C83.7203 88.5428 84.0003 87.1928 85.9303 87.0628C87.7503 86.9328 88.5503 87.8828 88.7603 89.5528C88.7903 89.8128 88.8503 90.0728 89.2703 90.4628C89.4203 87.4228 91.2303 86.7628 93.7803 87.0128C96.4103 87.2828 98.9003 86.2628 101.48 86.0328C103.6 85.7628 103.65 84.2028 103.6 82.5828C103.76 80.5928 104.17 78.6528 104.86 76.7828C104.98 76.6928 105.09 76.6128 105.21 76.5228C111.64 76.8128 118.09 76.0528 124.51 77.0528C139.61 79.4228 151.86 92.6928 153.2 108.013C153.52 111.683 153.33 115.343 153.6 119.003C155.15 120.493 155.1 121.943 153.6 123.393Z" fill="#FED468"/>
<g clip-path="url(#clip0_1772_2)">
<path d="M13.6345 77C16.7716 38.0116 40.802 7.68884 70 7.68884C99.198 7.68884 123.239 38.0116 126.365 77H132C128.843 33.7555 102.294 0 70 0C37.7056 0 11.1574 33.7555 8 77H13.6345Z" fill="#FED468"/>
</g>
<rect x="3.5" y="67.5" width="156" height="19" rx="3.5" fill="#24A6A4" stroke="#FBC000" stroke-width="3"/>
<circle cx="20" cy="77" r="5" fill="#FED468"/>
<circle cx="144" cy="77" r="5" fill="#FED468"/>
<rect x="70" y="88" width="24" height="10" fill="#FED468"/>
<g clip-path="url(#clip1_1772_2)">
<path d="M22.8617 77C26.1253 38.0116 51.1247 7.68884 81.5 7.68884C111.875 7.68884 136.885 38.0116 140.138 77H146C142.715 33.7555 115.097 0 81.5 0C47.9034 0 20.2847 33.7555 17 77H22.8617Z" fill="#FED468"/>
<ellipse cx="114" cy="26" rx="21" ry="22" fill="#24A6A4"/>
<path d="M112.043 29.1426C112.795 28.3995 113.514 27.6714 114.254 26.9628C117.253 24.0869 120.246 21.2038 123.276 18.3571C123.793 17.8717 124.439 17.4687 125.097 17.1764C126.007 16.7725 126.867 17.086 127.445 17.8743C128.282 19.016 128.167 20.3854 127.139 21.3685C122.836 25.4828 118.534 29.5988 114.219 33.7024C113.817 34.0841 113.356 34.4198 112.882 34.7183C112.268 35.1045 111.597 35.1 111.017 34.6651C110.315 34.1381 109.638 33.573 109.001 32.9752C107.203 31.2887 105.463 29.5456 103.639 27.8858C102.491 26.8397 103.007 24.5191 104.257 23.9124C104.93 23.5864 105.599 23.6466 106.21 23.9815C106.753 24.2791 107.274 24.6431 107.725 25.0567C108.984 26.2126 110.201 27.4101 111.437 28.5899C111.611 28.7547 111.791 28.9123 112.043 29.1426Z" fill="white"/>
</g>
<circle cx="27" cy="181" r="9" fill="#FBC000"/>
<circle cx="135" cy="181" r="9" fill="#FBC000"/>
<circle cx="135" cy="181" r="7" fill="#FED468"/>
<circle cx="27" cy="181" r="7" fill="#FED468"/>
<g clip-path="url(#clip2_1772_2)">
<path d="M84.1536 148C78.301 147.504 73.0365 145.713 68.6759 141.671C67.6152 140.687 66.7483 139.485 65.8531 138.334C65.6919 138.127 65.8204 137.69 65.8139 137.357C66.1101 137.402 66.4956 137.34 66.6851 137.507C69.6321 140.094 73.1737 141.34 76.907 142.048C84.1928 143.428 91.4176 143.241 98.4158 140.548C100.178 139.871 101.731 138.643 103.399 137.701C103.73 137.514 104.149 137.481 104.525 137.377C104.469 137.759 104.53 138.226 104.336 138.513C101.021 143.369 96.2856 146.013 90.714 147.202C88.5642 147.66 86.3426 147.744 84.1536 148Z" fill="#24A6A4"/>
<path d="M63 138.048C63.0196 136.248 64.3112 134.934 65.788 135.005C66.0995 135.02 66.3957 135.351 66.7006 135.536C66.4371 135.757 66.1844 136.147 65.9078 136.167C64.8165 136.248 64.309 136.8 64.174 137.869C64.1348 138.176 63.8037 138.445 63.6077 138.732C63.355 138.451 63.1045 138.167 63 138.048Z" fill="#24A6A4"/>
<path d="M107 138.048C106.902 138.158 106.654 138.438 106.408 138.718C106.214 138.429 105.883 138.154 105.85 137.847C105.744 136.802 105.212 136.314 104.208 136.162C103.879 136.111 103.596 135.75 103.291 135.529C103.637 135.344 103.984 134.996 104.328 135C105.809 135.015 106.992 136.279 107 138.048Z" fill="#24A6A4"/>
</g>
<circle cx="50.5" cy="109.5" r="3.5" fill="#24A6A4"/>
<circle cx="112.5" cy="109.5" r="3.5" fill="#24A6A4"/>
<defs>
<clipPath id="clip0_1772_2">
<rect width="124" height="77" fill="white" transform="translate(8)"/>
</clipPath>
<clipPath id="clip1_1772_2">
<rect width="129" height="77" fill="white" transform="translate(17)"/>
</clipPath>
<clipPath id="clip2_1772_2">
<rect width="44" height="13" fill="white" transform="translate(63 135)"/>
</clipPath>
</defs>
</svg>
