<svg width="145" height="140" viewBox="0 0 145 140" fill="none" xmlns="http://www.w3.org/2000/svg">
<path d="M13.0905 130.938C15.2105 130.928 17.3305 130.918 19.4605 130.918C19.4905 132.798 19.5705 134.678 19.5305 136.548C19.4905 138.488 18.4105 139.508 16.4805 139.538C14.4905 139.568 13.1805 138.618 13.0605 136.568C12.9505 134.698 13.0705 132.818 13.0905 130.938Z" fill="#FBC000"/>
<path d="M125.12 130.938C127.24 130.928 129.36 130.918 131.49 130.918C131.52 132.798 131.6 134.678 131.56 136.548C131.52 138.488 130.44 139.508 128.51 139.538C126.52 139.568 125.21 138.618 125.09 136.568C124.99 134.698 125.11 132.818 125.12 130.938Z" fill="#FBC000"/>
<path d="M143.6 80.8772C143.57 96.4172 143.54 111.957 143.51 127.497C143.5 131.457 143.5 131.447 139.56 131.467C136.61 131.487 133.67 131.537 130.72 131.577C128.4 132.347 126.03 132.777 123.58 132.397C120.27 132.697 116.96 132.647 113.65 132.647C85.7003 132.647 57.7603 132.647 29.8103 132.647C26.4103 132.647 23.0003 132.697 19.6103 132.407C17.2803 132.857 15.0603 132.477 12.9303 131.477C9.53034 131.467 6.13034 131.387 2.73034 131.467C0.84034 131.517 -0.0196593 130.947 0.000340689 128.897C0.0903407 112.707 0.110341 96.5172 0.130341 80.3272C0.140341 76.3972 0.000340879 72.4572 0.0503409 68.5272C0.290341 49.2672 15.6403 34.0872 34.8803 34.0472C38.4603 34.0372 42.0403 34.1272 45.6103 34.0172C47.5003 33.9572 48.1003 34.6872 48.1003 36.5172C48.1003 38.4572 47.6703 40.4372 48.3503 42.3472C49.6003 42.2872 50.4003 43.4972 51.6203 43.5072C57.2603 44.8672 63.0003 44.4972 68.7203 44.5272C72.4403 44.5472 72.7703 44.8872 72.9003 48.6972C72.9403 49.9972 72.7503 51.3272 73.2503 52.5972C73.6703 50.9272 73.4703 49.2272 73.6003 47.5472C73.7203 46.0272 74.0003 44.6772 75.9303 44.5472C77.7503 44.4172 78.5503 45.3672 78.7603 47.0372C78.7903 47.2972 78.8503 47.5572 79.2703 47.9472C79.4203 44.9072 81.2303 44.2472 83.7803 44.4972C86.4103 44.7672 88.9003 43.7472 91.4803 43.5172C93.6003 43.2472 93.6503 41.6872 93.6003 40.0672C93.7603 38.0772 94.1703 36.1372 94.8603 34.2672C94.9803 34.1772 95.0903 34.0972 95.2103 34.0072C101.64 34.2972 108.09 33.5372 114.51 34.5372C129.61 36.9072 141.86 50.1772 143.2 65.4972C143.52 69.1672 143.33 72.8272 143.6 76.4872C145.15 77.9772 145.1 79.4272 143.6 80.8772Z" fill="#FED468"/>
<path d="M50.6406 44.9082C64.6306 44.9082 78.6106 44.9082 92.6006 44.9182C89.7206 45.8882 86.7506 45.3382 83.8306 45.3282C81.5406 45.3182 80.4306 45.9682 80.7306 48.3782C80.8006 48.9882 80.7306 49.6282 80.6506 50.2482C80.5506 51.0382 80.1106 51.5882 79.2706 51.6382C78.3006 51.6982 77.7406 51.1482 77.6506 50.2282C77.5506 49.1582 77.5706 48.0882 77.5206 47.0182C77.4806 46.2582 77.2706 45.5782 76.3406 45.5182C75.2706 45.4482 74.9206 46.1482 74.9106 47.0482C74.8706 49.3782 74.8906 51.6982 74.8506 54.0282C74.8306 55.0982 74.8706 56.3882 73.3806 56.4582C71.7006 56.5482 71.6906 55.1882 71.6706 53.9982C71.6406 52.6582 71.6606 51.3182 71.6606 49.9682C71.6606 45.3882 71.6606 45.3882 67.2106 45.3882C62.7406 45.3882 58.2606 45.3982 53.7906 45.3782C52.7106 45.3682 51.6106 45.5682 50.6406 44.9082Z" fill="#D5A65C"/>
<path d="M57.0996 73.3575C57.0696 75.9575 57.1096 78.5475 57.5496 81.1175C57.8096 82.6875 57.3296 84.0075 55.9696 84.8175C55.0996 85.3375 54.0396 85.3175 53.1696 84.6875C51.8596 83.7375 51.4896 82.3675 51.8796 80.8675C52.2996 79.2275 52.7196 77.5475 53.4296 76.0275C54.5996 73.5175 54.8096 70.7775 55.3996 67.8975C56.9796 68.8975 56.3896 70.2175 56.6896 71.2475C57.3996 71.8375 57.2096 72.6075 57.0996 73.3575Z" fill="#24A6A4" fill-opacity="0.3"/>
<path d="M100.32 66.1972C101.66 66.1972 103.01 66.1572 104.35 66.2172C104.98 66.2472 106.01 65.9472 105.94 67.0672C105.88 68.0372 104.94 67.8872 104.25 67.9072C103.62 67.9272 103 67.9272 102.37 67.9072C101.45 67.8772 100.65 67.8172 100.56 69.1772C100.48 70.2772 99.5596 70.8672 98.4696 70.8572C97.3796 70.8472 96.6196 70.2472 96.3796 69.1372C96.2696 68.6472 96.4296 68.0172 95.6496 67.9372C94.9096 67.8572 94.0596 67.7572 94.3896 66.7272C94.6196 65.9972 95.4396 66.2172 96.0296 66.2072C97.4496 66.1772 98.8896 66.1972 100.32 66.1972Z" fill="#24A6A4"/>
<path d="M39.6797 66.2175C41.1997 66.2175 42.7197 66.1975 44.2397 66.2275C44.6697 66.2375 45.1797 66.2775 45.2497 66.8675C45.3297 67.5375 44.9097 67.8575 44.3097 67.8875C43.4197 67.9375 42.5197 67.9375 41.6297 67.9175C40.6897 67.8875 39.9197 67.8775 39.8497 69.2175C39.7897 70.3575 38.8397 70.8775 37.7597 70.8775C36.7797 70.8775 36.1097 70.2975 35.7297 69.3875C35.5397 68.9275 35.8297 68.1975 35.1797 67.9975C34.4497 67.7775 33.2897 67.9075 33.7297 66.7175C34.0497 65.8475 35.1497 66.2475 35.9097 66.2175C37.1597 66.1675 38.4197 66.2075 39.6697 66.2075C39.6797 66.1975 39.6797 66.2075 39.6797 66.2175Z" fill="#24A6A4"/>
<path d="M57.0997 73.3583C56.6297 72.7183 56.7297 71.9583 56.6797 71.2383C60.1397 69.9383 63.0297 70.9983 63.5497 73.7983C63.6697 74.4483 63.9697 75.3483 62.9997 75.5983C62.1897 75.8083 62.1297 75.0483 61.8597 74.4683C60.7197 71.9483 59.6397 71.7283 57.0997 73.3583Z" fill="#24A6A4"/>
<circle cx="74.5" cy="30.5" r="30.5" fill="#FBC000"/>
<g clip-path="url(#clip0_467_974)">
<path d="M74.5497 10.0001C78.5565 10.0188 81.4846 13.1037 80.9359 16.5583C79.9403 22.8357 79.0463 29.1247 78.1122 35.4091C77.8258 37.3377 77.5314 39.264 77.2691 41.1949C77.1673 41.9392 76.7712 42.1429 75.9228 42.0586C74.9699 41.9626 73.9849 41.9767 73.0267 42.0633C72.2371 42.1358 71.8624 41.9392 71.7607 41.2488C70.9524 35.7344 70.1334 30.2201 69.3143 24.7058C68.9129 22.0071 68.5569 19.2991 68.0831 16.6098C67.4649 13.1224 70.4974 9.98136 74.5497 10.0001Z" fill="white"/>
<path d="M78.1901 46.81C78.158 48.6052 76.4343 50.0563 74.3974 49.9978C72.3954 49.9416 70.8215 48.5022 70.8242 46.7281C70.8269 44.9165 72.4864 43.4747 74.5607 43.4864C76.5895 43.4958 78.2195 44.989 78.1901 46.81Z" fill="white"/>
</g>
<defs>
<clipPath id="clip0_467_974">
<rect width="13" height="40" fill="white" transform="translate(68 10)"/>
</clipPath>
</defs>
</svg>
