<svg width="145" height="148" viewBox="0 0 145 148" fill="none" xmlns="http://www.w3.org/2000/svg">
<path d="M13.0905 138.938C15.2105 138.928 17.3305 138.918 19.4605 138.918C19.4905 140.798 19.5705 142.678 19.5305 144.548C19.4905 146.488 18.4105 147.508 16.4805 147.538C14.4905 147.568 13.1805 146.618 13.0605 144.568C12.9505 142.698 13.0705 140.818 13.0905 138.938Z" fill="#FBC000"/>
<path d="M125.12 138.938C127.24 138.928 129.36 138.918 131.49 138.918C131.52 140.798 131.6 142.678 131.56 144.548C131.52 146.488 130.44 147.508 128.51 147.538C126.52 147.568 125.21 146.618 125.09 144.568C124.99 142.698 125.11 140.818 125.12 138.938Z" fill="#FBC000"/>
<path d="M143.6 88.8772C143.57 104.417 143.54 119.957 143.51 135.497C143.5 139.457 143.5 139.447 139.56 139.467C136.61 139.487 133.67 139.537 130.72 139.577C128.4 140.347 126.03 140.777 123.58 140.397C120.27 140.697 116.96 140.647 113.65 140.647C85.7003 140.647 57.7603 140.647 29.8103 140.647C26.4103 140.647 23.0003 140.697 19.6103 140.407C17.2803 140.857 15.0603 140.477 12.9303 139.477C9.53034 139.467 6.13034 139.387 2.73034 139.467C0.84034 139.517 -0.0196593 138.947 0.000340689 136.897C0.0903407 120.707 0.110341 104.517 0.130341 88.3272C0.140341 84.3972 0.000340879 80.4572 0.0503409 76.5272C0.290341 57.2672 15.6403 42.0872 34.8803 42.0472C38.4603 42.0372 42.0403 42.1272 45.6103 42.0172C47.5003 41.9572 48.1003 42.6872 48.1003 44.5172C48.1003 46.4572 47.6703 48.4372 48.3503 50.3472C49.6003 50.2872 50.4003 51.4972 51.6203 51.5072C57.2603 52.8672 63.0003 52.4972 68.7203 52.5272C72.4403 52.5472 72.7703 52.8872 72.9003 56.6972C72.9403 57.9972 72.7503 59.3272 73.2503 60.5972C73.6703 58.9272 73.4703 57.2272 73.6003 55.5472C73.7203 54.0272 74.0003 52.6772 75.9303 52.5472C77.7503 52.4172 78.5503 53.3672 78.7603 55.0372C78.7903 55.2972 78.8503 55.5572 79.2703 55.9472C79.4203 52.9072 81.2303 52.2472 83.7803 52.4972C86.4103 52.7672 88.9003 51.7472 91.4803 51.5172C93.6003 51.2472 93.6503 49.6872 93.6003 48.0672C93.7603 46.0772 94.1703 44.1372 94.8603 42.2672C94.9803 42.1772 95.0903 42.0972 95.2103 42.0072C101.64 42.2972 108.09 41.5372 114.51 42.5372C129.61 44.9072 141.86 58.1772 143.2 73.4972C143.52 77.1672 143.33 80.8272 143.6 84.4872C145.15 85.9772 145.1 87.4272 143.6 88.8772Z" fill="#FED468"/>
<path d="M50.6406 52.9082C64.6306 52.9082 78.6106 52.9082 92.6006 52.9182C89.7206 53.8882 86.7506 53.3382 83.8306 53.3282C81.5406 53.3182 80.4306 53.9682 80.7306 56.3782C80.8006 56.9882 80.7306 57.6282 80.6506 58.2482C80.5506 59.0382 80.1106 59.5882 79.2706 59.6382C78.3006 59.6982 77.7406 59.1482 77.6506 58.2282C77.5506 57.1582 77.5706 56.0882 77.5206 55.0182C77.4806 54.2582 77.2706 53.5782 76.3406 53.5182C75.2706 53.4482 74.9206 54.1482 74.9106 55.0482C74.8706 57.3782 74.8906 59.6982 74.8506 62.0282C74.8306 63.0982 74.8706 64.3882 73.3806 64.4582C71.7006 64.5482 71.6906 63.1882 71.6706 61.9982C71.6406 60.6582 71.6606 59.3182 71.6606 57.9682C71.6606 53.3882 71.6606 53.3882 67.2106 53.3882C62.7406 53.3882 58.2606 53.3982 53.7906 53.3782C52.7106 53.3682 51.6106 53.5682 50.6406 52.9082Z" fill="#D5A65C"/>
<g clip-path="url(#clip0_467_1182)">
<path d="M71.1536 110C65.301 109.504 60.0365 107.713 55.6759 103.671C54.6152 102.687 53.7483 101.485 52.8531 100.334C52.6919 100.127 52.8204 99.6904 52.8139 99.3574C53.1101 99.4015 53.4956 99.3398 53.6851 99.5074C56.6321 102.094 60.1737 103.34 63.907 104.048C71.1928 105.428 78.4176 105.241 85.4158 102.548C87.1779 101.871 88.7309 100.643 90.3993 99.7014C90.7304 99.514 91.1486 99.4809 91.5254 99.3773C91.4688 99.7588 91.5298 100.226 91.3359 100.513C88.0208 105.369 83.2856 108.013 77.714 109.202C75.5642 109.66 73.3426 109.744 71.1536 110Z" fill="#24A6A4"/>
<path d="M50 100.048C50.0196 98.2484 51.3112 96.9341 52.788 97.0047C53.0995 97.0201 53.3957 97.3509 53.7006 97.5361C53.4371 97.7567 53.1844 98.147 52.9078 98.1668C51.8165 98.2484 51.309 98.7997 51.174 99.8693C51.1348 100.176 50.8037 100.445 50.6077 100.732C50.355 100.451 50.1045 100.167 50 100.048Z" fill="#24A6A4"/>
<path d="M94.0003 100.048C93.9023 100.158 93.654 100.438 93.4079 100.718C93.214 100.429 92.883 100.154 92.8503 99.847C92.7436 98.8017 92.2121 98.3144 91.208 98.1622C90.8791 98.1115 90.596 97.7498 90.291 97.5293C90.6373 97.3441 90.9837 96.9956 91.3278 97C92.8089 97.0155 93.9916 98.2791 94.0003 100.048Z" fill="#24A6A4"/>
</g>
<circle cx="37.5" cy="71.5" r="3.5" fill="#24A6A4"/>
<circle cx="99.5" cy="71.5" r="3.5" fill="#24A6A4"/>
<ellipse cx="72" cy="32" rx="31" ry="32" fill="#24A6A4"/>
<path d="M69.0216 36.2139C70.1043 35.0992 71.1403 34.0071 72.2058 32.9442C76.5248 28.6303 80.8345 24.3057 85.1976 20.0356C85.9412 19.3075 86.8718 18.703 87.8197 18.2646C89.1294 17.6587 90.3684 18.129 91.2001 19.3115C92.4057 21.0241 92.2402 23.0781 90.7596 24.5528C84.5634 30.7241 78.3686 36.8981 72.155 43.0535C71.5769 43.6262 70.912 44.1297 70.2298 44.5774C69.346 45.1567 68.3794 45.1501 67.5449 44.4977C66.5343 43.7072 65.5583 42.8596 64.6411 41.9628C62.0524 39.4331 59.5464 36.8184 56.9203 34.3286C55.2674 32.7596 56.0097 29.2786 57.8108 28.3685C58.7787 27.8796 59.7426 27.97 60.6225 28.4722C61.4048 28.9186 62.1552 29.4646 62.804 30.0851C64.6171 31.8189 66.3701 33.6152 68.1497 35.3849C68.3994 35.632 68.6584 35.8685 69.0216 36.2139Z" fill="white"/>
<defs>
<clipPath id="clip0_467_1182">
<rect width="44" height="13" fill="white" transform="translate(50 97)"/>
</clipPath>
</defs>
</svg>
