<svg xmlns="http://www.w3.org/2000/svg" width="30" height="35" viewBox="0 0 30 35" fill="none">
  <path d="M4.02724 34.5766C3.6363 34.0891 3.61121 33.4851 3.59478 32.8432C3.50829 29.4362 3.54721 26.0283 3.54461 22.6213C3.54375 21.1547 3.58353 19.6892 3.60083 18.2227C3.60516 17.8371 3.75566 17.5408 3.90788 17.2152C4.08346 16.8401 4.37581 16.899 4.61885 16.7739C7.5129 16.7739 10.4078 16.7813 13.3019 16.7687C13.7118 16.7666 13.8589 16.9504 13.858 17.4442C13.8502 23.0058 13.8546 28.5674 13.8528 34.1291C13.8528 34.7678 13.8061 34.8203 13.2846 34.8203C10.8368 34.8224 8.38821 34.8203 5.94046 34.8235C5.29523 34.8235 4.64567 34.8855 4.02724 34.5766Z" fill="#EB1212"/>
  <path d="M25.5395 16.7687C25.5928 16.7718 25.6469 16.775 25.7002 16.7771C25.8023 16.8906 25.9333 16.8748 26.0564 16.8906L26.0502 16.8832C26.0607 16.9505 26.0965 16.9768 26.1515 16.9736L26.155 16.9747C26.5863 17.5191 26.76 18.1602 26.7574 18.918C26.7443 22.5766 26.7539 26.2351 26.7548 29.8937C26.7548 30.9962 26.7626 32.0997 26.7461 33.2022C26.7312 34.1912 26.2144 34.824 25.4147 34.8261C22.4333 34.8324 19.4527 34.825 16.4713 34.8229L16.4748 34.8271C16.4661 34.6705 16.4495 34.5139 16.4495 34.3563C16.4486 28.8942 16.4443 23.4321 16.453 17.971C16.4547 16.7361 16.226 16.7834 17.4692 16.7802C20.1599 16.7739 22.8497 16.7729 25.5395 16.7687Z" fill="#EB1212"/>
  <path d="M16.4624 15.4624C16.4547 13.8604 16.4469 12.2592 16.4375 10.6571C16.4367 10.5317 16.4666 10.4199 16.5506 10.3218C19.9695 10.3226 23.3876 10.3226 26.8066 10.3234C27.234 10.3234 27.6615 10.3387 28.0881 10.3234C28.7084 10.3009 29.3714 10.8839 29.3329 11.4887C29.284 12.2616 29.3029 13.0401 29.332 13.8146C29.3569 14.4748 29.3235 15.0901 28.6227 15.4649L28.6218 15.4657C25.0804 15.4713 21.5389 15.4777 17.9966 15.4817C17.4852 15.4817 16.9738 15.4689 16.4624 15.4624Z" fill="#EB1212"/>
  <path d="M12.6186 9.79548C11.7647 9.51101 10.897 9.26687 10.0598 8.93463C8.15397 8.17886 6.31019 7.2798 4.85053 5.69291C4.0094 4.77792 3.40269 3.73874 3.56421 2.35777C3.67945 1.37592 4.20245 0.674287 5.00024 0.33674C6.2836 -0.204608 7.60734 -0.0464496 8.87494 0.478977C11.1806 1.43642 12.8757 3.18466 14.2162 5.37447C14.2605 5.44771 14.3206 5.51033 14.3738 5.57721C14.4654 5.85107 14.5589 6.12492 14.7677 6.3266L14.7668 6.32766C14.8337 6.46353 14.9027 6.5994 14.9677 6.73739C15.081 6.97834 15.2573 6.92633 15.3262 6.75225C15.4572 6.42107 15.7241 6.16314 15.7645 5.78738C16.6066 4.3544 17.627 3.087 18.8572 2.03084C20.0332 1.02139 21.35 0.314449 22.852 0.0596972C23.377 0.0607586 23.901 0.0618201 24.4259 0.0618201C26.2392 0.421658 26.904 1.76548 26.7316 3.21226C26.5918 4.38624 25.9014 5.24497 25.0977 6.00286C23.639 7.37852 21.9607 8.31261 20.1267 8.96435C19.0098 9.36134 17.8781 9.69252 16.7465 10.0269C15.9034 10.2148 15.0642 10.4493 14.1935 10.2339L14.1945 10.236C13.969 10.011 13.6843 10.0332 13.4095 10.0163V10.0205C13.1791 9.81353 12.9003 9.79866 12.6186 9.79548ZM21.4761 2.19006C21.2003 2.24314 20.9629 2.37264 20.7699 2.59554C20.7394 2.59024 20.7118 2.59767 20.6881 2.61996C20.371 2.7484 20.111 2.96387 19.8884 3.23561C18.7695 4.09646 17.9333 5.2386 17.167 6.44443C16.845 6.95181 16.5662 7.49103 16.3505 8.06316C16.2491 8.33172 16.256 8.5334 16.6076 8.42937C18.8128 7.78294 21.022 7.13332 22.9643 5.77252C23.8113 5.17916 24.62 4.50725 25.0947 3.49991C25.3931 2.86622 25.2996 1.93425 24.358 1.70497C23.3169 1.45234 22.395 1.74 21.4761 2.19006ZM6.71795 1.61899C6.50914 1.63173 6.32792 1.63279 6.14965 1.65508C5.23465 1.76972 4.85644 2.34398 5.12237 3.30567C5.34595 4.11238 5.93395 4.6463 6.51801 5.14731C8.61787 6.94756 11.1413 7.68528 13.6646 8.4177C13.9109 8.48881 14.0832 8.43043 13.9424 8.10775C13.708 7.56852 13.509 6.99851 13.1958 6.51554C12.401 5.28955 11.5382 4.11663 10.3966 3.22818C9.28565 2.36096 8.12344 1.62749 6.71795 1.61899Z" fill="#EB1212"/>
  <path d="M1.40768 10.4888C2.11322 10.2808 2.8401 10.3282 3.56358 10.3282C6.79229 10.3282 10.021 10.3354 13.2489 10.3218C13.6768 10.3202 13.8032 10.4462 13.8229 10.8461C13.8886 12.1957 13.8357 13.5453 13.8536 14.894C13.8604 15.3862 13.7528 15.4785 13.2412 15.4785C9.61442 15.4793 5.98767 15.4777 2.36092 15.4817C1.91932 15.4825 1.51787 15.4312 1.21294 15.0803C0.986584 14.8202 0.974626 14.5087 0.966939 14.2132C0.94473 13.2915 0.967793 12.3691 0.960959 11.4466C0.957543 11.058 1.20269 10.7842 1.40768 10.4888Z" fill="#EB1212"/>
</svg>