<svg width="63" height="63" viewBox="0 0 63 63" fill="none" xmlns="http://www.w3.org/2000/svg">
<circle cx="31.5" cy="31.5" r="31.5" fill="#F5F5F4"/>
<g clip-path="url(#clip0_1088_348)">
<path d="M34.3729 19.9717C33.9229 19.9717 33.5065 19.9745 33.0901 19.9707C32.5159 19.966 32.1349 19.6222 32.1377 19.1177C32.1405 18.6142 32.5215 18.2788 33.0994 18.275C33.5531 18.2722 34.0069 18.2741 34.4803 18.2741C34.5354 18.1447 34.5848 18.0162 34.6427 17.8915C35.1945 16.7059 36.1142 16.0541 37.411 16.0182C38.5398 15.987 39.6714 16.0031 40.8011 16.0135C41.9019 16.0239 42.7468 16.8769 42.758 17.9907C42.7692 19.1923 42.7674 20.3949 42.759 21.5975C42.7515 22.7443 41.9448 23.5737 40.8058 23.6153C40.4939 23.6266 40.1802 23.6172 39.8142 23.6172C39.8964 24.1594 39.9683 24.6648 40.0495 25.1693C40.577 28.47 41.1092 31.7697 41.6283 35.0713C41.6647 35.3047 41.7422 35.4058 41.9682 35.4766C43.2267 35.8677 44.1828 36.6508 44.8223 37.8185C45.1333 38.3862 45.0371 38.783 44.503 39.1476C43.8373 39.602 43.1651 40.0469 42.4994 40.5023C41.5247 41.1702 40.451 41.4772 39.2736 41.4753C34.7884 41.4677 30.3031 41.4753 25.8178 41.4658C25.5191 41.4649 25.3874 41.5178 25.309 41.8494C24.718 44.349 22.5808 46.0286 20.0777 45.9974C17.6614 45.9672 15.5374 44.1789 14.9996 41.7247C14.9818 41.6453 14.9538 41.5688 14.9258 41.4725C14.2685 41.4725 13.6168 41.4753 12.9651 41.4715C12.3256 41.4677 12.0025 41.1399 12.0016 40.4872C11.9988 38.6838 11.9988 36.8804 12.0016 35.077C12.0044 32.7153 12.8867 30.7523 14.627 29.1804C14.67 29.1416 14.7092 29.0982 14.7484 29.0557C14.754 29.05 14.7494 29.0349 14.7494 29.0169C14.5496 28.9366 14.3385 28.8733 14.1481 28.7704C13.5664 28.452 13.192 27.9504 13.1453 27.2882C13.0996 26.6458 13.0949 25.9855 13.1892 25.3516C13.4049 23.9015 14.6625 22.8142 16.1162 22.8076C19.5297 22.7906 22.9431 22.7868 26.3565 22.8095C27.9764 22.8199 29.291 24.183 29.334 25.822C29.3452 26.2339 29.3461 26.6477 29.3358 27.0596C29.3172 27.7851 28.9866 28.332 28.3975 28.742C28.2649 28.8337 28.1314 29.0103 28.1099 29.1634C27.9494 30.3177 27.7944 31.474 27.6795 32.6331C27.4881 34.5537 28.939 36.2635 30.8222 36.3722C32.7493 36.4836 34.3617 34.974 34.3682 33.0063C34.3813 28.7515 34.3729 24.4967 34.3729 20.2419C34.3729 20.1635 34.3729 20.0832 34.3729 19.9717ZM36.3784 18.2741C36.7481 18.2741 37.0385 18.2722 37.3298 18.275C37.9049 18.2807 38.2858 18.6199 38.2849 19.1234C38.284 19.6269 37.904 19.967 37.3279 19.9707C36.9124 19.9736 36.496 19.9717 36.0507 19.9717C36.0507 20.1464 36.0507 20.2853 36.0507 20.4242C36.0507 24.6308 36.0572 28.8384 36.0469 33.045C36.0423 35.0921 34.8042 36.9664 32.9183 37.6966C30.9025 38.4769 29.0557 38.1066 27.4975 36.5942C26.1567 35.2924 25.7907 33.6543 26.0764 31.8273C26.2193 30.911 26.3099 29.9871 26.4294 29.0245C26.2781 29.0245 26.1642 29.0245 26.0512 29.0245C23.9076 29.0245 21.7648 29.0207 19.6212 29.0254C16.274 29.0339 13.6887 31.6488 13.6794 35.0307C13.6757 36.4921 13.6785 37.9535 13.6794 39.415C13.6794 39.5283 13.6897 39.6417 13.6953 39.7598C20.665 39.7598 27.6039 39.7598 34.5671 39.7598C34.8257 38.4542 35.4121 37.3433 36.4307 36.4893C37.4484 35.6363 38.6322 35.2499 39.9421 35.2395C39.9421 35.1781 39.9468 35.1431 39.9412 35.1091C39.3026 31.1122 38.664 27.1144 38.0254 23.1174C37.8993 22.3268 38.227 21.929 39.0216 21.9224C39.5808 21.9177 40.1401 21.9196 40.6993 21.9215C40.9542 21.9224 41.0877 21.8157 41.0859 21.5408C41.0812 20.3864 41.0831 19.2311 41.0849 18.0767C41.0849 17.8282 40.9729 17.7082 40.7245 17.7082C39.606 17.7111 38.4875 17.7016 37.3699 17.7167C36.9853 17.7224 36.665 17.9038 36.3784 18.2741ZM21.2439 27.3269C21.8255 27.3269 22.4081 27.3269 22.9898 27.3269C24.3865 27.3269 25.7833 27.3279 27.181 27.326C27.6086 27.326 27.6599 27.2712 27.6618 26.8338C27.6627 26.5154 27.6702 26.198 27.659 25.8797C27.6328 25.1117 27.054 24.5052 26.2968 24.5023C22.9207 24.4919 19.5446 24.4929 16.1694 24.5014C15.3973 24.5033 14.8184 25.1192 14.7998 25.908C14.7923 26.2141 14.797 26.5202 14.7979 26.8262C14.7998 27.2778 14.8465 27.325 15.3067 27.325C17.2852 27.3279 19.2645 27.3269 21.2439 27.3269ZM16.6942 41.4904C16.8613 42.9669 18.5288 44.3027 20.1832 44.3008C21.8535 44.2989 23.5014 42.9716 23.6611 41.4904C21.3382 41.4904 19.0171 41.4904 16.6942 41.4904ZM36.2841 39.7654C37.4829 39.7654 38.6117 39.8004 39.7377 39.7484C40.1877 39.7276 40.6657 39.585 41.0644 39.3706C41.718 39.0191 42.3183 38.5648 42.9392 38.15C42.9578 38.1378 42.9532 38.0915 42.9616 38.049C41.7525 36.7623 40.254 36.7236 38.7256 37.1383C37.4437 37.4859 36.666 38.4278 36.2841 39.7654Z" fill="#958E8E"/>
<path d="M39.9947 46.0012C38.3673 45.9049 36.9519 45.0839 36.0434 43.4279C35.7475 42.8876 35.8614 42.3897 36.3095 42.146C36.7605 41.9004 37.2142 42.0846 37.5158 42.6221C38.1694 43.786 39.1656 44.3858 40.483 44.281C41.7667 44.1789 42.6593 43.461 43.1317 42.2395C43.2027 42.0553 43.2363 41.8551 43.283 41.6614C43.4109 41.1258 43.7918 40.8339 44.2549 40.9189C44.7423 41.0096 45.0243 41.4224 44.9244 41.9788C44.6274 43.6376 43.705 44.827 42.2111 45.5582C41.5865 45.8661 40.9143 45.9984 39.9947 46.0012Z" fill="#958E8E"/>
<path d="M18.977 35.2581C18.442 35.2581 17.9071 35.2628 17.373 35.2562C16.8464 35.2496 16.4842 34.9067 16.4776 34.4259C16.4711 33.9497 16.8343 33.5728 17.3506 33.5662C18.443 33.553 19.5363 33.5539 20.6287 33.5662C21.1478 33.5719 21.51 33.945 21.5063 34.4221C21.5026 34.9067 21.1431 35.2439 20.6156 35.2581C20.5922 35.2591 20.5689 35.2581 20.5456 35.2581C20.0227 35.2581 19.4999 35.2581 18.977 35.2581Z" fill="#958E8E"/>
<path d="M18.9989 36.3816C19.5339 36.3816 20.0689 36.3759 20.6029 36.3825C21.1407 36.3891 21.5151 36.7528 21.5067 37.2441C21.4983 37.723 21.1314 38.0725 20.6085 38.0754C19.5273 38.082 18.4462 38.082 17.365 38.0744C16.8468 38.0707 16.4799 37.7098 16.478 37.2308C16.4762 36.7519 16.844 36.391 17.3594 36.3825C17.9065 36.375 18.4527 36.3816 18.9989 36.3816Z" fill="#958E8E"/>
</g>
<defs>
<clipPath id="clip0_1088_348">
<rect width="33" height="30" fill="white" transform="translate(12 16)"/>
</clipPath>
</defs>
</svg>
