<svg width="63" height="63" viewBox="0 0 63 63" fill="none" xmlns="http://www.w3.org/2000/svg">
<circle cx="31.5" cy="31.5" r="31.5" fill="#3BB3C4"/>
<g clip-path="url(#clip0_1094_1110)">
<path d="M34.3724 19.9717C33.9224 19.9717 33.506 19.9745 33.0896 19.9707C32.5154 19.966 32.1344 19.6222 32.1372 19.1177C32.14 18.6142 32.521 18.2788 33.0989 18.275C33.5527 18.2722 34.0064 18.2741 34.4798 18.2741C34.5349 18.1447 34.5843 18.0162 34.6422 17.8915C35.194 16.7059 36.1137 16.0541 37.4105 16.0182C38.5393 15.987 39.6709 16.0031 40.8006 16.0135C41.9014 16.0239 42.7464 16.8769 42.7576 17.9907C42.7688 19.1923 42.7669 20.3949 42.7585 21.5975C42.751 22.7443 41.9443 23.5737 40.8053 23.6153C40.4934 23.6266 40.1797 23.6172 39.8137 23.6172C39.8959 24.1594 39.9678 24.6648 40.049 25.1693C40.5765 28.47 41.1087 31.7697 41.6278 35.0713C41.6642 35.3047 41.7417 35.4058 41.9677 35.4766C43.2262 35.8677 44.1823 36.6508 44.8219 37.8185C45.1328 38.3862 45.0366 38.783 44.5026 39.1476C43.8369 39.602 43.1646 40.0469 42.4989 40.5023C41.5242 41.1702 40.4505 41.4772 39.2732 41.4753C34.7879 41.4677 30.3026 41.4753 25.8173 41.4658C25.5186 41.4649 25.3869 41.5178 25.3085 41.8494C24.7175 44.349 22.5804 46.0286 20.0772 45.9974C17.6609 45.9672 15.5369 44.1789 14.9991 41.7247C14.9813 41.6453 14.9533 41.5688 14.9253 41.4725C14.268 41.4725 13.6163 41.4753 12.9647 41.4715C12.3251 41.4677 12.0021 41.1399 12.0011 40.4872C11.9983 38.6838 11.9983 36.8804 12.0011 35.077C12.0039 32.7153 12.8862 30.7523 14.6266 29.1804C14.6695 29.1416 14.7087 29.0982 14.7479 29.0557C14.7535 29.05 14.7489 29.0349 14.7489 29.0169C14.5491 28.9366 14.3381 28.8733 14.1476 28.7704C13.5659 28.452 13.1915 27.9504 13.1449 27.2882C13.0991 26.6458 13.0944 25.9855 13.1887 25.3516C13.4044 23.9015 14.662 22.8142 16.1157 22.8076C19.5292 22.7906 22.9426 22.7868 26.3561 22.8095C27.9759 22.8199 29.2905 24.183 29.3335 25.822C29.3447 26.2339 29.3456 26.6477 29.3353 27.0596C29.3167 27.7851 28.9862 28.332 28.397 28.742C28.2644 28.8337 28.1309 29.0103 28.1095 29.1634C27.9489 30.3177 27.7939 31.474 27.679 32.6331C27.4876 34.5537 28.9385 36.2635 30.8217 36.3722C32.7488 36.4836 34.3612 34.974 34.3677 33.0063C34.3808 28.7515 34.3724 24.4967 34.3724 20.2419C34.3724 20.1635 34.3724 20.0832 34.3724 19.9717ZM36.3779 18.2741C36.7476 18.2741 37.038 18.2722 37.3293 18.275C37.9044 18.2807 38.2854 18.6199 38.2844 19.1234C38.2835 19.6269 37.9035 19.967 37.3274 19.9707C36.9119 19.9736 36.4955 19.9717 36.0502 19.9717C36.0502 20.1464 36.0502 20.2853 36.0502 20.4242C36.0502 24.6308 36.0567 28.8384 36.0464 33.045C36.0418 35.0921 34.8038 36.9664 32.9178 37.6966C30.902 38.4769 29.0552 38.1066 27.497 36.5942C26.1563 35.2924 25.7903 33.6543 26.076 31.8273C26.2188 30.911 26.3094 29.9871 26.4289 29.0245C26.2776 29.0245 26.1637 29.0245 26.0507 29.0245C23.9071 29.0245 21.7643 29.0207 19.6207 29.0254C16.2735 29.0339 13.6882 31.6488 13.6789 35.0307C13.6752 36.4921 13.678 37.9535 13.6789 39.415C13.6789 39.5283 13.6892 39.6417 13.6948 39.7598C20.6645 39.7598 27.6034 39.7598 34.5666 39.7598C34.8252 38.4542 35.4116 37.3433 36.4302 36.4893C37.4479 35.6363 38.6317 35.2499 39.9417 35.2395C39.9417 35.1781 39.9463 35.1431 39.9407 35.1091C39.3021 31.1122 38.6635 27.1144 38.0249 23.1174C37.8988 22.3268 38.2265 21.929 39.0211 21.9224C39.5803 21.9177 40.1396 21.9196 40.6988 21.9215C40.9537 21.9224 41.0872 21.8157 41.0854 21.5408C41.0807 20.3864 41.0826 19.2311 41.0844 18.0767C41.0844 17.8282 40.9724 17.7082 40.7241 17.7082C39.6055 17.7111 38.487 17.7016 37.3694 17.7167C36.9848 17.7224 36.6645 17.9038 36.3779 18.2741ZM21.2434 27.3269C21.825 27.3269 22.4076 27.3269 22.9893 27.3269C24.386 27.3269 25.7828 27.3279 27.1805 27.326C27.6081 27.326 27.6594 27.2712 27.6613 26.8338C27.6622 26.5154 27.6697 26.198 27.6585 25.8797C27.6324 25.1117 27.0535 24.5052 26.2963 24.5023C22.9202 24.4919 19.5441 24.4929 16.169 24.5014C15.3968 24.5033 14.818 25.1192 14.7993 25.908C14.7918 26.2141 14.7965 26.5202 14.7974 26.8262C14.7993 27.2778 14.846 27.325 15.3063 27.325C17.2847 27.3279 19.264 27.3269 21.2434 27.3269ZM16.6937 41.4904C16.8608 42.9669 18.5283 44.3027 20.1827 44.3008C21.853 44.2989 23.5009 42.9716 23.6606 41.4904C21.3377 41.4904 19.0166 41.4904 16.6937 41.4904ZM36.2836 39.7654C37.4824 39.7654 38.6112 39.8004 39.7372 39.7484C40.1872 39.7276 40.6652 39.585 41.0639 39.3706C41.7175 39.0191 42.3178 38.5648 42.9387 38.15C42.9574 38.1378 42.9527 38.0915 42.9611 38.049C41.752 36.7623 40.2535 36.7236 38.7251 37.1383C37.4432 37.4859 36.6655 38.4278 36.2836 39.7654Z" fill="white"/>
<path d="M39.9942 46.0012C38.3668 45.9049 36.9514 45.0839 36.0429 43.4279C35.747 42.8876 35.8609 42.3897 36.309 42.146C36.76 41.9004 37.2137 42.0846 37.5153 42.6221C38.1689 43.786 39.1651 44.3858 40.4825 44.281C41.7662 44.1789 42.6588 43.461 43.1312 42.2395C43.2022 42.0553 43.2358 41.8551 43.2825 41.6614C43.4104 41.1258 43.7913 40.8339 44.2544 40.9189C44.7418 41.0096 45.0238 41.4224 44.9239 41.9788C44.627 43.6376 43.7045 44.827 42.2107 45.5582C41.586 45.8661 40.9138 45.9984 39.9942 46.0012Z" fill="white"/>
<path d="M18.977 35.2581C18.442 35.2581 17.9071 35.2628 17.373 35.2562C16.8464 35.2496 16.4842 34.9067 16.4776 34.4259C16.4711 33.9497 16.8343 33.5728 17.3506 33.5662C18.443 33.553 19.5363 33.5539 20.6287 33.5662C21.1478 33.5719 21.51 33.945 21.5063 34.4221C21.5026 34.9067 21.1431 35.2439 20.6156 35.2581C20.5922 35.2591 20.5689 35.2581 20.5456 35.2581C20.0227 35.2581 19.4999 35.2581 18.977 35.2581Z" fill="white"/>
<path d="M18.9984 36.3816C19.5334 36.3816 20.0684 36.3759 20.6024 36.3825C21.1402 36.3891 21.5146 36.7528 21.5062 37.2441C21.4978 37.723 21.1309 38.0725 20.608 38.0754C19.5269 38.082 18.4457 38.082 17.3645 38.0744C16.8463 38.0707 16.4794 37.7098 16.4775 37.2308C16.4757 36.7519 16.8435 36.391 17.3589 36.3825C17.906 36.375 18.4522 36.3816 18.9984 36.3816Z" fill="white"/>
</g>
<defs>
<clipPath id="clip0_1094_1110">
<rect width="33" height="30" fill="white" transform="translate(12 16)"/>
</clipPath>
</defs>
</svg>
