<svg width="63" height="63" viewBox="0 0 63 63" fill="none" xmlns="http://www.w3.org/2000/svg">
<circle cx="31.5" cy="31.5" r="31.5" fill="#FBC000"/>
<path d="M19.0851 24.9231C17.8178 24.3103 17.7482 22.9177 18.1242 21.9567C18.4236 21.1838 19.0781 20.8496 19.8928 20.8496C21.6963 20.8426 23.4998 20.8565 25.3033 20.8426C25.5192 20.8426 25.7489 20.7799 25.9369 20.6825C27.1277 20.0627 28.2975 19.4152 29.4812 18.7885C30.2333 18.3916 31.041 18.1966 31.8836 18.1896C34.8081 18.1827 37.7188 18.1827 40.6224 18.1827C40.7547 18.1827 40.894 18.1827 41.0124 18.1827C41.1447 17.9459 41.2422 17.6952 41.4023 17.5072C41.8967 16.9153 43.554 16.8179 44.1319 17.3401C44.501 17.6674 44.6681 18.0991 44.6681 18.5796C44.682 20.014 44.689 21.4415 44.6681 22.8759C44.6542 23.8577 44.0693 24.4008 43.0805 24.4008C42.9134 24.4008 42.7393 24.4008 42.5722 24.4008C41.6948 24.4008 41.1656 23.9413 41.0263 23.0709C41.0193 23.0291 41.0124 22.9873 40.9985 22.9177C40.6573 22.9177 40.3161 22.9107 39.9818 22.9246C39.9192 22.9246 39.8147 23.0012 39.7938 23.0569C39.4526 24.2198 38.6797 24.93 37.4959 25.2225C37.8511 26.4202 38.1923 27.59 38.5404 28.7668C38.8677 29.867 39.2019 30.9672 39.5153 32.0674C39.5988 32.3668 39.6476 32.6871 39.6476 32.9935C39.6546 37.2898 39.6546 41.5861 39.6546 45.8825C39.6546 46.5997 39.5083 46.7459 38.7772 46.7459C32.1342 46.7459 25.4913 46.7459 18.8484 46.7389C17.6368 46.7389 17.0031 46.0914 17.0031 44.8728C17.0031 40.9734 16.9961 37.067 17.0031 33.1676C17.0031 32.0186 17.3234 30.9184 17.6368 29.8252C18.0963 28.2376 18.5838 26.6569 19.0573 25.0693C19.0642 25.0275 19.0712 24.9858 19.0851 24.9231ZM29.8921 25.0554C29.8851 25.0554 29.8224 25.0415 29.7528 25.0415C26.6542 25.0415 23.5486 25.0415 20.4499 25.0345C20.2132 25.0345 20.1505 25.1459 20.0948 25.3339C19.7118 26.643 19.3219 27.9451 18.9389 29.2542C18.7091 30.0341 18.4097 30.8001 18.2913 31.5939C18.1381 32.6175 18.0824 33.662 18.0754 34.6925C18.0545 38.0836 18.0754 41.4817 18.0754 44.8728C18.0754 45.4856 18.2356 45.6527 18.8553 45.6527C23.6739 45.6527 28.4855 45.6527 33.3041 45.6527C33.4224 45.6527 33.5478 45.6527 33.7079 45.6527C33.7079 45.4856 33.7079 45.3533 33.7079 45.221C33.7079 40.9803 33.7149 36.7397 33.7219 32.4991C33.7219 32.2902 33.7497 32.0674 33.8054 31.8654C34.2859 30.0689 34.7733 28.2794 35.2538 26.4829C35.2816 26.3854 35.2956 26.2809 35.3304 26.1138C34.6758 26.6082 34.084 27.0817 33.4781 27.5204C32.1691 28.4674 30.3656 27.8476 29.9756 26.2948C29.8712 25.9188 29.913 25.4871 29.8921 25.0554ZM28.0886 20.8496C28.7362 20.8496 29.3838 20.8496 30.0383 20.8496C31.3335 20.8496 32.6286 20.8496 33.9308 20.8496C34.2093 20.8496 34.446 20.9262 34.5574 21.2117C34.6619 21.4763 34.5505 21.6921 34.3555 21.8732C34.272 21.9498 34.1954 22.0333 34.1188 22.1099C33.1927 23.036 32.2735 23.9622 31.3474 24.8883C30.9992 25.2364 30.8809 25.6612 31.034 26.1277C31.1803 26.5734 31.5145 26.824 31.9741 26.8937C32.3292 26.9494 32.6356 26.824 32.9141 26.6082C33.7915 25.9397 34.6758 25.2782 35.5393 24.5888C35.9362 24.2755 36.354 24.1293 36.8692 24.1432C37.9694 24.1711 38.6727 23.4887 38.7981 22.3885C38.819 22.2005 38.9861 21.9985 39.1393 21.8662C39.2298 21.7896 39.4178 21.8175 39.564 21.8175C40.0445 21.8105 40.525 21.8175 40.9915 21.8175C40.9915 20.9331 40.9915 20.1045 40.9915 19.2759C40.9079 19.2689 40.8522 19.262 40.7965 19.262C37.7954 19.262 34.8012 19.262 31.8 19.262C31.5981 19.262 31.3961 19.2898 31.2012 19.3316C30.0522 19.5892 29.0913 20.2368 28.0886 20.8496ZM34.7872 44.7962C34.8151 44.8032 34.8429 44.8171 34.8708 44.8241C35.212 44.4759 35.5393 44.1208 35.8944 43.7935C36.0754 43.6264 36.1451 43.4523 36.1451 43.2016C36.1381 40.9595 36.1381 38.7173 36.1381 36.4682C36.1381 35.4097 36.1381 34.3513 36.1381 33.2859C36.1381 32.9378 36.354 32.708 36.6604 32.6941C36.9598 32.6871 37.1896 32.9169 37.2174 33.2581C37.2244 33.3556 37.2174 33.46 37.2174 33.5645C37.2174 36.7885 37.2174 40.0124 37.2174 43.2364C37.2174 43.3548 37.2104 43.515 37.2731 43.5846C37.67 44.0094 38.0878 44.4063 38.5613 44.8798C38.5613 44.7126 38.5613 44.636 38.5613 44.5664C38.5613 40.667 38.5613 36.7676 38.5613 32.8612C38.5613 32.715 38.5335 32.5687 38.4986 32.4295C37.8859 30.3544 37.2731 28.2863 36.6604 26.2113C36.6325 26.1208 36.5907 26.0372 36.528 25.877C36.0197 27.7571 35.5532 29.5536 35.0518 31.3362C34.8569 32.0256 34.7733 32.715 34.7803 33.4322C34.7942 37.0948 34.7872 40.7575 34.7872 44.4271C34.7872 44.5525 34.7872 44.6778 34.7872 44.7962ZM32.6913 22.0124C32.6774 21.9846 32.6634 21.9567 32.6426 21.9358C32.566 21.9358 32.4894 21.9358 32.4128 21.9358C28.2627 21.9358 24.1195 21.9358 19.9694 21.9358C19.8998 21.9358 19.8371 21.9358 19.7675 21.9428C19.3358 21.9846 19.0712 22.2562 19.0364 22.6879C19.0224 22.855 19.0224 23.0291 19.0364 23.1962C19.0642 23.6836 19.3427 23.9622 19.8371 23.9622C23.4023 23.9691 26.9605 23.9622 30.5257 23.9622C30.6232 23.9622 30.7416 23.9482 30.8043 23.8856C31.4379 23.2658 32.0646 22.6391 32.6913 22.0124ZM43.5888 20.7034C43.5888 20.1393 43.5818 19.5753 43.5888 19.0113C43.6027 18.0016 43.4704 18.113 42.7253 18.12C42.1752 18.1269 42.0987 18.1966 42.0987 18.7676C42.0987 19.9861 42.1056 21.1977 42.0987 22.4163C42.0917 23.4747 42.2449 23.3076 42.9969 23.3076C43.5052 23.3076 43.5888 23.224 43.5958 22.6948C43.5888 22.0333 43.5888 21.3649 43.5888 20.7034ZM35.6228 45.6318C36.3331 45.6318 37.0155 45.6318 37.677 45.6318C37.3219 45.2836 36.9737 44.9424 36.6534 44.6291C36.3331 44.9355 35.9849 45.2767 35.6228 45.6318Z" fill="white"/>
</svg>
