<svg width="63" height="63" viewBox="0 0 63 63" fill="none" xmlns="http://www.w3.org/2000/svg">
<circle cx="31.5" cy="31.5" r="31.5" fill="#F5F5F4"/>
<path d="M22.0851 21.9231C20.8178 21.3103 20.7482 19.9177 21.1242 18.9567C21.4236 18.1838 22.0781 17.8496 22.8928 17.8496C24.6963 17.8426 26.4998 17.8565 28.3033 17.8426C28.5192 17.8426 28.7489 17.7799 28.9369 17.6825C30.1277 17.0627 31.2975 16.4152 32.4812 15.7885C33.2333 15.3916 34.041 15.1966 34.8836 15.1896C37.8081 15.1827 40.7188 15.1827 43.6224 15.1827C43.7547 15.1827 43.894 15.1827 44.0124 15.1827C44.1447 14.9459 44.2422 14.6952 44.4023 14.5072C44.8967 13.9153 46.554 13.8179 47.1319 14.3401C47.501 14.6674 47.6681 15.0991 47.6681 15.5796C47.682 17.014 47.689 18.4415 47.6681 19.8759C47.6542 20.8577 47.0693 21.4008 46.0805 21.4008C45.9134 21.4008 45.7393 21.4008 45.5722 21.4008C44.6948 21.4008 44.1656 20.9413 44.0263 20.0709C44.0193 20.0291 44.0124 19.9873 43.9985 19.9177C43.6573 19.9177 43.3161 19.9107 42.9818 19.9246C42.9192 19.9246 42.8147 20.0012 42.7938 20.0569C42.4526 21.2198 41.6797 21.93 40.4959 22.2225C40.8511 23.4202 41.1923 24.59 41.5404 25.7668C41.8677 26.867 42.2019 27.9672 42.5153 29.0674C42.5988 29.3668 42.6476 29.6871 42.6476 29.9935C42.6546 34.2898 42.6546 38.5861 42.6546 42.8825C42.6546 43.5997 42.5083 43.7459 41.7772 43.7459C35.1342 43.7459 28.4913 43.7459 21.8484 43.7389C20.6368 43.7389 20.0031 43.0914 20.0031 41.8728C20.0031 37.9734 19.9961 34.067 20.0031 30.1676C20.0031 29.0186 20.3234 27.9184 20.6368 26.8252C21.0963 25.2376 21.5838 23.6569 22.0573 22.0693C22.0642 22.0275 22.0712 21.9858 22.0851 21.9231ZM32.8921 22.0554C32.8851 22.0554 32.8224 22.0415 32.7528 22.0415C29.6542 22.0415 26.5486 22.0415 23.4499 22.0345C23.2132 22.0345 23.1505 22.1459 23.0948 22.3339C22.7118 23.643 22.3219 24.9451 21.9389 26.2542C21.7091 27.0341 21.4097 27.8001 21.2913 28.5939C21.1381 29.6175 21.0824 30.662 21.0754 31.6925C21.0545 35.0836 21.0754 38.4817 21.0754 41.8728C21.0754 42.4856 21.2356 42.6527 21.8553 42.6527C26.6739 42.6527 31.4855 42.6527 36.3041 42.6527C36.4224 42.6527 36.5478 42.6527 36.7079 42.6527C36.7079 42.4856 36.7079 42.3533 36.7079 42.221C36.7079 37.9803 36.7149 33.7397 36.7219 29.4991C36.7219 29.2902 36.7497 29.0674 36.8054 28.8654C37.2859 27.0689 37.7733 25.2794 38.2538 23.4829C38.2816 23.3854 38.2956 23.2809 38.3304 23.1138C37.6758 23.6082 37.084 24.0817 36.4781 24.5204C35.1691 25.4674 33.3656 24.8476 32.9756 23.2948C32.8712 22.9188 32.913 22.4871 32.8921 22.0554ZM31.0886 17.8496C31.7362 17.8496 32.3838 17.8496 33.0383 17.8496C34.3335 17.8496 35.6286 17.8496 36.9308 17.8496C37.2093 17.8496 37.446 17.9262 37.5574 18.2117C37.6619 18.4763 37.5505 18.6921 37.3555 18.8732C37.272 18.9498 37.1954 19.0333 37.1188 19.1099C36.1927 20.036 35.2735 20.9622 34.3474 21.8883C33.9992 22.2364 33.8809 22.6612 34.034 23.1277C34.1803 23.5734 34.5145 23.824 34.9741 23.8937C35.3292 23.9494 35.6356 23.824 35.9141 23.6082C36.7915 22.9397 37.6758 22.2782 38.5393 21.5888C38.9362 21.2755 39.354 21.1293 39.8692 21.1432C40.9694 21.1711 41.6727 20.4887 41.7981 19.3885C41.819 19.2005 41.9861 18.9985 42.1393 18.8662C42.2298 18.7896 42.4178 18.8175 42.564 18.8175C43.0445 18.8105 43.525 18.8175 43.9915 18.8175C43.9915 17.9331 43.9915 17.1045 43.9915 16.2759C43.9079 16.2689 43.8522 16.262 43.7965 16.262C40.7954 16.262 37.8012 16.262 34.8 16.262C34.5981 16.262 34.3961 16.2898 34.2012 16.3316C33.0522 16.5892 32.0913 17.2368 31.0886 17.8496ZM37.7872 41.7962C37.8151 41.8032 37.8429 41.8171 37.8708 41.8241C38.212 41.4759 38.5393 41.1208 38.8944 40.7935C39.0754 40.6264 39.1451 40.4523 39.1451 40.2016C39.1381 37.9595 39.1381 35.7173 39.1381 33.4682C39.1381 32.4097 39.1381 31.3513 39.1381 30.2859C39.1381 29.9378 39.354 29.708 39.6604 29.6941C39.9598 29.6871 40.1896 29.9169 40.2174 30.2581C40.2244 30.3556 40.2174 30.46 40.2174 30.5645C40.2174 33.7885 40.2174 37.0124 40.2174 40.2364C40.2174 40.3548 40.2104 40.515 40.2731 40.5846C40.67 41.0094 41.0878 41.4063 41.5613 41.8798C41.5613 41.7126 41.5613 41.636 41.5613 41.5664C41.5613 37.667 41.5613 33.7676 41.5613 29.8612C41.5613 29.715 41.5335 29.5687 41.4986 29.4295C40.8859 27.3544 40.2731 25.2863 39.6604 23.2113C39.6325 23.1208 39.5907 23.0372 39.528 22.877C39.0197 24.7571 38.5532 26.5536 38.0518 28.3362C37.8569 29.0256 37.7733 29.715 37.7803 30.4322C37.7942 34.0948 37.7872 37.7575 37.7872 41.4271C37.7872 41.5525 37.7872 41.6778 37.7872 41.7962ZM35.6913 19.0124C35.6774 18.9846 35.6634 18.9567 35.6426 18.9358C35.566 18.9358 35.4894 18.9358 35.4128 18.9358C31.2627 18.9358 27.1195 18.9358 22.9694 18.9358C22.8998 18.9358 22.8371 18.9358 22.7675 18.9428C22.3358 18.9846 22.0712 19.2562 22.0364 19.6879C22.0224 19.855 22.0224 20.0291 22.0364 20.1962C22.0642 20.6836 22.3427 20.9622 22.8371 20.9622C26.4023 20.9691 29.9605 20.9622 33.5257 20.9622C33.6232 20.9622 33.7416 20.9482 33.8043 20.8856C34.4379 20.2658 35.0646 19.6391 35.6913 19.0124ZM46.5888 17.7034C46.5888 17.1393 46.5818 16.5753 46.5888 16.0113C46.6027 15.0016 46.4704 15.113 45.7253 15.12C45.1752 15.1269 45.0987 15.1966 45.0987 15.7676C45.0987 16.9861 45.1056 18.1977 45.0987 19.4163C45.0917 20.4747 45.2449 20.3076 45.9969 20.3076C46.5052 20.3076 46.5888 20.224 46.5958 19.6948C46.5888 19.0333 46.5888 18.3649 46.5888 17.7034ZM38.6228 42.6318C39.3331 42.6318 40.0155 42.6318 40.677 42.6318C40.3219 42.2836 39.9737 41.9424 39.6534 41.6291C39.3331 41.9355 38.9849 42.2767 38.6228 42.6318Z" fill="#958E8E"/>
</svg>
