<svg width="34" height="29" viewBox="0 0 34 29" fill="none" xmlns="http://www.w3.org/2000/svg">
<path d="M16.8196 3.6283C17.4118 3.09771 17.9186 2.57645 18.4933 2.13818C21.3522 -0.0419711 24.5473 -0.587476 27.947 0.651799C31.3049 1.87616 33.2994 4.30342 33.8663 7.71166C34.3673 10.7217 33.4544 13.3709 31.2255 15.5352C26.7007 19.9282 22.1362 24.281 17.5862 28.6497C17.0987 29.1178 16.6219 29.116 16.1364 28.6488C11.6174 24.3006 7.05874 19.9897 2.59598 15.5893C-1.06338 11.9825 -0.841457 6.05743 3.18229 2.6007C6.91822 -0.608923 12.5904 -0.459726 16.1509 2.93919C16.3738 3.15273 16.5812 3.38119 16.8196 3.6283Z" fill="#EB1212"/>
</svg>
