<svg width="34" height="30" viewBox="0 0 34 30" fill="none" xmlns="http://www.w3.org/2000/svg">
<path d="M16.1 5.23692L16.7692 5.93056L17.487 5.28735C17.7176 5.08073 17.9181 4.89303 18.1042 4.7189C18.4528 4.3926 18.7505 4.11394 19.0997 3.84765C21.6976 1.86647 24.5368 1.38735 27.6044 2.5056C30.6269 3.60764 32.3726 5.74084 32.8798 8.79005L32.8799 8.79016C33.3247 11.4625 32.5328 13.7862 30.5289 15.7321C27.2548 18.9108 23.9609 22.0675 20.664 25.2271C19.4073 26.4314 18.1502 27.6362 16.8936 28.8427L16.8936 28.8428C16.8821 28.8538 16.8715 28.8635 16.8618 28.872C16.852 28.8634 16.8413 28.8537 16.8298 28.8425C15.4995 27.5626 14.1676 26.2875 12.8367 25.0134C9.63805 21.9513 6.44561 18.8951 3.2981 15.7916L3.29796 15.7914C0.0670481 12.6069 0.241142 7.36004 3.83393 4.27353L3.83395 4.27352C7.17976 1.39905 12.2711 1.53292 15.4597 4.57614C15.5957 4.70645 15.7161 4.83355 15.8601 4.98546C15.9325 5.06183 16.0108 5.14446 16.1 5.23692Z" stroke="#EB1212" stroke-width="2"/>
</svg>
