<svg width="11" height="13" viewBox="0 0 11 13" fill="none" xmlns="http://www.w3.org/2000/svg">
<g id="Group 646">
<g id="Group 647">
<path id="Vector" d="M1.14546 12.9064C0.999547 12.7245 0.990185 12.499 0.984051 12.2594C0.951768 10.9878 0.966295 9.71583 0.965327 8.44421C0.965004 7.89683 0.979854 7.34984 0.986311 6.80245C0.987925 6.65855 1.0441 6.54797 1.10091 6.42642C1.16645 6.28644 1.27556 6.30839 1.36628 6.26173C2.44646 6.26173 3.52696 6.26448 4.60714 6.25977C4.76016 6.25899 4.81504 6.32761 4.81472 6.5119C4.81181 8.58773 4.81343 10.6636 4.81278 12.7394C4.81278 12.9778 4.79535 12.9974 4.60068 12.9974C3.68708 12.9982 2.77316 12.9974 1.85956 12.9986C1.61873 12.9986 1.37629 13.0217 1.14546 12.9064Z" fill="#484848"/>
<path id="Vector_2" d="M9.17508 6.25977C9.19496 6.26094 9.21516 6.26212 9.23504 6.2629C9.27317 6.30527 9.32204 6.29939 9.36799 6.30527L9.36571 6.30252C9.36962 6.32763 9.38298 6.33744 9.40351 6.33626L9.40481 6.33665C9.56578 6.53985 9.63063 6.77914 9.62965 7.06198C9.62476 8.42751 9.62835 9.79303 9.62867 11.1586C9.62867 11.5701 9.6316 11.982 9.62541 12.3935C9.61987 12.7626 9.42697 12.9987 9.12849 12.9995C8.0157 13.0019 6.90324 12.9991 5.79046 12.9984L5.79176 12.9999C5.7885 12.9415 5.78231 12.883 5.78231 12.8242C5.78198 10.7855 5.78035 8.74682 5.78361 6.70853C5.78427 6.24761 5.69889 6.26526 6.16291 6.26408C7.16718 6.26173 8.17113 6.26133 9.17508 6.25977Z" fill="#484848"/>
<path id="Vector_3" d="M5.78711 5.77027C5.78423 5.17233 5.78136 4.57468 5.77784 3.97673C5.77752 3.92991 5.78871 3.88818 5.82004 3.85156C7.09614 3.85186 8.37191 3.85186 9.648 3.85216C9.80755 3.85216 9.9671 3.85787 10.1263 3.85216C10.3578 3.84376 10.6053 4.06138 10.5909 4.28711C10.5727 4.57558 10.5797 4.86615 10.5906 5.15522C10.5999 5.40166 10.5874 5.63129 10.3259 5.77117L10.3255 5.77147C9.00372 5.77357 7.6819 5.77598 6.35977 5.77748C6.16888 5.77748 5.978 5.77267 5.78711 5.77027Z" fill="#484848"/>
<path id="Vector_4" d="M4.35213 3.65608C4.03341 3.5499 3.70954 3.45878 3.39707 3.33478C2.68573 3.05269 1.99755 2.71712 1.45275 2.12483C1.13881 1.78332 0.912354 1.39546 0.972643 0.88002C1.01565 0.51355 1.21086 0.251672 1.50863 0.125685C1.98763 -0.0763683 2.4817 -0.0173369 2.95483 0.178774C3.81541 0.536132 4.44808 1.18865 4.9484 2.00597C4.96495 2.03331 4.98737 2.05669 5.00722 2.08165C5.04141 2.18386 5.07633 2.28608 5.15427 2.36135L5.1539 2.36175C5.1789 2.41246 5.20463 2.46317 5.22889 2.51467C5.27117 2.60461 5.33697 2.5852 5.36271 2.52022C5.4116 2.39661 5.51122 2.30034 5.5263 2.16009C5.84061 1.62524 6.22146 1.1522 6.68061 0.757995C7.11954 0.381224 7.61104 0.117366 8.17166 0.0222815C8.36759 0.0226777 8.56317 0.0230738 8.7591 0.0230738C9.43588 0.15738 9.68403 0.658949 9.61969 1.19895C9.56749 1.63713 9.30979 1.95764 9.00982 2.24052C8.46538 2.75397 7.83896 3.10261 7.15446 3.34587C6.73759 3.49404 6.3152 3.61765 5.89281 3.74245C5.57813 3.81257 5.26492 3.90013 4.93995 3.8197L4.94032 3.8205C4.85613 3.73651 4.74989 3.74483 4.64733 3.73849V3.74007C4.5613 3.66282 4.45727 3.65727 4.35213 3.65608ZM7.6581 0.817423C7.55516 0.837232 7.46657 0.885566 7.39452 0.968765C7.38312 0.966784 7.37283 0.969557 7.364 0.977877C7.24563 1.02582 7.14858 1.10624 7.0655 1.20766C6.64789 1.52897 6.33578 1.95526 6.04978 2.40533C5.92957 2.5947 5.82553 2.79597 5.74503 3.00951C5.70716 3.10974 5.70973 3.18502 5.84097 3.14619C6.66406 2.90492 7.48863 2.66245 8.21356 2.15454C8.52971 1.93308 8.83153 1.68229 9.00872 1.30631C9.1201 1.06979 9.08518 0.721942 8.73374 0.636367C8.34517 0.542075 8.00108 0.649441 7.6581 0.817423ZM2.14975 0.604276C2.07181 0.60903 2.00417 0.609426 1.93763 0.617746C1.59612 0.660534 1.45495 0.874869 1.55421 1.23381C1.63766 1.53491 1.85713 1.73419 2.07512 1.92119C2.85888 2.59312 3.80071 2.86847 4.74254 3.14183C4.83444 3.16838 4.89878 3.14659 4.84621 3.02615C4.75871 2.82489 4.68446 2.61214 4.56755 2.43187C4.27089 1.97428 3.94886 1.5365 3.52279 1.20489C3.10812 0.881208 2.67433 0.607445 2.14975 0.604276Z" fill="#484848"/>
<path id="Vector_5" d="M0.168202 3.9139C0.431537 3.83629 0.702841 3.85397 0.972871 3.85397C2.17796 3.85397 3.38305 3.85666 4.58782 3.85157C4.74754 3.85097 4.79473 3.89802 4.80206 4.04725C4.82661 4.55097 4.80684 5.0547 4.81354 5.55812C4.81609 5.74181 4.77592 5.77627 4.58495 5.77627C3.2313 5.77657 1.87764 5.77597 0.523991 5.77747C0.359167 5.77777 0.209328 5.75859 0.0955142 5.62764C0.0110304 5.53055 0.00656708 5.41429 0.00369782 5.30401C-0.00459116 4.96 0.00401662 4.6157 0.00146617 4.27139C0.000190942 4.12635 0.0916885 4.02417 0.168202 3.9139Z" fill="#484848"/>
</g>
</g>
</svg>
