<svg width="32" height="32" viewBox="0 0 32 32" fill="none" xmlns="http://www.w3.org/2000/svg">
<circle cx="16" cy="16" r="16" fill="#24A6A4"/>
<path d="M10.1371 21.866C10.1371 21.7752 10.1371 21.7259 10.1371 21.6766C10.1356 18.4063 10.1341 15.1359 10.1333 11.8659C10.1329 11.1593 10.6361 10.666 11.3599 10.666C14.45 10.6668 17.5401 10.6682 20.6298 10.6708C21.3653 10.6716 21.8663 11.1607 21.8663 11.8763C21.8666 13.9238 21.8655 15.9712 21.8643 18.0187C21.864 18.7624 21.371 19.2401 20.6016 19.2408C18.364 19.2427 16.1261 19.2445 13.8885 19.2412C13.6565 19.2408 13.4657 19.3079 13.2862 19.4472C12.292 20.2173 11.294 20.9829 10.2971 21.7497C10.2571 21.7804 10.2152 21.8093 10.1371 21.866Z" fill="white"/>
</svg>
