<svg width="32" height="32" viewBox="0 0 32 32" fill="none" xmlns="http://www.w3.org/2000/svg">
<circle cx="16" cy="16" r="16" fill="#24A6A4"/>
<path d="M8 11.5239C8.0347 11.2841 8.05552 11.0414 8.10677 10.8052C8.27475 10.0309 8.65608 9.37345 9.22319 8.82253C9.48138 8.57191 9.77054 8.36244 10.0707 8.16491C10.332 7.99284 10.6113 7.97485 10.9051 8.0233C11.1567 8.06463 11.3797 8.17346 11.5685 8.34142C11.6459 8.41036 11.7009 8.50619 11.7592 8.59435C12.4164 9.58719 13.0716 10.5813 13.7289 11.5741C13.8485 11.7549 13.9723 11.9327 14.004 12.1541C14.0449 12.44 13.9666 12.6804 13.7316 12.861C13.3129 13.1827 12.9342 13.5423 12.6676 14.0056C12.4274 14.4231 12.3342 14.8636 12.5111 15.3255C12.6061 15.5733 12.7257 15.8139 12.8566 16.0451C13.5595 17.2855 14.5252 18.2741 15.7457 19.0072C16.0998 19.2199 16.4707 19.408 16.8465 19.5799C17.2082 19.7453 17.5693 19.6686 17.8823 19.4482C18.088 19.3034 18.2604 19.1096 18.4407 18.9306C18.632 18.7406 18.8201 18.5466 19 18.3457C19.2626 18.0521 19.7491 17.9446 20.1253 18.1277C20.3338 18.2292 20.524 18.3694 20.7187 18.498C21.5785 19.0658 22.4369 19.6356 23.2957 20.2049C23.355 20.2441 23.4103 20.2899 23.472 20.3246C23.7872 20.5025 23.908 20.8043 23.9778 21.1322C24.0509 21.4765 23.9363 21.777 23.742 22.0595C23.2553 22.767 22.6318 23.3108 21.8453 23.6588C21.2474 23.9235 20.618 24.0234 19.966 23.9955C19.4751 23.9744 18.9998 23.8758 18.5291 23.7375C17.9426 23.5655 17.4262 23.2536 16.9061 22.9487C16.144 22.5021 15.4144 22.0057 14.7096 21.4736C13.9665 20.9126 13.259 20.3096 12.5886 19.6623C11.7724 18.8742 11.0222 18.0281 10.3554 17.1092C9.75755 16.2852 9.23582 15.4154 8.80573 14.4914C8.53579 13.9112 8.29895 13.3179 8.11798 12.7041C8.06388 12.521 8.04911 12.3261 8.01851 12.1364C8.00872 12.0753 8.00605 12.0132 8 11.9514C8 11.8089 8 11.6664 8 11.5239Z" fill="white"/>
</svg>
