<svg width="32" height="32" viewBox="0 0 32 32" fill="none" xmlns="http://www.w3.org/2000/svg">
<circle cx="16" cy="16" r="16" fill="#FBC000"/>
<path d="M16.0168 5C19.9417 5.03323 23.2633 8.02543 23.9139 12.1064C24.1591 13.6444 23.8569 15.0794 23.3052 16.4858C22.4434 18.6825 21.303 20.7194 20.0297 22.6708C18.9336 24.3512 17.7714 25.9838 16.628 27.6297C16.2875 28.1198 15.751 28.1204 15.4014 27.6495C13.4374 25.0042 11.5942 22.2715 10.0332 19.3387C9.27096 17.9068 8.57787 16.4378 8.19248 14.8347C7.7992 13.1971 8.03226 11.6093 8.67619 10.102C9.85664 7.33792 11.8983 5.68751 14.7307 5.13737C15.1532 5.05559 15.5877 5.04409 16.0168 5ZM13.1 12.6821C13.0988 14.3638 14.4018 15.7363 16.0053 15.7414C17.602 15.7465 18.9172 14.3676 18.9172 12.6898C18.9166 10.9985 17.6178 9.61961 16.0235 9.61897C14.4054 9.61769 13.1012 10.9844 13.1 12.6821Z" fill="white"/>
</svg>
