<svg xmlns="http://www.w3.org/2000/svg" width="13" height="18" viewBox="0 0 13 18" fill="none">
    <g clip-path="url(#clip0_1096_4340)">
        <path
            d="M6.36225 17.9999C6.21157 17.8757 6.03936 17.77 5.91416 17.6242C4.4148 15.8753 3.03845 14.0347 1.88966 12.0325C1.22235 10.8689 0.637632 9.66521 0.275203 8.36461C-0.267782 6.41262 -0.0164975 4.56985 1.11121 2.89005C2.18224 1.29348 3.6939 0.336864 5.60401 0.0695218C7.47194 -0.192095 9.15669 0.286214 10.6152 1.47802C11.901 2.52889 12.6668 3.89687 12.9281 5.54849C13.1315 6.83279 12.8869 8.05411 12.444 9.249C11.851 10.8504 11.0022 12.317 10.0612 13.7326C9.15625 15.0944 8.15858 16.3866 7.0915 17.6242C6.96586 17.77 6.79365 17.8757 6.64341 18.0004C6.5494 17.9999 6.45583 17.9999 6.36225 17.9999ZM6.48262 9.79822C8.25435 9.82905 9.73702 8.36769 9.76953 6.55796C9.80203 4.75439 8.35144 3.26573 6.53139 3.23446C4.74736 3.20407 3.26206 4.66807 3.23526 6.48309C3.2089 8.28798 4.65686 9.76651 6.48262 9.79822Z"
            fill="#24A6A4" />
    </g>
    <defs>
        <clipPath id="clip0_1096_4340">
            <rect width="13" height="18" fill="white" />
        </clipPath>
    </defs>
</svg>