<svg width="63" height="63" viewBox="0 0 63 63" fill="none" xmlns="http://www.w3.org/2000/svg">
<circle cx="31.5" cy="31.5" r="31.5" fill="#F5F5F4"/>
<g clip-path="url(#clip0_1088_346)">
<path d="M49.0001 44.1154C48.9767 44.1787 48.9504 44.2421 48.9316 44.3073C48.6078 45.3954 47.7977 46 46.6478 46C42.7373 46.0019 38.8268 46.0009 34.9153 46.0009C28.4526 46.0009 21.9889 46.0009 15.5261 46.0009C13.8308 46.0009 12.8049 44.8383 13.0311 43.1707C13.0743 42.8484 13.2761 42.6789 13.5981 42.6574C13.7698 42.6462 13.9425 42.6556 14.1509 42.6556C14.1509 42.486 14.1472 42.3491 14.1519 42.2131C14.1951 40.7626 14.1547 39.3037 14.3002 37.8634C14.6062 34.8348 15.7626 32.1155 17.6362 29.7119C20.1753 26.4551 23.4889 24.3916 27.5402 23.4991C27.803 23.4414 28.0677 23.3938 28.3333 23.351C28.584 23.3109 28.8365 23.283 29.0937 23.2485C28.5765 21.8437 28.7595 20.9083 29.6719 20.2283C30.467 19.6358 31.5568 19.6348 32.3546 20.2255C33.2614 20.8972 33.4463 21.8409 32.9394 23.2355C37.69 23.869 41.5583 26.0405 44.4785 29.82C47.4053 33.6088 48.1947 37.9762 47.8193 42.6472C48.3102 42.6481 48.7354 42.5987 49.0011 42.9993C49.0001 43.371 49.0001 43.7427 49.0001 44.1154ZM46.7473 42.6388C46.7473 41.5898 46.7858 40.5781 46.736 39.571C46.69 38.646 46.6196 37.7116 46.4366 36.8061C44.7489 28.4655 36.7054 22.9662 28.2536 24.5332C22.0367 25.6856 17.9629 29.4297 15.9504 35.3695C15.1553 37.7162 15.2511 40.1542 15.2858 42.582C15.2858 42.5997 15.3121 42.6174 15.329 42.6388C25.7877 42.6388 36.2492 42.6388 46.7473 42.6388ZM47.854 43.7893C36.6265 43.7893 25.3972 43.7893 14.1669 43.7893C14.2091 44.4973 14.6531 44.8839 15.4088 44.8839C25.8139 44.8849 36.2201 44.8839 46.6253 44.8839C46.6835 44.8839 46.7426 44.8821 46.8008 44.883C47.3359 44.8886 47.9094 44.3501 47.854 43.7893ZM31.0011 23.1265C31.614 23.1311 32.1247 22.6393 32.135 22.0337C32.1453 21.4161 31.6262 20.8944 31.0048 20.8981C30.3975 20.9018 29.8897 21.4086 29.8887 22.0123C29.8887 22.6197 30.39 23.1218 31.0011 23.1265Z" fill="#958E8E"/>
<path d="M23.2654 22.0169C22.7275 22.0123 22.4647 21.5958 22.6458 21.2279C22.6608 21.1971 22.6806 21.1673 22.6993 21.1384C23.5573 19.8668 23.5601 19.1374 22.6787 17.8667C21.9991 16.8857 21.6142 15.8302 21.969 14.6517C22.1155 14.1673 22.4205 13.7183 22.7144 13.2944C22.9143 13.0056 23.2822 13.0121 23.5188 13.2217C23.7582 13.4341 23.7657 13.7415 23.5404 14.0313C22.7904 14.9955 22.7735 15.9131 23.439 16.9928C23.76 17.5136 24.098 18.0465 24.2885 18.6203C24.663 19.7438 24.4321 20.8012 23.6671 21.7207C23.5432 21.8679 23.347 21.9573 23.2654 22.0169Z" fill="#958E8E"/>
<path d="M38.8607 22.1095C38.6711 21.9614 38.4552 21.8738 38.3951 21.7239C38.3285 21.558 38.3322 21.2907 38.427 21.1453C39.2643 19.8541 39.2681 19.1247 38.3801 17.8372C37.6958 16.8451 37.3175 15.7756 37.7071 14.5869C37.861 14.1164 38.1642 13.6823 38.458 13.2724C38.6523 13.0013 39.0043 13.0171 39.2352 13.2212C39.4699 13.428 39.5103 13.7429 39.2794 13.999C38.3792 14.9931 38.5988 16.1697 39.2043 17.0435C39.6182 17.6407 39.9909 18.2546 40.1129 18.9831C40.2828 19.9995 40.066 20.9236 39.3901 21.7173C39.2634 21.8655 39.07 21.9577 38.8607 22.1095Z" fill="#958E8E"/>
<path d="M31.03 13C31.2055 13.1369 31.4204 13.2236 31.4824 13.3736C31.55 13.5385 31.5218 13.777 31.4552 13.953C31.3838 14.1412 31.1961 14.2819 31.0975 14.4635C30.6404 15.3076 30.7962 16.119 31.2599 16.9062C31.3369 17.0366 31.4317 17.1559 31.5012 17.2891C31.6457 17.5667 31.5838 17.8173 31.3369 17.9971C31.0853 18.1806 30.8 18.1611 30.6094 17.9254C29.5103 16.5615 29.3328 14.6899 30.5343 13.3316C30.6489 13.2031 30.83 13.1314 31.03 13Z" fill="#958E8E"/>
<path d="M45.6258 39.4965C45.6258 39.5897 45.6267 39.6819 45.6258 39.775C45.6211 40.184 45.408 40.4272 45.0579 40.4225C44.7219 40.4188 44.536 40.1887 44.4994 39.7965C44.4177 38.9198 44.413 38.0218 44.2093 37.1722C42.9055 31.7354 39.5113 28.2717 34.067 26.8445C33.1283 26.5985 32.1267 26.5808 31.1515 26.483C30.6981 26.4374 30.454 26.2753 30.4512 25.924C30.4475 25.5598 30.7084 25.3586 31.1777 25.3614C38.2065 25.4154 44.2966 30.596 45.4212 37.488C45.5291 38.1513 45.5817 38.823 45.6596 39.4909C45.6474 39.4937 45.6371 39.4956 45.6258 39.4965Z" fill="#958E8E"/>
</g>
<defs>
<clipPath id="clip0_1088_346">
<rect width="36" height="33" fill="white" transform="translate(13 13)"/>
</clipPath>
</defs>
</svg>
