<svg width="14" height="14" viewBox="0 0 14 14" fill="none" xmlns="http://www.w3.org/2000/svg">
<g id="Frame" clip-path="url(#clip0_2971_149)">
<g id="Group">
<path id="Vector" d="M7.13942 0.000622859C7.41974 0.208035 7.70567 0.407973 7.9779 0.624728C8.15419 0.764871 8.33547 0.789785 8.54415 0.732482C8.80517 0.660853 9.06805 0.595453 9.33155 0.531299C9.62558 0.459047 9.76138 0.514482 9.91774 0.769854C10.076 1.02772 10.2155 1.29866 10.3924 1.54282C10.4697 1.64933 10.6098 1.74276 10.7382 1.77328C11.0309 1.84366 11.3331 1.87356 11.6321 1.91778C11.9217 1.96076 12.0395 2.0791 12.08 2.36437C12.123 2.66334 12.1541 2.96605 12.2245 3.2588C12.2556 3.38711 12.3472 3.5285 12.4537 3.60573C12.6979 3.78262 12.9689 3.92214 13.2268 4.07973C13.4822 4.23606 13.5383 4.37247 13.4679 4.66521C13.4043 4.92868 13.3402 5.19215 13.2673 5.45313C13.2087 5.66241 13.2318 5.84366 13.3726 6.01931C13.557 6.24914 13.7245 6.49268 13.9002 6.72999C14.0317 6.90813 14.0335 7.08689 13.9021 7.26565C13.7227 7.50919 13.5495 7.75833 13.3607 7.99502C13.2305 8.15758 13.2106 8.32825 13.2586 8.51884C13.3234 8.77421 13.3863 9.02959 13.4504 9.28496C13.5408 9.64435 13.4984 9.75148 13.1888 9.93896C12.9434 10.0878 12.6867 10.2211 12.4562 10.3905C12.3497 10.469 12.2556 10.6079 12.2245 10.7356C12.1535 11.0283 12.1223 11.331 12.08 11.63C12.0389 11.9178 11.9236 12.0349 11.6339 12.0772C11.3349 12.1215 11.0322 12.1514 10.7394 12.2224C10.6111 12.2535 10.4703 12.3457 10.3924 12.4522C10.2192 12.6895 10.0834 12.9536 9.93082 13.2052C9.76014 13.4855 9.63119 13.5378 9.30975 13.4581C9.04687 13.3927 8.78399 13.3254 8.52173 13.2582C8.33111 13.209 8.1598 13.227 7.99721 13.3572C7.77357 13.5366 7.53873 13.7035 7.30575 13.8704C7.06404 14.0436 6.9326 14.0424 6.69464 13.8704C6.46166 13.7023 6.22619 13.5372 6.00193 13.3578C5.83934 13.2283 5.66865 13.2083 5.47741 13.2576C5.21515 13.3254 4.95227 13.3921 4.68939 13.4575C4.3667 13.5378 4.23713 13.4855 4.06832 13.2065C3.91943 12.9611 3.79111 12.7007 3.61917 12.4727C3.53134 12.3563 3.37872 12.256 3.23669 12.2199C2.94515 12.1457 2.64178 12.119 2.34277 12.0741C2.08549 12.0361 1.96028 11.9122 1.92103 11.6531C1.87618 11.3541 1.85002 11.0508 1.77589 10.7586C1.73976 10.6173 1.64009 10.4634 1.5236 10.3762C1.28937 10.1999 1.02275 10.0666 0.771705 9.9128C0.515053 9.75584 0.460234 9.62192 0.531873 9.32794C0.596036 9.06509 0.661445 8.80162 0.733083 8.54064C0.790394 8.33198 0.766099 8.14949 0.625314 7.97446C0.440923 7.74463 0.273352 7.50109 0.098305 7.26378C-0.0337587 7.08502 -0.0343817 6.90813 0.098305 6.72874C0.273975 6.49206 0.440923 6.2479 0.625314 6.01806C0.766099 5.84304 0.790394 5.66054 0.733083 5.45188C0.660822 5.19091 0.596036 4.92744 0.531873 4.66459C0.459611 4.36936 0.51443 4.23731 0.771705 4.08035C1.0296 3.92277 1.29996 3.782 1.54353 3.60448C1.65005 3.52663 1.74287 3.38586 1.7734 3.25755C1.84379 2.96481 1.87494 2.6621 1.91792 2.36313C1.95903 2.07661 2.08051 1.95515 2.36457 1.91467C2.66358 1.87231 2.96633 1.84117 3.25911 1.77079C3.38744 1.73965 3.52885 1.64808 3.60609 1.54158C3.78301 1.29742 3.92255 1.02709 4.08015 0.768608C4.23589 0.513236 4.37169 0.457801 4.66634 0.530053C4.92922 0.59483 5.1921 0.66023 5.45374 0.731859C5.66242 0.789162 5.84432 0.764248 6.01999 0.624105C6.29284 0.40735 6.57877 0.207412 6.8591 0C6.95254 0.000622859 7.04598 0.000622859 7.13942 0.000622859ZM4.13248 10.3326C4.28261 10.2249 4.41779 10.1532 4.52182 10.0492C6.35887 8.218 8.19219 6.38244 10.0268 4.54749C10.3071 4.26721 10.3507 4.01682 10.1526 3.82934C9.96197 3.64871 9.7265 3.69604 9.45116 3.97135C7.6222 5.80006 5.79324 7.62878 3.96491 9.45874C3.8995 9.52414 3.80543 9.58954 3.78799 9.66864C3.75871 9.80255 3.73816 9.96761 3.79297 10.0816C3.84219 10.1844 3.99605 10.2379 4.13248 10.3326ZM9.045 10.6901C9.96633 10.6951 10.6883 9.98131 10.6908 9.06384C10.6933 8.15945 9.97567 7.42448 9.08113 7.41514C8.1735 7.40579 7.42286 8.1389 7.41725 9.03831C7.41227 9.95515 8.13177 10.6858 9.045 10.6901ZM3.3077 4.9374C3.30646 5.85301 4.03032 6.57988 4.94355 6.57926C5.84245 6.57864 6.57628 5.85114 6.58064 4.95671C6.58562 4.04298 5.86052 3.30925 4.9504 3.30676C4.02969 3.30427 3.30895 4.01931 3.3077 4.9374Z" fill="#484848"/>
<path id="Vector_2" d="M9.04715 9.88528C8.59677 9.88092 8.21615 9.49288 8.22425 9.04691C8.23297 8.59783 8.62418 8.21664 9.06833 8.22474C9.52121 8.23346 9.89311 8.61651 9.8875 9.06809C9.8819 9.52215 9.50377 9.88964 9.04715 9.88528Z" fill="#484848"/>
<path id="Vector_3" d="M4.11134 4.93778C4.11258 4.48621 4.49258 4.10813 4.94359 4.10938C5.39148 4.11062 5.77646 4.49742 5.77459 4.94339C5.77272 5.38873 5.38214 5.77739 4.93798 5.77428C4.48884 5.77117 4.10947 5.38748 4.11134 4.93778Z" fill="#484848"/>
</g>
</g>
<defs>
<clipPath id="clip0_2971_149">
<rect width="14" height="14" fill="white"/>
</clipPath>
</defs>
</svg>
