<svg width="16" height="16" viewBox="0 0 16 16" fill="none" xmlns="http://www.w3.org/2000/svg">
<g id="Frame" clip-path="url(#clip0_862_1962)">
<path id="Vector" d="M7.07584 5.90218C7.07584 6.74125 7.07799 7.57989 7.07326 8.41896C7.0724 8.53393 7.10726 8.59293 7.21057 8.64629C8.70158 9.41855 10.19 10.1956 11.6793 10.9713C11.7439 11.0047 11.8084 11.0394 11.8764 11.0641C12.167 11.1683 12.467 11.0134 12.5548 10.7166C12.6336 10.4494 12.5204 10.2242 12.2242 10.0698C10.9015 9.3795 9.5788 8.68881 8.25393 8.00246C8.15407 7.95083 8.11318 7.8966 8.11447 7.77816C8.12136 7.1122 8.11792 6.44667 8.11792 5.78071C8.11792 4.97331 8.11921 4.16591 8.11705 3.35852C8.11619 3.0097 7.8278 2.77151 7.49293 2.83703C7.22735 2.88909 7.07713 3.09907 7.0767 3.43314C7.07455 4.25572 7.07584 5.07874 7.07584 5.90218ZM15.6117 5.68049C15.5609 5.4371 15.4865 5.13731 15.301 4.88567C15.1464 4.67656 14.8473 4.60844 14.5959 4.69825C14.3471 4.78719 14.1392 5.03709 14.1857 5.2974C14.2369 5.5833 14.3359 5.87225 14.4719 6.12822C14.5989 6.36641 14.9183 6.43495 15.1761 6.34949C15.4309 6.26575 15.6096 6.01629 15.6117 5.68049ZM15.6483 10.321C15.6457 9.95696 15.4443 9.70185 15.1555 9.63678C14.8555 9.5691 14.5516 9.70706 14.4311 9.98429C14.3523 10.1652 14.2886 10.3544 14.2382 10.5453C14.1573 10.8511 14.3067 11.1448 14.5955 11.2806C14.8692 11.4095 15.202 11.3362 15.372 11.0811C15.5351 10.8372 15.6066 10.5518 15.6483 10.321ZM10.4035 15.2547C10.4078 14.8729 10.1069 14.5762 9.72299 14.6078C9.52844 14.6239 9.33431 14.6712 9.14622 14.7246C8.8079 14.8209 8.61463 15.1649 8.69943 15.4938C8.79068 15.8474 9.11867 16.0534 9.47248 15.9792C9.6042 15.9515 9.73591 15.9241 9.86719 15.8946C10.1947 15.8196 10.4001 15.5745 10.4035 15.2547ZM13.5995 13.5384C13.7213 13.4885 13.8736 13.469 13.9593 13.3826C14.144 13.1961 14.3222 12.9913 14.4517 12.7644C14.6054 12.4954 14.4905 12.1527 14.2382 11.9761C13.9817 11.7965 13.627 11.8243 13.4144 12.0555C13.2809 12.2008 13.1565 12.357 13.0468 12.5215C12.9082 12.7293 12.9095 12.9579 13.0274 13.1753C13.1458 13.3939 13.3369 13.505 13.5995 13.5384ZM11.7598 15.1137C12.0486 15.0413 12.3727 14.8725 12.5991 14.5662C12.7649 14.3419 12.7192 14.0252 12.5359 13.8113C12.3538 13.5991 12.0473 13.5167 11.802 13.6399C11.613 13.7349 11.4301 13.8486 11.2614 13.977C11.0337 14.1497 10.9674 14.4452 11.0702 14.7102C11.168 14.9623 11.4064 15.1215 11.7598 15.1137ZM15.9995 8.02545C15.9944 8.02502 15.9896 8.02415 15.9845 8.02372C15.9845 7.93478 15.9875 7.84584 15.9841 7.7569C15.9694 7.40765 15.6948 7.13042 15.3569 7.12131C15.0126 7.11176 14.7285 7.3647 14.7027 7.72046C14.6893 7.90224 14.6966 8.08619 14.7065 8.26841C14.7246 8.59857 14.9639 8.83459 15.3091 8.8745C15.573 8.90487 15.8696 8.7066 15.9496 8.42633C15.9862 8.29835 15.9841 8.15951 15.9995 8.02545Z" fill="white"/>
<path id="Vector_2" d="M0 7.55905C0.0404606 7.26012 0.0740342 6.95946 0.123103 6.66184C0.272463 5.75509 0.584526 4.90605 1.03045 4.10559C1.63951 3.01185 2.4625 2.11421 3.48434 1.40443C4.37103 0.788365 5.34811 0.375772 6.40568 0.166222C8.51566 -0.25201 10.4814 0.1198 12.3022 1.27254C12.3461 1.30031 12.3904 1.32721 12.4433 1.35975C12.5936 1.14239 12.7412 0.928499 12.8897 0.71461C12.9194 0.671659 12.9482 0.627406 12.9831 0.589227C13.1097 0.450829 13.2401 0.470786 13.3012 0.651268C13.3782 0.878172 13.4368 1.11158 13.5009 1.34326C13.6348 1.82657 13.7686 2.30945 13.8986 2.79363C13.9774 3.08778 13.8302 3.28344 13.5285 3.30947C12.8708 3.36674 12.2139 3.42922 11.5567 3.48909C11.4947 3.49473 11.4318 3.4982 11.3698 3.49777C11.1495 3.49646 11.0789 3.37195 11.2003 3.18105C11.3346 2.96934 11.4813 2.76542 11.6225 2.55848C11.6462 2.52377 11.6686 2.48906 11.7034 2.43657C11.5674 2.35196 11.4361 2.26389 11.2988 2.18537C10.5408 1.75108 9.72818 1.46517 8.86388 1.36452C7.01044 1.14803 5.32272 1.58969 3.84978 2.75892C2.52792 3.80797 1.69203 5.1746 1.40837 6.8497C1.05972 8.90919 1.53492 10.7743 2.85677 12.3904C3.84203 13.5952 5.11611 14.3453 6.63252 14.6729C6.69321 14.6859 6.75519 14.6959 6.81545 14.7111C7.17486 14.8013 7.40041 15.1402 7.32465 15.476C7.24158 15.8447 6.91144 16.0625 6.53438 15.9849C4.02066 15.4642 2.14226 14.0677 0.913376 11.8004C0.44937 10.944 0.17906 10.0159 0.0624126 9.04542C0.0443344 8.89618 0.0210911 8.7478 0.000430431 8.59899C0 8.25147 0 7.90526 0 7.55905Z" fill="black"/>
<path id="Vector_3" d="M7.07627 5.90262C7.07627 5.0796 7.07498 4.25615 7.0767 3.43314C7.07756 3.09907 7.22735 2.88909 7.49293 2.83703C7.8278 2.77151 8.11619 3.0097 8.11705 3.35852C8.11921 4.16591 8.11792 4.97331 8.11792 5.78071C8.11792 6.44667 8.12136 7.11263 8.11447 7.77816C8.11318 7.8966 8.15407 7.95083 8.25393 8.00246C9.5788 8.68881 10.9015 9.3795 12.2242 10.0698C12.5204 10.2242 12.6336 10.4494 12.5548 10.7166C12.4674 11.0134 12.1674 11.1683 11.8764 11.0641C11.8084 11.0399 11.7439 11.0051 11.6793 10.9713C10.19 10.1956 8.70158 9.41855 7.21057 8.64629C7.10726 8.59293 7.0724 8.53393 7.07326 8.41896C7.07842 7.58032 7.07627 6.74125 7.07627 5.90262Z" fill="black"/>
<path id="Vector_4" d="M15.6123 5.68074C15.6101 6.01654 15.4315 6.26557 15.1767 6.35017C14.9184 6.43564 14.599 6.36709 14.4725 6.12891C14.336 5.87294 14.2375 5.58399 14.1862 5.29808C14.1397 5.03777 14.3476 4.78787 14.5964 4.69894C14.8478 4.60913 15.147 4.67681 15.3015 4.88636C15.487 5.13799 15.5619 5.43735 15.6123 5.68074Z" fill="black"/>
<path id="Vector_5" d="M15.6487 10.3215C15.6074 10.5523 15.5355 10.8373 15.3724 11.0824C15.2024 11.3375 14.8697 11.4109 14.5959 11.282C14.3071 11.1462 14.1577 10.8521 14.2386 10.5466C14.2894 10.3557 14.3531 10.1666 14.4315 9.98565C14.5524 9.70799 14.8559 9.57046 15.1559 9.63814C15.4443 9.70235 15.6462 9.95789 15.6487 10.3215Z" fill="black"/>
<path id="Vector_6" d="M10.4037 15.255C10.4002 15.5752 10.1953 15.8203 9.86734 15.8945C9.73606 15.9245 9.60435 15.9518 9.47264 15.9791C9.11882 16.0538 8.79083 15.8472 8.69958 15.4937C8.61479 15.1652 8.80805 14.8212 9.14637 14.7244C9.3349 14.6706 9.52902 14.6238 9.72315 14.6077C10.1067 14.5765 10.4075 14.8732 10.4037 15.255Z" fill="black"/>
<path id="Vector_7" d="M13.6002 13.5387C13.3377 13.5053 13.1466 13.3942 13.0282 13.1755C12.9103 12.9582 12.9085 12.7295 13.0476 12.5217C13.1569 12.3573 13.2813 12.2011 13.4152 12.0558C13.6282 11.8245 13.9825 11.7968 14.239 11.9764C14.4912 12.1529 14.6062 12.4953 14.4525 12.7647C14.3229 12.9916 14.1447 13.1964 13.9601 13.3829C13.8744 13.4692 13.7221 13.4888 13.6002 13.5387Z" fill="black"/>
<path id="Vector_8" d="M11.7606 15.1134C11.4072 15.1212 11.1683 14.962 11.0706 14.7099C10.9677 14.4444 11.034 14.1494 11.2617 13.9767C11.4304 13.8487 11.6134 13.7346 11.8023 13.6396C12.0477 13.5164 12.3537 13.5988 12.5362 13.811C12.72 14.0249 12.7652 14.3416 12.5995 14.5659C12.3735 14.8722 12.0494 15.0405 11.7606 15.1134Z" fill="black"/>
<path id="Vector_9" d="M16.0002 8.0255C15.9848 8.15956 15.9869 8.29839 15.9503 8.42638C15.8703 8.70665 15.5733 8.90492 15.3098 8.87455C14.9646 8.83507 14.7253 8.59905 14.7072 8.26846C14.6973 8.08624 14.6904 7.90185 14.7034 7.7205C14.7292 7.36475 15.0133 7.11181 15.3576 7.12136C15.6951 7.13047 15.9697 7.4077 15.9848 7.75695C15.9886 7.84589 15.9852 7.93483 15.9852 8.02377C15.9903 8.0242 15.9955 8.02463 16.0002 8.0255Z" fill="black"/>
</g>
<defs>
<clipPath id="clip0_862_1962">
<rect width="16" height="16" fill="white"/>
</clipPath>
</defs>
</svg>
