<svg width="63" height="63" viewBox="0 0 63 63" fill="none" xmlns="http://www.w3.org/2000/svg">
<circle cx="31.5" cy="31.5" r="31.5" fill="#E77F76"/>
<g clip-path="url(#clip0_2119_2)">
<path d="M23.6184 40.5215C23.7101 39.3708 23.7058 38.2645 23.9031 37.2013C24.2881 35.1285 25.4088 33.5662 27.1118 32.4804C27.4498 32.2643 28.0065 32.1325 27.8988 31.6162C27.8316 31.291 27.4339 30.9897 27.1214 30.7862C24.8383 29.2933 23.7549 27.0977 23.6994 24.2812C23.6877 23.6832 23.6973 23.084 23.6973 22.6166C23.2206 22.3142 22.7674 22.1379 22.4699 21.8037C22.2247 21.5274 22.0882 21.0748 22.0391 20.6803C21.9677 20.1061 22.0082 19.5148 22.0167 18.9315C22.037 17.7183 22.7099 17.0065 23.8573 17.0042C26.971 16.9974 30.0848 17.002 33.1986 17.002C34.5156 17.002 35.8336 16.9963 37.1506 17.0042C38.3214 17.0111 38.9815 17.7228 38.9965 18.9804C39.0018 19.4364 38.9997 19.8923 38.9975 20.3483C38.9911 21.5922 38.5475 22.1743 37.3148 22.4654C37.3148 22.9793 37.3191 23.5183 37.3137 24.0573C37.302 25.101 37.1996 26.1255 36.8328 27.1102C36.2431 28.6929 35.2652 29.9039 33.8982 30.7862C33.5846 30.9886 33.1837 31.2876 33.1144 31.6128C33.0045 32.1268 33.5612 32.2598 33.8982 32.4792C36.1834 33.9653 37.2625 36.1678 37.3127 38.9842C37.3223 39.4925 37.3137 40.0007 37.3137 40.4942C38.6733 40.9126 38.9965 41.3754 38.9965 42.8535C38.9965 43.3095 39.0061 43.7666 38.989 44.2214C38.9549 45.1378 38.4057 45.8041 37.5622 45.9531C37.3447 45.9917 37.1197 45.9986 36.8989 45.9997C32.6388 46.002 28.3797 46.002 24.1196 46.0008C22.6363 46.0008 22.0199 45.3493 22.0167 43.7882C22.0156 43.4596 22.0167 43.131 22.0167 42.8035C22.0178 41.3788 22.3697 40.8876 23.6184 40.5215ZM35.5745 22.4813C32.1685 22.4813 28.8105 22.4813 25.427 22.4813C25.427 23.2704 25.4067 24.0163 25.4312 24.7611C25.4739 26.0698 25.9058 27.2409 26.7727 28.1551C27.3112 28.7225 27.982 29.1512 28.6111 29.6151C29.6306 30.3666 29.9803 31.7311 29.3075 32.826C29.0227 33.2888 28.5535 33.6686 28.0961 33.954C25.6434 35.4844 25.1678 37.8949 25.4909 40.5147C28.8511 40.5147 32.2112 40.5147 35.5894 40.5147C35.5894 39.804 35.6182 39.1297 35.5841 38.46C35.503 36.8875 34.8877 35.5777 33.7478 34.5782C33.3287 34.2109 32.835 33.9403 32.3818 33.6174C31.4466 32.9511 31.132 31.7243 31.5863 30.6282C31.8529 29.9846 32.3871 29.6719 32.8872 29.2865C33.4759 28.8328 34.0794 28.3575 34.5444 27.7719C35.76 26.2347 35.6523 24.3642 35.5745 22.4813ZM23.725 20.5882C28.2795 20.5882 32.7731 20.5882 37.2892 20.5882C37.2892 19.998 37.2892 19.4409 37.2892 18.844C32.7582 18.844 28.2528 18.844 23.725 18.844C23.725 19.4409 23.725 19.998 23.725 20.5882ZM37.286 42.4101C32.7561 42.4101 28.256 42.4101 23.7282 42.4101C23.7282 43.0013 23.7282 43.5562 23.7282 44.1418C28.2582 44.1418 32.7593 44.1418 37.286 44.1418C37.286 43.5562 37.286 43.0013 37.286 42.4101Z" fill="white"/>
</g>
<defs>
<clipPath id="clip0_2119_2">
<rect width="17" height="29" fill="white" transform="translate(22 17)"/>
</clipPath>
</defs>
</svg>
