<svg width="63" height="63" viewBox="0 0 63 63" fill="none" xmlns="http://www.w3.org/2000/svg">
<circle cx="31.5" cy="31.5" r="31.5" fill="#E77F76"/>
<g clip-path="url(#clip0_5298_6068)">
<path d="M23.6189 40.5215C23.7106 39.3708 23.7063 38.2645 23.9036 37.2013C24.2886 35.1285 25.4093 33.5662 27.1123 32.4804C27.4503 32.2643 28.007 32.1325 27.8993 31.6162C27.8321 31.291 27.4343 30.9897 27.1219 30.7862C24.8388 29.2933 23.7554 27.0977 23.6999 24.2812C23.6882 23.6832 23.6978 23.084 23.6978 22.6166C23.2211 22.3142 22.7679 22.1379 22.4704 21.8037C22.2251 21.5274 22.0887 21.0748 22.0396 20.6803C21.9682 20.1061 22.0087 19.5148 22.0172 18.9315C22.0375 17.7183 22.7103 17.0065 23.8578 17.0042C26.9715 16.9974 30.0853 17.002 33.1991 17.002C34.5161 17.002 35.8341 16.9963 37.1511 17.0042C38.3219 17.0111 38.982 17.7228 38.9969 18.9804C39.0023 19.4364 39.0001 19.8923 38.998 20.3483C38.9916 21.5922 38.548 22.1743 37.3153 22.4654C37.3153 22.9793 37.3196 23.5183 37.3142 24.0573C37.3025 25.101 37.2001 26.1255 36.8333 27.1102C36.2436 28.6929 35.2657 29.9039 33.8986 30.7862C33.5851 30.9886 33.1842 31.2876 33.1149 31.6128C33.005 32.1268 33.5617 32.2598 33.8986 32.4792C36.1839 33.9653 37.263 36.1678 37.3132 38.9842C37.3228 39.4925 37.3142 40.0007 37.3142 40.4942C38.6738 40.9126 38.9969 41.3754 38.9969 42.8535C38.9969 43.3095 39.0065 43.7666 38.9895 44.2214C38.9554 45.1378 38.4062 45.8041 37.5627 45.9531C37.3451 45.9917 37.1201 45.9986 36.8994 45.9997C32.6393 46.002 28.3802 46.002 24.1201 46.0008C22.6368 46.0008 22.0204 45.3493 22.0172 43.7882C22.0161 43.4596 22.0172 43.131 22.0172 42.8035C22.0183 41.3788 22.3702 40.8876 23.6189 40.5215ZM35.575 22.4813C32.169 22.4813 28.811 22.4813 25.4274 22.4813C25.4274 23.2704 25.4072 24.0163 25.4317 24.7611C25.4744 26.0698 25.9062 27.2409 26.7732 28.1551C27.3117 28.7225 27.9825 29.1512 28.6116 29.6151C29.6311 30.3666 29.9808 31.7311 29.3079 32.826C29.0232 33.2888 28.554 33.6686 28.0966 33.954C25.6439 35.4844 25.1683 37.8949 25.4914 40.5147C28.8515 40.5147 32.2117 40.5147 35.5899 40.5147C35.5899 39.804 35.6187 39.1297 35.5846 38.46C35.5035 36.8875 34.8882 35.5777 33.7483 34.5782C33.3292 34.2109 32.8355 33.9403 32.3823 33.6174C31.4471 32.9511 31.1325 31.7243 31.5868 30.6282C31.8534 29.9846 32.3876 29.6719 32.8877 29.2865C33.4764 28.8328 34.0799 28.3575 34.5449 27.7719C35.7605 26.2347 35.6528 24.3642 35.575 22.4813ZM23.7255 20.5882C28.28 20.5882 32.7736 20.5882 37.2897 20.5882C37.2897 19.998 37.2897 19.4409 37.2897 18.844C32.7587 18.844 28.2533 18.844 23.7255 18.844C23.7255 19.4409 23.7255 19.998 23.7255 20.5882ZM37.2865 42.4101C32.7566 42.4101 28.2565 42.4101 23.7287 42.4101C23.7287 43.0013 23.7287 43.5562 23.7287 44.1418C28.2586 44.1418 32.7598 44.1418 37.2865 44.1418C37.2865 43.5562 37.2865 43.0013 37.2865 42.4101Z" fill="white"/>
</g>
<defs>
<clipPath id="clip0_5298_6068">
<rect width="17" height="29" fill="white" transform="translate(22 17)"/>
</clipPath>
</defs>
</svg>
