<svg width="20" height="20" viewBox="0 0 20 20" fill="none" xmlns="http://www.w3.org/2000/svg">
<path d="M2.0085 20C1.34734 20 0.706186 20 0 20C0.21344 16.1125 2.2603 13.364 6.07637 11.6474C4.08204 10.2926 2.98983 8.51143 3.02985 6.23256C3.05986 4.50688 3.77189 3.01145 5.14007 1.81692C7.95731 -0.642798 12.2853 -0.587327 14.9708 1.87543C17.8047 4.47421 17.8323 9.19456 13.9411 11.6642C15.7646 12.4066 17.2345 13.5152 18.3325 15.0145C19.428 16.5106 19.9725 18.1672 20 19.9894C19.3388 19.9894 18.6902 19.9894 18.0123 19.9894C17.9215 17.5144 16.8167 15.5 14.584 14.0494C13.1416 13.1125 11.5066 12.6953 9.73737 12.7455C5.63448 12.8632 2.09688 15.8693 2.0085 20ZM10.0083 10.9096C12.7856 10.9104 15.0042 8.88985 15.0025 6.3625C15.0008 3.85187 12.7806 1.82148 10.0317 1.81616C7.26196 1.81084 5.02751 3.83287 5.01667 6.3549C5.00667 8.87237 7.23862 10.9088 10.0083 10.9096Z" fill="#ffffff"/>
</svg>
