<svg width="20" height="11" viewBox="0 0 20 11" fill="none" xmlns="http://www.w3.org/2000/svg">
<path d="M1.67225e-06 5.37843C0.060148 5.12389 0.221683 4.94006 0.395248 4.75977C1.84391 3.27498 3.29086 1.78666 4.73608 0.29657C4.97667 0.0491059 5.24647 -0.0693234 5.58157 0.0420355C6.09367 0.209958 6.27926 0.848062 5.94416 1.27936C5.89777 1.33769 5.84793 1.39248 5.79466 1.44551C4.78592 2.48133 3.77546 3.51714 2.76501 4.55119C2.72377 4.59361 2.67393 4.62543 2.62753 4.66255C2.6344 4.68022 2.643 4.69613 2.64987 4.71381C2.71002 4.71381 2.76845 4.71381 2.82859 4.71381C6.59374 4.71381 15.3572 4.71558 19.1223 4.71204C19.3956 4.71204 19.6361 4.7686 19.8149 4.99486C20.0125 5.24762 20.0555 5.53221 19.9266 5.8274C19.8028 6.11198 19.576 6.26223 19.2701 6.28167C19.2014 6.28521 19.1326 6.28344 19.0656 6.28344C15.3211 6.28344 6.57656 6.28344 2.83031 6.28344C2.7736 6.28344 2.71517 6.28344 2.62066 6.28344C2.6808 6.34884 2.71689 6.39126 2.7547 6.43192C3.7789 7.48718 4.80482 8.54067 5.82903 9.59769C6.12632 9.90526 6.19334 10.2499 6.02493 10.5805C5.80841 11.0029 5.26537 11.132 4.89246 10.8492C4.82544 10.7997 4.7653 10.7396 4.70687 10.6795C3.28742 9.22119 1.86969 7.75939 0.44852 6.30288C0.261207 6.11021 0.0790517 5.91931 1.66035e-06 5.65064C1.66429e-06 5.56049 1.66823e-06 5.47034 1.67225e-06 5.37843Z" fill="#1F94A4"/>
</svg>
