<svg width="20" height="11" viewBox="0 0 20 11" fill="none" xmlns="http://www.w3.org/2000/svg">
<path d="M20 5.37843C19.9399 5.12389 19.7783 4.94006 19.6048 4.75977C18.1561 3.27498 16.7091 1.78666 15.2639 0.29657C15.0233 0.0491059 14.7535 -0.0693234 14.4184 0.0420355C13.9063 0.209958 13.7207 0.848062 14.0558 1.27936C14.1022 1.33769 14.1521 1.39248 14.2053 1.44551C15.2141 2.48133 16.2245 3.51714 17.235 4.55119C17.2762 4.59361 17.3261 4.62543 17.3725 4.66255C17.3656 4.68022 17.357 4.69613 17.3501 4.71381C17.29 4.71381 17.2316 4.71381 17.1714 4.71381C13.4063 4.71381 4.64282 4.71558 0.877671 4.71204C0.604436 4.71204 0.363851 4.7686 0.185131 4.99486C-0.0124925 5.24762 -0.0554541 5.53221 0.0734306 5.8274C0.19716 6.11198 0.423997 6.26223 0.729883 6.28167C0.798622 6.28521 0.867361 6.28344 0.934381 6.28344C4.67891 6.28344 13.4234 6.28344 17.1697 6.28344C17.2264 6.28344 17.2848 6.28344 17.3793 6.28344C17.3192 6.34884 17.2831 6.39126 17.2453 6.43192C16.2211 7.48718 15.1952 8.54067 14.171 9.59769C13.8737 9.90526 13.8067 10.2499 13.9751 10.5805C14.1916 11.0029 14.7346 11.132 15.1075 10.8492C15.1746 10.7997 15.2347 10.7396 15.2931 10.6795C16.7126 9.22119 18.1303 7.75939 19.5515 6.30288C19.7388 6.11021 19.9209 5.91931 20 5.65064C20 5.56049 20 5.47034 20 5.37843Z" fill="#1F94A4"/>
</svg>
