<svg width="20" height="20" viewBox="0 0 20 20" fill="none" xmlns="http://www.w3.org/2000/svg">
<g clip-path="url(#clip0_3251_6)">
<path d="M6.88066 15.4149C8.13866 15.4165 9.17166 16.4422 9.17222 17.6901C9.17277 18.9732 8.12924 20.0088 6.8463 19.9994C5.59551 19.99 4.56472 18.9561 4.5625 17.7077C4.56029 16.4395 5.59772 15.4132 6.88066 15.4149ZM5.42094 17.7016C5.42205 18.5069 6.0588 19.1429 6.86681 19.1468C7.66927 19.1501 8.31933 18.5074 8.3221 17.7077C8.32487 16.9146 7.67259 16.262 6.87235 16.257C6.07543 16.2515 5.41983 16.9041 5.42094 17.7016Z" fill="white"/>
<path d="M18.5831 17.7082C18.5681 18.9897 17.5368 20.0082 16.2616 20C14.9903 19.9917 13.9623 18.9406 13.9822 17.6697C14.0027 16.3932 15.0385 15.3994 16.3331 15.4154C17.5744 15.4308 18.5969 16.4725 18.5831 17.7082ZM16.2666 19.1462C17.0712 19.1539 17.7285 18.5157 17.7352 17.7204C17.7413 16.9228 17.1028 16.273 16.2982 16.257C15.5084 16.2416 14.8346 16.8986 14.8285 17.6879C14.8224 18.4876 15.4641 19.1385 16.2666 19.1462Z" fill="white"/>
<path d="M19.7941 2.46527C19.6799 2.41346 19.5414 2.39748 19.4139 2.39693C14.3148 2.39362 9.21578 2.39417 4.11728 2.39417C4.02916 2.39417 3.9416 2.39417 3.84295 2.39417C3.74763 1.73994 3.65453 1.10666 3.56365 0.473927C3.51266 0.11953 3.37855 0.00102995 3.01168 0.000478789C2.18705 -0.000623534 1.36297 -7.23721e-05 0.538347 0.00102995C0.469628 0.00102995 0.398692 0.00268344 0.33219 0.018116C0.135454 0.0633112 0.00522037 0.223148 -0.00032149 0.416055C-0.00586334 0.614473 0.127141 0.788089 0.33219 0.834386C0.411993 0.852575 0.496783 0.852575 0.579357 0.853126C1.29869 0.854228 2.01858 0.853677 2.74955 0.853677C2.76063 0.901077 2.76673 0.920919 2.77005 0.94076C2.94462 2.1467 3.11919 3.35319 3.2932 4.55969C3.53427 6.23632 3.77479 7.91295 4.01531 9.58959C4.22922 11.0821 4.44037 12.5752 4.65761 14.0678C4.71801 14.4834 4.83439 14.5732 5.265 14.5732C9.50507 14.5732 13.7446 14.5732 17.9847 14.5732C18.0606 14.5732 18.1376 14.5748 18.2124 14.5644C18.4313 14.5335 18.5771 14.3698 18.581 14.1587C18.5848 13.9394 18.4352 13.7624 18.2108 13.7316C18.1287 13.7205 18.0451 13.7255 17.9619 13.7255C13.8881 13.7255 9.81486 13.7255 5.74104 13.7255C5.65292 13.7255 5.56536 13.7255 5.46838 13.7255C5.37583 13.0735 5.28605 12.4435 5.1935 11.7909C5.30822 11.7909 5.38969 11.7909 5.47171 11.7909C9.4624 11.7909 13.4525 11.7909 17.4432 11.7909C17.8744 11.7909 17.9714 11.711 18.0672 11.2943C18.5034 9.39613 18.9412 7.49793 19.3784 5.60028C19.5763 4.74157 19.7763 3.88396 19.9736 3.02525C20.0379 2.74085 19.9875 2.55291 19.7941 2.46527ZM17.2731 10.9377C13.2037 10.9377 9.14706 10.9377 5.06826 10.9377C4.70083 8.38034 4.33396 5.82901 3.96543 3.2606C8.99522 3.2606 14.0056 3.2606 19.0426 3.2606C18.4507 5.82846 17.8622 8.38089 17.2731 10.9377Z" fill="white"/>
</g>
<defs>
<clipPath id="clip0_3251_6">
<rect width="20" height="20" fill="white"/>
</clipPath>
</defs>
</svg>
