<svg width="25" height="25" viewBox="0 0 25 25" fill="none" xmlns="http://www.w3.org/2000/svg">
<path id="Vector" d="M6.18892 4.99839C6.30003 4.45393 6.35793 3.93608 6.51365 3.44794C7.15686 1.42736 9.00901 0.0388398 11.1296 0.0145896C13.5013 -0.0127896 15.8738 0.00676698 18.2455 0.00676698C18.9451 0.00676698 19.5366 0.268043 20.0288 0.760087C21.4232 2.15408 22.8168 3.54886 24.2128 4.94129C24.7363 5.46384 24.9984 6.08887 24.9969 6.83202C24.993 9.54491 25.0094 12.2578 24.9914 14.9707C24.9726 17.8134 22.7801 19.9764 19.9404 19.9866C19.5515 19.9881 19.1626 19.9866 18.8535 19.9866C18.6845 20.6523 18.607 21.3062 18.3566 21.8859C17.5209 23.8157 16.0201 24.9133 13.9105 24.9578C10.8956 25.022 7.87753 25.0032 4.86181 24.9657C2.21934 24.9336 0.0557525 22.7761 0.0275828 20.1391C-0.00919427 16.7042 -0.00919427 13.2685 0.0275828 9.83356C0.056535 7.17856 2.27177 5.03046 4.92519 4.99761C5.35322 4.9937 5.78202 4.99839 6.18892 4.99839ZM16.2533 2.49436C16.1234 2.49436 16.0373 2.49436 15.9505 2.49436C14.4379 2.49436 12.9254 2.49202 11.4128 2.49515C9.81419 2.49828 8.75627 3.55981 8.75627 5.15797C8.75549 8.37699 8.75549 11.596 8.75627 14.8158C8.75705 16.4406 9.80011 17.4833 11.4293 17.4841C14.2298 17.4857 17.0303 17.4857 19.8309 17.4825C20.0445 17.4825 20.2636 17.4802 20.4717 17.4387C21.7049 17.1923 22.5007 16.1887 22.5046 14.8713C22.5101 12.9204 22.5062 10.9694 22.5054 9.01844C22.5054 8.93396 22.4945 8.84947 22.4874 8.74543C21.8035 8.74543 21.1407 8.74621 20.4788 8.74543C18.0225 8.74387 16.2549 6.97595 16.2533 4.52121C16.2525 3.85785 16.2533 3.19606 16.2533 2.49436ZM16.2306 19.9873C16.1281 19.9873 16.0233 19.9873 15.9184 19.9873C14.3769 19.9873 12.8346 19.9866 11.2931 19.9873C10.6116 19.9881 9.948 19.8778 9.32905 19.5939C7.3337 18.6786 6.29142 17.1094 6.26012 14.9206C6.22648 12.5699 6.2523 10.2184 6.2523 7.86773C6.2523 7.7543 6.2523 7.64088 6.2523 7.50085C5.86496 7.50085 5.51597 7.50007 5.1662 7.50085C3.55662 7.50555 2.50573 8.54987 2.50417 10.1551C2.50104 13.3741 2.50182 16.5939 2.50651 19.8129C2.50651 20.0648 2.52608 20.3229 2.58398 20.5662C2.86411 21.738 3.85162 22.4867 5.12238 22.4882C7.96204 22.4929 10.8017 22.4906 13.6414 22.4882C13.8166 22.4882 13.9927 22.4702 14.1656 22.4452C15.3347 22.2794 16.3034 21.1388 16.2306 19.9873ZM21.8536 6.20699C20.8403 5.19317 19.8066 4.15902 18.7612 3.11314C18.7612 3.65133 18.7479 4.20048 18.7643 4.74963C18.7862 5.45523 19.2878 6.10373 19.9858 6.19056C20.6141 6.26879 21.2581 6.20699 21.8536 6.20699Z" fill="#24A6A4"/>
</svg>
