<svg width="23" height="16" viewBox="0 0 23 16" fill="none" xmlns="http://www.w3.org/2000/svg">
<path d="M19.4286 2.28571C19.4286 1.02857 18.4 0 17.1429 0H13.7143V2.28571H17.1429V5.31429L13.1657 10.2857H9.14286V4.57143H4.57143C2.04571 4.57143 0 6.61714 0 9.14286V12.5714H2.28571C2.28571 14.4686 3.81714 16 5.71429 16C7.61143 16 9.14286 14.4686 9.14286 12.5714H14.2629L19.4286 6.11429V2.28571ZM5.71429 13.7143C5.08571 13.7143 4.57143 13.2 4.57143 12.5714H6.85714C6.85714 13.2 6.34286 13.7143 5.71429 13.7143Z" fill="white"/>
<path d="M9.143 1.14287H3.42871V3.42858H9.143V1.14287Z" fill="white"/>
<path d="M19.4286 9.14287C17.5314 9.14287 16 10.6743 16 12.5714C16 14.4686 17.5314 16 19.4286 16C21.3257 16 22.8571 14.4686 22.8571 12.5714C22.8571 10.6743 21.3257 9.14287 19.4286 9.14287ZM19.4286 13.7143C18.8 13.7143 18.2857 13.2 18.2857 12.5714C18.2857 11.9429 18.8 11.4286 19.4286 11.4286C20.0571 11.4286 20.5714 11.9429 20.5714 12.5714C20.5714 13.2 20.0571 13.7143 19.4286 13.7143Z" fill="white"/>
</svg>
