<svg width="220" height="218" viewBox="0 0 220 218" fill="none" xmlns="http://www.w3.org/2000/svg">
<path d="M209.024 6.01892H206.517C206.439 5.73441 206.326 5.45971 206.179 5.20953L207.95 3.43868C208.332 3.05606 208.332 2.43308 207.95 2.05046C207.567 1.66783 206.944 1.66783 206.561 2.05046L204.79 3.8213C204.535 3.67905 204.266 3.56622 203.981 3.48774V0.981079C203.981 0.441486 203.54 0 203 0C202.46 0 202.019 0.441486 202.019 0.981079V3.48774C201.734 3.56622 201.46 3.67905 201.21 3.8213L199.439 2.05046C199.056 1.66783 198.433 1.66783 198.05 2.05046C197.668 2.43308 197.668 3.05606 198.05 3.43868L199.821 5.20953C199.679 5.46461 199.566 5.73441 199.488 6.01892H196.981C196.441 6.01892 196 6.46041 196 7C196 7.53959 196.441 7.98108 196.981 7.98108H199.488C199.566 8.26559 199.679 8.54029 199.821 8.79047L198.05 10.5613C197.668 10.9439 197.668 11.5669 198.05 11.9495C198.242 12.1409 198.492 12.239 198.742 12.239C198.992 12.239 199.242 12.1409 199.439 11.9495L201.21 10.1787C201.465 10.321 201.734 10.4338 202.019 10.5123V13.0189C202.019 13.5585 202.46 14 203 14C203.54 14 203.981 13.5585 203.981 13.0189V10.5123C204.266 10.4338 204.54 10.321 204.79 10.1787L206.561 11.9495C206.753 12.1409 207.003 12.239 207.258 12.239C207.508 12.239 207.758 12.1409 207.95 11.9544C208.332 11.5718 208.332 10.9488 207.95 10.5662L206.179 8.79537C206.321 8.54029 206.434 8.2705 206.512 7.98598H209.019C209.559 7.98598 210 7.5445 210 7.00491C210 6.46531 209.563 6.01892 209.024 6.01892ZM203 8.69236C202.068 8.69236 201.308 7.93203 201.308 7C201.308 6.06798 202.068 5.30764 203 5.30764C203.932 5.30764 204.692 6.06798 204.692 7C204.692 7.93203 203.937 8.69236 203 8.69236Z" fill="#FBC000"/>
<g clip-path="url(#clip0_1125_165)">
<path d="M219.299 52.7311H217.512C217.456 52.5063 217.372 52.2917 217.27 52.0924L218.533 50.7027C218.807 50.4013 218.807 49.9159 218.533 49.6145C218.259 49.3131 217.818 49.3131 217.544 49.6145L216.281 51.0042C216.1 50.8918 215.905 50.8049 215.701 50.7385V48.7715C215.701 48.3474 215.385 48 215 48C214.61 48 214.299 48.3474 214.299 48.7715V50.7385C214.095 50.7998 213.9 50.8918 213.719 51.0042L212.456 49.6094C212.182 49.3079 211.741 49.3079 211.467 49.6094C211.193 49.9108 211.193 50.3962 211.467 50.6976L212.73 52.0873C212.628 52.2917 212.549 52.5063 212.488 52.7311H210.701C210.316 52.7311 210 53.0734 210 53.5026C210 53.9266 210.316 54.274 210.701 54.274H212.488C212.544 54.4988 212.628 54.7134 212.73 54.9127L211.467 56.3024C211.193 56.6038 211.193 57.0892 211.467 57.3906C211.602 57.5388 211.783 57.6154 211.964 57.6154C212.145 57.6154 212.321 57.5388 212.461 57.3906L213.723 56.0009C213.904 56.1133 214.099 56.2002 214.304 56.2666V58.2336C214.304 58.6577 214.615 59.0051 215.005 59.0051C215.39 59.0051 215.706 58.6577 215.706 58.2336V56.2666C215.91 56.2053 216.105 56.1133 216.286 56.0009L217.549 57.3906C217.688 57.5388 217.864 57.6154 218.045 57.6154C218.227 57.6154 218.403 57.5388 218.542 57.3906C218.816 57.0892 218.816 56.6038 218.542 56.3024L217.279 54.9127C217.382 54.7134 217.461 54.4988 217.521 54.274H219.308C219.694 54.274 220.009 53.9266 220.009 53.5026C220 53.0734 219.684 52.7311 219.299 52.7311ZM215 54.8309C214.336 54.8309 213.793 54.2332 213.793 53.5026C213.793 52.7719 214.336 52.1742 215 52.1742C215.664 52.1742 216.207 52.7719 216.207 53.5026C216.207 54.2332 215.664 54.8309 215 54.8309Z" fill="#2EB5B2"/>
</g>
<g clip-path="url(#clip1_1125_165)">
<path d="M12.0893 189.587H9.76252C9.68967 189.323 9.58494 189.068 9.44834 188.836L11.0921 187.192C11.4473 186.837 11.4473 186.258 11.0921 185.903C10.737 185.548 10.1587 185.548 9.8035 185.903L8.15972 187.547C7.92294 187.415 7.6725 187.31 7.40841 187.237V184.911C7.40841 184.41 6.9986 184 6.49772 184C5.99685 184 5.58704 184.41 5.58704 184.911V187.237C5.32294 187.31 5.06795 187.415 4.83573 187.547L3.19194 185.903C2.83678 185.548 2.25849 185.548 1.90333 185.903C1.54816 186.258 1.54816 186.837 1.90333 187.192L3.54711 188.836C3.41506 189.073 3.31033 189.323 3.23748 189.587H0.910683C0.409807 189.587 0 189.997 0 190.498C0 190.999 0.409807 191.408 0.910683 191.408H3.23748C3.31033 191.673 3.41506 191.927 3.54711 192.16L1.90333 193.804C1.54816 194.159 1.54816 194.737 1.90333 195.092C2.08091 195.27 2.31313 195.361 2.54536 195.361C2.77758 195.361 3.00981 195.27 3.18739 195.092L4.83117 193.448C5.06795 193.58 5.31839 193.685 5.58249 193.758V196.085C5.58249 196.586 5.99229 196.995 6.49317 196.995C6.99405 196.995 7.40385 196.586 7.40385 196.085V193.758C7.66795 193.685 7.92294 193.58 8.15517 193.448L9.79895 195.092C9.97653 195.27 10.2088 195.361 10.441 195.361C10.6732 195.361 10.9054 195.27 11.083 195.092C11.4382 194.737 11.4382 194.159 11.083 193.804L9.43923 192.16C9.57128 191.923 9.67601 191.673 9.74886 191.408H12.0757C12.5765 191.408 12.9863 190.999 12.9863 190.498C12.9863 189.997 12.5902 189.587 12.0893 189.587ZM6.49772 192.069C5.63257 192.069 4.9268 191.363 4.9268 190.498C4.9268 189.633 5.63257 188.927 6.49772 188.927C7.36287 188.927 8.06865 189.633 8.06865 190.498C8.06865 191.363 7.36743 192.069 6.49772 192.069Z" fill="#FBC000"/>
</g>
<g clip-path="url(#clip2_1125_165)">
<path d="M17 216C17 217.103 16.1027 218 15 218C13.8973 218 13 217.107 13 216C13 214.897 13.8973 214 15 214C16.1071 214 17 214.897 17 216Z" fill="#FBC000"/>
</g>
<g clip-path="url(#clip3_1125_165)">
<path d="M30.6211 164C30.6211 165.103 29.4994 166 28.1211 166C26.7427 166 25.6211 165.107 25.6211 164C25.6211 162.897 26.7427 162 28.1211 162C29.505 162 30.6211 162.897 30.6211 164Z" fill="#FDE083"/>
</g>
<path d="M6.94754 145.445C6.70531 145.445 6.46308 145.35 6.27785 145.165C5.90738 144.794 5.90738 144.191 6.27785 143.821L11.8158 138.283C12.1863 137.912 12.7895 137.912 13.16 138.283C13.5304 138.653 13.5304 139.256 13.16 139.627L7.61723 145.165C7.432 145.35 7.18977 145.445 6.94754 145.445Z" fill="#24A6A4"/>
<path d="M12.4903 145.445C12.2481 145.445 12.0058 145.35 11.8206 145.165L6.27785 139.622C5.90738 139.252 5.90738 138.648 6.27785 138.278C6.64832 137.907 7.25151 137.907 7.62198 138.278L13.1647 143.821C13.5352 144.191 13.5352 144.794 13.1647 145.165C12.9747 145.35 12.7325 145.445 12.4903 145.445Z" fill="#24A6A4"/>
<path d="M176.939 37.455C176.699 37.455 176.459 37.3608 176.275 37.1772C175.908 36.81 175.908 36.212 176.275 35.8448L181.765 30.3551C182.132 29.9878 182.73 29.9878 183.098 30.3551C183.465 30.7223 183.465 31.3202 183.098 31.6875L177.603 37.1772C177.42 37.3608 177.179 37.455 176.939 37.455Z" fill="#FBC301"/>
<path d="M182.434 37.455C182.194 37.455 181.953 37.3608 181.77 37.1772L176.275 31.6828C175.908 31.3155 175.908 30.7176 176.275 30.3504C176.643 29.9831 177.241 29.9831 177.608 30.3504L183.102 35.8448C183.469 36.212 183.469 36.81 183.102 37.1772C182.914 37.3608 182.674 37.455 182.434 37.455Z" fill="#FBC301"/>
<path d="M39.6443 100.393C39.8643 98.9435 39.8743 97.4935 39.6343 96.0435C33.8843 96.6935 30.5843 100.253 30.5343 106.013C30.4743 113.083 30.4743 120.153 30.5443 127.223C30.5643 128.923 30.3043 129.943 28.3643 130.473C25.7643 131.183 24.6143 133.563 25.1143 136.173C25.5343 138.383 27.6143 140.083 29.9043 140.103C32.3843 140.123 34.4843 138.343 34.8743 135.723C35.0343 134.673 34.9043 133.593 34.9043 132.523C34.9043 123.843 34.8743 115.163 34.9143 106.483C34.9343 102.763 36.0843 101.373 39.6443 100.393Z" fill="#FBC000"/>
<path d="M52.3336 150.453C54.4536 150.443 56.5736 150.433 58.7036 150.433C58.7336 152.313 58.8136 154.193 58.7736 156.063C58.7336 158.003 57.6536 159.023 55.7236 159.053C53.7336 159.083 52.4236 158.133 52.3036 156.083C52.1936 154.213 52.3136 152.333 52.3336 150.453Z" fill="#FBC000"/>
<path d="M164.364 150.453C166.484 150.443 168.604 150.433 170.734 150.433C170.764 152.313 170.844 154.193 170.804 156.063C170.764 158.003 169.684 159.023 167.754 159.053C165.764 159.083 164.454 158.133 164.334 156.083C164.234 154.213 164.354 152.333 164.364 150.453Z" fill="#FBC000"/>
<path d="M182.6 100.393C182.57 115.933 182.54 131.473 182.51 147.013C182.5 150.973 182.5 150.963 178.56 150.983C175.61 151.003 172.67 151.053 169.72 151.093C167.4 151.863 165.03 152.293 162.58 151.913C159.27 152.213 155.96 152.163 152.65 152.163C124.7 152.163 96.7603 152.163 68.8103 152.163C65.4103 152.163 62.0003 152.213 58.6103 151.923C56.2803 152.373 54.0603 151.993 51.9303 150.993C48.5303 150.983 45.1303 150.903 41.7303 150.983C39.8403 151.033 38.9803 150.463 39.0003 148.413C39.0903 132.223 39.1103 116.033 39.1303 99.8433C39.1403 95.9133 39.0003 91.9733 39.0503 88.0433C39.2903 68.7833 54.6403 53.6033 73.8803 53.5633C77.4603 53.5533 81.0403 53.6433 84.6103 53.5333C86.5003 53.4733 87.1003 54.2033 87.1003 56.0333C87.1003 57.9733 86.6703 59.9533 87.3503 61.8633C88.6003 61.8033 89.4003 63.0133 90.6203 63.0233C96.2603 64.3833 102 64.0133 107.72 64.0433C111.44 64.0633 111.77 64.4033 111.9 68.2133C111.94 69.5133 111.75 70.8433 112.25 72.1133C112.67 70.4433 112.47 68.7433 112.6 67.0633C112.72 65.5433 113 64.1933 114.93 64.0633C116.75 63.9333 117.55 64.8833 117.76 66.5533C117.79 66.8133 117.85 67.0733 118.27 67.4633C118.42 64.4233 120.23 63.7633 122.78 64.0133C125.41 64.2833 127.9 63.2633 130.48 63.0333C132.6 62.7633 132.65 61.2033 132.6 59.5833C132.76 57.5933 133.17 55.6533 133.86 53.7833C133.98 53.6933 134.09 53.6133 134.21 53.5233C140.64 53.8133 147.09 53.0533 153.51 54.0533C168.61 56.4233 180.86 69.6933 182.2 85.0133C182.52 88.6833 182.33 92.3433 182.6 96.0033C184.15 97.4933 184.1 98.9433 182.6 100.393Z" fill="#FED468"/>
<path d="M182.843 100.393C182.623 98.9435 182.613 97.4935 182.853 96.0435C188.603 96.6935 191.903 100.253 191.953 106.013C192.013 113.083 192.013 120.153 191.943 127.223C191.923 128.923 192.183 129.943 194.123 130.473C196.723 131.183 197.873 133.563 197.373 136.173C196.953 138.383 194.873 140.083 192.583 140.103C190.103 140.123 188.003 138.343 187.613 135.723C187.453 134.673 187.583 133.593 187.583 132.523C187.583 123.843 187.613 115.163 187.573 106.483C187.553 102.763 186.413 101.373 182.843 100.393Z" fill="#FBC000"/>
<path d="M171.135 114.684C171.135 106.634 171.185 98.5735 171.125 90.5235C171.015 76.4135 160.545 65.5635 146.445 64.8535C146.085 64.8335 145.725 64.8535 145.375 64.7835C143.545 64.4435 142.485 63.4235 142.565 61.4835C142.635 59.5235 143.875 58.9335 145.625 58.8935C155.765 58.6235 163.835 62.8635 170.215 70.4435C175.245 76.4135 177.495 83.5035 177.495 91.2935C177.505 107.764 177.505 124.234 177.495 140.694C177.495 144.404 176.535 146.003 174.395 145.983C172.195 145.964 171.165 144.354 171.155 140.743C171.125 132.044 171.145 123.364 171.135 114.684Z" fill="white"/>
<path d="M44.2151 114.573C44.2151 106.423 44.2151 98.2734 44.2151 90.1234C44.2251 74.8534 54.8751 61.9634 69.8951 59.0034C71.9251 58.6034 73.9451 58.2334 76.0251 58.4434C77.8751 58.6334 79.0851 59.5934 79.0551 61.5234C79.0351 63.3134 78.0151 64.2034 76.1551 64.3434C70.0551 64.8134 64.4351 66.4734 59.6351 70.5634C53.3751 75.9034 50.2251 82.6734 50.1651 90.7734C50.0351 107.343 50.1251 123.913 50.1251 140.483C50.1251 141.293 50.1251 142.093 50.0851 142.903C49.9851 144.793 48.7451 145.663 47.0751 145.683C45.2851 145.713 44.3151 144.573 44.2351 142.773C44.1851 141.613 44.2051 140.443 44.2051 139.283C44.2151 131.053 44.2151 122.813 44.2151 114.573Z" fill="white"/>
<path d="M89.8848 64.4233C103.875 64.4233 117.855 64.4233 131.845 64.4333C128.965 65.4033 125.995 64.8533 123.075 64.8433C120.785 64.8333 119.675 65.4833 119.975 67.8933C120.045 68.5033 119.975 69.1433 119.895 69.7633C119.795 70.5533 119.355 71.1033 118.515 71.1533C117.545 71.2133 116.985 70.6633 116.895 69.7433C116.795 68.6733 116.815 67.6033 116.765 66.5333C116.725 65.7733 116.515 65.0933 115.585 65.0333C114.515 64.9633 114.165 65.6633 114.155 66.5633C114.115 68.8933 114.135 71.2133 114.095 73.5433C114.075 74.6133 114.115 75.9033 112.625 75.9733C110.945 76.0633 110.935 74.7033 110.915 73.5133C110.885 72.1733 110.905 70.8333 110.905 69.4833C110.905 64.9033 110.905 64.9033 106.455 64.9033C101.985 64.9033 97.5048 64.9133 93.0348 64.8933C91.9548 64.8833 90.8548 65.0833 89.8848 64.4233Z" fill="#D5A65C"/>
<path d="M135.603 19.0534C129.033 12.4734 118.833 12.2834 111.723 18.6934C110.683 19.6334 110.163 19.9134 108.953 18.8134C101.633 12.1834 91.2532 12.4634 84.7032 19.3234C78.1632 26.1734 78.6132 36.6434 85.7832 43.5834C86.6032 44.3734 87.1832 45.1034 87.1732 46.3134C87.1232 51.4934 87.1532 56.6834 87.1532 61.8734C87.4432 63.1534 88.2032 64.0134 89.4632 64.4134C93.6732 64.8034 97.9032 64.4634 102.123 64.5934C105.593 64.6934 109.113 65.0634 112.503 65.0434C116.373 65.0234 120.343 65.1234 124.243 64.6234C126.723 64.3134 129.263 64.7734 131.773 64.4134C133.983 63.7834 134.273 62.0334 134.313 60.1334C134.303 59.8734 134.283 59.6134 134.273 59.3534C134.303 59.6134 134.333 59.8734 134.373 60.1334C134.413 57.9234 134.453 55.7234 134.493 53.5134C134.413 53.8034 134.353 54.0934 134.293 54.3934C134.333 54.1034 134.383 53.8034 134.443 53.5134L134.423 53.5334C134.373 51.1234 134.363 48.7134 134.243 46.3034C134.173 44.8634 134.653 43.8034 135.663 42.7334C142.163 35.7934 142.113 25.5634 135.603 19.0534Z" fill="#FBC000"/>
<path d="M85.5533 80C85.5533 80 89.3164 88.7902 73 90.0397" stroke="#24A6A4" stroke-width="1.5" stroke-miterlimit="10"/>
<path d="M136.978 80C136.978 80 133.215 88.7902 149.532 90.0397" stroke="#24A6A4" stroke-width="1.5" stroke-miterlimit="10"/>
<path d="M89.4623 102.173C91.0832 102.173 92.3972 100.859 92.3972 99.2377C92.3972 97.6167 91.0832 96.3027 89.4623 96.3027C87.8414 96.3027 86.5273 97.6167 86.5273 99.2377C86.5273 100.859 87.8414 102.173 89.4623 102.173Z" fill="#24A6A4"/>
<path d="M133.681 102.173C135.302 102.173 136.616 100.859 136.616 99.2377C136.616 97.6167 135.302 96.3027 133.681 96.3027C132.06 96.3027 130.746 97.6167 130.746 99.2377C130.746 100.859 132.06 102.173 133.681 102.173Z" fill="#24A6A4"/>
<defs>
<clipPath id="clip0_1125_165">
<rect width="10" height="11" fill="white" transform="translate(210 48)"/>
</clipPath>
<clipPath id="clip1_1125_165">
<rect width="13" height="13" fill="white" transform="translate(0 184)"/>
</clipPath>
<clipPath id="clip2_1125_165">
<rect width="4" height="4" fill="white" transform="translate(13 214)"/>
</clipPath>
<clipPath id="clip3_1125_165">
<rect width="5" height="4" fill="white" transform="translate(25.6211 162)"/>
</clipPath>
</defs>
</svg>
