<svg width="17" height="17" viewBox="0 0 17 17" fill="none" xmlns="http://www.w3.org/2000/svg">
<path d="M5.84885 13.1016C6.91814 13.103 7.79619 13.9748 7.79666 15.0355C7.79713 16.1261 6.91013 17.0064 5.81964 16.9984C4.75647 16.9905 3.88031 16.1116 3.87842 15.0505C3.87654 13.9725 4.75835 13.1002 5.84885 13.1016ZM4.60809 15.0453C4.60903 15.7298 5.15027 16.2704 5.83707 16.2737C6.51916 16.2765 7.0717 15.7302 7.07406 15.0505C7.07642 14.3763 6.52198 13.8216 5.84178 13.8174C5.1644 13.8127 4.60714 14.3674 4.60809 15.0453Z" fill="#FFF"/>
<path d="M15.7957 15.0526C15.783 16.1418 14.9064 17.0076 13.8225 17.0005C12.7419 16.9935 11.8681 16.1001 11.885 15.0198C11.9024 13.9348 12.7828 13.0901 13.8832 13.1037C14.9384 13.1168 15.8075 14.0022 15.7957 15.0526ZM13.8267 16.2749C14.5107 16.2814 15.0693 15.7389 15.075 15.0629C15.0802 14.385 14.5375 13.8326 13.8535 13.8191C13.1823 13.8059 12.6095 14.3644 12.6043 15.0352C12.5991 15.715 13.1446 16.2683 13.8267 16.2749Z" fill="#FFF"/>
<path d="M16.8253 2.09558C16.7283 2.05154 16.6105 2.03795 16.5022 2.03748C12.168 2.03467 7.83379 2.03514 3.50008 2.03514C3.42519 2.03514 3.35076 2.03514 3.26691 2.03514C3.18589 1.47905 3.10675 0.94076 3.0295 0.402939C2.98616 0.101704 2.87217 0.000979213 2.56033 0.000510728C1.8594 -0.000426242 1.15894 4.22432e-05 0.458008 0.000979213C0.399597 0.000979213 0.339302 0.00238467 0.282775 0.0155022C0.11555 0.053918 0.00485233 0.189779 0.000141772 0.353748C-0.00456878 0.522403 0.108485 0.669976 0.282775 0.709329C0.350607 0.724789 0.422678 0.724789 0.492866 0.725257C1.1043 0.726194 1.7162 0.725726 2.33752 0.725726C2.34694 0.766015 2.35212 0.782881 2.35495 0.799746C2.50333 1.82479 2.65171 2.85031 2.79962 3.87582C3.00453 5.30095 3.20897 6.72608 3.41341 8.15121C3.59524 9.41987 3.77471 10.689 3.95936 11.9577C4.01071 12.3109 4.10963 12.3873 4.47564 12.3873C8.07968 12.3873 11.6833 12.3873 15.2873 12.3873C15.3518 12.3873 15.4173 12.3887 15.4809 12.3798C15.667 12.3535 15.7909 12.2144 15.7942 12.035C15.7975 11.8485 15.6703 11.6981 15.4795 11.6719C15.4098 11.6625 15.3386 11.6667 15.268 11.6667C11.8053 11.6667 8.343 11.6667 4.88028 11.6667C4.80538 11.6667 4.73095 11.6667 4.64852 11.6667C4.56985 11.1125 4.49354 10.577 4.41487 10.0223C4.51238 10.0223 4.58163 10.0223 4.65134 10.0223C8.04341 10.0223 11.435 10.0223 14.8271 10.0223C15.1936 10.0223 15.276 9.95441 15.3575 9.60024C15.7282 7.98677 16.1003 6.37331 16.472 4.76032C16.6402 4.03042 16.8102 3.30146 16.9779 2.57156C17.0326 2.32982 16.9897 2.17006 16.8253 2.09558ZM14.6825 9.29713C11.2235 9.29713 7.77538 9.29713 4.30841 9.29713C3.9961 7.12336 3.68427 4.95474 3.37101 2.7716C7.64631 2.7716 11.9051 2.7716 16.1865 2.7716C15.6835 4.95427 15.1832 7.12383 14.6825 9.29713Z" fill="#FFF"/>
</svg>
