<svg width="14" height="14" viewBox="0 0 14 14" fill="none" xmlns="http://www.w3.org/2000/svg">
<g clip-path="url(#clip0_864_2895)">
<path d="M13.9829 9.43087C13.9854 9.28146 13.9908 9.13206 13.9904 8.98228C13.9887 8.15671 13.9854 7.33151 13.9829 6.50594C13.9949 5.90795 14.0004 5.30959 13.977 4.7116C13.9708 4.54977 13.925 4.38941 13.8516 4.23781C13.6658 3.75598 13.3301 3.37936 12.8322 3.11525C12.5814 2.95489 12.2952 2.86721 11.9945 2.81863C11.9041 2.80402 11.8916 2.78429 11.9328 2.71708C12.029 2.56146 12.0857 2.39379 12.114 2.21881C12.1228 2.19799 12.1365 2.17753 12.1394 2.15598C12.2228 1.57662 12.0428 1.06813 11.6033 0.629772C11.2479 0.279087 10.8068 0.0748859 10.2723 0.029589C10.2514 0.019726 10.2306 0.0102283 10.2098 0.000365297C10.0956 0.000365297 9.98107 0.000365297 9.86693 0.000365297C9.84318 0.00803653 9.81985 0.019726 9.79569 0.0222831C9.16164 0.0843836 8.65756 0.345936 8.28638 0.796347C7.87353 1.29717 7.46861 1.8031 7.06993 2.31269C6.99702 2.40584 6.9587 2.36493 6.91287 2.31306C6.84455 2.23598 6.78539 2.15233 6.72249 2.07123C6.4642 1.71872 6.1855 1.37863 5.90472 1.03963C5.90889 1.03635 5.91305 1.03342 5.91763 1.03014C5.76349 0.735343 5.52395 0.50484 5.22651 0.316712C4.91781 0.121644 4.57246 0.0189954 4.19377 0C4.0588 0 3.92341 0 3.78843 0C3.7651 0.0226484 3.73302 0.0211872 3.7022 0.0241096C3.25436 0.0675799 2.86401 0.228676 2.53574 0.493151C1.83336 1.06009 1.64548 1.92986 2.04624 2.69005C2.06957 2.73461 2.16122 2.78977 2.00916 2.819C1.00143 3.0137 0.352793 3.55288 0.0815918 4.42411C-0.0583832 4.87343 0.0266016 5.33772 0.0157702 5.79543C0.0157702 6.40584 0.0157702 7.01626 0.0157702 7.62703C0.0157702 8.27397 0.0157702 8.92091 0.0157702 9.56785C0.0157702 10.0873 0.0157702 10.6068 0.0157702 11.1262C0.0161868 11.4301 0.00702175 11.7344 0.0199361 12.0376C0.028268 12.232 0.0795088 12.423 0.175325 12.6016C0.435695 13.192 0.898946 13.6062 1.57174 13.8389C1.68714 13.8893 1.81087 13.9185 1.93584 13.9412C2.49824 14.042 3.06689 13.9828 3.63262 13.992C4.23543 13.992 4.83824 13.992 5.44064 13.992C6.54252 13.992 7.64441 13.992 8.74629 13.992C9.64488 13.9934 10.5435 13.9945 11.4421 13.9971C11.5983 13.9974 11.7528 13.9883 11.9078 13.97C12.9839 13.8415 13.9283 12.9845 13.9758 12.0409C14.0191 11.1715 13.9929 10.3006 13.9829 9.43087ZM10.8084 1.32493C10.8134 1.32566 10.8176 1.32566 10.8222 1.32603C10.8022 1.38703 10.8559 1.42868 10.883 1.4758C11.0071 1.69205 11.0417 1.90977 10.9517 2.14685C10.873 2.35361 10.7022 2.48731 10.5318 2.62685C10.5006 2.64804 10.4697 2.67032 10.4393 2.69224C10.3448 2.72694 10.2477 2.7547 10.1452 2.76785C10.144 2.76822 10.1427 2.76822 10.1419 2.76858C10.0994 2.70137 10.0173 2.72731 9.95358 2.72658C9.40451 2.72329 8.85503 2.72548 8.30596 2.72402C8.24472 2.72402 8.14224 2.74119 8.2268 2.63708C8.57632 2.20822 8.90002 1.76329 9.26495 1.34502C9.60781 0.951963 10.2485 0.909954 10.6722 1.23689C10.7143 1.26977 10.7509 1.30922 10.8084 1.32493ZM3.16396 1.39142C3.44016 1.05315 3.9559 0.925297 4.36666 1.08384C4.6137 1.17954 4.75867 1.36 4.90531 1.54301C4.95489 1.60475 4.98488 1.68402 5.0832 1.70521C5.08653 1.70484 5.08945 1.70374 5.09236 1.70301C5.09195 1.70338 5.09195 1.70338 5.09153 1.70374C5.12694 1.75379 5.16068 1.80457 5.19818 1.85315C5.4273 2.14795 5.65768 2.44201 5.88764 2.73607C5.88347 2.74009 5.87931 2.74411 5.87514 2.74813C5.82098 2.7569 5.76349 2.75288 5.70975 2.76311C5.06195 2.76201 4.41415 2.76128 3.76593 2.76018C3.76593 2.75434 3.76552 2.74813 3.76427 2.74155C3.74052 2.70648 3.6972 2.70137 3.65887 2.68858C3.50056 2.63671 3.36684 2.55525 3.25061 2.44639C2.94316 2.1589 2.904 1.70959 3.16396 1.39142ZM1.15765 11.9467C1.20014 11.8937 1.18848 11.8294 1.17848 11.7695C1.15723 11.638 1.15682 11.5065 1.15682 11.3746C1.15682 11.0652 1.15807 10.7558 1.15598 10.4464C1.15557 10.381 1.1664 10.3123 1.11474 10.2553C1.12974 10.2382 1.14099 10.2195 1.14599 10.1973C1.16806 9.7432 1.15307 9.2884 1.15348 8.83361C1.15348 8.79452 1.1464 8.7558 1.11557 8.72475C1.12932 8.70831 1.13974 8.69041 1.14515 8.66995C1.16973 8.32511 1.1539 7.97991 1.15432 7.6347C1.15473 7.35781 1.17015 7.08055 1.14349 6.80365C1.12974 6.78064 1.11599 6.76493 1.10266 6.75507C1.10558 6.75397 1.10766 6.75288 1.11057 6.75178C1.1639 6.69881 1.1564 6.63342 1.1564 6.57059C1.15765 6.09023 1.15765 5.61023 1.1564 5.12986C1.1564 5.07324 1.16265 5.01406 1.12432 4.96402C1.12807 4.96183 1.13182 4.95927 1.13599 4.95708C1.17223 4.92566 1.17598 4.88438 1.17765 4.84347C1.19598 4.32877 1.71672 3.88457 2.22079 3.80968C2.37452 3.78703 2.5299 3.79142 2.68238 3.76621C2.69113 3.75817 2.70029 3.7505 2.70904 3.74247C3.35726 3.74247 4.00547 3.74247 4.65369 3.74247C4.66286 3.75525 4.68035 3.76621 4.70868 3.77534C5.16235 3.79653 5.61644 3.79178 6.07094 3.7768C6.09427 3.76986 6.11468 3.76 6.13343 3.74904C6.14926 3.76329 6.16925 3.77132 6.19133 3.77607C6.39088 3.81918 6.38755 3.81918 6.39255 4.00219C6.39713 4.16402 6.37005 4.32694 6.41338 4.48731C6.42504 4.49644 6.43546 4.50265 6.44462 4.5063C6.44421 4.50703 6.44379 4.50776 6.44379 4.50849C6.44379 4.92749 6.44379 5.34685 6.44379 5.76584C6.44379 6.29443 6.44379 6.82265 6.44379 7.35123C6.4467 7.33114 6.45087 7.31142 6.45504 7.29169C6.45545 7.31178 6.45462 7.33187 6.44379 7.35123C6.44379 7.99817 6.44379 8.64511 6.44379 9.29206C6.44379 9.91014 6.44379 10.5282 6.44379 11.1463C6.43129 11.2961 6.43546 11.4469 6.40005 11.5942C6.37588 11.9711 6.39671 12.3485 6.38922 12.7255C6.38755 12.8022 6.4013 12.8804 6.37088 12.956C6.33464 13.0071 6.27549 12.9998 6.21966 12.9998C6.02011 13.0002 5.82057 13.0005 5.62102 12.9995C5.6206 12.9995 5.61977 12.9995 5.61935 12.9995C5.61769 12.9984 5.61685 12.9969 5.61519 12.9958C5.53728 12.9604 5.45272 12.9713 5.37065 12.9713C4.43706 12.9706 3.50348 12.971 2.5699 12.971C1.8342 12.971 1.34345 12.6301 1.17556 12.0037C1.17056 11.985 1.1639 11.966 1.15765 11.9467ZM7.56234 13.0104C7.56276 13.0104 7.56359 13.01 7.56401 13.01C7.56359 13.0104 7.56317 13.0104 7.56276 13.0108C7.56234 13.0108 7.56234 13.0108 7.56234 13.0104ZM12.8472 10.5216C12.8331 10.9936 12.8756 11.4659 12.8181 11.9375C12.7731 12.3101 12.5748 12.5965 12.2165 12.7989C12.0153 12.9125 11.7903 12.9604 11.5566 12.9848C11.5441 12.9885 11.5316 12.9914 11.5191 12.994C11.4637 12.9618 11.3962 12.9688 11.3329 12.9688C10.1448 12.9673 8.95709 12.9673 7.76897 12.9684C7.70315 12.9684 7.63524 12.9648 7.57817 13.0005C7.58775 12.99 7.59275 12.9739 7.59775 12.9604C7.62441 12.6243 7.60816 12.2875 7.60816 11.9511C7.60775 11.5145 7.62275 11.0776 7.59858 10.6407C7.56151 10.5268 7.56901 10.4084 7.55484 10.2915C7.55484 9.64895 7.55484 9.00676 7.55484 8.3642C7.55109 8.35288 7.54859 8.34192 7.54651 8.33059C7.54942 8.34192 7.55192 8.35324 7.55484 8.3642C7.55484 7.71726 7.55484 7.07032 7.55484 6.42338C7.55484 5.91306 7.55484 5.40274 7.55484 4.89242C7.55651 4.55306 7.56317 4.2137 7.55692 3.87434C7.55484 3.7695 7.59317 3.74502 7.70648 3.74721C7.97976 3.75269 8.25347 3.74612 8.52675 3.74466C8.79504 3.74466 9.06291 3.74466 9.33119 3.74466C9.34244 3.75525 9.3591 3.76585 9.38243 3.77571C9.65238 3.79507 9.92233 3.79215 10.1927 3.77644C10.2152 3.77169 10.2335 3.76219 10.2498 3.7505C10.3173 3.80018 10.4002 3.78521 10.4781 3.78703C10.9746 3.80055 11.475 3.74831 11.967 3.8484C11.9853 3.84694 12.0024 3.84292 12.017 3.83452C12.0249 3.89005 12.0853 3.89516 12.1265 3.91635C12.5452 4.12968 12.7914 4.43872 12.8226 4.86977C12.8256 4.90922 12.8139 4.96073 12.8785 4.97461C12.8639 4.99068 12.8568 5.01078 12.8514 5.03087C12.8476 5.0484 12.8443 5.0663 12.8439 5.08457C12.8381 5.8031 12.8414 6.52164 12.8422 7.23982C12.8422 7.28694 12.8439 7.33516 12.8806 7.37461C12.8656 7.39397 12.8547 7.41516 12.8497 7.43963C12.8464 7.45717 12.8435 7.47543 12.8435 7.49333C12.8381 8.37479 12.841 9.25589 12.8422 10.1374C12.8422 10.187 12.8439 10.2382 12.8864 10.2784C12.8881 10.2784 12.8897 10.278 12.8914 10.278C12.8814 10.2871 12.8714 10.2959 12.8614 10.305C12.8397 10.3759 12.8493 10.449 12.8472 10.5216Z" fill="#FFF"/>
</g>
<defs>
<clipPath id="clip0_864_2895">
<rect width="14" height="14" fill="white"/>
</clipPath>
</defs>
</svg>
