<svg width="16" height="15" viewBox="0 0 16 15" fill="none" xmlns="http://www.w3.org/2000/svg">
<path d="M7.68511 2.53596C7.93944 2.26999 8.17878 1.9999 8.43843 1.75136C9.183 1.03904 10.0313 0.481417 11.004 0.159334C11.9688 -0.160212 12.9018 0.0227028 13.7736 0.513435C14.9277 1.16299 15.6058 2.18155 15.8673 3.47622C16.2104 5.17508 15.8735 6.76171 15.0271 8.25261C14.5612 9.07304 13.9982 9.81896 13.3811 10.5265C12.6109 11.41 11.7817 12.2327 10.8749 12.9691C10.0779 13.6164 9.25362 14.2299 8.43874 14.8547C8.17191 15.0592 7.89133 15.0398 7.63137 14.8471C6.90679 14.3104 6.16628 13.7924 5.4742 13.2148C4.72056 12.5858 3.99099 11.923 3.29359 11.2306C2.37905 10.323 1.55823 9.32887 0.919268 8.19587C0.493084 7.43948 0.16001 6.64664 0.0597125 5.76947C-0.0637061 4.68878 -0.0174631 3.62648 0.405285 2.60919C0.931142 1.34337 1.84756 0.558451 3.18955 0.303574C4.17846 0.115587 5.08082 0.34003 5.91694 0.884972C6.57528 1.3142 7.12488 1.86422 7.62449 2.47002C7.64355 2.49348 7.66542 2.51472 7.68511 2.53596ZM8.03505 13.618C9.24924 12.7491 10.3872 11.8164 11.4389 10.7786C12.3388 9.89061 13.1627 8.93863 13.8267 7.85096C14.5759 6.62286 14.9224 5.306 14.6862 3.86329C14.51 2.78799 13.9595 1.97422 12.9812 1.4949C12.5144 1.26634 12.0119 1.16521 11.5001 1.30945C10.6953 1.53643 10.016 1.99514 9.39672 2.55118C8.93898 2.96203 8.54529 3.42993 8.2119 3.94888C7.96819 4.32866 7.41484 4.29854 7.17644 3.93842C6.7465 3.28855 6.24689 2.69669 5.63886 2.20595C5.17268 1.82998 4.66619 1.54277 4.06316 1.48285C3.01426 1.37951 2.0216 1.97961 1.59135 2.96076C1.40638 3.3827 1.28421 3.82207 1.27234 4.28237C1.26047 4.7506 1.24516 5.2239 1.29734 5.68705C1.37389 6.36735 1.65603 6.98426 1.9891 7.57643C2.54433 8.56392 3.26797 9.41763 4.04473 10.2266C4.97146 11.1919 5.98381 12.0586 7.04052 12.8734C7.36984 13.1273 7.70604 13.372 8.03505 13.618Z" fill="#FFF"/>
</svg>
