<svg width="18" height="19" viewBox="0 0 18 19" fill="#1F94A4" xmlns="http://www.w3.org/2000/svg">
    <path
        d="M0 17.4007C0.13088 17.2533 0.26176 17.0988 0.406417 16.9583C3.23756 14.0719 6.06181 11.1856 8.89984 8.30622C8.99627 8.2079 9.13404 8.15172 9.23048 8.08851C8.59675 7.44241 8.05256 6.88761 7.48771 6.31174C7.27417 6.50838 7.03996 6.83845 6.6611 6.52945C6.44067 6.34686 6.49578 6.12213 6.90219 5.56733C6.59222 5.27939 6.26846 4.98443 5.96537 4.67543C5.60717 4.31727 5.60717 4.12765 5.95159 3.76949C7.09507 2.6037 8.23855 1.4309 9.38891 0.265111C9.74022 -0.0860293 9.9331 -0.0930521 10.2775 0.272133C10.5806 0.58816 10.8699 0.911208 11.1592 1.22723C11.7172 0.819912 11.9445 0.76373 12.1167 1.00953C12.3785 1.37471 12.103 1.59944 11.9101 1.8031C13.2395 3.1585 14.5621 4.49986 15.8985 5.86931C16.0913 5.72183 16.3393 5.33557 16.6975 5.69374C17.0557 6.0519 16.6906 6.31174 16.4427 6.62075C16.7664 6.92975 17.0833 7.22471 17.3933 7.53371C17.7446 7.88485 17.7446 8.09553 17.407 8.43965C16.2636 9.61246 15.1201 10.7782 13.9697 11.944C13.6253 12.2952 13.4255 12.2952 13.0811 11.937C12.778 11.621 12.4887 11.2979 12.1856 10.9749C11.8825 11.2066 11.6552 11.5788 11.2763 11.2347C11.0559 11.0311 11.1041 10.8485 11.4692 10.3709C10.9181 9.8091 10.374 9.2543 9.73333 8.60117C9.67823 8.69247 9.63001 8.83293 9.53357 8.93125C6.66799 11.8598 3.79552 14.7883 0.923048 17.7168C0.530408 18.1171 0.330644 18.11 0.00688842 17.7027C0 17.5904 0 17.4991 0 17.4007ZM8.25233 5.58839C9.55424 6.9157 10.8768 8.26408 12.1374 9.54925C13.1087 8.55904 14.1144 7.53371 15.0856 6.55052C13.8044 5.24428 12.4887 3.90994 11.2006 2.59668C10.2155 3.59392 9.20982 4.61925 8.25233 5.58839ZM15.8365 7.23875C14.817 8.27813 13.8044 9.31048 12.8125 10.3218C13.0467 10.5676 13.2878 10.8204 13.5082 11.0451C14.5139 10.0268 15.5196 8.99445 16.5322 7.9621C16.3118 7.72332 16.0707 7.47753 15.8365 7.23875ZM7.48082 4.92825C8.50031 3.88888 9.51291 2.85652 10.4911 1.85929C10.2775 1.63456 10.0295 1.38876 9.80911 1.15701C8.81717 2.16829 7.80458 3.19362 6.79198 4.22597C7.02619 4.46475 7.26728 4.71054 7.48082 4.92825Z"
        fill="white" />
    <path
        d="M12.709 16.5439C14.2451 16.5439 15.7812 16.5439 17.3173 16.5439C17.4344 16.5439 17.586 16.5088 17.6617 16.565C17.8064 16.6774 17.9993 16.8389 17.9993 16.9864C17.9993 17.1268 17.8064 17.2954 17.6617 17.4007C17.586 17.4639 17.4344 17.4358 17.3173 17.4358C14.2588 17.4358 11.1935 17.4358 8.13504 17.4358C7.6253 17.4358 7.39109 17.2883 7.40487 16.9723C7.41865 16.6703 7.63908 16.5369 8.12815 16.5369C9.66427 16.5439 11.1866 16.5439 12.709 16.5439Z"
        fill="white" />
    <path
        d="M12.75 14.5917C13.6041 14.5917 14.4583 14.5777 15.3125 14.6058C15.4778 14.6128 15.6706 14.7462 15.7809 14.8867C15.8429 14.9639 15.7946 15.2027 15.7189 15.301C15.6362 15.3993 15.4571 15.4696 15.3262 15.4696C13.5903 15.4836 11.8614 15.4766 10.1255 15.4766C9.79483 15.4766 9.58818 15.294 9.60884 15.0271C9.63639 14.7041 9.84994 14.5917 10.1461 14.5917C11.021 14.5987 11.882 14.5917 12.75 14.5917Z"
        fill="white" />
</svg>