<svg width="18" height="18" viewBox="0 0 18 18" fill="none" xmlns="http://www.w3.org/2000/svg">
<path d="M0 5.12148C0.0406875 4.3267 0.00369886 3.51805 0.138707 2.73992C0.416122 1.15129 1.82816 0.0178688 3.43162 0.00491544C4.56625 -0.00433694 5.7018 0.00213972 6.83735 0.00306496C7.78795 0.0039902 8.6091 0.341702 9.27675 1.00972C12.0019 3.7327 14.7205 6.46123 17.4355 9.19346C18.191 9.954 18.1864 10.6775 17.4374 11.4279C15.4427 13.4273 13.4472 15.4259 11.4498 17.4225C10.6758 18.196 9.96011 18.1914 9.1852 17.4151C6.51647 14.744 3.85052 12.07 1.17809 9.40256C0.411498 8.63831 0.00924715 7.73528 0.0369886 6.6435C0.0499346 6.1374 0.038838 5.63036 0.038838 5.12333C0.025892 5.12241 0.012946 5.12241 0 5.12148ZM16.779 10.2704C16.7235 10.2121 16.6514 10.1335 16.5755 10.0586C13.8948 7.37814 11.2085 4.70235 8.53697 2.01268C8.01636 1.48807 7.41622 1.23456 6.68847 1.23826C5.66203 1.24196 4.63375 1.22716 3.60639 1.24196C2.18325 1.26231 1.29368 2.1635 1.27888 3.59206C1.26871 4.6052 1.28628 5.61926 1.27333 6.6324C1.26409 7.38369 1.5341 7.99065 2.06674 8.52081C4.0595 10.4999 6.03654 12.4956 8.01821 14.4858C8.7848 15.2556 9.54861 16.0282 10.2884 16.7739C12.4615 14.5968 14.604 12.4503 16.779 10.2704Z" fill="white"/>
<path d="M5.14305 6.8564C6.08985 6.8564 6.85738 6.08887 6.85738 5.14207C6.85738 4.19527 6.08985 3.42773 5.14305 3.42773C4.19624 3.42773 3.42871 4.19527 3.42871 5.14207C3.42871 6.08887 4.19624 6.8564 5.14305 6.8564Z" fill="white"/>
</svg>
