<svg width="15" height="15" viewBox="0 0 15 15" fill="#1F94A4" xmlns="http://www.w3.org/2000/svg">
    <path
        d="M14.0857 5.18346C14.0857 5.93466 14.1355 6.68587 14.0767 7.43266C13.9275 9.41673 13.064 11.0782 11.5766 12.4348C10.9753 12.9828 10.2791 13.3849 9.56026 13.7649C8.94541 14.0919 8.33508 14.4277 7.72475 14.7591C7.27265 15.0066 6.82508 14.9978 6.37298 14.7503C5.45523 14.2421 4.50583 13.7826 3.61972 13.2302C1.65762 12.0106 0.486695 10.2519 0.106935 8.00711C0.0345992 7.59174 0.0119944 7.16311 0.00747342 6.7389C-0.00608945 5.58115 0.00295246 4.42341 0.00295246 3.26567C0.00295246 2.48795 0.450527 2.01513 1.2417 1.92233C3.03652 1.71906 4.71831 1.16671 6.26448 0.252C6.62164 0.039894 6.98331 -0.0661588 7.3902 0.0443129C7.52583 0.0796638 7.65241 0.141528 7.77448 0.21223C9.25735 1.09158 10.8578 1.64394 12.5712 1.88698C12.7295 1.90907 12.8877 1.91791 13.0414 1.94443C13.6879 2.05932 14.1083 2.54539 14.1083 3.18171C14.1129 3.84896 14.1083 4.51621 14.1083 5.18346C14.1038 5.18346 14.0948 5.18346 14.0857 5.18346ZM1.0925 5.21439C1.10155 5.21439 1.11059 5.21439 1.11963 5.21439C1.11963 5.93466 1.06538 6.66378 1.12867 7.37963C1.32759 9.5272 2.37646 11.1975 4.23909 12.3509C5.11164 12.89 6.03391 13.3451 6.9381 13.8312C7.00592 13.8665 7.14155 13.8533 7.2184 13.8135C8.04574 13.3716 8.88211 12.9474 9.68684 12.4702C11.8207 11.2064 12.9419 9.34161 13.0188 6.90681C13.0595 5.68279 13.0278 4.45876 13.0278 3.23474C13.0278 3.03589 12.9917 3.00495 12.7837 2.97402C12.2864 2.89448 11.7891 2.8282 11.3008 2.72657C9.86316 2.41724 8.5114 1.88256 7.25457 1.13577C7.12798 1.06065 7.01948 1.04298 6.87933 1.12694C5.17041 2.14327 3.32134 2.75308 1.33664 2.97844C1.11963 3.00495 1.08798 3.0403 1.08798 3.24799C1.0925 3.90198 1.0925 4.56039 1.0925 5.21439Z"
        fill="white" />
    <path
        d="M7.0535 11.2028C6.49084 11.2028 5.92818 11.2028 5.36989 11.2028C4.41468 11.1983 3.74298 10.5117 3.73862 9.52258C3.73426 8.84507 3.73426 8.16755 3.73862 7.49456C3.74298 6.62283 4.20096 6.0221 5.02532 5.82336C5.11691 5.80078 5.13 5.75561 5.13436 5.6698C5.13872 5.32652 5.12564 4.97873 5.16053 4.63998C5.26085 3.65081 6.09393 2.90555 7.06222 2.90555C8.03487 2.91006 8.85487 3.65533 8.95519 4.64901C8.98572 4.96518 8.977 5.29039 8.977 5.61108C8.977 5.74206 8.99881 5.80078 9.14274 5.8324C9.82752 5.97242 10.3466 6.60928 10.364 7.33196C10.3771 8.10432 10.3815 8.87668 10.364 9.64905C10.3466 10.4982 9.6705 11.1802 8.84615 11.1983C8.23987 11.2118 7.64669 11.2028 7.0535 11.2028ZM7.04914 10.1233C7.61179 10.1233 8.17009 10.1233 8.73274 10.1233C9.10349 10.1233 9.31285 9.91102 9.31285 9.53161C9.31721 8.84507 9.31721 8.15852 9.31285 7.47198C9.31285 7.09257 9.10349 6.88028 8.73274 6.88028C7.61179 6.88028 6.48648 6.88028 5.36553 6.88028C4.99042 6.88028 4.78543 7.08805 4.78543 7.47198C4.78106 8.15852 4.78543 8.84507 4.78543 9.53161C4.78543 9.91102 4.99479 10.1233 5.36553 10.1233C5.92382 10.1233 6.48648 10.1233 7.04914 10.1233ZM7.90402 5.78723C7.90402 5.42589 7.93019 5.0781 7.8953 4.73935C7.85605 4.32381 7.50275 4.01667 7.1102 3.99408C6.68712 3.9715 6.28584 4.22895 6.21606 4.64449C6.15499 5.01487 6.17244 5.39879 6.15499 5.78271C6.76563 5.78723 7.33701 5.78723 7.90402 5.78723Z"
        fill="white" />
</svg>