<svg width="72" height="72" viewBox="0 0 72 72" fill="none" xmlns="http://www.w3.org/2000/svg">
<g filter="url(#filter0_d_2566_3)">
<circle cx="36" cy="32" r="32" fill="#2EB5B2"/>
</g>
<path d="M24.8557 19C31.116 22.2388 37.377 25.4769 43.6372 28.7156C45.2307 29.5401 46.8221 30.3687 48.4148 31.1939C48.7187 31.351 48.9623 31.5496 48.9952 31.9286C49.0321 32.3517 48.8576 32.6442 48.4886 32.8347C47.4755 33.3578 46.4645 33.885 45.4527 34.4109C38.757 37.8911 32.062 41.3734 25.3623 44.8449C25.1509 44.9544 24.8852 45.0013 24.645 45C24.2921 44.9979 24.011 44.6932 24.0271 44.3313C24.0432 43.9626 24.1016 43.5918 24.1814 43.2313C24.8262 40.2925 25.481 37.3564 26.1298 34.4183C26.1606 34.2782 26.213 34.2061 26.3673 34.1796C27.6903 33.953 29.0113 33.7143 30.3337 33.4809C31.8285 33.2177 33.3233 32.9564 34.8181 32.6945C35.9352 32.4986 37.0516 32.302 38.1686 32.1047C38.2076 32.0979 38.2451 32.0823 38.3424 32.053C38.2512 32.0075 38.2102 31.9741 38.1646 31.966C36.6128 31.6918 35.0603 31.4204 33.5078 31.1476C32.0211 30.8864 30.535 30.6245 29.0489 30.3619C28.1539 30.2041 27.2603 30.0388 26.3639 29.8891C26.2069 29.8626 26.16 29.785 26.1291 29.6469C25.4394 26.5116 24.7443 23.3769 24.0553 20.2401C23.9876 19.9313 23.9413 19.598 24.1707 19.3435C24.3083 19.1918 24.5243 19.1122 24.7054 19C24.7558 19 24.8054 19 24.8557 19Z" fill="white"/>
<defs>
<filter id="filter0_d_2566_3" x="0" y="0" width="72" height="72" filterUnits="userSpaceOnUse" color-interpolation-filters="sRGB">
<feFlood flood-opacity="0" result="BackgroundImageFix"/>
<feColorMatrix in="SourceAlpha" type="matrix" values="0 0 0 0 0 0 0 0 0 0 0 0 0 0 0 0 0 0 127 0" result="hardAlpha"/>
<feOffset dy="4"/>
<feGaussianBlur stdDeviation="2"/>
<feComposite in2="hardAlpha" operator="out"/>
<feColorMatrix type="matrix" values="0 0 0 0 0 0 0 0 0 0 0 0 0 0 0 0 0 0 0.25 0"/>
<feBlend mode="normal" in2="BackgroundImageFix" result="effect1_dropShadow_2566_3"/>
<feBlend mode="normal" in="SourceGraphic" in2="effect1_dropShadow_2566_3" result="shape"/>
</filter>
</defs>
</svg>
