<svg width="60" height="60" viewBox="0 0 60 60" fill="none" xmlns="http://www.w3.org/2000/svg">
<g id="Group 630">
<circle id="Ellipse 281" cx="30" cy="30" r="30" fill="#2EB5B2"/>
<path id="Vector" d="M19.0071 41C19.0071 40.8298 19.0071 40.7374 19.0071 40.6449C19.0043 34.513 19.0014 28.3811 19 22.2499C18.9993 20.9248 19.9428 20 21.2999 20C27.0938 20.0014 32.8877 20.0042 38.6809 20.009C40.0601 20.0104 40.9993 20.9276 40.9993 22.2693C41 26.1083 40.9979 29.9473 40.9957 33.7862C40.995 35.1808 40.0708 36.0764 38.628 36.0778C34.4326 36.0813 30.2364 36.0847 26.041 36.0785C25.606 36.0778 25.2482 36.2036 24.9118 36.4648C23.0476 37.9087 21.1763 39.3442 19.3071 40.7818C19.2321 40.8395 19.1536 40.8937 19.0071 41Z" fill="white"/>
</g>
</svg>
