<svg width="5" height="20" viewBox="0 0 5 20" fill="none" xmlns="http://www.w3.org/2000/svg">
<g id="Group">
<path id="Vector" d="M3.00377 16.0138C4.10405 16.0178 5.01547 16.9393 5.0002 18.0329C4.98573 19.1128 4.07673 20.0032 2.99171 20C1.89143 19.996 0.98082 19.0744 0.995287 17.9809C1.01056 16.9009 1.91956 16.0106 3.00377 16.0138Z" fill="white"/>
<path id="Vector_2" d="M5.00101 10.0303C4.99699 11.1254 4.07111 12.0318 2.97244 12.0174C1.88742 12.0022 0.992887 11.0966 0.996102 10.0175C1.00012 8.92234 1.926 8.01597 3.02468 8.03037C4.1105 8.04557 5.00503 8.95113 5.00101 10.0303Z" fill="white"/>
<path id="Vector_3" d="M3.01684 0.0449225C4.11713 0.055322 5.02291 0.983284 5.00041 2.07604C4.97871 3.15679 4.06408 4.04156 2.97987 4.03116C1.87959 4.02076 0.973799 3.0928 0.995499 2.00004C1.018 0.919287 1.93263 0.034523 3.01684 0.0449225Z" fill="white"/>
</g>
</svg>
