<svg width="12" height="12" viewBox="0 0 12 12" fill="none" xmlns="http://www.w3.org/2000/svg">
<g id="Group 632">
<path id="Vector" d="M5.30664 4.42611C5.30664 5.05541 5.30825 5.68437 5.3047 6.31366C5.30405 6.39989 5.3302 6.44414 5.40768 6.48416C6.52592 7.06335 7.64223 7.64611 8.75918 8.22789C8.8076 8.25295 8.85603 8.27898 8.90703 8.29753C9.12493 8.37562 9.34994 8.25946 9.41579 8.03689C9.47487 7.83646 9.38997 7.66758 9.16787 7.55175C8.17585 7.03406 7.18383 6.51605 6.19019 6.0013C6.1153 5.96257 6.08463 5.9219 6.0856 5.83307C6.09076 5.33361 6.08818 4.83447 6.08818 4.33501C6.08818 3.72947 6.08915 3.12393 6.08753 2.51839C6.08689 2.25678 5.8706 2.07815 5.61945 2.12728C5.42027 2.16633 5.3076 2.32381 5.30728 2.57436C5.30567 3.19128 5.30664 3.80854 5.30664 4.42611ZM11.7085 4.25984C11.6704 4.0773 11.6145 3.85246 11.4754 3.66374C11.3595 3.50691 11.1351 3.45582 10.9466 3.52318C10.76 3.58988 10.6041 3.7773 10.639 3.97253C10.6774 4.18696 10.7516 4.40366 10.8536 4.59564C10.9489 4.77428 11.1884 4.82569 11.3818 4.76159C11.5729 4.69879 11.7068 4.51169 11.7085 4.25984ZM11.7359 7.74014C11.734 7.46715 11.5829 7.27582 11.3663 7.22701C11.1413 7.17625 10.9134 7.27973 10.823 7.48765C10.7639 7.62333 10.7161 7.7652 10.6783 7.90837C10.6176 8.13776 10.7297 8.35805 10.9463 8.45989C11.1516 8.55653 11.4011 8.50154 11.5286 8.31022C11.651 8.12735 11.7046 7.91325 11.7359 7.74014ZM7.80235 11.4404C7.80558 11.1541 7.57992 10.9315 7.29197 10.9553C7.14606 10.9673 7.00047 11.0028 6.85939 11.0428C6.60566 11.115 6.46071 11.373 6.52431 11.6197C6.59275 11.8849 6.83873 12.0394 7.10409 11.9838C7.20287 11.963 7.30166 11.9425 7.40012 11.9203C7.64578 11.8641 7.79976 11.6802 7.80235 11.4404ZM10.1993 10.1532C10.2906 10.1158 10.4049 10.1011 10.4692 10.0364C10.6076 9.89646 10.7413 9.74288 10.8385 9.5727C10.9537 9.37097 10.8675 9.11391 10.6783 8.98148C10.4859 8.84677 10.2199 8.8676 10.0605 9.04103C9.96039 9.15003 9.86709 9.26717 9.78478 9.39049C9.68083 9.54635 9.6818 9.71782 9.77025 9.88084C9.85903 10.0448 10.0024 10.1281 10.1993 10.1532ZM8.81955 11.3347C9.03616 11.2803 9.27924 11.1537 9.44905 10.924C9.57333 10.7558 9.53911 10.5183 9.40159 10.3579C9.26504 10.1987 9.03519 10.1369 8.85119 10.2293C8.70947 10.3006 8.57227 10.3858 8.44572 10.4822C8.27495 10.6117 8.22524 10.8332 8.30239 11.032C8.37567 11.2211 8.55451 11.3405 8.81955 11.3347ZM11.9993 6.01854C11.9954 6.01822 11.9919 6.01757 11.988 6.01724C11.988 5.95054 11.9903 5.88383 11.9877 5.81713C11.9767 5.55519 11.7708 5.34728 11.5173 5.34044C11.2591 5.33328 11.046 5.52298 11.0267 5.7898C11.0167 5.92613 11.0221 6.06409 11.0296 6.20076C11.0431 6.44837 11.2226 6.62538 11.4815 6.65532C11.6794 6.67809 11.9018 6.52939 11.9619 6.31919C11.9893 6.22321 11.9877 6.11908 11.9993 6.01854Z" fill="white"/>
<path id="Vector_2" d="M0 5.6692C0.030345 5.44501 0.0555248 5.21952 0.0923261 4.9963C0.204344 4.31625 0.438388 3.67948 0.772828 3.07915C1.22962 2.25885 1.84685 1.58564 2.61322 1.05331C3.27822 0.591264 4.01102 0.281825 4.80419 0.124665C6.38664 -0.189005 7.86096 0.0898486 9.22648 0.954392C9.25941 0.975217 9.29266 0.995391 9.33236 1.01979C9.44503 0.856777 9.55575 0.696363 9.66713 0.535949C9.6894 0.503736 9.71103 0.470547 9.73718 0.441913C9.83209 0.338116 9.9299 0.353084 9.97574 0.488443C10.0335 0.658619 10.0774 0.833675 10.1255 1.00743C10.2259 1.36991 10.3263 1.73206 10.4238 2.09519C10.4829 2.3158 10.3725 2.46254 10.1462 2.48207C9.65292 2.52502 9.1603 2.57187 8.66736 2.61678C8.62087 2.62101 8.57374 2.62361 8.52725 2.62328C8.36197 2.62231 8.30903 2.52892 8.40006 2.38575C8.50078 2.22697 8.61086 2.07404 8.71675 1.91883C8.7345 1.8928 8.75129 1.86677 8.77744 1.8274C8.67543 1.76395 8.57697 1.69789 8.47399 1.639C7.90551 1.31329 7.29602 1.09886 6.6478 1.02337C5.25775 0.861007 3.99198 1.19225 2.88729 2.06916C1.89591 2.85593 1.269 3.88089 1.05626 5.1372C0.79478 6.68179 1.15117 8.08061 2.14255 9.29267C2.88148 10.1963 3.83702 10.7588 4.97431 11.0045C5.01983 11.0143 5.06632 11.0218 5.11151 11.0331C5.38106 11.1008 5.55022 11.3549 5.4934 11.6068C5.4311 11.8834 5.1835 12.0467 4.90071 11.9885C3.01545 11.598 1.60667 10.5506 0.685021 8.85014C0.337023 8.20784 0.134293 7.51184 0.0468087 6.78396C0.0332503 6.67203 0.0158181 6.56075 0.000322819 6.44914C0 6.18851 0 5.92885 0 5.6692Z" fill="#958E8E"/>
<path id="Vector_3" d="M5.30696 4.42644C5.30696 3.80919 5.30599 3.19161 5.30728 2.57436C5.30793 2.32381 5.42027 2.16633 5.61945 2.12728C5.8706 2.07815 6.08689 2.25678 6.08753 2.51839C6.08915 3.12393 6.08818 3.72947 6.08818 4.33501C6.08818 4.83447 6.09076 5.33394 6.0856 5.83307C6.08463 5.9219 6.1153 5.96258 6.19019 6.0013C7.18383 6.51605 8.17585 7.03406 9.16787 7.55175C9.38997 7.66758 9.47487 7.83646 9.41579 8.03689C9.35026 8.25946 9.12526 8.37562 8.90703 8.29753C8.85603 8.2793 8.8076 8.25327 8.75918 8.22789C7.64223 7.64611 6.52592 7.06335 5.40768 6.48417C5.3302 6.44414 5.30405 6.39989 5.3047 6.31366C5.30857 5.6847 5.30696 5.05541 5.30696 4.42644Z" fill="#958E8E"/>
<path id="Vector_4" d="M11.7092 4.26152C11.7076 4.51337 11.5736 4.70014 11.3825 4.76359C11.1888 4.82769 10.9493 4.77628 10.8543 4.59764C10.752 4.40566 10.6781 4.18896 10.6397 3.97453C10.6048 3.7793 10.7607 3.59188 10.9473 3.52518C11.1358 3.45782 11.3602 3.50858 11.4761 3.66574C11.6152 3.85447 11.6714 4.07898 11.7092 4.26152Z" fill="#958E8E"/>
<path id="Vector_5" d="M11.736 7.74206C11.7051 7.91516 11.6511 8.12894 11.5288 8.31278C11.4013 8.50411 11.1517 8.5591 10.9464 8.46246C10.7298 8.36061 10.6178 8.14 10.6785 7.91093C10.7166 7.76776 10.7644 7.6259 10.8231 7.49021C10.9138 7.28197 11.1414 7.17882 11.3664 7.22958C11.5827 7.27774 11.7341 7.46939 11.736 7.74206Z" fill="#958E8E"/>
<path id="Vector_6" d="M7.80272 11.4403C7.80014 11.6804 7.64648 11.8643 7.40049 11.9199C7.30203 11.9424 7.20325 11.9629 7.10447 11.9834C6.83911 12.0393 6.59312 11.8844 6.52469 11.6193C6.46109 11.3729 6.60604 11.1149 6.85977 11.0423C7.00117 11.002 7.14676 10.9669 7.29235 10.9548C7.57998 10.9314 7.80563 11.154 7.80272 11.4403Z" fill="#958E8E"/>
<path id="Vector_7" d="M10.2002 10.154C10.0033 10.1289 9.85992 10.0456 9.77115 9.88163C9.6827 9.71862 9.6814 9.54714 9.78567 9.39128C9.86767 9.26796 9.96096 9.15082 10.0614 9.04182C10.2212 8.86839 10.4868 8.84757 10.6792 8.98228C10.8684 9.11471 10.9546 9.37143 10.8394 9.5735C10.7422 9.74367 10.6085 9.89725 10.47 10.0372C10.4058 10.1019 10.2915 10.1166 10.2002 10.154Z" fill="#958E8E"/>
<path id="Vector_8" d="M8.82041 11.336C8.55538 11.3419 8.37621 11.2225 8.30293 11.0334C8.22578 10.8343 8.27549 10.613 8.44627 10.4835C8.57281 10.3875 8.71001 10.302 8.85173 10.2307C9.03573 10.1383 9.26526 10.2001 9.40213 10.3592C9.53997 10.5196 9.57387 10.7572 9.44958 10.9254C9.2801 11.1551 9.03702 11.2814 8.82041 11.336Z" fill="#958E8E"/>
<path id="Vector_9" d="M12.0004 6.02009C11.9888 6.12064 11.9904 6.22476 11.963 6.32075C11.9029 6.53094 11.6802 6.67964 11.4826 6.65687C11.2237 6.62726 11.0442 6.45025 11.0307 6.20231C11.0232 6.06565 11.0181 5.92736 11.0278 5.79135C11.0471 5.52453 11.2602 5.33483 11.5184 5.34199C11.7715 5.34883 11.9775 5.55675 11.9888 5.81868C11.9917 5.88538 11.9891 5.95209 11.9891 6.01879C11.993 6.01912 11.9969 6.01944 12.0004 6.02009Z" fill="#958E8E"/>
</g>
</svg>
