<svg width="18" height="19" viewBox="0 0 18 19" fill="none" xmlns="http://www.w3.org/2000/svg">
<path d="M14.7308 18.9997C14.4707 18.923 14.1988 18.8726 13.9519 18.7649C13.101 18.3943 12.5538 17.749 12.321 16.8593C12.2721 16.6721 12.1949 16.6497 12.0325 16.6497C8.23053 16.6531 4.42805 16.6522 0.626053 16.6536C0.394755 16.6536 0.193286 16.6104 0.0671234 16.3946C-0.100115 16.1088 0.0871725 15.7348 0.420183 15.6974C0.506736 15.6877 0.594268 15.6892 0.681799 15.6892C4.47157 15.6887 8.26133 15.6877 12.0511 15.6926C12.2164 15.6926 12.279 15.6543 12.3205 15.4835C12.6389 14.1746 13.8575 13.2757 15.2154 13.3305C16.5372 13.3839 17.6785 14.391 17.9005 15.6999C18.1636 17.2508 17.0834 18.7348 15.524 18.9648C15.4956 18.9691 15.4692 18.9876 15.4418 18.9997C15.2047 18.9997 14.968 18.9997 14.7308 18.9997ZM15.0819 18.0362C16.1128 18.0367 16.9749 17.1853 16.9758 16.1656C16.9768 15.1439 16.1167 14.2881 15.0888 14.2877C14.058 14.2872 13.1968 15.1386 13.1959 16.1588C13.1954 17.1819 14.0531 18.0357 15.0819 18.0362Z" fill="#2EB5B2"/>
<path d="M6.336 2.3541C8.24262 2.3541 10.1492 2.35313 12.0559 2.35653C12.204 2.35701 12.2769 2.33712 12.3185 2.16393C12.6427 0.803638 13.9635 -0.123439 15.3566 0.0133666C16.7835 0.153568 17.8794 1.32321 17.94 2.77083C17.9972 4.13112 16.9645 5.38954 15.5904 5.63501C14.1214 5.89747 12.6676 4.9699 12.318 3.53199C12.2744 3.35249 12.2089 3.31417 12.0368 3.31417C8.24213 3.31902 4.44747 3.31853 0.652815 3.31465C0.514916 3.31465 0.364793 3.29379 0.242053 3.23703C0.0572102 3.15165 -0.0200522 2.97797 0.00439794 2.77519C0.02787 2.58114 0.193642 2.4128 0.393155 2.37399C0.477752 2.3575 0.566262 2.35459 0.652815 2.35459C2.5477 2.3541 4.4416 2.3541 6.336 2.3541ZM15.097 0.967125C14.0671 0.963244 13.2026 1.80009 13.1962 2.80673C13.1894 3.84296 14.0368 4.70454 15.074 4.71618C16.0906 4.72734 16.9723 3.86139 16.9762 2.84845C16.9791 1.82095 16.1307 0.971006 15.097 0.967125Z" fill="#2EB5B2"/>
<path d="M5.67834 9.94938C5.58103 10.4287 5.39472 10.8469 5.10474 11.2204C4.40791 12.1179 3.19372 12.5123 2.07684 12.1979C0.980495 11.8894 0.156037 10.9303 0.0313419 9.81888C-0.134919 8.33488 0.79663 7.03619 2.26706 6.70097C3.73847 6.36575 5.29887 7.3394 5.63091 8.81127C5.66856 8.97718 5.74142 8.99368 5.88225 8.99368C9.69598 8.99077 13.5102 8.99174 17.3239 8.99028C17.5264 8.99028 17.7073 9.02327 17.8384 9.19306C17.9454 9.33181 17.9787 9.48172 17.9049 9.64423C17.8281 9.81257 17.6985 9.92075 17.5107 9.94598C17.4432 9.9552 17.3738 9.94938 17.3053 9.94938C13.5038 9.94938 9.70234 9.94938 5.90084 9.94938C5.83286 9.94938 5.7644 9.94938 5.67834 9.94938ZM2.86218 7.60816C1.82989 7.60767 0.969248 8.45664 0.967781 9.47686C0.966314 10.4888 1.83918 11.3558 2.86022 11.3567C3.88566 11.3577 4.74777 10.501 4.74826 9.47929C4.74875 8.45034 3.90082 7.60864 2.86218 7.60816Z" fill="#2EB5B2"/>
</svg>
