<svg width="21" height="19" viewBox="0 0 21 19" fill="none" xmlns="http://www.w3.org/2000/svg">
<path d="M14.2376 2.51491C13.9512 2.51491 13.6862 2.51671 13.4213 2.51431C13.0559 2.51132 12.8134 2.29354 12.8152 1.97405C12.817 1.65516 13.0594 1.44277 13.4272 1.44038C13.716 1.43858 14.0047 1.43978 14.3059 1.43978C14.341 1.35781 14.3725 1.27644 14.4093 1.19747C14.7605 0.446611 15.3457 0.0337886 16.171 0.0110534C16.8893 -0.00869026 17.6094 0.00148073 18.3283 0.00806195C19.0288 0.0146432 19.5665 0.554902 19.5736 1.26029C19.5807 2.02132 19.5796 2.78295 19.5742 3.54457C19.5695 4.2709 19.0561 4.7962 18.3313 4.82253C18.1328 4.82971 17.9332 4.82372 17.7003 4.82372C17.7526 5.16714 17.7983 5.48723 17.85 5.80672C18.1857 7.89716 18.5244 9.987 18.8547 12.078C18.8779 12.2258 18.9272 12.2898 19.071 12.3347C19.8719 12.5824 20.4803 13.0784 20.8873 13.8179C21.0851 14.1774 21.0239 14.4287 20.6841 14.6597C20.2604 14.9474 19.8327 15.2292 19.409 15.5176C18.7887 15.9406 18.1055 16.1351 17.3563 16.1339C14.502 16.1291 11.6477 16.1339 8.79347 16.1279C8.60335 16.1273 8.51957 16.1608 8.46966 16.3708C8.09357 17.9539 6.73358 19.0176 5.14068 18.9979C3.60303 18.9787 2.25136 17.8462 1.90913 16.2918C1.89784 16.2416 1.88002 16.1931 1.86219 16.1321C1.44392 16.1321 1.0292 16.1339 0.614493 16.1315C0.207505 16.1291 0.00193097 15.9215 0.00133682 15.508C-0.000445608 14.3659 -0.000445608 13.2238 0.00133682 12.0816C0.00311925 10.5859 0.564585 9.34263 1.67207 8.34707C1.6994 8.32254 1.72435 8.29502 1.74931 8.2681C1.75287 8.26451 1.7499 8.25494 1.7499 8.24357C1.62275 8.19271 1.48848 8.15263 1.36727 8.08741C0.997121 7.88579 0.75887 7.5681 0.729163 7.14869C0.700049 6.74185 0.697079 6.32365 0.757087 5.92219C0.894334 5.00381 1.69465 4.31518 2.61973 4.31099C4.79192 4.30022 6.9641 4.29782 9.13629 4.31218C10.1671 4.31877 11.0037 5.1821 11.031 6.22014C11.0381 6.481 11.0387 6.74305 11.0322 7.00391C11.0203 7.46339 10.81 7.80981 10.4351 8.06947C10.3507 8.1275 10.2658 8.23938 10.2521 8.3363C10.1499 9.06742 10.0513 9.79973 9.97819 10.5338C9.85639 11.7502 10.7797 12.8331 11.9781 12.9019C13.2044 12.9725 14.2305 12.0164 14.2346 10.7702C14.243 8.07545 14.2376 5.38074 14.2376 2.68602C14.2376 2.63636 14.2376 2.58551 14.2376 2.51491ZM15.5138 1.43978C15.7491 1.43978 15.9339 1.43858 16.1193 1.44038C16.4853 1.44397 16.7277 1.65875 16.7271 1.97764C16.7265 2.29653 16.4847 2.51192 16.1181 2.51431C15.8537 2.51611 15.5887 2.51491 15.3053 2.51491C15.3053 2.6256 15.3053 2.71354 15.3053 2.80149C15.3053 5.46569 15.3094 8.13049 15.3029 10.7947C15.2999 12.0912 14.5121 13.2782 13.3119 13.7407C12.0292 14.2349 10.854 14.0003 9.86234 13.0425C9.00915 12.218 8.77624 11.1806 8.95805 10.0235C9.04895 9.44315 9.10659 8.85802 9.18264 8.24835C9.08638 8.24835 9.0139 8.24835 8.94201 8.24835C7.57785 8.24835 6.21429 8.24596 4.85014 8.24895C2.72014 8.25434 1.07495 9.91041 1.06901 12.0523C1.06664 12.9779 1.06842 13.9034 1.06901 14.829C1.06901 14.9008 1.07555 14.9726 1.07911 15.0474C5.51439 15.0474 9.93007 15.0474 14.3612 15.0474C14.5258 14.2205 14.8989 13.5169 15.5471 12.9761C16.1947 12.4358 16.9481 12.1911 17.7817 12.1845C17.7817 12.1456 17.7846 12.1235 17.7811 12.102C17.3747 9.57058 16.9683 7.03861 16.5619 4.50723C16.4817 4.00646 16.6902 3.75457 17.1958 3.75039C17.5517 3.74739 17.9076 3.74859 18.2635 3.74979C18.4257 3.75039 18.5107 3.68278 18.5095 3.50868C18.5065 2.77756 18.5077 2.04585 18.5089 1.31473C18.5089 1.15738 18.4376 1.0814 18.2796 1.0814C17.5678 1.08319 16.856 1.07721 16.1448 1.08678C15.9 1.09037 15.6962 1.20525 15.5138 1.43978ZM5.88276 7.17322C6.25291 7.17322 6.62366 7.17322 6.99381 7.17322C7.88265 7.17322 8.77149 7.17382 9.66092 7.17262C9.93304 7.17262 9.96572 7.13792 9.9669 6.86091C9.9675 6.65929 9.97225 6.45826 9.96512 6.25664C9.94849 5.77022 9.58012 5.38612 9.09827 5.38433C6.94984 5.37774 4.80142 5.37834 2.65359 5.38373C2.16224 5.38492 1.79387 5.77501 1.78198 6.27459C1.77723 6.46843 1.7802 6.66228 1.7808 6.85613C1.78198 7.14211 1.81169 7.17203 2.1046 7.17203C3.36359 7.17382 4.62318 7.17322 5.88276 7.17322ZM2.9875 16.1434C3.09385 17.0786 4.15499 17.9246 5.20782 17.9234C6.27074 17.9222 7.3194 17.0816 7.421 16.1434C5.94277 16.1434 4.46573 16.1434 2.9875 16.1434ZM15.4538 15.051C16.2167 15.051 16.935 15.0731 17.6516 15.0402C17.9379 15.027 18.2421 14.9367 18.4958 14.8009C18.9117 14.5783 19.2938 14.2905 19.6889 14.0279C19.7008 14.0201 19.6978 13.9908 19.7031 13.9639C18.9337 13.149 17.9801 13.1244 17.0075 13.3871C16.1917 13.6073 15.6968 14.2038 15.4538 15.051Z" fill="#958E8E"/>
<path d="M17.8161 19C16.7805 18.939 15.8798 18.4191 15.3017 17.3703C15.1133 17.028 15.1858 16.7128 15.471 16.5584C15.758 16.4028 16.0467 16.5195 16.2386 16.8599C16.6545 17.597 17.2885 17.9769 18.1268 17.9105C18.9438 17.8459 19.5118 17.3912 19.8124 16.6176C19.8575 16.501 19.8789 16.3741 19.9086 16.2515C19.99 15.9122 20.2325 15.7274 20.5271 15.7812C20.8373 15.8386 21.0167 16.1001 20.9531 16.4525C20.7642 17.5031 20.1772 18.2563 19.2266 18.7194C18.8291 18.9145 18.4013 18.9982 17.8161 19Z" fill="#958E8E"/>
<path d="M4.44019 12.1963C4.09974 12.1963 3.7593 12.1992 3.41945 12.1951C3.08435 12.1909 2.85382 11.9737 2.84966 11.6692C2.84551 11.3676 3.07663 11.1289 3.40519 11.1247C4.10034 11.1163 4.79608 11.1169 5.49123 11.1247C5.82157 11.1283 6.0521 11.3646 6.04972 11.6668C6.04734 11.9737 5.8186 12.1873 5.48291 12.1963C5.46805 12.1969 5.4532 12.1963 5.43835 12.1963C5.10563 12.1963 4.77291 12.1963 4.44019 12.1963Z" fill="#958E8E"/>
<path d="M4.4538 12.9075C4.79425 12.9075 5.13469 12.9039 5.47454 12.9081C5.81677 12.9122 6.05502 13.1426 6.04967 13.4537C6.04432 13.757 5.81082 13.9784 5.4781 13.9802C4.79009 13.9844 4.10207 13.9844 3.41405 13.9796C3.0843 13.9772 2.8508 13.7487 2.84961 13.4453C2.84843 13.142 3.08252 12.9134 3.41049 12.9081C3.75865 12.9033 4.10623 12.9075 4.4538 12.9075Z" fill="#958E8E"/>
</svg>
