<svg width="23" height="21" viewBox="0 0 23 21" fill="none" xmlns="http://www.w3.org/2000/svg">
<path d="M23.0001 19.8C22.9851 19.8403 22.9683 19.8807 22.9563 19.9222C22.7494 20.6146 22.2319 20.9993 21.4972 20.9993C18.9988 21.0005 16.5004 20.9999 14.0015 20.9999C9.87247 20.9999 5.74288 20.9999 1.61389 20.9999C0.530818 20.9999 -0.124663 20.2601 0.0198665 19.1989C0.0474531 18.9938 0.17639 18.8859 0.38209 18.8722C0.491837 18.8651 0.602183 18.8711 0.735318 18.8711C0.735318 18.7632 0.732919 18.676 0.735918 18.5895C0.763505 17.6664 0.737717 16.738 0.830672 15.8215C1.02618 13.8942 1.76502 12.1637 2.96203 10.6342C4.58424 8.56166 6.70121 7.24853 9.28955 6.68059C9.45747 6.64383 9.62659 6.6136 9.79631 6.58633C9.95643 6.56084 10.1177 6.54305 10.2821 6.52112C9.95163 5.62712 10.0686 5.03192 10.6515 4.59915C11.1594 4.2221 11.8557 4.22151 12.3655 4.59737C12.9448 5.0248 13.0629 5.62534 12.7391 6.51282C15.7742 6.91595 18.2456 8.29784 20.1113 10.703C21.9812 13.114 22.4855 15.8932 22.2456 18.8657C22.5593 18.8663 22.831 18.8349 23.0007 19.0898C23.0001 19.3264 23.0001 19.5629 23.0001 19.8ZM21.5608 18.8604C21.5608 18.1929 21.5854 17.549 21.5536 16.9082C21.5242 16.3195 21.4792 15.7249 21.3623 15.1486C20.284 9.84099 15.1451 6.34149 9.74533 7.33864C5.77346 8.07197 3.17073 10.4546 1.88496 14.2345C1.37701 15.7278 1.43818 17.2793 1.46037 18.8242C1.46037 18.8355 1.47716 18.8468 1.48795 18.8604C8.1699 18.8604 14.8536 18.8604 21.5608 18.8604ZM22.2678 19.5925C15.0947 19.5925 7.92042 19.5925 0.745513 19.5925C0.7725 20.0431 1.05616 20.2891 1.53893 20.2891C8.18669 20.2897 14.8351 20.2891 21.4828 20.2891C21.52 20.2891 21.5578 20.2879 21.595 20.2885C21.9368 20.2921 22.3032 19.9494 22.2678 19.5925ZM11.5007 6.44346C11.8923 6.44642 12.2185 6.1334 12.2251 5.74806C12.2317 5.35501 11.9001 5.02302 11.5031 5.02539C11.1151 5.02777 10.7906 5.35027 10.79 5.73443C10.79 6.12095 11.1103 6.44049 11.5007 6.44346Z" fill="#958E8E"/>
<path d="M6.5587 5.73871C6.21507 5.73575 6.04715 5.47075 6.1629 5.23658C6.17249 5.21701 6.18509 5.19804 6.19708 5.17967C6.74521 4.37045 6.74701 3.90626 6.18389 3.09763C5.7497 2.47337 5.50382 1.80169 5.73051 1.05175C5.82406 0.743481 6.01897 0.457734 6.20668 0.187994C6.33441 0.00421523 6.5695 0.00836508 6.72063 0.141753C6.87355 0.276919 6.87835 0.472555 6.73442 0.656927C6.25525 1.27051 6.24446 1.85445 6.66965 2.54155C6.87475 2.87294 7.09065 3.21205 7.21239 3.57723C7.45167 4.29219 7.30414 4.96506 6.81538 5.55019C6.73622 5.64386 6.61088 5.70077 6.5587 5.73871Z" fill="#958E8E"/>
<path d="M16.5228 5.79742C16.4016 5.70316 16.2637 5.64743 16.2253 5.55199C16.1827 5.44646 16.1851 5.27632 16.2457 5.18384C16.7806 4.36217 16.783 3.89798 16.2157 3.07868C15.7785 2.44731 15.5368 1.76673 15.7857 1.01028C15.8841 0.710894 16.0778 0.434633 16.2655 0.173786C16.3896 0.00127074 16.6145 0.0113489 16.762 0.14118C16.912 0.272789 16.9378 0.473167 16.7902 0.636197C16.2151 1.26875 16.3554 2.0175 16.7423 2.57358C17.0067 2.95359 17.2448 3.34427 17.3228 3.80787C17.4313 4.45465 17.2928 5.04274 16.861 5.54784C16.78 5.6421 16.6565 5.70079 16.5228 5.79742Z" fill="#958E8E"/>
<path d="M11.5193 0C11.6315 0.0871468 11.7688 0.14228 11.8084 0.237727C11.8516 0.342659 11.8336 0.494424 11.791 0.60647C11.7454 0.726223 11.6255 0.815741 11.5625 0.931344C11.2705 1.46845 11.37 1.98481 11.6663 2.48576C11.7155 2.56875 11.776 2.64464 11.8204 2.72941C11.9128 2.90608 11.8732 3.06555 11.7155 3.17997C11.5547 3.29676 11.3724 3.28431 11.2507 3.13432C10.5484 2.26641 10.4351 1.0754 11.2027 0.211049C11.2759 0.129238 11.3916 0.0835898 11.5193 0Z" fill="#958E8E"/>
<path d="M20.8433 16.8608C20.8433 16.9201 20.8439 16.9788 20.8433 17.0381C20.8403 17.2983 20.7042 17.4531 20.4805 17.4501C20.2658 17.4477 20.1471 17.3013 20.1237 17.0517C20.0715 16.4939 20.0685 15.9224 19.9384 15.3817C19.1054 11.9219 16.9368 9.71776 13.4585 8.80954C12.8588 8.65303 12.2189 8.64176 11.5958 8.57951C11.3062 8.55047 11.1503 8.44731 11.1485 8.22381C11.1461 7.99202 11.3128 7.86396 11.6126 7.86574C16.1032 7.90013 19.9942 11.1969 20.7126 15.5827C20.7816 16.0048 20.8152 16.4322 20.8649 16.8573C20.8571 16.8591 20.8505 16.8602 20.8433 16.8608Z" fill="#958E8E"/>
</svg>
