<svg width="13" height="21" viewBox="0 0 13 21" fill="none" xmlns="http://www.w3.org/2000/svg">
<path d="M1.2393 17.0319C1.30942 16.1987 1.30616 15.3976 1.457 14.6278C1.75134 13.1268 2.60827 11.9956 3.91038 11.2093C4.16885 11.0529 4.59446 10.9574 4.51211 10.5836C4.46074 10.3481 4.15662 10.1299 3.91772 9.98257C2.17206 8.90155 1.34367 7.31171 1.30127 5.27234C1.2923 4.83927 1.29964 4.40538 1.29964 4.06699C0.935176 3.84799 0.588653 3.72038 0.361171 3.47832C0.173641 3.27825 0.0692759 2.95057 0.0317699 2.66487C-0.0228584 2.2491 0.0081248 1.82097 0.0146476 1.3986C0.0301392 0.520118 0.544624 0.00471773 1.42194 0.00307108C3.80276 -0.00186886 6.18357 0.00142443 8.56439 0.00142443C9.57135 0.00142443 10.5791 -0.00269218 11.5861 0.00307108C12.4813 0.00801102 12.986 0.523411 12.9974 1.43401C13.0015 1.76416 12.9999 2.09431 12.9983 2.42446C12.9934 3.32518 12.6542 3.74672 11.7116 3.95749C11.7116 4.32963 11.7149 4.71989 11.7108 5.11014C11.7019 5.86596 11.6236 6.60777 11.3431 7.32077C10.8922 8.46683 10.1445 9.34367 9.09926 9.98257C8.85955 10.1291 8.55298 10.3457 8.49998 10.5811C8.416 10.9533 8.84161 11.0496 9.09926 11.2085C10.8466 12.2846 11.6717 13.8794 11.71 15.9187C11.7173 16.2868 11.7108 16.6548 11.7108 17.0121C12.7504 17.3151 12.9974 17.6502 12.9974 18.7205C12.9974 19.0507 13.0048 19.3816 12.9917 19.711C12.9656 20.3746 12.5457 20.857 11.9008 20.9649C11.7345 20.9929 11.5624 20.9978 11.3937 20.9986C8.13633 21.0003 4.87983 21.0003 1.62251 20.9995C0.488365 20.9995 0.0170936 20.5277 0.0146476 19.3973C0.0138322 19.1593 0.0146476 18.9214 0.0146476 18.6843C0.0154629 17.6527 0.284528 17.297 1.2393 17.0319ZM10.381 3.96902C7.77676 3.96902 5.20923 3.96902 2.62213 3.96902C2.62213 4.54041 2.60664 5.08051 2.62539 5.61978C2.65801 6.56743 2.98822 7.41545 3.6511 8.0774C4.06285 8.48824 4.57571 8.79863 5.05676 9.13455C5.83624 9.67877 6.10367 10.6668 5.58918 11.4596C5.37149 11.7947 5.01273 12.0697 4.66295 12.2764C2.78765 13.3845 2.424 15.13 2.67105 17.0269C5.24022 17.0269 7.80938 17.0269 10.3924 17.0269C10.3924 16.5123 10.4144 16.0241 10.3883 15.5392C10.3264 14.4005 9.8559 13.4521 8.9843 12.7284C8.66386 12.4624 8.28636 12.2665 7.93983 12.0326C7.22477 11.5502 6.98425 10.6618 7.33158 9.86813C7.53542 9.40213 7.94391 9.17571 8.32631 8.89661C8.77638 8.5681 9.23787 8.22395 9.59336 7.79994C10.5229 6.68681 10.4405 5.33244 10.381 3.96902ZM1.32084 2.59819C4.80319 2.59819 8.23907 2.59819 11.6921 2.59819C11.6921 2.17088 11.6921 1.76745 11.6921 1.33521C8.22765 1.33521 4.78281 1.33521 1.32084 1.33521C1.32084 1.76745 1.32084 2.17088 1.32084 2.59819ZM11.6896 18.3994C8.22602 18.3994 4.78525 18.3994 1.32328 18.3994C1.32328 18.8275 1.32328 19.2293 1.32328 19.6533C4.78688 19.6533 8.22847 19.6533 11.6896 19.6533C11.6896 19.2293 11.6896 18.8275 11.6896 18.3994Z" fill="#958E8E"/>
</svg>
