<svg width="26" height="17" viewBox="0 0 26 17" fill="none" xmlns="http://www.w3.org/2000/svg">
<g clip-path="url(#clip0_448_1712)">
<path d="M13.0008 16.9984C9.30581 16.9984 5.60959 16.9997 1.91464 16.9971C0.955462 16.9959 0.214685 16.4023 0.0333224 15.4947C0.00394677 15.3485 0.00266957 15.1934 0.00266957 15.0434C0.000115165 10.6809 -0.00116204 6.31843 0.00139237 1.95594C0.00139237 0.772525 0.777931 0.000953342 1.96701 0.000953342C9.32241 -0.000317781 16.6765 -0.000317781 24.0319 0.000953342C25.221 0.000953342 25.9988 0.772525 25.9988 1.95467C26.0001 6.31716 26.0001 10.6797 25.9988 15.0422C25.9988 16.2243 25.221 16.9971 24.0332 16.9984C20.3562 16.9997 16.6778 16.9984 13.0008 16.9984ZM0.744724 7.03281C0.744724 7.13704 0.744724 7.22347 0.744724 7.31118C0.744724 9.87504 0.744724 12.4389 0.744724 15.0027C0.744724 15.8315 1.16875 16.2561 1.99383 16.2561C9.33008 16.2561 16.6663 16.2561 24.0026 16.2561C24.8289 16.2561 25.2555 15.8328 25.2555 15.0066C25.2568 12.4427 25.2555 9.87885 25.2555 7.315C25.2555 7.22093 25.2453 7.12814 25.2402 7.03281C17.0635 7.03281 8.91754 7.03281 0.744724 7.03281ZM0.757496 3.32748C7.54072 3.32748 14.2933 3.32748 21.0586 3.32748C21.0586 3.58171 21.0586 3.81305 21.0586 4.07363C14.278 4.07363 7.519 4.07363 0.762605 4.07363C0.762605 4.81978 0.762605 5.53669 0.762605 6.25742C8.93287 6.25742 17.0852 6.25742 25.2376 6.25742C25.2376 5.51763 25.2376 4.80198 25.2376 4.05584C24.3398 4.05584 23.4598 4.05584 22.581 4.05584C22.581 3.79907 22.581 3.57154 22.581 3.31477C23.4789 3.31477 24.3589 3.31477 25.2555 3.31477C25.2555 2.86606 25.2325 2.44787 25.2606 2.03221C25.3155 1.2314 24.7485 0.731849 23.9604 0.734391C16.651 0.749645 9.34029 0.742018 2.03087 0.742018C1.93252 0.742018 1.83418 0.740747 1.73583 0.748374C1.24794 0.786507 0.794535 1.1831 0.765159 1.66612C0.730675 2.20508 0.757496 2.74658 0.757496 3.32748Z" fill="#24A6A4"/>
<path d="M20.4175 15.1553C19.4877 15.1553 18.5566 15.1566 17.6268 15.1553C17.1964 15.1541 17.0852 15.0435 17.084 14.6202C17.0827 13.4902 17.0827 12.3589 17.084 11.2288C17.084 10.8361 17.1989 10.7217 17.5961 10.7217C19.4838 10.7204 21.3715 10.7204 23.258 10.7217C23.6577 10.7217 23.7752 10.8361 23.7765 11.2263C23.7791 12.3652 23.7791 13.5054 23.7765 14.6443C23.7752 15.0371 23.6577 15.1541 23.2618 15.1553C22.3141 15.1566 21.3664 15.1553 20.4175 15.1553ZM23.0204 11.4716C21.286 11.4716 19.5668 11.4716 17.849 11.4716C17.849 11.7195 17.849 11.9457 17.849 12.1949C18.4621 12.1949 19.0585 12.1949 19.6703 12.1949C19.6703 12.4504 19.6703 12.6855 19.6703 12.9474C19.0483 12.9474 18.4442 12.9474 17.8528 12.9474C17.8528 13.452 17.8528 13.9274 17.8528 14.4028C19.586 14.4028 21.2987 14.4028 23.0217 14.4028C23.0217 14.2833 23.0217 14.1804 23.0217 14.0482C22.4061 14.0482 21.8019 14.0482 21.1914 14.0482C21.1914 13.7851 21.1914 13.5512 21.1914 13.2906C21.816 13.2906 22.4188 13.2906 23.0204 13.2906C23.0204 12.669 23.0204 12.0767 23.0204 11.4716Z" fill="#24A6A4"/>
<path d="M11.4974 14.4346C11.4974 14.6723 11.4974 14.8922 11.4974 15.1337C8.41295 15.1337 5.33617 15.1337 2.24023 15.1337C2.24023 14.9011 2.24023 14.6761 2.24023 14.4346C5.3234 14.4346 8.39379 14.4346 11.4974 14.4346Z" fill="#24A6A4"/>
<path d="M7.78772 12.5811C7.78772 12.8213 7.78772 13.0425 7.78772 13.2853C5.94217 13.2853 4.09789 13.2853 2.23828 13.2853C2.23828 13.0526 2.23828 12.8264 2.23828 12.5811C4.08512 12.5811 5.92173 12.5811 7.78772 12.5811Z" fill="#24A6A4"/>
</g>
<defs>
<clipPath id="clip0_448_1712">
<rect width="26" height="17" fill="white"/>
</clipPath>
</defs>
</svg>
