<svg width="25" height="24" viewBox="0 0 25 24" fill="none" xmlns="http://www.w3.org/2000/svg">
<path d="M13.9616 5.18066C15.8294 7.0484 17.6663 8.88535 19.5238 10.7531C19.4519 10.8352 19.3596 10.9378 19.2672 11.0302C15.1418 15.1556 11.0163 19.2811 6.90116 23.4065C6.68565 23.622 6.47015 23.7144 6.16228 23.7144C4.58188 23.7041 3.01175 23.6938 1.43136 23.7144C1.06192 23.7144 0.97982 23.6015 0.990082 23.2628C1.01061 21.6619 0.990082 20.061 1.00034 18.4498C1.00034 18.2753 1.06192 18.0598 1.1748 17.9367C5.39261 13.7086 9.62067 9.48056 13.8487 5.2525C13.8898 5.24224 13.9308 5.21145 13.9616 5.18066Z" fill="#484848"/>
<path d="M21.5446 8.68063C19.7076 6.85394 17.8604 5.00672 15.9824 3.12872C16.4032 2.71823 16.8445 2.27695 17.2857 1.83568C17.7578 1.36361 18.2196 0.891546 18.7019 0.41948C19.2664 -0.134684 20.0155 -0.144946 20.5902 0.41948C21.8422 1.65096 23.0839 2.89269 24.3154 4.14469C24.7875 4.62702 24.8798 5.35564 24.4386 5.81745C23.4944 6.81289 22.499 7.74676 21.5446 8.68063Z" fill="#484848"/>
</svg>
