<svg width="11" height="13" viewBox="0 0 11 13" fill="none" xmlns="http://www.w3.org/2000/svg">
<path d="M1.14546 12.9059C0.999547 12.724 0.990185 12.4985 0.984051 12.259C0.951768 10.9873 0.966295 9.71534 0.965327 8.44373C0.965004 7.89634 0.979854 7.34935 0.986311 6.80196C0.987925 6.65806 1.0441 6.54748 1.10091 6.42593C1.16645 6.28595 1.27556 6.30791 1.36628 6.26124C2.44646 6.26124 3.52696 6.26399 4.60714 6.25928C4.76016 6.2585 4.81504 6.32712 4.81472 6.51141C4.81181 8.58724 4.81343 10.6631 4.81278 12.7389C4.81278 12.9773 4.79535 12.9969 4.60068 12.9969C3.68708 12.9977 2.77316 12.9969 1.85956 12.9981C1.61873 12.9981 1.37629 13.0212 1.14546 12.9059Z" fill="#484848"/>
<path d="M9.1746 6.25928C9.19447 6.26045 9.21468 6.26163 9.23455 6.26242C9.27268 6.30478 9.32156 6.2989 9.3675 6.30478L9.36522 6.30204C9.36913 6.32714 9.38249 6.33695 9.40302 6.33577L9.40432 6.33616C9.56529 6.53937 9.63014 6.77866 9.62916 7.06149C9.62427 8.42702 9.62786 9.79255 9.62818 11.1581C9.62818 11.5696 9.63112 11.9815 9.62492 12.393C9.61939 12.7621 9.42648 12.9983 9.128 12.999C8.01521 13.0014 6.90275 12.9987 5.78997 12.9979L5.79127 12.9994C5.78801 12.941 5.78182 12.8825 5.78182 12.8237C5.7815 10.785 5.77987 8.74633 5.78313 6.70805C5.78378 6.24712 5.6984 6.26477 6.16242 6.26359C7.16669 6.26124 8.17065 6.26085 9.1746 6.25928Z" fill="#484848"/>
<path d="M5.78662 5.77076C5.78375 5.17281 5.78087 4.57517 5.77735 3.97722C5.77703 3.9304 5.78822 3.88867 5.81956 3.85205C7.09565 3.85235 8.37142 3.85235 9.64751 3.85265C9.80706 3.85265 9.96662 3.85835 10.1258 3.85265C10.3573 3.84425 10.6048 4.06187 10.5904 4.2876C10.5722 4.57607 10.5792 4.86664 10.5901 5.1557C10.5994 5.40215 10.5869 5.63178 10.3254 5.77166L10.325 5.77196C9.00323 5.77406 7.68142 5.77646 6.35928 5.77796C6.1684 5.77796 5.97751 5.77316 5.78662 5.77076Z" fill="#484848"/>
<path d="M4.35213 3.65608C4.03341 3.5499 3.70954 3.45878 3.39707 3.33478C2.68573 3.05269 1.99755 2.71712 1.45275 2.12483C1.13881 1.78332 0.912354 1.39546 0.972643 0.88002C1.01565 0.51355 1.21086 0.251672 1.50863 0.125685C1.98763 -0.0763683 2.4817 -0.0173369 2.95483 0.178774C3.81541 0.536132 4.44808 1.18865 4.9484 2.00597C4.96495 2.03331 4.98737 2.05669 5.00722 2.08165C5.04141 2.18386 5.07633 2.28608 5.15427 2.36135L5.1539 2.36175C5.1789 2.41246 5.20463 2.46317 5.22889 2.51467C5.27117 2.60461 5.33697 2.5852 5.36271 2.52022C5.4116 2.39661 5.51122 2.30034 5.5263 2.16009C5.84061 1.62524 6.22146 1.1522 6.68061 0.757995C7.11954 0.381224 7.61104 0.117366 8.17166 0.0222815C8.36759 0.0226777 8.56317 0.0230738 8.7591 0.0230738C9.43588 0.15738 9.68403 0.658949 9.61969 1.19895C9.56749 1.63713 9.30979 1.95764 9.00982 2.24052C8.46538 2.75397 7.83896 3.10261 7.15446 3.34587C6.73759 3.49404 6.3152 3.61765 5.89281 3.74245C5.57813 3.81257 5.26492 3.90013 4.93995 3.8197L4.94032 3.8205C4.85613 3.73651 4.74989 3.74483 4.64733 3.73849V3.74007C4.5613 3.66282 4.45727 3.65727 4.35213 3.65608ZM7.6581 0.817423C7.55516 0.837232 7.46657 0.885566 7.39452 0.968765C7.38312 0.966784 7.37283 0.969557 7.364 0.977877C7.24563 1.02582 7.14858 1.10624 7.0655 1.20766C6.64789 1.52897 6.33578 1.95526 6.04978 2.40533C5.92957 2.5947 5.82553 2.79597 5.74503 3.00951C5.70716 3.10974 5.70973 3.18502 5.84097 3.14619C6.66406 2.90492 7.48863 2.66245 8.21356 2.15454C8.52971 1.93308 8.83153 1.68229 9.00872 1.30631C9.1201 1.06979 9.08518 0.721942 8.73374 0.636367C8.34517 0.542075 8.00108 0.649441 7.6581 0.817423ZM2.14975 0.604276C2.07181 0.60903 2.00417 0.609426 1.93763 0.617746C1.59612 0.660534 1.45495 0.874869 1.55421 1.23381C1.63766 1.53491 1.85713 1.73419 2.07512 1.92119C2.85888 2.59312 3.80071 2.86847 4.74254 3.14183C4.83444 3.16838 4.89878 3.14659 4.84621 3.02615C4.75871 2.82489 4.68446 2.61214 4.56755 2.43187C4.27089 1.97428 3.94886 1.5365 3.52279 1.20489C3.10812 0.881208 2.67433 0.607445 2.14975 0.604276Z" fill="#484848"/>
<path d="M0.168202 3.91439C0.431537 3.83677 0.702841 3.85445 0.972871 3.85445C2.17796 3.85445 3.38305 3.85715 4.58782 3.85206C4.74754 3.85146 4.79473 3.8985 4.80206 4.04773C4.82661 4.55146 4.80684 5.05518 4.81354 5.55861C4.81609 5.7423 4.77592 5.77676 4.58495 5.77676C3.2313 5.77706 1.87764 5.77646 0.523991 5.77796C0.359167 5.77826 0.209328 5.75908 0.0955142 5.62813C0.0110304 5.53104 0.00656708 5.41478 0.00369782 5.3045C-0.00459116 4.96049 0.00401662 4.61619 0.00146617 4.27188C0.000190942 4.12684 0.0916885 4.02466 0.168202 3.91439Z" fill="#484848"/>
</svg>
