<svg width="17" height="11" viewBox="0 0 17 11" fill="none" xmlns="http://www.w3.org/2000/svg">
<path d="M4.19429 2.05147C4.14946 2.09761 4.10553 2.17677 4.04102 2.20165C3.93717 2.241 3.84978 2.1822 3.81363 2.07771C3.76788 1.94472 3.73128 1.80901 3.69285 1.67376C3.62651 1.44125 3.562 1.20784 3.49703 0.974883C3.46455 0.857725 3.50618 0.755495 3.61965 0.736044C3.68873 0.724283 3.82462 0.776755 3.84109 0.828323C3.96736 1.21915 4.07168 1.61631 4.19429 2.05147Z" fill="#484848"/>
<path d="M2.56103 1.99756C2.6228 2.00615 2.6475 2.00434 2.66717 2.01339C2.93116 2.13055 3.19607 2.24545 3.45731 2.36894C3.5598 2.41734 3.62843 2.52138 3.5662 2.61727C3.52228 2.68467 3.37999 2.76067 3.32235 2.73669C3.03456 2.61863 2.75639 2.47524 2.48508 2.32325C2.43933 2.29746 2.41737 2.1794 2.43247 2.11472C2.44436 2.06179 2.52809 2.0256 2.56103 1.99756Z" fill="#484848"/>
<path d="M5.38957 1.12007C5.36624 1.19923 5.358 1.23768 5.34382 1.27386C5.26009 1.48828 5.17591 1.70269 5.08944 1.9162C5.03819 2.0424 4.94943 2.11568 4.81035 2.05416C4.68773 1.99943 4.65937 1.90172 4.71427 1.77371C4.80943 1.55161 4.88447 1.32091 4.99198 1.10514C5.02493 1.0391 5.13702 0.975768 5.21114 0.977577C5.27565 0.979386 5.33741 1.07528 5.38957 1.12007Z" fill="#484848"/>
<path d="M8.45214 3.62881C7.68534 3.31941 6.96566 3.53925 6.54291 4.17706C6.29996 4.54346 6.17094 4.94695 6.18558 5.3889C6.18558 5.45675 6.18055 5.5246 6.1865 5.592C6.24735 6.26962 6.55343 6.7871 7.21226 7.04358C7.89534 7.30956 8.55326 7.26026 9.11052 6.75272C10.0306 5.91498 10.0489 4.27341 8.45214 3.62881Z" fill="#484848"/>
<path d="M16.4254 6.48612C16.2945 5.78363 16.1934 5.07435 16.0282 4.37999C15.7391 3.16182 15.3493 1.97486 14.7778 0.851683C14.7138 0.725931 14.6397 0.644056 14.5157 0.586608C13.8866 0.294391 13.2291 0.104858 12.5364 0.0370056C10.9438 -0.119507 9.46967 0.215683 8.16161 1.1335C7.52566 1.57951 6.93729 2.09338 6.33702 2.58824C5.10812 3.60015 3.69849 4.11854 2.09854 4.05837C1.52252 4.03666 0.950161 3.90458 0.377344 3.81501C0.230022 3.79194 0.106034 3.80506 0.0566212 3.9566C0.0200195 4.06878 -0.0156672 4.1986 0.0072089 4.30852C0.0493009 4.51027 0.123419 4.70794 0.203943 4.89929C0.405253 5.37697 0.624863 5.8465 0.823885 6.32509C1.26539 7.38765 1.66618 8.46379 1.89174 9.59556C1.95671 9.92125 2.01573 10.2478 2.07932 10.574C2.12599 10.8137 2.19325 10.8875 2.42887 10.9232C2.61462 10.9512 2.80266 10.9644 2.99025 10.9757C3.81287 11.0259 4.63275 10.9969 5.44805 10.8752C6.25649 10.7545 7.04114 10.5545 7.78187 10.2003C8.57521 9.82128 9.17914 9.22056 9.77163 8.59587C10.1642 8.18152 10.5595 7.74772 11.0275 7.42927C12.5529 6.39203 14.1881 6.33775 15.8727 7.03346C15.972 7.07463 16.069 7.12665 16.1719 7.15379C16.3911 7.21124 16.499 7.12258 16.4995 6.84076C16.483 6.76025 16.451 6.62364 16.4254 6.48612ZM13.7745 0.878824C13.904 0.87611 13.9776 0.957533 13.9822 1.07514C13.9863 1.18868 13.9154 1.26015 13.7795 1.26377C13.6656 1.25427 13.5915 1.18552 13.5842 1.06474C13.5764 0.940343 13.6578 0.881086 13.7745 0.878824ZM1.61585 4.89929C1.59938 5.01961 1.52984 5.09334 1.39624 5.08837C1.26448 5.0852 1.19082 5.01464 1.19631 4.88798C1.20134 4.76811 1.27043 4.68759 1.40082 4.68216C1.51337 4.67764 1.6305 4.79208 1.61585 4.89929ZM3.10783 10.1949C2.99711 10.1936 2.90423 10.1013 2.90012 9.9701C2.90423 9.86109 2.96829 9.78509 3.09868 9.78374C3.22358 9.78238 3.30502 9.84254 3.3128 9.97417C3.32058 10.0977 3.2277 10.1963 3.10783 10.1949ZM7.71462 8.77002C7.69357 8.81797 7.61854 8.84511 7.56546 8.87723C6.4148 9.56616 5.16851 9.89863 3.82248 9.86244C3.66738 9.85837 3.59143 9.79595 3.59006 9.63898C3.58823 9.45895 3.47476 9.39517 3.30548 9.47207C3.08358 9.57294 2.97927 9.52002 2.93397 9.28344C2.69835 8.04401 2.30214 6.85659 1.75494 5.71804C1.73527 5.67733 1.71651 5.63616 1.69684 5.59545C1.65108 5.50046 1.64148 5.40908 1.73756 5.33806C1.83821 5.26388 1.92056 5.30097 2.01436 5.36973C2.06285 5.40501 2.14841 5.39099 2.21704 5.39913C2.18501 5.34395 2.16625 5.27112 2.11867 5.23764C2.02259 5.17024 1.96723 5.0947 2.01298 4.98252C2.05691 4.87441 2.14795 4.83777 2.26416 4.85812C3.09365 5.00423 3.88562 4.8916 4.63961 4.52022C4.7604 4.46051 4.87661 4.44468 4.94432 4.58581C5.00929 4.72106 4.93746 4.80475 4.81301 4.86717C4.18484 5.18336 3.51823 5.32042 2.81639 5.30369C2.77155 5.30278 2.72626 5.30369 2.66312 5.30369C2.64253 5.56831 2.50665 5.73115 2.2422 5.81032C2.71985 6.84483 3.05613 7.92006 3.28764 9.03555C3.3764 9.05048 3.47751 9.04324 3.5498 9.08486C3.6779 9.15859 3.81607 9.24273 3.89751 9.35853C3.9698 9.46076 4.02745 9.49785 4.14915 9.49423C5.30073 9.45805 6.37088 9.15226 7.35729 8.5624C7.41082 8.53028 7.46435 8.4769 7.51971 8.47464C7.59566 8.47102 7.71416 8.48505 7.73978 8.53164C7.77181 8.59089 7.74664 8.6972 7.71462 8.77002ZM7.94612 7.56271C6.8467 7.56 6.02133 6.91359 5.8342 5.84741C5.68642 5.00785 5.90146 4.24112 6.51133 3.62005C6.99814 3.12473 7.61213 2.99174 8.27554 3.16001C9.24228 3.40473 9.91438 3.97605 10.0969 4.9789C10.3307 6.25723 9.36627 7.59075 7.94612 7.56271ZM14.9622 5.14808C14.8492 5.14446 14.7344 5.1336 14.6232 5.14898C14.4356 5.17477 14.3674 5.25936 14.3578 5.4412C14.3455 5.67144 14.2956 5.71261 14.0614 5.69587C13.7091 5.67054 13.3572 5.63209 13.0045 5.62757C12.2688 5.61762 11.5912 5.83655 10.9511 6.18214C10.9063 6.20657 10.8619 6.23236 10.8171 6.25678C10.7031 6.31921 10.6062 6.2993 10.5394 6.18803C10.468 6.06906 10.5188 5.97452 10.6295 5.92295C10.9946 5.75332 11.3533 5.56198 11.7339 5.43532C12.4312 5.20327 13.1541 5.1802 13.8811 5.28288C13.9031 5.28604 13.9259 5.28333 13.9566 5.28333C14.098 4.92779 14.135 4.89748 14.636 4.71473C14.372 3.82089 14.1085 2.92705 13.8459 2.03864C13.7544 2.03864 13.6583 2.04271 13.5631 2.03774C13.3028 2.02372 13.139 1.90384 13.09 1.65505C13.0667 1.53654 13.0072 1.51075 12.9121 1.49899C11.6118 1.34158 10.3934 1.56956 9.27156 2.25441C9.26195 2.26029 9.2528 2.26798 9.24274 2.27296C9.15444 2.31729 9.06247 2.40369 8.97417 2.28065C8.89045 2.16349 8.9211 2.02417 9.06156 1.95089C9.40333 1.77221 9.74098 1.57861 10.0997 1.43973C11.0984 1.05253 12.1356 0.97246 13.1934 1.13033C13.4556 1.16968 13.4981 1.21492 13.5178 1.43566C13.5238 1.50533 13.5636 1.6252 13.5974 1.62836C13.677 1.63651 13.7786 1.60801 13.8431 1.5587C14.0275 1.41757 14.1524 1.45014 14.2151 1.67224C14.4571 2.52763 14.6964 3.38392 14.9457 4.23705C15.008 4.45056 15.0995 4.65638 15.1855 4.86265C15.2482 5.01057 15.1397 5.15351 14.9622 5.14808ZM15.3589 5.78091C15.2308 5.77096 15.1681 5.6918 15.1658 5.56695C15.1635 5.43668 15.2605 5.32088 15.3744 5.32404C15.5186 5.32766 15.5657 5.42265 15.5725 5.51538C15.5735 5.68366 15.4801 5.78996 15.3589 5.78091Z" fill="#484848"/>
</svg>
