<svg width="14" height="14" viewBox="0 0 14 14" fill="none" xmlns="http://www.w3.org/2000/svg">
<path d="M0.518033 1.82695C0.281713 1.53589 0.0892425 1.23437 0.0186181 0.866569C-0.0915868 0.29375 0.299563 -0.0965274 0.871542 0.0209045C1.19634 0.0875655 1.47767 0.242591 1.73184 0.449163C1.79936 0.504197 1.8436 0.509623 1.9181 0.455751C2.21845 0.239103 2.55566 0.183681 2.91033 0.278247C3.75356 0.503422 4.59523 0.733635 5.43573 0.968111C5.88315 1.09291 6.25878 1.33862 6.58668 1.66689C8.45357 3.53495 10.3228 5.40029 12.1912 7.26641C12.66 7.73459 13.1295 8.20238 13.5979 8.67133C14.1326 9.20656 14.1342 9.89526 13.6018 10.4274C12.5447 11.4839 11.4873 12.5404 10.4295 13.5957C9.88856 14.1356 9.20133 14.1344 8.66001 13.5942C6.36316 11.301 4.07059 9.00425 1.76715 6.71762C1.32517 6.2789 1.02288 5.78049 0.871154 5.17706C0.692653 4.46704 0.494362 3.76206 0.293742 3.05786C0.166852 2.61022 0.201 2.1994 0.518033 1.82695ZM6.36898 6.71452C6.43495 6.77304 6.47298 6.80715 6.5114 6.84048C6.89323 7.17534 7.44581 7.15867 7.79428 6.80211C8.14546 6.44284 8.14585 5.8801 7.79195 5.50959C7.64837 5.35921 7.49936 5.21426 7.3519 5.06776C7.1734 4.89065 7.08376 4.89142 6.90371 5.07125C6.29138 5.68244 5.67943 6.29401 5.06709 6.9052C5.03644 6.93582 5.0019 6.9645 4.97745 6.99977C4.90838 7.09937 4.90993 7.20208 4.99297 7.29044C5.0764 7.37919 5.1804 7.38617 5.28284 7.323C5.32708 7.29548 5.36317 7.25401 5.40042 7.21642C5.56301 7.05442 5.72444 6.89125 5.91808 6.69708C5.91808 6.78855 5.91808 6.83428 5.91808 6.88001C5.91808 7.2761 5.9173 7.67219 5.91846 8.06828C5.91885 8.2485 5.99685 8.34423 6.14004 8.34578C6.284 8.34733 6.36666 8.25199 6.36743 8.07332C6.36937 7.68188 6.36821 7.29083 6.36821 6.89939C6.36898 6.84939 6.36898 6.79862 6.36898 6.71452ZM8.78767 7.14472C9.03913 7.39702 9.29407 7.65359 9.55018 7.90899C9.67979 8.03805 9.81677 8.05433 9.91766 7.9555C10.0248 7.85047 10.0127 7.72684 9.87692 7.59042C9.57696 7.28889 9.27583 6.98814 8.97393 6.68856C8.82764 6.54322 8.71433 6.54554 8.56416 6.69514C7.93785 7.3199 7.31194 7.94543 6.68602 8.57095C6.53352 8.72365 6.53429 8.83566 6.68835 8.99069C6.94058 9.24415 7.19397 9.49684 7.44775 9.74915C7.51605 9.81736 7.58124 9.891 7.65846 9.94758C7.75664 10.0197 7.86257 10.0077 7.94755 9.92123C8.03215 9.83519 8.04185 9.73287 7.96967 9.6321C7.93902 9.58947 7.89944 9.55265 7.8618 9.51506C7.61888 9.27322 7.37557 9.03216 7.15012 8.80892C7.37596 8.58142 7.59172 8.36399 7.8098 8.14425C7.81911 8.15316 7.84045 8.17254 7.86102 8.19269C8.10083 8.43182 8.33909 8.67172 8.58007 8.9093C8.69609 9.02363 8.82919 9.03332 8.92698 8.94185C9.03292 8.84225 9.02554 8.71435 8.90292 8.58607C8.8226 8.50235 8.73917 8.42174 8.65651 8.33997C8.47568 8.1613 8.29408 7.98302 8.11946 7.81094C8.34763 7.58344 8.5595 7.37222 8.78767 7.14472ZM10.4291 8.79225C10.4555 8.81706 10.4908 8.84922 10.5246 8.88294C10.7504 9.10812 10.9716 9.33872 11.2052 9.55614C11.265 9.61156 11.3682 9.66001 11.4438 9.65071C11.6367 9.62745 11.6864 9.40228 11.5374 9.25074C11.2355 8.94418 10.9297 8.6411 10.6247 8.33764C10.466 8.1799 10.3631 8.17951 10.2068 8.3357C9.58045 8.96046 8.95414 9.58599 8.32862 10.2115C8.17184 10.3681 8.17262 10.4723 8.33055 10.6305C8.6243 10.925 8.91883 11.2184 9.21297 11.5122C9.21996 11.5192 9.22655 11.5261 9.23354 11.5327C9.36043 11.6529 9.49159 11.6633 9.59132 11.5614C9.68367 11.4668 9.67474 11.3304 9.56299 11.2138C9.45589 11.1021 9.34529 10.9936 9.23509 10.8855C9.08026 10.7336 8.92426 10.5832 8.77681 10.4394C9.00575 10.21 9.21996 9.99564 9.46248 9.75264C9.51642 9.81852 9.57269 9.89797 9.63982 9.96657C9.83578 10.1673 10.0341 10.3654 10.2351 10.5611C10.3468 10.67 10.4737 10.6747 10.5707 10.5836C10.6639 10.4964 10.6631 10.3549 10.5657 10.2472C10.5137 10.1898 10.4574 10.1367 10.4023 10.0825C10.1862 9.87007 9.96927 9.65807 9.76438 9.45731C9.99527 9.22594 10.2095 9.01161 10.4291 8.79225ZM4.4955 4.8391C4.54013 4.88057 4.57544 4.91157 4.6092 4.9449C4.84203 5.17667 5.07291 5.41114 5.30807 5.64058C5.41788 5.74794 5.54827 5.75065 5.64373 5.65841C5.74113 5.56462 5.74113 5.4375 5.6348 5.32394C5.51878 5.2007 5.39732 5.08288 5.27664 4.96428C5.12646 4.81701 4.97435 4.67167 4.83814 4.5399C5.07252 4.30581 5.28673 4.09226 5.50558 3.87368C5.52964 3.89654 5.56495 3.92832 5.59871 3.96204C5.82456 4.18722 6.05079 4.41239 6.27547 4.63912C6.3523 4.71663 6.43689 4.76391 6.54748 4.72399C6.71551 4.66315 6.74694 4.46665 6.60724 4.3248C6.30845 4.02212 6.00616 3.72253 5.70465 3.42255C5.53779 3.25668 5.43418 3.25784 5.26461 3.42682C4.64529 4.04498 4.02635 4.66315 3.40742 5.2817C3.38336 5.30573 3.35853 5.32898 3.33835 5.35572C3.26423 5.45416 3.26928 5.55377 3.34727 5.6464C3.42333 5.7367 3.5475 5.74949 3.6484 5.67895C3.68759 5.65143 3.72019 5.61462 3.75433 5.58051C3.99958 5.33557 4.24482 5.09024 4.4955 4.8391ZM1.83312 2.68889C1.88977 2.99119 2.20176 3.21017 2.53471 3.1811C2.89675 3.14932 3.16334 2.86834 3.16877 2.51294C3.17382 2.17809 2.95341 1.88547 2.67324 1.85408C2.65733 2.47884 2.55294 2.5827 1.83312 2.68889ZM1.77336 2.63851C1.79082 2.48581 1.80712 2.34048 1.82497 2.18506C1.43421 2.06957 1.12183 1.81959 0.861841 1.51651C0.747368 1.62426 0.642984 1.72231 0.533943 1.82463C0.868826 2.23196 1.27239 2.51527 1.77336 2.63851ZM1.47651 0.848354C1.26308 0.668136 1.02909 0.528226 0.751636 0.476292C0.54054 0.436761 0.438872 0.545278 0.4769 0.757664C0.52657 1.03748 0.673251 1.26731 0.845931 1.4797C1.05354 1.27157 1.25804 1.06694 1.47651 0.848354ZM1.86533 2.1401C1.87425 2.16568 1.88279 2.19088 1.89171 2.21645C1.97631 2.19591 2.07953 2.19863 2.14123 2.14941C2.21418 2.09127 2.23513 1.9874 2.15597 1.86338C2.05314 1.96105 1.95923 2.05058 1.86533 2.1401Z" fill="#484848"/>
</svg>
