<svg width="14" height="14" viewBox="0 0 14 14" fill="none" xmlns="http://www.w3.org/2000/svg">
<path d="M7.1404 0.000622859C7.42072 0.208035 7.70665 0.407973 7.97888 0.624728C8.15517 0.764871 8.33644 0.789785 8.54513 0.732482C8.80614 0.660853 9.06902 0.595453 9.33253 0.531299C9.62656 0.459047 9.76236 0.514482 9.91872 0.769854C10.0769 1.02772 10.2165 1.29866 10.3934 1.54282C10.4706 1.64933 10.6108 1.74276 10.7391 1.77328C11.0319 1.84366 11.334 1.87356 11.6331 1.91778C11.9227 1.96076 12.0405 2.0791 12.0809 2.36437C12.1239 2.66334 12.1551 2.96605 12.2255 3.2588C12.2566 3.38711 12.3482 3.5285 12.4547 3.60573C12.6989 3.78262 12.9699 3.92214 13.2278 4.07973C13.4832 4.23606 13.5393 4.37247 13.4689 4.66521C13.4053 4.92868 13.3412 5.19215 13.2683 5.45313C13.2097 5.66241 13.2328 5.84366 13.3736 6.01931C13.5579 6.24914 13.7255 6.49268 13.9012 6.72999C14.0326 6.90813 14.0345 7.08689 13.9031 7.26565C13.7236 7.50919 13.5505 7.75833 13.3617 7.99502C13.2315 8.15758 13.2116 8.32825 13.2596 8.51884C13.3243 8.77421 13.3873 9.02959 13.4514 9.28496C13.5417 9.64435 13.4994 9.75148 13.1898 9.93896C12.9443 10.0878 12.6877 10.2211 12.4572 10.3905C12.3507 10.469 12.2566 10.6079 12.2255 10.7356C12.1545 11.0283 12.1233 11.331 12.0809 11.63C12.0398 11.9178 11.9246 12.0349 11.6349 12.0772C11.3359 12.1215 11.0332 12.1514 10.7404 12.2224C10.6121 12.2535 10.4713 12.3457 10.3934 12.4522C10.2202 12.6895 10.0844 12.9536 9.9318 13.2052C9.76111 13.4855 9.63216 13.5378 9.31073 13.4581C9.04784 13.3927 8.78496 13.3254 8.5227 13.2582C8.33208 13.209 8.16078 13.227 7.99819 13.3572C7.77455 13.5366 7.5397 13.7035 7.30672 13.8704C7.06502 14.0436 6.93358 14.0424 6.69562 13.8704C6.46264 13.7023 6.22716 13.5372 6.0029 13.3578C5.84032 13.2283 5.66963 13.2083 5.47839 13.2576C5.21613 13.3254 4.95325 13.3921 4.69036 13.4575C4.36768 13.5378 4.23811 13.4855 4.06929 13.2065C3.92041 12.9611 3.79208 12.7007 3.62015 12.4727C3.53232 12.3563 3.37969 12.256 3.23766 12.2199C2.94613 12.1457 2.64275 12.119 2.34374 12.0741C2.08647 12.0361 1.96126 11.9122 1.92201 11.6531C1.87716 11.3541 1.85099 11.0508 1.77686 10.7586C1.74073 10.6173 1.64106 10.4634 1.52457 10.3762C1.29035 10.1999 1.02373 10.0666 0.772682 9.9128C0.51603 9.75584 0.461211 9.62192 0.532849 9.32794C0.597012 9.06509 0.662421 8.80162 0.73406 8.54064C0.79137 8.33198 0.767075 8.14949 0.626291 7.97446C0.4419 7.74463 0.274328 7.50109 0.0992815 7.26378C-0.0327822 7.08502 -0.0334051 6.90813 0.0992815 6.72874C0.274951 6.49206 0.4419 6.2479 0.626291 6.01806C0.767075 5.84304 0.79137 5.66054 0.73406 5.45188C0.661798 5.19091 0.597012 4.92744 0.532849 4.66459C0.460588 4.36936 0.515407 4.23731 0.772682 4.08035C1.03058 3.92277 1.30094 3.782 1.54451 3.60448C1.65103 3.52663 1.74385 3.38586 1.77437 3.25755C1.84477 2.96481 1.87591 2.6621 1.9189 2.36313C1.96001 2.07661 2.08148 1.95515 2.36554 1.91467C2.66456 1.87231 2.96731 1.84117 3.26009 1.77079C3.38842 1.73965 3.52982 1.64808 3.60707 1.54158C3.78398 1.29742 3.92352 1.02709 4.08113 0.768608C4.23686 0.513236 4.37266 0.457801 4.66732 0.530053C4.9302 0.59483 5.19308 0.66023 5.45471 0.731859C5.6634 0.789162 5.8453 0.764248 6.02097 0.624105C6.29382 0.40735 6.57975 0.207412 6.86007 0C6.95351 0.000622859 7.04695 0.000622859 7.1404 0.000622859ZM4.13345 10.3326C4.28358 10.2249 4.41876 10.1532 4.52279 10.0492C6.35985 8.218 8.19317 6.38244 10.0277 4.54749C10.3081 4.26721 10.3517 4.01682 10.1536 3.82934C9.96295 3.64871 9.72747 3.69604 9.45213 3.97135C7.62318 5.80006 5.79422 7.62878 3.96588 9.45874C3.90047 9.52414 3.80641 9.58954 3.78897 9.66864C3.75969 9.80255 3.73913 9.96761 3.79395 10.0816C3.84316 10.1844 3.99703 10.2379 4.13345 10.3326ZM9.04597 10.6901C9.96731 10.6951 10.6893 9.98131 10.6918 9.06384C10.6943 8.15945 9.97665 7.42448 9.08211 7.41514C8.17448 7.40579 7.42383 8.1389 7.41823 9.03831C7.41324 9.95515 8.13274 10.6858 9.04597 10.6901ZM3.30868 4.9374C3.30743 5.85301 4.03129 6.57988 4.94453 6.57926C5.84343 6.57864 6.57726 5.85114 6.58162 4.95671C6.5866 4.04298 5.8615 3.30925 4.95138 3.30676C4.03067 3.30427 3.30992 4.01931 3.30868 4.9374Z" fill="#484848"/>
<path d="M9.04764 9.88577C8.59726 9.88141 8.21664 9.49337 8.22474 9.0474C8.23346 8.59832 8.62467 8.21713 9.06882 8.22522C9.5217 8.23394 9.8936 8.617 9.88799 9.06858C9.88238 9.52264 9.50426 9.89013 9.04764 9.88577Z" fill="#484848"/>
<path d="M4.11329 4.93827C4.11453 4.4867 4.49453 4.10862 4.94554 4.10987C5.39343 4.11111 5.77841 4.49791 5.77654 4.94387C5.77467 5.38922 5.38409 5.77788 4.93993 5.77477C4.49079 5.77165 4.11142 5.38797 4.11329 4.93827Z" fill="#484848"/>
</svg>
