<svg width="27" height="17" viewBox="0 0 27 17" fill="none" xmlns="http://www.w3.org/2000/svg">
<g clip-path="url(#clip0_448_1708)">
<path d="M0 1.97772C0.3348 0.983566 1.0188 0.53741 2.0556 0.611366C2.4528 0.63925 2.8548 0.624702 3.2544 0.615003C3.984 0.595605 4.5036 0.916885 4.89 1.53884C4.9764 1.67826 5.2596 1.79344 5.4264 1.76434C8.748 1.18967 12.0588 0.549534 15.3888 0.0354848C16.1292 -0.078479 16.986 0.103378 17.7 0.382226C19.0536 0.910824 20.3436 1.60915 21.66 2.23717C22.4724 2.62513 22.932 3.34771 23.2668 4.12363C23.604 4.90562 24.0984 5.23781 24.9276 5.08262C25.1208 5.04625 25.3284 5.09717 25.5252 5.07414C26.1984 4.99655 26.6784 5.27054 26.9988 5.85976C26.9988 9.29565 26.9988 12.7315 26.9988 16.1674C26.6856 16.7979 26.1816 17.004 25.4892 17.0015C20.1156 16.9821 14.742 16.9918 9.3684 16.9906C8.25 16.9906 7.896 16.6354 7.8936 15.5164C7.8924 14.2446 7.8816 12.9728 7.9008 11.701C7.9056 11.37 7.806 11.1979 7.4976 11.0657C6.6936 10.7202 5.9064 10.3359 5.07 9.9467C4.7424 11.1845 3.8712 11.4973 2.7624 11.4234C2.5044 11.4064 2.2428 11.4088 1.9836 11.4234C1.002 11.4731 0.3636 11.0027 0 10.1031C0 7.39463 0 4.68618 0 1.97772ZM5.046 2.99369C5.046 4.84136 5.0364 6.6175 5.0616 8.39364C5.064 8.55246 5.2536 8.7719 5.4108 8.85313C6.1224 9.21563 6.8424 9.57086 7.5828 9.86547C8.2068 10.1152 8.8608 10.4365 9.5088 10.4535C12.1452 10.5238 14.784 10.4886 17.4228 10.4923C17.862 10.4923 18.1716 10.2886 18.2184 9.84001C18.27 9.35384 17.9784 9.10288 17.5236 9.02044C16.62 8.85677 15.7212 8.66763 14.814 8.53306C13.2 8.29301 11.6196 8.01174 10.8888 6.2453C10.7748 5.96888 10.6032 5.58213 10.7088 5.38451C10.8132 5.19053 11.238 5.09111 11.5224 5.08869C14.94 5.06929 18.3576 5.07656 21.7752 5.07656C21.9876 5.07656 22.2 5.07656 22.4964 5.07656C22.0728 4.21092 21.7392 3.435 20.8476 3.07977C20.1444 2.7985 19.4412 2.48934 18.7932 2.09774C17.2404 1.16057 15.6264 0.825957 13.872 1.38729C13.6836 1.44791 13.482 1.46609 13.2852 1.50125C10.56 1.9959 7.8336 2.48934 5.046 2.99369ZM12.288 6.22954C12.2568 6.28894 12.2256 6.34714 12.1956 6.40655C12.5628 6.63326 12.906 6.93636 13.3044 7.0685C13.8684 7.25521 14.4696 7.34735 15.0624 7.41646C15.3768 7.45283 15.7284 7.41646 16.0248 7.30492C17.9388 6.58719 20.1264 7.46253 20.9856 9.31868C21.8592 11.2027 21.1656 13.4444 19.3932 14.4677C17.6124 15.4958 15.3324 14.9757 14.202 13.2407C13.8888 12.7606 13.7088 12.192 13.4652 11.6586C12.7644 11.6586 12.0336 11.6586 11.3088 11.6586C11.1864 12.1253 11.2068 12.4721 11.6892 12.6794C11.8752 12.7594 12.054 12.9534 12.1464 13.1413C12.3168 13.4893 12.5292 13.6275 12.9288 13.636C13.1136 13.6408 13.4628 13.99 13.4352 14.1173C13.3872 14.3428 13.1412 14.5901 12.9168 14.692C12.6996 14.7902 12.4056 14.7065 12.1464 14.7186C11.7084 14.738 11.4612 14.5889 11.3388 14.11C11.2764 13.8639 10.9692 13.5814 10.7172 13.505C10.284 13.3741 10.1328 13.1425 10.146 12.723C10.1568 12.369 10.1484 12.015 10.1484 11.6343C9.7224 11.6113 9.3924 11.5919 9.048 11.5737C9.048 13.0274 9.048 14.4252 9.048 15.8243C14.6784 15.8243 20.2644 15.8243 25.8504 15.8243C25.8504 12.5982 25.8504 9.4181 25.8504 6.23075C21.2976 6.22954 16.7928 6.22954 12.288 6.22954ZM1.1052 5.94099C1.1052 7.13155 1.11 8.32211 1.1028 9.51388C1.0992 10.0413 1.35 10.2995 1.8648 10.3031C2.3244 10.3068 2.784 10.3116 3.2424 10.3007C3.6564 10.291 3.9432 10.1031 3.9444 9.65088C3.9504 7.22854 3.9504 4.80741 3.9456 2.38508C3.9444 1.94135 3.6996 1.72918 3.2592 1.73645C2.8596 1.74373 2.46 1.73645 2.0604 1.73767C1.2336 1.73888 1.1064 1.8686 1.1052 2.73182C1.104 3.80114 1.1052 4.87046 1.1052 5.94099ZM19.1964 8.89192C19.6956 10.6596 18.624 11.7507 17.0688 11.6271C16.302 11.5664 15.5268 11.6161 14.7432 11.6161C14.9484 12.8128 15.96 13.7439 17.0988 13.8542C18.4392 13.9839 19.6188 13.2504 20.0796 12.0041C20.502 10.8572 20.1588 9.59026 19.1964 8.89192Z" fill="#24A6A4"/>
<path d="M24.733 11.0217C24.733 11.5879 24.721 12.1529 24.7366 12.7178C24.7486 13.147 24.5974 13.4186 24.1546 13.4792C23.7634 13.5326 23.6206 13.7823 23.4934 14.1485C23.4118 14.3837 23.1046 14.6067 22.8514 14.694C22.5838 14.7874 22.2334 14.7874 21.967 14.6904C21.733 14.6055 21.565 14.3315 21.3682 14.1412C21.571 13.963 21.763 13.6526 21.9778 13.6344C22.3462 13.6041 22.5574 13.4974 22.7074 13.1628C22.7782 13.0064 22.9186 12.827 23.0674 12.7712C23.677 12.5457 23.6734 12.0632 23.6374 11.5467C23.6242 11.366 23.6374 11.183 23.635 11.0011C23.6254 10.2846 23.7838 9.56445 22.921 9.09526C22.537 8.88551 22.3594 8.31812 21.7498 8.38359C21.6394 8.39571 21.3994 8.08534 21.3946 7.91803C21.3898 7.74709 21.5842 7.43551 21.7186 7.41975C22.2034 7.36155 22.7026 7.3761 23.191 7.4246C23.3086 7.43672 23.4802 7.67435 23.4958 7.82347C23.5462 8.27811 23.7694 8.51695 24.205 8.58484C24.5842 8.64425 24.7414 8.87945 24.733 9.26257C24.7246 9.84936 24.733 10.4362 24.733 11.0217Z" fill="#24A6A4"/>
</g>
<defs>
<clipPath id="clip0_448_1708">
<rect width="27" height="17" fill="white"/>
</clipPath>
</defs>
</svg>
