<svg width="163" height="119" viewBox="0 0 163 119" fill="none" xmlns="http://www.w3.org/2000/svg">
<path d="M107.887 105.093C103.401 107.259 98.6413 108.542 93.8089 109.657C87.5308 111.107 81.1379 111.539 74.7511 111.581C70.619 111.608 66.4627 111.261 62.3215 110.947C58.5154 110.657 54.7998 109.923 51.06 109.301C50.7733 109.252 50.5017 109.095 50.224 108.99C49.6384 108.307 49.7682 107.47 49.7682 106.679C49.7531 101.348 49.7652 96.017 49.7591 90.683C49.7561 88.3754 49.741 88.3633 47.3807 88.3633C39.1859 88.3603 30.991 88.3603 22.7992 88.3633C20.2578 88.3633 20.2578 88.3694 20.2548 90.988C20.2517 92.6492 20.2729 94.3074 20.2427 95.9686C20.2306 96.612 20.291 97.2946 19.7386 97.796C15.1356 95.3193 10.8073 92.4378 6.73858 89.1547C5.70027 88.318 5.13282 87.427 5.1962 85.9833C5.32297 82.975 5.26261 79.9576 5.22035 76.9433C5.20828 75.9737 5.52219 75.2277 6.12887 74.4877C8.50432 71.576 10.8345 68.6282 13.1797 65.6923C13.8287 65.5081 14.203 65.9823 14.6255 66.3145C15.8148 67.2418 17.0372 68.1147 18.323 68.906C19.0021 69.3228 19.6028 69.341 20.2578 68.8396C27.7372 63.1431 33.9822 56.4832 37.0308 47.3375C38.2411 43.713 38.6516 40.007 37.9845 36.2134C37.9 35.7241 37.734 35.2258 38.0902 34.7667C43.8945 27.5389 49.6988 20.3111 55.5091 13.0894C55.82 12.6998 56.1943 12.3615 56.5384 11.999C57.2145 12.1923 57.6008 12.73 58.0083 13.2404C67.5191 25.1286 77.0722 36.9836 86.6102 48.8507C93.4739 57.3863 100.313 65.943 107.226 74.4424C107.733 75.0646 107.968 75.7261 107.965 76.5144C107.944 85.9651 108.016 95.4129 107.926 104.864C107.914 104.939 107.899 105.015 107.887 105.093Z" fill="#24A6A5"/>
<path d="M38.0879 34.7695C40.089 44.486 36.295 52.4387 30.4515 59.739C27.5508 63.3634 24.0827 66.408 20.4064 69.232C19.5854 69.8633 18.9998 69.8995 18.1849 69.2773C16.5519 68.0359 14.8496 66.8822 13.1744 65.6952C9.25659 62.119 5.71607 58.2439 3.3527 53.4234C0.491302 47.588 -0.900158 41.4808 0.630146 35.0504C2.58604 26.8198 10.1742 20.8304 18.3116 20.5163C27.5991 20.1599 35.4287 26.0617 37.8675 34.2288C37.9219 34.4131 38.0124 34.5883 38.0879 34.7695Z" fill="#FF0000"/>
<path d="M146.218 75.6174C134.014 75.5962 121.814 75.5902 109.611 75.6204C107.881 75.6234 107.734 75.8288 107.734 77.5323C107.731 86.2733 107.731 95.0173 107.74 103.758C107.74 104.199 107.61 104.667 107.903 105.075L107.888 105.09C116.408 101.707 124.697 97.8534 132.173 92.4862C138.418 88.004 143.703 82.5401 148.026 76.161C147.546 75.5751 146.86 75.6204 146.218 75.6174Z" fill="#494848"/>
<path d="M19.7341 97.7956C19.713 94.7812 19.716 91.7669 19.6587 88.7525C19.6436 87.9703 19.9877 87.8645 20.6487 87.8676C30.1927 87.8827 39.7367 87.8917 49.2778 87.8555C50.3221 87.8525 50.2225 88.4142 50.2225 89.0878C50.2165 95.7205 50.2195 102.356 50.2225 108.989C48.1489 108.944 46.199 108.252 44.2582 107.669C35.7857 105.126 27.5788 101.906 19.7341 97.7956Z" fill="#494848"/>
<path d="M19.8634 118.301C14.4455 116.334 9.72178 113.332 5.91262 108.956C5.50212 108.481 5.20934 108.037 5.2184 107.37C5.2516 104.96 5.26066 102.549 5.21538 100.139C5.20029 99.2935 5.50212 99.0065 6.33519 98.9733C8.28806 98.8948 10.1081 99.369 11.8769 100.124C14.6447 101.308 17.2073 102.87 19.7759 104.419C20.1653 104.92 20.2407 105.509 20.2437 106.117C20.2588 109.656 20.2619 113.196 20.2407 116.736C20.2377 117.283 20.2347 117.839 19.8634 118.301Z" fill="#24A6A5"/>
<path d="M19.8638 118.301C19.4533 116.929 19.6978 115.525 19.6918 114.139C19.6767 110.898 19.7461 107.66 19.7793 104.419C22.8912 106.198 26.2597 107.551 29.0789 109.822C31.7471 111.973 31.895 115.214 29.4652 117.331C28.122 118.5 26.462 118.841 24.7445 118.977C23.0663 119.107 21.4696 118.669 19.8638 118.301Z" fill="#494848"/>
<path d="M162.939 30.9697C162.622 24.8927 161.611 19.0211 159.8 13.2431C159.437 12.0863 158.882 11.5245 157.657 11.8265C148.113 11.8265 138.566 11.8265 129.022 11.8265C128.457 11.902 127.89 11.9775 127.325 12.053C127.035 8.78196 127.283 5.50485 127.192 2.23377C127.177 1.65386 127.361 1.03166 126.93 0.512158C126.845 0.430607 126.764 0.346037 126.679 0.264486C126.299 -0.0798372 125.828 0.0107742 125.387 0.0107742C118.756 0.00473349 112.125 0.00775387 105.494 0.0107742C105.05 0.0107742 104.579 -0.0677557 104.208 0.288649C103.704 0.720564 103.885 1.31256 103.882 1.84113C103.864 4.55343 103.791 7.27177 103.909 9.97803C103.969 11.3976 103.631 11.8295 102.128 11.8205C87.5162 11.757 72.9044 11.7812 58.2925 11.7903C57.71 11.7903 57.0852 11.597 56.5449 12.0017C57.5681 13.2944 58.5823 14.5932 59.6176 15.8768C63.5052 20.7064 67.4049 25.5239 71.2865 30.3565C75.636 35.7721 79.9673 41.2058 84.3137 46.6243C87.8482 51.0311 91.3918 55.4287 94.9293 59.8294C98.8109 64.662 102.656 69.5248 106.604 74.3001C107.308 75.1488 107.606 75.916 107.603 76.9791C107.573 85.7775 107.582 94.5759 107.597 103.377C107.597 103.948 107.347 104.598 107.911 105.075C107.89 95.9381 107.908 86.8014 107.809 77.6648C107.793 76.2543 108.243 76.0579 109.493 76.064C120.634 76.1123 131.777 76.0881 142.918 76.0942C144.62 76.0942 146.326 76.1365 148.028 76.1606C148.212 75.9281 148.427 75.7136 148.574 75.4599C150.398 72.3519 152.209 69.2379 154.023 66.1239C156.166 62.0373 158.1 57.8601 159.531 53.4594C160.144 51.4328 160.907 49.4393 161.339 47.3764C162.456 41.976 163.229 36.5695 162.939 30.9697Z" fill="#72C6C8"/>
<path d="M78.7542 87.674C83.0251 87.674 87.2961 87.7042 91.5671 87.6529C92.5722 87.6408 92.9555 87.8341 92.9404 88.9456C92.88 93.9202 92.8891 98.8977 92.9404 103.875C92.9525 104.89 92.6386 105.138 91.6636 105.132C82.9708 105.096 74.281 105.099 65.5881 105.132C64.6826 105.135 64.3808 104.926 64.3868 103.972C64.4321 98.8947 64.4291 93.8175 64.3898 88.7402C64.3838 87.8733 64.6434 87.6468 65.4915 87.6559C69.9134 87.6951 74.3353 87.674 78.7542 87.674Z" fill="#494848"/>
<path d="M6.81501 43.1811C5.23642 37.8954 6.53733 33.3135 10.5336 29.6468C14.6114 25.9045 19.486 25.1434 24.5116 27.303C29.4074 29.4051 32.139 33.3196 32.4408 38.7502C32.5223 40.2543 32.474 41.7585 31.8402 43.1751C30.3068 46.5005 27.9042 48.9289 24.5448 50.4512C18.4598 53.2057 10.3948 50.3636 7.47905 44.3621C7.27682 43.9483 7.0263 43.5768 6.81501 43.1811Z" fill="white"/>
<path d="M6.81445 43.1809C8.23308 44.528 9.042 46.3342 10.4817 47.7055C15.1481 52.1575 23.4878 52.1364 28.1693 47.6813C29.609 46.31 30.4089 44.5008 31.8366 43.1719C29.9712 51.4326 19.3104 55.2745 11.9849 50.2939C9.42834 48.5542 7.58715 46.2436 6.81445 43.1809Z" fill="#EAEBEB"/>
<path d="M21.3457 32.4862C20.9744 35.7513 20.6424 38.6931 20.2983 41.635C20.2349 42.1907 20.1746 42.7706 19.3898 42.7767C18.5899 42.7827 18.602 42.23 18.5296 41.6501C18.1553 38.6629 17.7026 35.6818 17.3645 32.6916C17.1713 30.9881 18.4934 30.0307 20.1384 30.5472C21.3004 30.9126 21.5117 31.7432 21.3457 32.4862Z" fill="#FF0000"/>
<path d="M21.0076 46.2739C20.9744 47.3582 20.2953 47.9412 19.3022 47.917C18.3062 47.8928 17.6301 47.2646 17.6633 46.1712C17.6995 45.099 18.3756 44.4677 19.3777 44.4919C20.3707 44.5221 21.0076 45.1594 21.0076 46.2739Z" fill="#FF0000"/>
</svg>
