<svg width="39" height="16" viewBox="0 0 39 16" fill="none" xmlns="http://www.w3.org/2000/svg">
<g clip-path="url(#clip0_5233_467)">
<path d="M7.14384 9.96786C7.72471 10.5332 8.225 11.0199 8.72529 11.5076C9.0812 11.8554 9.43822 12.2009 9.79189 12.552C10.6548 13.4104 10.6973 14.609 9.89374 15.4084C9.07784 16.2209 7.8344 16.1979 6.94574 15.3318C4.99496 13.4323 3.05425 11.524 1.10906 9.61901C0.902007 9.4156 0.690479 9.21658 0.486781 9.00989C-0.16124 8.35484 -0.164601 7.63418 0.492377 6.9857C1.91041 5.58921 3.33517 4.20037 4.75657 2.80717C5.48741 2.09197 6.21378 1.37241 6.95022 0.661586C7.83887 -0.196866 9.08791 -0.222018 9.89934 0.59269C10.6996 1.39646 10.6548 2.59502 9.78742 3.44909C8.94129 4.28239 8.09069 5.11132 7.15391 6.02773C7.40238 6.02773 7.55571 6.02773 7.71016 6.02773C17.4148 6.02773 27.1206 6.02773 36.8253 6.02773C37.9053 6.02773 38.6809 6.57123 38.9317 7.4942C39.2585 8.69494 38.3743 9.8924 37.1107 9.96348C36.9574 9.97223 36.804 9.96785 36.6496 9.96785C27.0143 9.96785 17.379 9.96786 7.74374 9.96786C7.58257 9.96786 7.42141 9.96786 7.14384 9.96786Z" fill="#3BB3C4"/>
</g>
<defs>
<clipPath id="clip0_5233_467">
<rect width="39" height="16" fill="white" transform="translate(39 16) rotate(180)"/>
</clipPath>
</defs>
</svg>
