<svg width="18" height="10" viewBox="0 0 18 10" fill="none" xmlns="http://www.w3.org/2000/svg">
<path d="M9.02088 2.60928C8.88084 2.78009 8.81339 2.87853 8.72981 2.96104C6.49438 5.1708 4.25602 7.37839 2.02059 9.58887C1.77938 9.82772 1.51251 9.99854 1.15839 9.99998C0.682562 10.0022 0.326242 9.79804 0.120956 9.37679C-0.0894624 8.94541 -0.0220109 8.53429 0.287386 8.16588C0.351171 8.08988 0.425955 8.02184 0.497072 7.95163C3.01844 5.46177 5.54053 2.97262 8.06189 0.483482C8.71515 -0.161423 9.30241 -0.160698 9.95493 0.482758C12.4961 2.99217 15.0358 5.50158 17.5799 8.00809C17.9069 8.33018 18.0806 8.69063 17.9633 9.15241C17.7676 9.91675 16.8665 10.2425 16.2199 9.7785C16.1172 9.70467 16.0256 9.6142 15.9354 9.52517C13.7036 7.3241 11.4733 5.12158 9.24376 2.91762C9.17411 2.84813 9.12645 2.75693 9.02088 2.60928Z" fill="white"/>
</svg>
