<svg width="5" height="9" viewBox="0 0 5 9" fill="none" xmlns="http://www.w3.org/2000/svg">
<path d="M0.837975 0C0.991854 0.0503945 1.10022 0.164927 1.20859 0.281751C2.41361 1.55765 3.61864 2.83126 4.82367 4.10257C4.97105 4.25834 5.0404 4.43701 4.97322 4.65004C4.94721 4.73021 4.89736 4.80809 4.84101 4.86765C3.59263 6.19165 2.34209 7.51336 1.09155 8.83278C0.881321 9.05498 0.608239 9.05269 0.39801 8.83736C0.298313 8.73658 0.198617 8.6335 0.107589 8.52354C-0.044123 8.33571 -0.0354537 8.07687 0.116258 7.88903C0.140099 7.85925 0.166107 7.83405 0.189947 7.80657C1.20642 6.73225 2.22289 5.65564 3.24153 4.58132C3.26537 4.55612 3.29355 4.53551 3.33689 4.47366C3.30655 4.45762 3.27187 4.44617 3.2502 4.42326C2.22289 3.33978 1.19775 2.25401 0.170441 1.16824C-0.0202825 0.966658 -0.0592942 0.687198 0.0989199 0.497073C0.259301 0.302367 0.411014 0.0916264 0.653753 0C0.716605 0 0.77729 0 0.837975 0Z" fill="#484848"/>
</svg>
