<svg width="28" height="28" viewBox="0 0 28 28" fill="none" xmlns="http://www.w3.org/2000/svg">
<g id="Group 1543">
<circle id="Ellipse 390" cx="14" cy="14" r="14" transform="matrix(-1 0 0 1 28 0)" fill="#D6EAEC"/>
<path id="Vector" d="M16.1602 10C16.0064 10.0504 15.898 10.1649 15.7897 10.2818C14.5849 11.5578 13.3801 12.8315 12.1753 14.103C12.0279 14.2587 11.9586 14.4374 12.0257 14.6505C12.0517 14.7307 12.1016 14.8086 12.1579 14.8681C13.4061 16.1922 14.6564 17.5141 15.9067 18.8336C16.1169 19.0558 16.3899 19.0535 16.6001 18.8382C16.6998 18.7374 16.7995 18.6343 16.8905 18.5244C17.0422 18.3365 17.0335 18.0776 16.8818 17.8898C16.858 17.86 16.832 17.8348 16.8081 17.8073C15.7918 16.7329 14.7756 15.6562 13.7571 14.5818C13.7333 14.5566 13.7051 14.5359 13.6618 14.4741C13.6921 14.458 13.7268 14.4466 13.7484 14.4237C14.7756 13.3401 15.8005 12.2542 16.8276 11.1683C17.0183 10.9668 17.0573 10.6873 16.8991 10.4971C16.7388 10.3024 16.5871 10.0916 16.3444 10C16.2816 10 16.2209 10 16.1602 10Z" fill="#3BB3C4"/>
</g>
</svg>
