<svg width="28" height="28" viewBox="0 0 28 28" fill="none" xmlns="http://www.w3.org/2000/svg">
<g id="Group 1542">
<circle id="Ellipse 390" cx="14" cy="14" r="14" fill="#D6EAEC"/>
<path id="Vector" d="M11.8398 10C11.9936 10.0504 12.102 10.1649 12.2103 10.2818C13.4151 11.5578 14.6199 12.8315 15.8247 14.103C15.9721 14.2587 16.0414 14.4374 15.9743 14.6505C15.9483 14.7307 15.8984 14.8086 15.8421 14.8681C14.5939 16.1922 13.3436 17.5141 12.0933 18.8336C11.8831 19.0558 11.6101 19.0535 11.3999 18.8382C11.3002 18.7374 11.2005 18.6343 11.1095 18.5244C10.9578 18.3365 10.9665 18.0776 11.1182 17.8898C11.142 17.86 11.168 17.8348 11.1919 17.8073C12.2082 16.7329 13.2244 15.6562 14.2429 14.5818C14.2667 14.5566 14.2949 14.5359 14.3382 14.4741C14.3079 14.458 14.2732 14.4466 14.2516 14.4237C13.2244 13.3401 12.1995 12.2542 11.1724 11.1683C10.9817 10.9668 10.9427 10.6873 11.1009 10.4971C11.2612 10.3024 11.4129 10.0916 11.6556 10C11.7184 10 11.7791 10 11.8398 10Z" fill="#3BB3C4"/>
</g>
</svg>
