<svg width="32" height="25" viewBox="0 0 32 25" fill="none" xmlns="http://www.w3.org/2000/svg">
<path d="M31.6658 9.54834C31.6658 9.69395 31.6658 9.8053 31.6658 9.92521C31.6658 13.6083 31.6658 17.2999 31.6658 20.983C31.6658 23.3385 29.9856 25.0001 27.5915 25.0001C19.8781 25.0001 12.1734 25.0001 4.46007 25.0001C2.06597 25.0087 0.385742 23.347 0.385742 20.983C0.385742 17.2999 0.385742 13.6083 0.385742 9.92521C0.385742 9.8053 0.385742 9.69395 0.385742 9.54834C10.8153 9.54834 21.2188 9.54834 31.6658 9.54834ZM8.98711 20.1436C9.5704 20.1436 10.1624 20.1522 10.7457 20.1436C11.8339 20.1179 12.6697 19.3042 12.6958 18.2592C12.7132 17.2314 11.8949 16.3406 10.8153 16.3064C9.61392 16.2721 8.40381 16.2721 7.20241 16.3064C6.10547 16.3406 5.30454 17.2143 5.33066 18.2849C5.35677 19.3128 6.18383 20.1179 7.26335 20.135C7.83793 20.1522 8.41252 20.1436 8.98711 20.1436Z" fill="#484848"/>
<path d="M31.6656 5.66808C21.2273 5.66808 10.8239 5.66808 0.394278 5.66808C0.394278 4.21198 0.176633 2.74732 1.20392 1.49679C1.98745 0.554603 2.98862 0.00642397 4.21614 0.00642397C12.0949 -0.00214132 19.965 -0.00214132 27.8351 0.00642397C29.9158 0.00642397 31.6395 1.72805 31.6656 3.77515C31.6743 4.39185 31.6656 5.00855 31.6656 5.66808Z" fill="#484848"/>
</svg>
