<svg width="11" height="8" viewBox="0 0 11 8" fill="none" xmlns="http://www.w3.org/2000/svg">
<g clip-path="url(#clip0_5343_3165)">
<path d="M4.09697 7.99998C3.85118 8.00826 3.68301 7.90883 3.5364 7.75554C2.66537 6.86067 1.79003 5.96994 0.914684 5.07507C0.664586 4.8182 0.405864 4.56549 0.16439 4.30448C-0.0425875 4.08076 -0.0555236 3.79076 0.108334 3.54218C0.272191 3.29775 0.565409 3.1776 0.845692 3.24389C1.01386 3.28532 1.13891 3.38889 1.25102 3.50904C2.11774 4.40805 2.98877 5.30293 3.85118 6.20609C3.96329 6.32623 4.01504 6.31795 4.12715 6.20194C6.0072 4.20919 7.89156 2.22473 9.77592 0.236123C10.0088 -0.00831032 10.3925 -0.0787401 10.6728 0.0745483C10.9272 0.215408 11.0566 0.563414 10.9574 0.865848C10.9272 0.956993 10.8755 1.03157 10.8065 1.102C8.7324 3.29361 6.65831 5.48522 4.59285 7.68511C4.45055 7.85083 4.3255 8.01655 4.09697 7.99998Z" fill="white"/>
</g>
<defs>
<clipPath id="clip0_5343_3165">
<rect width="11" height="8" fill="white"/>
</clipPath>
</defs>
</svg>
