<svg width="15" height="15" viewBox="0 0 15 15" fill="none" xmlns="http://www.w3.org/2000/svg">
<g clip-path="url(#clip0_4363_6425)">
<path d="M7.49701 8.76119C7.40014 8.89037 7.35611 8.96964 7.29447 9.0313C5.43047 10.8957 3.56355 12.76 1.70249 14.6273C1.44417 14.8857 1.15944 15.0472 0.783702 14.9855C0.0938782 14.871 -0.231954 14.0695 0.187812 13.5116C0.252391 13.4235 0.331647 13.3443 0.407968 13.2679C2.26315 11.4124 4.11541 9.55684 5.97353 7.70423C6.03517 7.64257 6.11443 7.60147 6.18781 7.54862C6.19662 7.51339 6.20249 7.47522 6.2113 7.43999C6.13497 7.39595 6.04398 7.36365 5.98527 7.30493C4.10953 5.43764 2.24261 3.56447 0.369808 1.69718C0.111491 1.43881 -0.0470221 1.15402 0.0175572 0.775278C0.134974 0.0882548 0.939279 -0.234705 1.49701 0.188079C1.58507 0.25267 1.66139 0.331942 1.74065 0.411214C3.59584 2.26383 5.45102 4.11938 7.30327 5.97493C7.36492 6.03658 7.40014 6.11879 7.45004 6.19219C7.48527 6.19219 7.52049 6.19513 7.55865 6.19513C7.60562 6.12173 7.64085 6.03658 7.70249 5.97493C9.56942 4.10176 11.4422 2.23447 13.3091 0.361302C13.5675 0.102935 13.8551 -0.0526731 14.2309 0.0119188C14.906 0.129359 15.2289 0.925013 14.8238 1.47698C14.7534 1.57093 14.6712 1.65314 14.589 1.73535C12.7397 3.58503 10.8904 5.4347 9.04104 7.28438C8.9794 7.34604 8.90601 7.39595 8.81795 7.46935C8.90308 7.55743 8.95885 7.61908 9.01756 7.68074C10.8874 9.55097 12.7573 11.4212 14.6271 13.2885C14.8913 13.5527 15.0557 13.8434 14.9853 14.228C14.8649 14.9033 14.0694 15.2204 13.5176 14.8123C13.4236 14.7418 13.3414 14.6596 13.2592 14.5745C11.4099 12.7248 9.56061 10.8751 7.7113 9.02542C7.64672 8.96964 7.59975 8.8933 7.49701 8.76119Z" fill="#484848"/>
</g>
<defs>
<clipPath id="clip0_4363_6425">
<rect width="15" height="15" fill="white"/>
</clipPath>
</defs>
</svg>
