<svg width="19" height="25" viewBox="0 0 19 25" fill="none" xmlns="http://www.w3.org/2000/svg">
<path d="M9.76595 0C10.2482 0.0819635 10.7355 0.140186 11.2109 0.248717C14.9059 1.09266 17.7122 4.2638 18.1387 8.00586C18.3015 9.43711 17.9884 10.766 17.456 12.0696C16.5103 14.3866 15.206 16.508 13.8242 18.5854C12.3878 20.7447 10.8414 22.8243 9.21938 24.8496C9.18465 24.8926 9.1448 24.9316 9.0816 25C8.19457 23.8305 7.30241 22.6858 6.44442 21.5168C4.64929 19.0704 2.93444 16.5702 1.57941 13.8513C1.09946 12.8864 0.690103 11.8785 0.341667 10.8588C-0.236213 9.16691 -0.0375135 7.47168 0.611534 5.84767C1.88742 2.65562 4.26726 0.75576 7.66338 0.113618C7.93552 0.0621792 8.21279 0.0373075 8.48778 0C8.91365 0 9.34008 0 9.76595 0ZM4.5599 8.11552C4.5599 8.24101 4.5599 8.33654 4.5599 8.43263C4.5599 9.92097 4.5599 11.4093 4.5599 12.8977C4.5599 13.3906 4.69484 13.5279 5.17992 13.5279C7.80116 13.5285 10.4224 13.5285 13.0436 13.5279C13.5048 13.5279 13.6494 13.3861 13.6494 12.935C13.65 11.4223 13.6494 9.90967 13.6494 8.39702C13.6494 8.31053 13.6494 8.22461 13.6494 8.11608C13.769 8.11608 13.8572 8.11608 13.946 8.11608C14.2985 8.11552 14.6503 8.11665 15.0027 8.11382C15.214 8.11213 15.3608 8.01151 15.4343 7.81423C15.5094 7.61243 15.4394 7.44907 15.2857 7.31284C15.243 7.27497 15.1957 7.24218 15.1508 7.20714C13.2754 5.77419 11.4 4.34124 9.52455 2.90829C9.17554 2.64149 9.03548 2.64318 8.67965 2.91507C7.47948 3.8325 6.27817 4.74936 5.078 5.66622C4.38341 6.19644 3.69052 6.72949 2.99422 7.25688C2.80919 7.39707 2.69475 7.5593 2.77161 7.7984C2.85189 8.04825 3.04546 8.12343 3.28971 8.11552C3.40415 8.11156 3.51915 8.11495 3.63359 8.11495C3.93477 8.11552 4.23595 8.11552 4.5599 8.11552Z" fill="#FBC000"/>
<path d="M5.43461 12.4978C5.43461 12.3845 5.43461 12.2862 5.43461 12.188C5.43461 10.6915 5.43461 9.19446 5.43461 7.698C5.43461 7.09398 5.33012 6.98763 4.73076 6.98242C4.67565 6.98185 4.62053 6.98242 4.5459 6.93387C6.05866 5.76225 7.57142 4.59063 9.09623 3.40918C10.617 4.58658 12.1269 5.75589 13.6368 6.9252C13.6351 6.94428 13.6334 6.96335 13.6311 6.98185C13.5576 6.98185 13.4835 6.98185 13.41 6.98185C12.8813 6.98416 12.7607 7.10727 12.7607 7.64829C12.7602 8.60432 12.7607 9.56092 12.7607 10.5169C12.7607 11.0909 12.7613 11.6643 12.7602 12.2383C12.7602 12.3198 12.7533 12.4018 12.7487 12.5001C12.1459 12.5001 11.5568 12.5001 10.9425 12.5001C10.938 12.3984 10.9299 12.3018 10.9299 12.2053C10.9288 11.2822 10.9305 10.3591 10.9288 9.43665C10.9276 8.97193 10.7818 8.82743 10.3196 8.82685C9.50212 8.82627 8.6846 8.82627 7.86651 8.82685C7.40493 8.82743 7.26657 8.96788 7.266 9.44011C7.26485 10.3632 7.26542 11.2863 7.26542 12.2088C7.26542 12.2989 7.26542 12.3885 7.26542 12.4978C6.65515 12.4978 6.06612 12.4978 5.43461 12.4978Z" fill="white"/>
<path d="M10.2268 10.2275C10.2268 10.9877 10.2268 11.7368 10.2268 12.5003C9.47312 12.5003 8.72738 12.5003 7.9541 12.5003C7.9541 11.7492 7.9541 10.9958 7.9541 10.2275C8.69694 10.2275 9.44268 10.2275 10.2268 10.2275Z" fill="white"/>
</svg>
