<svg width="21" height="27" viewBox="0 0 21 27" fill="none" xmlns="http://www.w3.org/2000/svg">
<g clip-path="url(#clip0_5407_362)">
<path d="M3.8498 27C3.23295 26.8671 2.71778 26.5881 2.35852 26.0632C2.10093 25.6912 1.95858 25.2793 1.92469 24.8341C1.91113 24.6946 1.91113 24.5551 1.91113 24.4156C1.91113 19.1272 1.91113 13.8388 1.91113 8.55043C1.91113 8.45742 1.91113 8.36441 1.91113 8.25146C7.63902 8.25146 13.3466 8.25146 19.0745 8.25146C19.0812 8.33783 19.088 8.4242 19.088 8.51057C19.088 13.8322 19.088 19.1604 19.088 24.482C19.088 25.2859 18.8575 25.9835 18.2204 26.5283C17.9086 26.794 17.529 26.9136 17.1358 27.0066C12.7094 27 8.27621 27 3.8498 27ZM13.9566 17.0411C13.9566 19.0608 13.9566 21.0805 13.9566 23.1001C13.9566 23.5718 14.1532 23.8309 14.4989 23.8309C14.8446 23.8243 15.0344 23.5652 15.0344 23.0935C15.0344 19.0608 15.0344 15.028 15.0344 10.9953C15.0344 10.5037 14.8446 10.2379 14.4854 10.2446C14.1329 10.2512 13.9566 10.5037 13.9566 11.0086C13.9566 13.015 13.9566 15.028 13.9566 17.0411ZM7.04251 17.0278C7.04251 15.0081 7.04251 12.9884 7.04251 10.9687C7.04251 10.4904 6.85271 10.2379 6.50022 10.2379C6.14774 10.2379 5.95794 10.497 5.95794 10.9754C5.95794 15.0148 5.95794 19.0608 5.95794 23.1001C5.95794 23.2131 5.96472 23.326 5.99183 23.439C6.04606 23.6648 6.26975 23.8309 6.50022 23.8309C6.74425 23.8309 6.96794 23.6449 7.01539 23.4057C7.03573 23.2862 7.03573 23.1599 7.03573 23.0403C7.04251 21.0339 7.04251 19.0342 7.04251 17.0278ZM9.95729 17.0411C9.95729 19.0408 9.95729 21.0472 9.95729 23.047C9.95729 23.1599 9.95729 23.2729 9.97763 23.3858C10.0183 23.6316 10.2284 23.811 10.4725 23.8243C10.7097 23.8376 10.947 23.6715 11.0012 23.4257C11.0283 23.3061 11.0351 23.1799 11.0351 23.0603C11.0351 19.0342 11.0351 15.0148 11.0351 10.9887C11.0351 10.9289 11.0351 10.8624 11.0351 10.8026C11.008 10.4572 10.7843 10.2313 10.486 10.2313C10.181 10.2313 9.97085 10.4572 9.95051 10.8093C9.94374 10.889 9.95051 10.9687 9.95051 11.0485C9.95729 13.0482 9.95729 15.0413 9.95729 17.0411Z" fill="#E77F76"/>
<path d="M10.5134 4.51758C13.496 4.51758 16.4786 4.51758 19.4679 4.51758C20.0576 4.51758 20.5457 4.69031 20.8372 5.22181C21.2574 5.98584 20.8168 6.93589 19.956 7.12855C19.8001 7.16177 19.6374 7.17506 19.4747 7.17506C13.4892 7.17506 7.50373 7.17506 1.51826 7.17506C0.75906 7.17506 0.243889 6.82959 0.0540893 6.21172C-0.18316 5.42112 0.372682 4.61723 1.21322 4.53751C1.35557 4.52422 1.49792 4.52422 1.64027 4.52422C4.60251 4.51758 7.55796 4.51758 10.5134 4.51758Z" fill="#E77F76"/>
<path d="M16.0309 3.97297C15.6784 3.97297 15.3395 3.97297 14.9667 3.97297C14.9667 3.50791 14.9667 3.0495 14.9667 2.59773C14.9667 2.19246 14.8786 1.81377 14.5735 1.50816C14.2685 1.20255 13.8889 1.06967 13.4618 1.06967C11.4825 1.06967 9.50315 1.06303 7.51703 1.06967C6.61548 1.07632 6.04608 1.64103 6.03253 2.52464C6.02575 2.93655 6.02575 3.34846 6.03253 3.76037C6.0393 3.93975 5.97152 3.9929 5.80205 3.98626C5.52413 3.97297 5.25299 3.98626 4.91406 3.98626C4.94796 3.28203 4.89373 2.59108 5.02252 1.94C5.24621 0.777351 6.22233 0.0332566 7.47636 0.0199692C9.4896 3.81079e-05 11.5096 -0.00660559 13.5228 0.0199692C14.7498 0.0332566 15.6378 0.737489 15.9563 1.87356C15.997 2.01308 16.0174 2.16588 16.0241 2.31205C16.0377 2.85683 16.0309 3.40161 16.0309 3.97297Z" fill="#E77F76"/>
</g>
<defs>
<clipPath id="clip0_5407_362">
<rect width="21" height="27" fill="white"/>
</clipPath>
</defs>
</svg>
