<svg width="12" height="12" viewBox="0 0 12 12" fill="none" xmlns="http://www.w3.org/2000/svg">
<path d="M6.40799 2.84521C7.3306 3.76783 8.238 4.67523 9.15555 5.59784C9.12006 5.63839 9.07444 5.68909 9.02881 5.73471C6.99096 7.77256 4.9531 9.81042 2.92032 11.8483C2.81386 11.9547 2.70741 12.0004 2.55533 12.0004C1.77466 11.9953 0.999058 11.9902 0.218387 12.0004C0.0358924 12.0004 -0.00466206 11.9446 0.000407227 11.7773C0.0105458 10.9865 0.00040715 10.1957 0.00547644 9.39981C0.00547644 9.31363 0.0358924 9.20717 0.0916546 9.14634C2.17513 7.05779 4.26368 4.96925 6.35223 2.8807C6.3725 2.87563 6.39278 2.86042 6.40799 2.84521Z" fill="#000000"/>
<path d="M10.1538 4.57412C9.2464 3.67179 8.33393 2.75932 7.40625 1.83164C7.61409 1.62887 7.83207 1.41089 8.05005 1.19291C8.28324 0.959719 8.51136 0.726532 8.74961 0.493344C9.02842 0.219603 9.39848 0.214533 9.68236 0.493344C10.3008 1.10166 10.9142 1.71504 11.5225 2.3335C11.7557 2.57175 11.8013 2.93167 11.5833 3.15979C11.117 3.65151 10.6252 4.11282 10.1538 4.57412Z" fill="#000000"/>
</svg>
