<svg width="20" height="20" viewBox="0 0 20 20" fill="none" xmlns="http://www.w3.org/2000/svg">
<g id="Frame" clip-path="url(#clip0_2063_416)">
<path id="Vector" d="M20.0001 3.19454C19.9763 4.04213 19.74 4.66024 19.243 5.16688C18.7538 5.66638 18.2562 6.15752 17.7622 6.65165C13.5441 10.8675 9.32428 15.0822 5.11037 19.3035C4.87468 19.5401 4.61875 19.6611 4.29021 19.6885C3.15638 19.7827 2.02434 19.8894 0.891699 19.9943C0.291753 20.0492 -0.0504784 19.7017 0.00606416 19.0973C0.111412 17.9725 0.217355 16.8484 0.310204 15.7224C0.336987 15.3946 0.450667 15.1365 0.688146 14.8993C5.37999 10.2208 10.0647 5.53465 14.7518 0.85145C15.6922 -0.087931 17.0313 -0.288801 18.0866 0.440769C18.83 0.954568 19.5174 1.5697 19.8406 2.46378C19.94 2.73975 19.968 3.04076 20.0001 3.19454ZM1.50474 18.4839C1.59521 18.4839 1.66068 18.4893 1.72555 18.4833C2.45108 18.4178 3.17602 18.3456 3.90274 18.2872C4.07118 18.2735 4.18724 18.2062 4.30389 18.0899C8.25711 14.1339 12.2127 10.1815 16.1677 6.22786C16.2243 6.17123 16.2784 6.11222 16.3195 6.06871C15.5249 5.2706 14.7405 4.48202 13.9465 3.6845C13.9173 3.71072 13.8786 3.74291 13.8429 3.77867C9.84507 7.77283 5.84721 11.7682 1.85292 15.7671C1.78745 15.8327 1.74222 15.9412 1.73091 16.0341C1.68151 16.4395 1.64639 16.8472 1.60949 17.2543C1.57319 17.6584 1.54045 18.0631 1.50474 18.4839ZM17.3765 5.01429C17.6688 4.72223 17.9676 4.44268 18.2443 4.14226C18.6705 3.68092 18.6794 2.99903 18.2634 2.53948C18.0092 2.25873 17.739 1.99051 17.4581 1.73659C17.0867 1.40101 16.5159 1.31101 16.113 1.59831C15.6963 1.89514 15.3428 2.28079 14.9773 2.61398C15.7981 3.43356 16.5802 4.21677 17.3765 5.01429Z" fill="#24A6A4"/>
</g>
<defs>
<clipPath id="clip0_2063_416">
<rect width="20" height="20" fill="white"/>
</clipPath>
</defs>
</svg>
