<svg width="16" height="22" viewBox="0 0 16 22" fill="none" xmlns="http://www.w3.org/2000/svg">
<path d="M7.46925 0C8.21777 0 8.96992 0.0355299 9.70357 0.18405C9.75774 0.195016 9.81177 0.206577 9.86562 0.218871C13.1172 0.961539 15.5868 3.75214 15.962 7.04515C16.1053 8.30466 15.8297 9.47412 15.3613 10.6212C14.5291 12.6602 13.3813 14.5271 12.1653 16.3551C10.9012 18.2553 9.54046 20.0854 8.11305 21.8677C8.05421 21.9405 7.93989 21.9315 7.88324 21.857C7.13851 20.8774 6.39113 19.9158 5.67109 18.9348C4.09138 16.7819 2.58231 14.5818 1.38988 12.1891C0.967523 11.34 0.60729 10.4531 0.300667 9.5557C-0.207867 8.06688 -0.0330119 6.57508 0.53815 5.14595C1.66093 2.33694 3.75519 0.665069 6.74377 0.0999842C6.98326 0.0547177 7.22725 0.0328306 7.46925 0ZM3.73365 7.14164C3.88777 7.14167 4.01272 7.26659 4.01272 7.42072C4.01272 8.73046 4.01272 10.0402 4.01272 11.3499C4.01272 11.7837 4.13146 11.9046 4.55833 11.9046C6.86502 11.9051 9.17171 11.9051 11.4784 11.9046C11.8842 11.9046 12.0115 11.7797 12.0115 11.3828C12.012 10.0516 12.0115 8.72051 12.0115 7.38938C12.0115 7.25284 12.1222 7.14215 12.2587 7.14215C12.2633 7.14215 12.2679 7.14215 12.2725 7.14215C12.5826 7.14166 12.8923 7.14265 13.2024 7.14016C13.3883 7.13867 13.5175 7.05013 13.5822 6.87652C13.6483 6.69894 13.5867 6.55518 13.4514 6.4353C13.4138 6.40197 13.3722 6.37312 13.3327 6.34228C11.6823 5.08128 10.032 3.82029 8.3816 2.5593C8.07448 2.32451 7.95123 2.326 7.63809 2.56527C6.58194 3.3726 5.52479 4.17944 4.46864 4.98628C3.8574 5.45287 3.24766 5.92195 2.63491 6.38605C2.47208 6.50942 2.37138 6.65218 2.43902 6.8626C2.50966 7.08246 2.68001 7.14862 2.89494 7.14166C2.99565 7.13817 3.09685 7.14116 3.19756 7.14116C3.37427 7.14149 3.55099 7.1416 3.73365 7.14164Z" fill="white"/>
</svg>
