<svg width="20" height="28" viewBox="0 0 20 28" fill="none" xmlns="http://www.w3.org/2000/svg">
<path d="M10.7425 0C11.273 0.0901599 11.8091 0.154204 12.332 0.273589C16.3965 1.20192 19.4834 4.69018 19.9525 8.80644C20.1316 10.3808 19.7872 11.8427 19.2016 13.2765C18.1614 15.8252 16.7266 18.1588 15.2066 20.4439C13.6265 22.8192 11.9256 25.1067 10.1413 27.3346C10.1031 27.3819 10.0593 27.4248 9.98976 27.5C9.01403 26.2135 8.03266 24.9544 7.08886 23.6685C5.11422 20.9774 3.22788 18.2272 1.73735 15.2364C1.2094 14.175 0.759113 13.0663 0.375833 11.9446C-0.259834 10.0836 -0.0412649 8.21885 0.672687 6.43244C2.07617 2.92118 4.69399 0.831336 8.42971 0.12498C8.72907 0.0683971 9.03407 0.0410383 9.33656 0C9.80501 0 10.2741 0 10.7425 0ZM5.01589 8.92707C5.01589 9.06511 5.01589 9.17019 5.01589 9.27589C5.01589 10.9131 5.01589 12.5503 5.01589 14.1874C5.01589 14.7296 5.16432 14.8807 5.69791 14.8807C8.58127 14.8814 11.4646 14.8814 14.348 14.8807C14.8553 14.8807 15.0144 14.7247 15.0144 14.2285C15.015 12.5646 15.0144 10.9006 15.0144 9.23672C15.0144 9.14159 15.0144 9.04708 15.0144 8.92769C15.1459 8.92769 15.2429 8.92769 15.3406 8.92769C15.7283 8.92707 16.1153 8.92831 16.503 8.9252C16.7354 8.92334 16.8969 8.81266 16.9777 8.59565C17.0604 8.37367 16.9834 8.19398 16.8143 8.04412C16.7673 8.00246 16.7153 7.9664 16.6658 7.92785C14.6029 6.35161 12.5399 4.77536 10.477 3.19912C10.0931 2.90563 9.93903 2.9075 9.54761 3.20658C8.22743 4.21575 6.90599 5.2243 5.5858 6.23284C4.82175 6.81609 4.05958 7.40244 3.29364 7.98257C3.0901 8.13677 2.96422 8.31523 3.04877 8.57824C3.13707 8.85308 3.35001 8.93577 3.61868 8.92707C3.74456 8.92272 3.87107 8.92645 3.99695 8.92645C4.32825 8.92707 4.65955 8.92707 5.01589 8.92707Z" fill="#FBC000"/>
<path d="M5.97758 13.7475C5.97758 13.6228 5.97758 13.5148 5.97758 13.4067C5.97758 11.7606 5.97758 10.1138 5.97758 8.4677C5.97758 7.80328 5.86265 7.68629 5.20335 7.68057C5.14272 7.67993 5.0821 7.68057 5 7.62716C6.66404 6.33838 8.32807 5.04959 10.0054 3.75C11.6782 5.04514 13.3391 6.33138 15 7.61762C14.9981 7.63861 14.9962 7.65959 14.9937 7.67993C14.9129 7.67993 14.8314 7.67993 14.7506 7.67993C14.1689 7.68248 14.0363 7.8179 14.0363 8.41302C14.0357 9.46465 14.0363 10.5169 14.0363 11.5685C14.0363 12.1999 14.0369 12.8306 14.0357 13.462C14.0357 13.5516 14.0281 13.6419 14.0231 13.75C13.36 13.75 12.712 13.75 12.0363 13.75C12.0313 13.6381 12.0224 13.5319 12.0224 13.4257C12.0212 12.4104 12.0231 11.395 12.0212 10.3802C12.0199 9.86902 11.8595 9.71007 11.3511 9.70944C10.4518 9.7088 9.55257 9.7088 8.65267 9.70944C8.14493 9.71007 7.99274 9.86457 7.99211 10.384C7.99084 11.3994 7.99148 12.4148 7.99148 13.4296C7.99148 13.5287 7.99148 13.6273 7.99148 13.7475C7.32018 13.7475 6.67225 13.7475 5.97758 13.7475Z" fill="white"/>
<path d="M11.25 11.25C11.25 12.0861 11.25 12.9102 11.25 13.75C10.4209 13.75 9.60061 13.75 8.75 13.75C8.75 12.9239 8.75 12.0951 8.75 11.25C9.56712 11.25 10.3874 11.25 11.25 11.25Z" fill="white"/>
</svg>
