<svg width="42" height="37" viewBox="0 0 42 37" fill="none" xmlns="http://www.w3.org/2000/svg">
<path d="M0 5C0 2.23858 2.23858 0 5 0H42V37H5C2.23858 37 0 34.7614 0 32V5Z" fill="#FBC000"/>
<path d="M21.594 8C22.0184 8.07213 22.4473 8.12336 22.8656 8.21887C26.1172 8.96154 28.5868 11.7521 28.962 15.0452C29.1053 16.3047 28.8297 17.4741 28.3613 18.6212C27.5291 20.6602 26.3813 22.5271 25.1653 24.3551C23.9012 26.2553 22.5405 28.0854 21.1131 29.8677C21.0825 29.9055 21.0474 29.9398 20.9918 30C20.2112 28.9708 19.4261 27.9635 18.6711 26.9348C17.0914 24.7819 15.5823 22.5818 14.3899 20.1891C13.9675 19.34 13.6073 18.4531 13.3007 17.5557C12.7921 16.0669 12.967 14.5751 13.5381 13.146C14.6609 10.3369 16.7552 8.66507 19.7438 8.09998C19.9833 8.05472 20.2273 8.03283 20.4692 8C20.844 8 21.2193 8 21.594 8ZM17.0127 15.1417C17.0127 15.2521 17.0127 15.3362 17.0127 15.4207C17.0127 16.7305 17.0127 18.0402 17.0127 19.3499C17.0127 19.7837 17.1315 19.9046 17.5583 19.9046C19.865 19.9051 22.1717 19.9051 24.4784 19.9046C24.8842 19.9046 25.0115 19.7797 25.0115 19.3828C25.012 18.0516 25.0115 16.7205 25.0115 15.3894C25.0115 15.3133 25.0115 15.2377 25.0115 15.1422C25.1167 15.1422 25.1944 15.1422 25.2725 15.1422C25.5826 15.1417 25.8923 15.1427 26.2024 15.1402C26.3883 15.1387 26.5175 15.0501 26.5822 14.8765C26.6483 14.6989 26.5867 14.5552 26.4514 14.4353C26.4138 14.402 26.3722 14.3731 26.3327 14.3423C24.6823 13.0813 23.032 11.8203 21.3816 10.5593C21.0745 10.3245 20.9512 10.326 20.6381 10.5653C19.5819 11.3726 18.5248 12.1794 17.4686 12.9863C16.8574 13.4529 16.2477 13.9219 15.6349 14.3861C15.4721 14.5094 15.3714 14.6522 15.439 14.8626C15.5097 15.0825 15.68 15.1486 15.8949 15.1417C15.9956 15.1382 16.0969 15.1412 16.1976 15.1412C16.4626 15.1417 16.7276 15.1417 17.0127 15.1417Z" fill="white"/>
<path d="M17.7821 18.998C17.7821 18.8983 17.7821 18.8118 17.7821 18.7253C17.7821 17.4084 17.7821 16.091 17.7821 14.7742C17.7821 14.2426 17.6901 14.149 17.1627 14.1445C17.1142 14.1439 17.0657 14.1445 17 14.1017C18.3312 13.0707 19.6625 12.0397 21.0043 11C22.3426 12.0361 23.6713 13.0651 25 14.0941C24.9985 14.1109 24.997 14.1277 24.9949 14.1439C24.9303 14.1439 24.8651 14.1439 24.8004 14.1439C24.3351 14.146 24.229 14.2543 24.229 14.7304C24.2285 15.5717 24.229 16.4135 24.229 17.2548C24.229 17.7599 24.2296 18.2645 24.2285 18.7696C24.2285 18.8413 24.2225 18.9135 24.2184 19C23.688 19 23.1696 19 22.629 19C22.625 18.9105 22.6179 18.8255 22.6179 18.7406C22.6169 17.9283 22.6184 17.116 22.6169 16.3042C22.6159 15.8952 22.4876 15.7681 22.0809 15.7675C21.3615 15.767 20.6421 15.767 19.9221 15.7675C19.5159 15.7681 19.3942 15.8917 19.3937 16.3072C19.3927 17.1195 19.3932 17.9318 19.3932 18.7436C19.3932 18.823 19.3932 18.9018 19.3932 18.998C18.8561 18.998 18.3378 18.998 17.7821 18.998Z" fill="#FBC000"/>
<path d="M22 17C22 17.6689 22 18.3281 22 19C21.3367 19 20.6805 19 20 19C20 18.3391 20 17.6761 20 17C20.6537 17 21.3099 17 22 17Z" fill="white"/>
</svg>
