<svg width="15" height="21" viewBox="0 0 15 21" fill="none" xmlns="http://www.w3.org/2000/svg">
<path d="M7.5 20.2487C7.30152 20.0219 7.0318 19.7082 6.71321 19.3235C6.01663 18.4823 5.08872 17.3049 4.16183 15.9587C3.23395 14.6109 2.3135 13.1031 1.62661 11.6005C0.936633 10.0912 0.5 8.6249 0.5 7.35C0.5 3.57212 3.62014 0.5 7.5 0.5C11.3799 0.5 14.5 3.57212 14.5 7.35C14.5 8.6249 14.0634 10.0912 13.3734 11.6005C12.6865 13.1031 11.766 14.6109 10.8382 15.9587C9.91128 17.3049 8.98337 18.4823 8.28679 19.3235C7.9682 19.7082 7.69848 20.0219 7.5 20.2487ZM4.32143 7.35C4.32143 9.08462 5.75486 10.475 7.5 10.475C9.24514 10.475 10.6786 9.08462 10.6786 7.35C10.6786 5.61538 9.24514 4.225 7.5 4.225C5.75486 4.225 4.32143 5.61538 4.32143 7.35Z" stroke="white"/>
</svg>
