<svg width="107" height="39" viewBox="0 0 107 39" fill="none" xmlns="http://www.w3.org/2000/svg">
<path d="M29.0132 6.79551C28.7523 6.42946 28.4914 6.08959 28.2045 5.74969C24.4735 9.67149 17.0638 17.0445 16.1506 18.2994C16.0723 18.4302 16.1245 18.587 16.255 18.6132L19.9598 19.6329C20.1424 19.6852 20.1685 19.8943 20.0381 19.9989C17.6899 21.7245 11.4282 26.9012 7.09717 30.3785C8.71477 32.3919 10.4368 34.3788 12.1065 36.3396C12.3414 36.6012 12.5762 36.8887 12.7849 37.1502C12.8371 37.2026 12.8893 37.2809 12.9414 37.3332C14.82 39.5556 17.142 39.5556 19.0205 37.3332C22.2819 33.4638 25.5432 29.5943 28.5958 25.5416C32.7963 20.025 32.8486 12.1553 29.0132 6.79551Z" fill="#F0BF0F"/>
<path d="M13.8804 21.0447L9.02759 20.2603C8.87104 20.208 8.81887 19.9989 8.94933 19.8943C11.5062 17.9857 22.2033 9.20084 27.4737 4.9653C25.6734 3.13514 23.5078 1.77557 21.1336 0.991207L21.1597 0.912771C14.2979 -1.44031 6.94035 0.86048 2.81804 6.61244C-1.01726 11.9722 -0.965077 19.842 3.23549 25.3848C3.83559 26.1692 4.43567 26.9275 5.03575 27.7116C5.03575 27.7116 5.03575 27.7116 5.03575 27.7378C5.45319 28.313 5.89674 28.8621 6.34027 29.4111C9.41895 26.1954 13.6195 21.9336 14.0109 21.3846C14.0631 21.2538 14.0109 21.097 13.8804 21.0447Z" fill="url(#paint0_linear_2831_665)"/>
<path d="M45.2341 10.2106L44.7724 10.2616C44.6698 9.2335 44.2594 8.7707 43.336 8.7707H41.6431V15.8652C41.6431 16.7909 41.8483 17.1507 42.3613 17.1507V17.613H38.8728V17.1507C39.3858 17.1507 39.591 16.7909 39.591 15.8652V8.7707H37.8981C36.9747 8.7707 36.5643 9.2335 36.4617 10.2616L36 10.2106L36.2052 8.30838L36.2565 8H45.0289L45.0802 8.30838L45.2341 10.2106Z" fill="#24A6A4"/>
<path d="M55.4946 9.74778V15.8652C55.4946 16.7909 55.6998 17.1507 56.2128 17.1507V17.613H52.7243V17.1507C53.2373 17.1507 53.4426 16.7909 53.4426 15.8652V12.6781H48.7229V15.8652C48.7229 16.7909 48.9281 17.1507 49.4411 17.1507V17.613H45.9526V17.1507C46.4657 17.1507 46.6708 16.7909 46.6708 15.8652V9.74778C46.6708 8.82218 46.4657 8.46233 45.9526 8.46233V8H49.4411V8.46233C48.9281 8.46233 48.7229 8.82218 48.7229 9.74778V11.9584H53.4426V9.74778C53.4426 8.82218 53.2373 8.46233 52.7243 8.46233V8H56.2128V8.46233C55.6998 8.46233 55.4946 8.82218 55.4946 9.74778Z" fill="#24A6A4"/>
<path d="M67.0871 8.46233C66.5741 8.46233 66.3689 8.82218 66.3689 9.74778V12.7295C66.3176 15.9682 65.4455 17.7675 62.5214 17.7675C58.6738 17.7675 57.853 16.0197 57.8017 12.7295V9.74778C57.8017 8.82218 57.5965 8.46233 57.0835 8.46233V8H60.572V8.46233C60.059 8.46233 59.8538 8.82218 59.8538 9.74778V12.7295C59.8538 15.9167 60.5207 16.9963 62.7779 16.9963C64.9838 16.9963 65.5994 15.5569 65.6507 12.7295V9.74778C65.6507 8.82218 65.4455 8.46233 64.9325 8.46233V8H67.1384V8.46233H67.0871Z" fill="#24A6A4"/>
<path d="M67.7041 17.1507C68.2171 17.1507 68.4223 16.7909 68.4223 15.8652V9.74778C68.4223 8.82218 68.2171 8.46233 67.7041 8.46233V8H68.6788C69.9613 8.05099 70.5256 8.2569 71.2439 9.18202L76.3739 15.8138V9.74778C76.3739 8.82218 76.1687 8.46233 75.6557 8.46233V8H77.8616V8.46233C77.3486 8.46233 77.1434 8.82218 77.1434 9.74778V17.613C75.707 17.613 75.0914 17.4076 74.3732 16.4305L69.2431 9.79926V15.8652C69.2431 16.7909 69.4483 17.1507 69.9613 17.1507V17.613H67.7554V17.1507H67.7041Z" fill="#24A6A4"/>
<path d="M88.121 12.8325C88.121 17.0992 84.94 17.665 83.2986 17.665H78.7329V17.2022C79.2459 17.2022 79.4511 16.8423 79.4511 15.9167V9.79925C79.4511 8.87412 79.2459 8.51427 78.7329 8.51427V8.05147H83.2986C84.8888 7.99999 88.121 8.61675 88.121 12.8325ZM86.12 12.8325C86.12 9.9022 84.9917 8.77117 82.9395 8.77117H81.5031V16.8938H82.9395C84.9917 16.8938 86.12 15.7628 86.12 12.8325Z" fill="#24A6A4"/>
<path d="M96.6373 15.4024L96.432 17.3047L96.3808 17.613H88.8394V17.1507C89.3528 17.1507 89.5576 16.7909 89.5576 15.8652V9.74778C89.5576 8.82218 89.3528 8.46233 88.8394 8.46233V8H96.2779L96.3296 8.30838L96.5344 10.2106L96.0731 10.2616C95.9703 9.2335 95.5597 8.7707 94.6367 8.7707H91.6098V12.3697H93.3539C94.2774 12.3697 94.6367 12.1638 94.6367 11.65H95.098V13.8606H94.6367C94.6367 13.3463 94.2774 13.1404 93.3539 13.1404H91.6098V16.8933H94.7903C95.7138 16.8933 96.1243 16.4305 96.2267 15.4024H96.6373Z" fill="#24A6A4"/>
<path d="M107 17.1507V17.613C104.845 17.613 103.409 17.4591 102.948 15.197C102.486 12.9864 102.332 12.6266 100.331 12.6266H100.126V15.8652C100.126 16.7909 100.331 17.1507 100.844 17.1507V17.613H97.3555V17.1507C97.8684 17.1507 98.0737 16.7909 98.0737 15.8652V9.74778C98.0737 8.82218 97.8684 8.46233 97.3555 8.46233V8H101.511C102.845 8 105.256 8 105.256 10.2616C105.256 11.65 104.332 12.2153 103.358 12.4722C104.179 12.935 104.794 13.6032 105.051 14.8372C105.615 16.8933 106.23 17.1507 107 17.1507ZM101.511 11.9069C102.639 11.9069 103.306 11.4441 103.306 10.3645C103.306 9.28498 102.639 8.7707 101.511 8.7707H100.126V11.9069H101.511Z" fill="#24A6A4"/>
<path d="M40.9249 29.591L40.8223 30.825V31.0304H36V30.722C36.3591 30.722 36.4617 30.5161 36.4617 29.8994V25.9925C36.4617 25.3752 36.3078 25.1698 36 25.1698V24.8615H40.771V25.0669L40.8735 26.3008L40.5658 26.3523C40.5144 25.6841 40.258 25.3752 39.6423 25.3752H37.6929V27.6888H38.8215C39.4372 27.6888 39.6423 27.5348 39.6423 27.226H39.9502V28.6654H39.6423C39.6423 28.3055 39.4372 28.2031 38.8215 28.2031H37.6929V30.6191H39.7449C40.3606 30.6191 40.5658 30.3107 40.6684 29.6425L40.9249 29.591Z" fill="#24A6A4"/>
<path d="M47.1837 25.7357L45.5933 27.8948L45.6447 27.9463L47.235 30.1054C47.5941 30.5682 48.0045 30.7221 48.261 30.7221V31.031H45.2342V30.7221C46.0551 30.7221 46.0551 30.6196 45.696 30.1054L44.4134 28.3576L43.1309 30.1054C42.7718 30.5682 42.7718 30.7221 43.5926 30.7221V31.031H41.4893V30.7221C41.7458 30.7221 42.1562 30.6196 42.5153 30.1054L44.1056 27.9463L44.0543 27.8948L42.464 25.7357C42.1049 25.2729 41.6945 25.1189 41.438 25.1189V24.8105H44.4647V25.1189C43.6439 25.1189 43.6439 25.2219 44.003 25.7357L45.2856 27.4835L46.5681 25.7357C46.9272 25.2729 46.9272 25.1189 46.1064 25.1189V24.8105H48.2097V25.1189C47.9532 25.1189 47.5428 25.2729 47.1837 25.7357Z" fill="#24A6A4"/>
<path d="M54.3144 26.8666C54.3144 28.8713 52.6215 28.8713 51.4416 28.8713H50.4669V29.8994C50.4669 30.5166 50.6208 30.7221 50.9286 30.7221V31.0304H48.7227V30.7221C49.0818 30.7221 49.1844 30.5166 49.1844 29.8994V25.9925C49.1844 25.3758 49.0305 25.1699 48.7227 25.1699V24.8615H51.4416C52.6215 24.81 54.3144 24.81 54.3144 26.8666ZM53.0319 26.8666C53.0319 25.6841 52.4676 25.3243 51.4416 25.3243H50.4669V28.3575H51.4416C52.4676 28.3575 53.0319 28.0487 53.0319 26.8666Z" fill="#24A6A4"/>
<path d="M60.9314 30.6711V30.9795C59.5463 30.9795 58.6229 30.8765 58.3663 29.4371C58.0586 28.0492 57.9559 27.7923 56.7248 27.7923H56.6222V29.8485C56.6222 30.4652 56.776 30.6711 57.0839 30.6711V30.9795H54.8779V30.6711C55.237 30.6711 55.3396 30.4652 55.3396 29.8485V25.9416C55.3396 25.3243 55.1857 25.1189 54.8779 25.1189V24.8105H57.4943C58.3663 24.8105 59.9054 24.8105 59.9054 26.25C59.9054 27.1236 59.3411 27.4834 58.6742 27.6379C59.1872 27.8948 59.5976 28.3576 59.7515 29.1288C60.0593 30.5167 60.4697 30.6711 60.9314 30.6711ZM57.443 27.3295C58.1612 27.3295 58.5716 27.0211 58.5716 26.3524C58.5716 25.6842 58.1612 25.3243 57.443 25.3243H56.5709V27.3295H57.443Z" fill="#24A6A4"/>
<path d="M66.2168 29.591L66.1142 30.825V31.0304H61.292V30.722C61.6511 30.722 61.7537 30.5161 61.7537 29.8994V25.9925C61.7537 25.3752 61.5998 25.1698 61.292 25.1698V24.8615H66.063V25.0669L66.1655 26.3008L65.8577 26.3523C65.8064 25.6841 65.5499 25.3752 64.9343 25.3752H62.9849V27.6888H64.1135C64.7291 27.6888 64.9343 27.5348 64.9343 27.226H65.2421V28.6654H64.9343C64.9343 28.3055 64.7291 28.2031 64.1135 28.2031H62.9849V30.6191H65.0369C65.6525 30.6191 65.8577 30.3107 65.9603 29.6425L66.2168 29.591Z" fill="#24A6A4"/>
<path d="M69.6015 24.7588C71.0381 24.7588 72.5258 25.3241 72.064 26.9179L70.7812 26.712C71.2429 25.581 70.6276 25.2211 69.6015 25.2211C68.6268 25.2211 68.2677 25.581 68.2677 26.1467C68.2677 26.712 68.832 26.9689 69.6528 27.1748C71.0381 27.5861 72.3717 27.8945 72.3717 29.2824C72.3717 30.6704 71.1405 31.0817 69.7554 31.0817C68.1651 31.0817 66.4209 30.5164 66.8826 28.5112L68.1651 28.7171C67.7034 30.259 68.6781 30.6189 69.7554 30.6189C70.73 30.6189 71.0893 30.259 71.0893 29.5908C71.0893 28.8711 70.3711 28.7171 69.4476 28.4088C68.2164 27.9974 67.0364 27.6886 67.0364 26.4551C67.0364 25.2211 68.2164 24.7588 69.6015 24.7588Z" fill="#24A6A4"/>
<path d="M75.8606 24.7588C77.297 24.7588 78.7846 25.3241 78.3229 26.9179L77.0401 26.712C77.5018 25.581 76.8865 25.2211 75.8606 25.2211C74.8854 25.2211 74.5266 25.581 74.5266 26.1467C74.5266 26.712 75.0907 26.9689 75.9118 27.1748C77.297 27.5861 78.6306 27.8945 78.6306 29.2824C78.6306 30.6704 77.3994 31.0817 76.0142 31.0817C74.4242 31.0817 72.6796 30.5164 73.1414 28.5112L74.4242 28.7171C73.9624 30.259 74.9371 30.6189 76.0142 30.6189C76.9889 30.6189 77.3482 30.259 77.3482 29.5908C77.3482 28.8711 76.63 28.7171 75.7065 28.4088C74.4754 27.9974 73.2954 27.6886 73.2954 26.4551C73.2442 25.2211 74.4242 24.7588 75.8606 24.7588Z" fill="#24A6A4"/>
<defs>
<linearGradient id="paint0_linear_2831_665" x1="0.00943211" y1="14.702" x2="27.4801" y2="14.702" gradientUnits="userSpaceOnUse">
<stop stop-color="#249CAA"/>
<stop offset="0.469" stop-color="#2EB5B2"/>
<stop offset="1" stop-color="#219FAC"/>
</linearGradient>
</defs>
</svg>
