<svg width="211" height="77" viewBox="0 0 211 77" fill="none" xmlns="http://www.w3.org/2000/svg">
<mask id="mask0_4760_2223" style="mask-type:alpha" maskUnits="userSpaceOnUse" x="0" y="0" width="211" height="77">
<path d="M88.584 20.1594L87.6724 20.2601C87.4698 18.2303 86.6595 17.3166 84.8364 17.3166H81.4939V31.3237C81.4939 33.1512 81.8991 33.8617 82.912 33.8617V34.7745H76.0245V33.8617C77.0374 33.8617 77.4425 33.1512 77.4425 31.3237V17.3166H74.1001C72.277 17.3166 71.4667 18.2303 71.2641 20.2601L70.3525 20.1594L70.7577 16.4038L70.859 15.7949H88.1788L88.2802 16.4038L88.584 20.1594Z" fill="#1F94A4"/>
<path d="M108.843 19.2457V31.3237C108.843 33.1512 109.248 33.8617 110.261 33.8617V34.7745H103.374V33.8617C104.387 33.8617 104.792 33.1512 104.792 31.3237V25.0311H95.4734V31.3237C95.4734 33.1512 95.8786 33.8617 96.8914 33.8617V34.7745H90.0039V33.8617C91.0168 33.8617 91.4219 33.1512 91.4219 31.3237V19.2457C91.4219 17.4182 91.0168 16.7077 90.0039 16.7077V15.7949H96.8914V16.7077C95.8786 16.7077 95.4734 17.4182 95.4734 19.2457V23.6102H104.792V19.2457C104.792 17.4182 104.387 16.7077 103.374 16.7077V15.7949H110.261V16.7077C109.248 16.7077 108.843 17.4182 108.843 19.2457Z" fill="#1F94A4"/>
<path d="M131.73 16.7077C130.717 16.7077 130.312 17.4182 130.312 19.2457V25.1327C130.211 31.527 128.489 35.0794 122.716 35.0794C115.119 35.0794 113.499 31.6286 113.397 25.1327V19.2457C113.397 17.4182 112.992 16.7077 111.979 16.7077V15.7949H118.867V16.7077C117.854 16.7077 117.449 17.4182 117.449 19.2457V25.1327C117.449 31.4254 118.766 33.5568 123.222 33.5568C127.578 33.5568 128.793 30.7149 128.894 25.1327V19.2457C128.894 17.4182 128.489 16.7077 127.476 16.7077V15.7949H131.832V16.7077H131.73Z" fill="#1F94A4"/>
<path d="M132.948 33.8617C133.961 33.8617 134.366 33.1512 134.366 31.3237V19.2457C134.366 17.4182 133.961 16.7077 132.948 16.7077V15.7949H134.873C137.405 15.8956 138.519 16.3021 139.937 18.1287L150.066 31.2221V19.2457C150.066 17.4182 149.66 16.7077 148.648 16.7077V15.7949H153.003V16.7077C151.99 16.7077 151.585 17.4182 151.585 19.2457V34.7745C148.749 34.7745 147.533 34.3689 146.115 32.4398L135.987 19.3473V31.3237C135.987 33.1512 136.392 33.8617 137.405 33.8617V34.7745H133.05V33.8617H132.948Z" fill="#1F94A4"/>
<path d="M173.259 25.3356C173.259 33.7597 166.979 34.8767 163.738 34.8767H154.724V33.963C155.736 33.963 156.142 33.2525 156.142 31.425V19.3469C156.142 17.5204 155.736 16.8099 154.724 16.8099V15.8962H163.738C166.878 15.7946 173.259 17.0123 173.259 25.3356ZM169.308 25.3356C169.308 19.5502 167.081 17.3172 163.029 17.3172H160.193V33.3541H163.029C167.081 33.3541 169.308 31.1211 169.308 25.3356Z" fill="#1F94A4"/>
<path d="M190.074 30.41L189.668 34.1656L189.567 34.7745H174.678V33.8617C175.691 33.8617 176.096 33.1512 176.096 31.3237V19.2457C176.096 17.4182 175.691 16.7077 174.678 16.7077V15.7949H189.364L189.466 16.4038L189.871 20.1594L188.96 20.2601C188.757 18.2303 187.946 17.3166 186.124 17.3166H180.148V24.4223H183.591C185.414 24.4223 186.124 24.0157 186.124 23.0013H187.035V27.3658H186.124C186.124 26.3504 185.414 25.9439 183.591 25.9439H180.148V33.3535H186.427C188.25 33.3535 189.061 32.4398 189.263 30.41H190.074Z" fill="#1F94A4"/>
<path d="M210.532 33.8617V34.7745C206.278 34.7745 203.442 34.4705 202.531 30.0044C201.619 25.6399 201.315 24.9295 197.365 24.9295H196.96V31.3237C196.96 33.1512 197.365 33.8617 198.378 33.8617V34.7745H191.49V33.8617C192.503 33.8617 192.908 33.1512 192.908 31.3237V19.2457C192.908 17.4182 192.503 16.7077 191.49 16.7077V15.7949H199.695C202.328 15.7949 207.088 15.7949 207.088 20.2601C207.088 23.0013 205.265 24.1174 203.341 24.6246C204.962 25.5383 206.177 26.8576 206.683 29.294C207.798 33.3535 209.013 33.8617 210.532 33.8617ZM199.695 23.5085C201.923 23.5085 203.24 22.5948 203.24 20.4634C203.24 18.3319 201.923 17.3166 199.695 17.3166H196.96V23.5085H199.695Z" fill="#1F94A4"/>
<path d="M80.076 58.4237L79.8734 60.8601V61.2656H70.3525V60.6568C71.0615 60.6568 71.2642 60.2503 71.2642 59.0326V51.319C71.2642 50.1004 70.9603 49.6948 70.3525 49.6948V49.0859H79.7721V49.4915L79.9747 51.9278L79.367 52.0295C79.2657 50.7102 78.7593 50.1004 77.5438 50.1004H73.695V54.6681H75.9233C77.1388 54.6681 77.5438 54.3642 77.5438 53.7544H78.1516V56.5963H77.5438C77.5438 55.8858 77.1388 55.6835 75.9233 55.6835H73.695V60.4535H77.7464C78.9618 60.4535 79.367 59.8447 79.5696 58.5254L80.076 58.4237Z" fill="#1F94A4"/>
<path d="M92.4319 50.8119L89.292 55.0747L89.3934 55.1764L92.5332 59.4392C93.2422 60.3529 94.0525 60.6569 94.559 60.6569V61.2667H88.583V60.6569C90.2037 60.6569 90.2037 60.4546 89.4947 59.4392L86.9625 55.9885L84.4304 59.4392C83.7214 60.3529 83.7214 60.6569 85.3419 60.6569V61.2667H81.1892V60.6569C81.6956 60.6569 82.5059 60.4546 83.2149 59.4392L86.3547 55.1764L86.2535 55.0747L83.1136 50.8119C82.4046 49.8981 81.5943 49.5942 81.0879 49.5942V48.9854H87.0637V49.5942C85.4432 49.5942 85.4432 49.7975 86.1522 50.8119L88.6844 54.2626L91.2165 50.8119C91.9255 49.8981 91.9255 49.5942 90.3049 49.5942V48.9854H94.4577V49.5942C93.9512 49.5942 93.1409 49.8981 92.4319 50.8119Z" fill="#1F94A4"/>
<path d="M106.512 53.0443C106.512 57.0023 103.169 57.0023 100.84 57.0023H98.9154V59.0321C98.9154 60.2507 99.2192 60.6563 99.827 60.6563V61.2651H95.4717V60.6563C96.1807 60.6563 96.3833 60.2507 96.3833 59.0321V51.3185C96.3833 50.1008 96.0794 49.6943 95.4717 49.6943V49.0854H100.84C103.169 48.9838 106.512 48.9838 106.512 53.0443ZM103.98 53.0443C103.98 50.7097 102.866 49.9992 100.84 49.9992H98.9154V55.9879H100.84C102.866 55.9879 103.98 55.3781 103.98 53.0443Z" fill="#1F94A4"/>
<path d="M119.576 60.5562V61.1651C116.841 61.1651 115.018 60.9618 114.511 58.1199C113.904 55.3796 113.701 54.8724 111.27 54.8724H111.068V58.932C111.068 60.1497 111.372 60.5562 111.979 60.5562V61.1651H107.624V60.5562C108.333 60.5562 108.536 60.1497 108.536 58.932V51.2184C108.536 49.9998 108.232 49.5942 107.624 49.5942V48.9854H112.79C114.511 48.9854 117.55 48.9854 117.55 51.8273C117.55 53.5522 116.436 54.2626 115.119 54.5675C116.132 55.0747 116.942 55.9885 117.246 57.511C117.854 60.2513 118.664 60.5562 119.576 60.5562ZM112.688 53.9587C114.106 53.9587 114.917 53.3498 114.917 52.0296C114.917 50.7102 114.106 49.9998 112.688 49.9998H110.966V53.9587H112.688Z" fill="#1F94A4"/>
<path d="M130.011 58.4237L129.809 60.8601V61.2656H120.288V60.6568C120.997 60.6568 121.2 60.2503 121.2 59.0326V51.319C121.2 50.1004 120.896 49.6948 120.288 49.6948V49.0859H129.708V49.4915L129.91 51.9278L129.302 52.0295C129.201 50.7102 128.695 50.1004 127.479 50.1004H123.63V54.6681H125.859C127.074 54.6681 127.479 54.3642 127.479 53.7544H128.087V56.5963H127.479C127.479 55.8858 127.074 55.6835 125.859 55.6835H123.63V60.4535H127.682C128.897 60.4535 129.302 59.8447 129.505 58.5254L130.011 58.4237Z" fill="#1F94A4"/>
<path d="M136.695 48.8828C139.531 48.8828 142.468 49.9989 141.557 53.1457L139.024 52.7391C139.936 50.5061 138.721 49.7956 136.695 49.7956C134.77 49.7956 134.061 50.5061 134.061 51.6231C134.061 52.7391 135.176 53.2463 136.796 53.6529C139.531 54.465 142.164 55.0738 142.164 57.8141C142.164 60.5544 139.733 61.3665 136.999 61.3665C133.859 61.3665 130.415 60.2504 131.327 56.2915L133.859 56.698C132.947 59.7422 134.872 60.4527 136.999 60.4527C138.923 60.4527 139.632 59.7422 139.632 58.4229C139.632 57.002 138.214 56.698 136.391 56.0892C133.96 55.2771 131.63 54.6673 131.63 52.2319C131.63 49.7956 133.96 48.8828 136.695 48.8828Z" fill="#1F94A4"/>
<path d="M149.051 48.8828C151.887 48.8828 154.824 49.9989 153.912 53.1457L151.38 52.7391C152.291 50.5061 151.076 49.7956 149.051 49.7956C147.126 49.7956 146.417 50.5061 146.417 51.6231C146.417 52.7391 147.531 53.2463 149.152 53.6529C151.887 54.465 154.52 55.0738 154.52 57.8141C154.52 60.5544 152.089 61.3665 149.354 61.3665C146.215 61.3665 142.77 60.2504 143.682 56.2915L146.215 56.698C145.303 59.7422 147.228 60.4527 149.354 60.4527C151.279 60.4527 151.988 59.7422 151.988 58.4229C151.988 57.002 150.57 56.698 148.747 56.0892C146.316 55.2771 143.986 54.6673 143.986 52.2319C143.885 49.7956 146.215 48.8828 149.051 48.8828Z" fill="#1F94A4"/>
<path d="M57.4046 13.4173C56.8884 12.6947 56.3722 12.0236 55.8044 11.3525C48.4228 19.0955 33.7627 33.6523 31.956 36.1817C31.8012 36.4398 31.9044 36.7495 32.1625 36.8011L39.4925 38.8143C39.8539 38.9175 39.9055 39.3305 39.6474 39.537C35.0532 42.9439 22.6645 53.113 14.0439 59.9784C17.2444 63.9532 20.6513 67.8763 23.955 71.7478C24.4195 72.264 24.8841 72.8318 25.2971 73.348C25.4003 73.4512 25.5036 73.6061 25.6068 73.7093C29.3234 78.097 33.9176 78.097 37.6342 73.7093C44.0867 66.0696 50.5392 58.4298 56.5787 50.4288C64.8895 39.537 64.9927 23.9994 57.4046 13.4173Z" fill="url(#paint0_linear_4760_2223)"/>
<path d="M27.461 41.5494L17.8597 40.0008C17.5499 39.8976 17.4467 39.4846 17.7048 39.2781C22.7636 35.5099 43.9277 18.1656 54.3549 9.8032C50.7931 6.18981 46.5603 3.35072 41.8629 1.80212C28.2869 -2.84366 13.7301 1.69888 5.57414 13.0552C-2.06559 23.6373 -1.91073 39.1749 6.40006 50.1183C7.58732 51.6669 8.77457 53.1639 9.96183 54.7125C9.96183 54.7125 9.96183 54.7125 9.96183 54.7641C10.7877 55.8997 11.6653 56.9837 12.5428 58.0678C18.634 51.7185 26.9448 43.3045 27.7191 42.2205C27.8223 41.9624 27.7191 41.6526 27.461 41.5494Z" fill="url(#paint1_linear_4760_2223)"/>
</mask>
<g mask="url(#mask0_4760_2223)">
<rect x="-8" y="-4" width="236" height="97" fill="white"/>
</g>
<defs>
<linearGradient id="paint0_linear_4760_2223" x1="14.0355" y1="44.1908" x2="62.9632" y2="44.1908" gradientUnits="userSpaceOnUse">
<stop stop-color="#F0BF0F"/>
<stop offset="0.469" stop-color="#FCD600"/>
<stop offset="1" stop-color="#FBBB00"/>
</linearGradient>
<linearGradient id="paint1_linear_4760_2223" x1="0.0179406" y1="29.0267" x2="54.3682" y2="29.0267" gradientUnits="userSpaceOnUse">
<stop stop-color="#1F94A4"/>
<stop offset="0.469" stop-color="#2EB1C3"/>
<stop offset="1" stop-color="#1F94A4"/>
</linearGradient>
</defs>
</svg>
