<svg width="77" height="120" viewBox="0 0 77 120" fill="none" xmlns="http://www.w3.org/2000/svg">
<path d="M66.4293 14.491C65.873 13.7104 65.3167 12.9857 64.7049 12.2609C56.7488 20.6238 40.9482 36.346 39.0009 39.0221C38.8341 39.3009 38.9453 39.6354 39.2235 39.6912L47.1238 41.8655C47.5132 41.977 47.5688 42.4231 47.2907 42.6461C42.2834 46.3257 28.9309 57.3647 19.6953 64.7796C23.1447 69.073 26.8167 73.3101 30.3774 77.4913C30.8781 78.049 31.3788 78.6621 31.8239 79.2198C31.9352 79.3315 32.0465 79.4984 32.1577 79.6101C36.1635 84.349 41.1151 84.349 45.1209 79.6101C52.0754 71.3588 59.03 63.1075 65.5393 54.4654C74.4965 42.7018 74.608 25.9203 66.4293 14.491Z" fill="url(#paint0_linear_115_947)"/>
<path d="M34.1604 44.876L23.8121 43.2034C23.4783 43.0919 23.3671 42.6459 23.6453 42.4228C29.0975 38.3529 51.9082 19.62 63.1469 10.5881C59.3079 6.68541 54.69 3.78625 49.6272 2.11367L49.6828 1.94641C35.0506 -3.07133 19.3613 1.8349 10.5708 14.1005C2.39235 25.5298 2.50362 42.3113 11.461 54.131C12.7406 55.8036 14.0203 57.4205 15.2999 59.0927C15.2999 59.0927 15.2999 59.0927 15.2999 59.1485C16.19 60.3751 17.1359 61.5459 18.0817 62.7167C24.6467 55.8595 33.6041 46.7716 34.4386 45.6007C34.5499 45.322 34.4386 44.9875 34.1604 44.876Z" fill="url(#paint1_linear_115_947)"/>
<path d="M10.0145 97.0049L9.51374 97.0602C9.40243 95.9452 8.95735 95.4433 7.95593 95.4433H6.11993V103.137C6.11993 104.141 6.34249 104.531 6.89883 104.531V105.033H3.11561V104.531C3.67197 104.531 3.89451 104.141 3.89451 103.137V95.4433H2.05852C1.05708 95.4433 0.611993 95.9452 0.500723 97.0602L0 97.0049L0.222544 94.9419L0.278179 94.6075H9.79189L9.84757 94.9419L10.0145 97.0049Z" fill="#24A6A4"/>
<path d="M21.1422 96.503V103.137C21.1422 104.141 21.3648 104.531 21.9211 104.531V105.033H18.1379V104.531C18.6943 104.531 18.9168 104.141 18.9168 103.137V99.6809H13.7983V103.137C13.7983 104.141 14.0209 104.531 14.5772 104.531V105.033H10.7939V104.531C11.3503 104.531 11.5728 104.141 11.5728 103.137V96.503C11.5728 95.4991 11.3503 95.1089 10.7939 95.1089V94.6075H14.5772V95.1089C14.0209 95.1089 13.7983 95.4991 13.7983 96.503V98.9004H18.9168V96.503C18.9168 95.4991 18.6943 95.1089 18.1379 95.1089V94.6075H21.9211V95.1089C21.3648 95.1089 21.1422 95.4991 21.1422 96.503Z" fill="#24A6A4"/>
<path d="M33.7142 95.1089C33.1579 95.1089 32.9354 95.4991 32.9354 96.503V99.7367C32.8797 103.249 31.9339 105.2 28.7626 105.2C24.59 105.2 23.6998 103.305 23.6441 99.7367V96.503C23.6441 95.4991 23.4216 95.1089 22.8652 95.1089V94.6075H26.6485V95.1089C26.0922 95.1089 25.8696 95.4991 25.8696 96.503V99.7367C25.8696 103.193 26.5929 104.364 29.0408 104.364C31.4332 104.364 32.1008 102.803 32.1565 99.7367V96.503C32.1565 95.4991 31.9339 95.1089 31.3776 95.1089V94.6075H33.7699V95.1089H33.7142Z" fill="#24A6A4"/>
<path d="M34.3833 104.531C34.9397 104.531 35.1622 104.141 35.1622 103.137V96.503C35.1622 95.4991 34.9397 95.1089 34.3833 95.1089V94.6075H35.4404C36.8313 94.6628 37.4433 94.8861 38.2222 95.8894L43.7858 103.082V96.503C43.7858 95.4991 43.5632 95.1089 43.0069 95.1089V94.6075H45.3992V95.1089C44.8428 95.1089 44.6203 95.4991 44.6203 96.503V105.033C43.0625 105.033 42.3949 104.81 41.616 103.75L36.0524 96.5588V103.137C36.0524 104.141 36.2749 104.531 36.8313 104.531V105.033H34.4389V104.531H34.3833Z" fill="#24A6A4"/>
<path d="M56.5257 99.8483C56.5257 104.476 53.0759 105.089 51.2958 105.089H46.3442V104.587C46.9006 104.587 47.1231 104.197 47.1231 103.193V96.5588C47.1231 95.5555 46.9006 95.1652 46.3442 95.1652V94.6633H51.2958C53.0204 94.6075 56.5257 95.2763 56.5257 99.8483ZM54.3556 99.8483C54.3556 96.6704 53.132 95.4438 50.9064 95.4438H49.3485V104.253H50.9064C53.132 104.253 54.3556 103.026 54.3556 99.8483Z" fill="#24A6A4"/>
<path d="M65.7616 102.635L65.539 104.698L65.4834 105.033H57.3047V104.531C57.8615 104.531 58.0836 104.141 58.0836 103.137V96.503C58.0836 95.4991 57.8615 95.1089 57.3047 95.1089V94.6075H65.3719L65.4279 94.9419L65.65 97.0049L65.1498 97.0602C65.0382 95.9452 64.593 95.4433 63.592 95.4433H60.3093V99.3464H62.2007C63.2023 99.3464 63.592 99.1231 63.592 98.5659H64.0922V100.963H63.592C63.592 100.406 63.2023 100.182 62.2007 100.182H60.3093V104.252H63.7585C64.7601 104.252 65.2053 103.75 65.3164 102.635H65.7616Z" fill="#24A6A4"/>
<path d="M77 104.531V105.033C74.6632 105.033 73.1054 104.866 72.6052 102.413C72.1044 100.015 71.9373 99.6251 69.7677 99.6251H69.5451V103.137C69.5451 104.141 69.7677 104.531 70.324 104.531V105.033H66.5405V104.531C67.0968 104.531 67.3194 104.141 67.3194 103.137V96.503C67.3194 95.4991 67.0968 95.1089 66.5405 95.1089V94.6075H71.0474C72.4936 94.6075 75.1085 94.6075 75.1085 97.0602C75.1085 98.5659 74.107 99.179 73.0499 99.4576C73.9404 99.9595 74.6077 100.684 74.8859 102.022C75.4982 104.252 76.1655 104.531 77 104.531ZM71.0474 98.8445C72.271 98.8445 72.9944 98.3426 72.9944 97.1718C72.9944 96.0011 72.271 95.4433 71.0474 95.4433H69.5451V98.8445H71.0474Z" fill="#24A6A4"/>
<path d="M20.7537 118.023L20.6424 119.361V119.584H15.4126V119.25C15.8021 119.25 15.9134 119.026 15.9134 118.358V114.121C15.9134 113.451 15.7464 113.228 15.4126 113.228V112.894H20.5867V113.117L20.698 114.455L20.3642 114.511C20.3085 113.786 20.0304 113.451 19.3628 113.451H17.2486V115.96H18.4726C19.1402 115.96 19.3628 115.793 19.3628 115.458H19.6966V117.019H19.3628C19.3628 116.629 19.1402 116.518 18.4726 116.518H17.2486V119.138H19.474C20.1417 119.138 20.3642 118.804 20.4755 118.079L20.7537 118.023Z" fill="#24A6A4"/>
<path d="M27.5413 113.842L25.8165 116.183L25.8722 116.239L27.5969 118.581C27.9864 119.083 28.4315 119.25 28.7097 119.25V119.585H25.4271V119.25C26.3173 119.25 26.3173 119.139 25.9279 118.581L24.5369 116.685L23.1461 118.581C22.7566 119.083 22.7566 119.25 23.6468 119.25V119.585H21.3657V119.25C21.6439 119.25 22.089 119.139 22.4784 118.581L24.2031 116.239L24.1475 116.183L22.4228 113.842C22.0333 113.34 21.5883 113.173 21.3101 113.173V112.839H24.5926V113.173C23.7024 113.173 23.7024 113.285 24.0919 113.842L25.4828 115.737L26.8737 113.842C27.2631 113.34 27.2631 113.173 26.3729 113.173V112.839H28.654V113.173C28.3758 113.173 27.9308 113.34 27.5413 113.842Z" fill="#24A6A4"/>
<path d="M35.2748 115.069C35.2748 117.243 33.4388 117.243 32.1592 117.243H31.1021V118.358C31.1021 119.027 31.269 119.25 31.6028 119.25V119.584H29.2104V119.25C29.5999 119.25 29.7112 119.027 29.7112 118.358V114.121C29.7112 113.452 29.5443 113.228 29.2104 113.228V112.894H32.1592C33.4388 112.838 35.2748 112.838 35.2748 115.069ZM33.8839 115.069C33.8839 113.786 33.2719 113.396 32.1592 113.396H31.1021V116.685H32.1592C33.2719 116.685 33.8839 116.35 33.8839 115.069Z" fill="#24A6A4"/>
<path d="M42.4508 119.194V119.529C40.9486 119.529 39.9472 119.417 39.669 117.856C39.3352 116.351 39.2239 116.072 37.8886 116.072H37.7774V118.302C37.7774 118.971 37.9443 119.194 38.2781 119.194V119.529H35.8857V119.194C36.2752 119.194 36.3865 118.971 36.3865 118.302V114.065C36.3865 113.396 36.2196 113.173 35.8857 113.173V112.839H38.7232C39.669 112.839 41.3381 112.839 41.3381 114.4C41.3381 115.347 40.7261 115.737 40.0028 115.905C40.5592 116.183 41.0043 116.685 41.1711 117.522C41.505 119.027 41.95 119.194 42.4508 119.194ZM38.6675 115.57C39.4464 115.57 39.8915 115.236 39.8915 114.511C39.8915 113.786 39.4464 113.396 38.6675 113.396H37.7217V115.57H38.6675Z" fill="#24A6A4"/>
<path d="M48.1828 118.023L48.0716 119.361V119.584H42.8418V119.25C43.2312 119.25 43.3425 119.026 43.3425 118.358V114.121C43.3425 113.451 43.1756 113.228 42.8418 113.228V112.894H48.0159V113.117L48.1272 114.455L47.7934 114.511C47.7377 113.786 47.4595 113.451 46.7919 113.451H44.6777V115.96H45.9017C46.5694 115.96 46.7919 115.793 46.7919 115.458H47.1257V117.019H46.7919C46.7919 116.629 46.5694 116.518 45.9017 116.518H44.6777V119.138H46.9032C47.5708 119.138 47.7934 118.804 47.9046 118.079L48.1828 118.023Z" fill="#24A6A4"/>
<path d="M51.8537 112.783C53.4118 112.783 55.0251 113.396 54.5244 115.124L53.1331 114.901C53.6339 113.674 52.9666 113.284 51.8537 113.284C50.7967 113.284 50.4072 113.674 50.4072 114.288C50.4072 114.901 51.0192 115.18 51.9094 115.403C53.4118 115.849 54.858 116.183 54.858 117.689C54.858 119.194 53.5229 119.64 52.0207 119.64C50.2959 119.64 48.4043 119.027 48.9051 116.852L50.2959 117.076C49.7952 118.748 50.8523 119.138 52.0207 119.138C53.0776 119.138 53.4673 118.748 53.4673 118.023C53.4673 117.243 52.6884 117.076 51.6868 116.741C50.3516 116.295 49.0719 115.96 49.0719 114.622C49.0719 113.284 50.3516 112.783 51.8537 112.783Z" fill="#24A6A4"/>
<path d="M58.6417 112.783C60.1995 112.783 61.8128 113.396 61.3121 115.124L59.9208 114.901C60.4216 113.674 59.7543 113.284 58.6417 113.284C57.5841 113.284 57.1949 113.674 57.1949 114.288C57.1949 114.901 57.8067 115.18 58.6972 115.403C60.1995 115.849 61.6457 116.183 61.6457 117.689C61.6457 119.194 60.3106 119.64 58.8083 119.64C57.0839 119.64 55.1919 119.027 55.6927 116.852L57.0839 117.076C56.5831 118.748 57.6402 119.138 58.8083 119.138C59.8653 119.138 60.255 118.748 60.255 118.023C60.255 117.243 59.4761 117.076 58.4746 116.741C57.1394 116.295 55.8597 115.96 55.8597 114.622C55.8042 113.284 57.0839 112.783 58.6417 112.783Z" fill="#24A6A4"/>
<defs>
<linearGradient id="paint0_linear_115_947" x1="19.6855" y1="47.7282" x2="72.4201" y2="47.7282" gradientUnits="userSpaceOnUse">
<stop stop-color="#F0BF0F"/>
<stop offset="0.469" stop-color="#FCD600"/>
<stop offset="1" stop-color="#FBBB00"/>
</linearGradient>
<linearGradient id="paint1_linear_115_947" x1="4.58168" y1="31.3507" x2="63.1606" y2="31.3507" gradientUnits="userSpaceOnUse">
<stop stop-color="#249CAA"/>
<stop offset="0.469" stop-color="#2EB5B2"/>
<stop offset="1" stop-color="#219FAC"/>
</linearGradient>
</defs>
</svg>
