<svg width="13" height="13" viewBox="0 0 13 13" fill="none" xmlns="http://www.w3.org/2000/svg">
<path d="M6.49612 7.59469C6.41217 7.70664 6.37402 7.77534 6.3206 7.82877C4.70525 9.4444 3.08735 11.06 1.47454 12.6782C1.25068 12.9021 1.00393 13.0421 0.678316 12.9886C0.0805093 12.8894 -0.201859 12.1948 0.161913 11.7114C0.217878 11.635 0.286562 11.5664 0.352702 11.5002C1.96042 9.8922 3.5656 8.2842 5.17586 6.67874C5.22928 6.62531 5.29796 6.58969 5.36156 6.54389C5.36919 6.51336 5.37428 6.48028 5.38191 6.44975C5.31577 6.41159 5.23691 6.3836 5.18603 6.33271C3.56051 4.71453 1.94261 3.09127 0.319632 1.47309C0.0957724 1.24919 -0.041596 1.00239 0.0143689 0.674176C0.116123 0.078808 0.813141 -0.201066 1.29647 0.165314C1.37279 0.221289 1.43893 0.289985 1.50761 0.358682C3.11533 1.96414 4.72305 3.57214 6.32823 5.18014C6.38165 5.23357 6.41217 5.30481 6.45542 5.36842C6.48595 5.36842 6.51647 5.37097 6.54954 5.37097C6.59024 5.30736 6.62077 5.23357 6.67419 5.18014C8.29209 3.55688 9.91507 1.9387 11.533 0.315428C11.7568 0.0915295 12.0061 -0.0433188 12.3317 0.012656C12.9168 0.114428 13.1966 0.803935 12.8456 1.28226C12.7845 1.36368 12.7133 1.43492 12.6421 1.50616C11.0395 3.10908 9.43682 4.71199 7.83419 6.3149C7.78077 6.36833 7.71717 6.41159 7.64086 6.47519C7.71463 6.55152 7.76296 6.60495 7.81384 6.65838C9.43428 8.27911 11.0547 9.89983 12.6752 11.518C12.9041 11.747 13.0466 11.9989 12.9855 12.3322C12.8812 12.9174 12.1918 13.1922 11.7136 12.8385C11.6322 12.7774 11.5609 12.7062 11.4897 12.6324C9.88708 11.0295 8.28445 9.42659 6.68182 7.82368C6.62586 7.77534 6.58516 7.70918 6.49612 7.59469Z" fill="#3BB3C4"/>
</svg>
