<svg width="15" height="15" viewBox="0 0 15 15" fill="none" xmlns="http://www.w3.org/2000/svg">
<g clip-path="url(#clip0_5652_480)">
<path d="M7.49799 8.76192C7.40112 8.8911 7.35709 8.97037 7.29544 9.03203C5.43145 10.8964 3.56452 12.7607 1.70347 14.628C1.44515 14.8864 1.16041 15.0479 0.784679 14.9862C0.0948548 14.8717 -0.230977 14.0702 0.188788 13.5124C0.253367 13.4243 0.332624 13.345 0.408945 13.2687C2.26413 11.4131 4.11638 9.55757 5.9745 7.70496C6.03615 7.6433 6.1154 7.6022 6.18879 7.54935C6.19759 7.51412 6.20347 7.47595 6.21227 7.44072C6.13595 7.39668 6.04495 7.36438 5.98624 7.30566C4.11051 5.43837 2.24358 3.56521 0.370784 1.69791C0.112467 1.43955 -0.0460455 1.15475 0.0185338 0.77601C0.135951 0.0889872 0.940256 -0.233972 1.49799 0.188811C1.58605 0.253403 1.66237 0.332675 1.74163 0.411947C3.59681 2.26456 5.452 4.12011 7.30425 5.97566C7.36589 6.03731 7.40112 6.11952 7.45102 6.19292C7.48624 6.19292 7.52147 6.19586 7.55963 6.19586C7.6066 6.12246 7.64182 6.03731 7.70347 5.97566C9.57039 4.10249 11.4432 2.2352 13.3101 0.362035C13.5684 0.103667 13.8561 -0.0519407 14.2318 0.0126512C14.907 0.130091 15.2299 0.925746 14.8248 1.47771C14.7543 1.57166 14.6722 1.65387 14.59 1.73608C12.7406 3.58576 10.8913 5.43543 9.04202 7.28511C8.98037 7.34677 8.90699 7.39668 8.81893 7.47008C8.90405 7.55816 8.95983 7.61982 9.01853 7.68147C10.8884 9.5517 12.7583 11.4219 14.6281 13.2892C14.8923 13.5535 15.0567 13.8441 14.9862 14.2287C14.8659 14.904 14.0704 15.2211 13.5185 14.813C13.4246 14.7425 13.3424 14.6603 13.2602 14.5752C11.4109 12.7255 9.56159 10.8758 7.71227 9.02616C7.64769 8.97037 7.60073 8.89404 7.49799 8.76192Z" fill="#484848"/>
</g>
<defs>
<clipPath id="clip0_5652_480">
<rect width="15" height="15" fill="white"/>
</clipPath>
</defs>
</svg>
