<svg width="42" height="25" viewBox="0 0 42 25" fill="none" xmlns="http://www.w3.org/2000/svg">
<path d="M8.76213 14.3875C8.76213 15.8771 8.76213 17.3667 8.76213 18.8855C12.1356 19.5572 14.1655 21.5725 14.8372 24.9606C21.8616 24.9606 28.8713 24.9606 35.9249 24.9606C36.5967 21.6017 38.5974 19.5718 42 18.8855C42 17.1184 42 15.3368 42 13.5551C38.6266 12.8834 36.6113 10.8681 35.9395 7.49463C31.4416 7.49463 26.9291 7.49463 22.2559 7.49463C23.1759 8.03496 23.9791 8.47307 24.7677 8.95499C25.3811 9.33469 25.9798 9.75819 26.5932 10.1379C26.7246 10.2255 26.8852 10.2693 27.0459 10.3131C30.1418 11.204 32.0257 14.2707 31.4124 17.4397C30.8136 20.5065 27.7907 22.7116 24.7239 22.3173C21.4673 21.8938 19.1307 19.1775 19.2913 15.9209C19.3206 15.4098 19.4812 14.9279 19.5396 14.4168C19.5542 14.2561 19.4228 14.0663 19.3498 13.9056C19.3352 13.8764 19.2913 13.8618 19.2621 13.8472C18.6634 13.5113 18.0792 12.9418 17.4513 12.898C16.8525 12.8396 16.1954 13.2923 15.582 13.5697C13.5375 14.4752 11.3908 14.6066 9.20024 14.3729C9.0396 14.3729 8.90816 14.3875 8.76213 14.3875ZM35.8665 17.0746C35.2677 17.0746 34.7274 17.0746 34.1725 17.0746C34.1725 16.4905 34.1725 15.9355 34.1725 15.3952C34.7566 15.3952 35.3115 15.3952 35.8665 15.3952C35.8665 15.9647 35.8665 16.5051 35.8665 17.0746ZM16.5897 15.366C16.5897 15.9647 16.5897 16.5051 16.5897 17.06C16.0055 17.06 15.4652 17.06 14.8957 17.06C14.8957 16.4759 14.8957 15.9209 14.8957 15.366C15.4798 15.366 16.0201 15.366 16.5897 15.366Z" fill="#484848"/>
<path d="M30.3018 5.58127C27.8191 4.16471 25.3657 2.68975 22.8393 1.34621C20.3275 0.0172809 17.6112 -0.201774 14.8073 0.148714C11.4047 0.572219 8.002 0.966517 4.58475 1.27319C3.85457 1.34621 3.08058 1.06874 2.3358 0.93731C1.5618 0.791274 0.802414 0.630634 -0.000785828 0.469994C-0.000785828 3.66819 -0.000785828 6.83718 -0.000785828 10.0792C0.977657 10.0792 1.9561 10.0938 2.93455 10.0646C3.46028 10.05 3.9422 10.1522 4.3803 10.4589C4.70158 10.6925 5.08128 10.8678 5.40256 11.0868C8.48393 13.1021 11.7113 13.219 15.0556 11.8608C15.6835 11.6126 16.3115 11.3789 16.9248 11.1014C17.3629 10.9116 17.7572 10.9554 18.1661 11.1891C19.8163 12.1529 21.4812 13.1167 23.1314 14.066C23.8323 14.4749 24.5333 14.4603 25.1905 13.9784C25.7746 13.5549 25.9645 12.9415 25.8184 12.2259C25.7016 11.6564 25.3219 11.2767 24.8254 10.9846C22.5326 9.67028 20.2399 8.34135 17.9617 7.02703C17.7864 6.9248 17.6258 6.82258 17.4067 6.70575C17.6988 6.19462 17.9617 5.7273 18.283 5.18697C19.1884 5.97556 20.2691 5.66889 21.2767 5.68349C24.1098 5.7127 26.9283 5.6981 29.7614 5.6981C29.9367 5.6981 30.1119 5.6981 30.2872 5.6981C30.2872 5.66889 30.3018 5.62508 30.3018 5.58127Z" fill="#484848"/>
<path d="M27.6445 12.5327C27.5422 14.1975 26.812 15.3658 25.2787 15.9354C23.7453 16.5049 22.4748 15.8185 21.2481 15.0153C20.4595 16.87 21.5839 19.2942 23.5846 20.2142C25.7168 21.1781 28.2724 20.258 29.3093 18.1551C30.3023 16.1252 29.5721 13.5696 27.6445 12.5327Z" fill="#484848"/>
<path d="M37.7795 7.49463C37.984 9.52453 39.8971 11.4522 42 11.7151C42 10.3131 42 8.92579 42 7.49463C40.6127 7.49463 39.2107 7.49463 37.7795 7.49463Z" fill="#484848"/>
<path d="M41.9854 20.7402C39.97 20.9301 38.0424 22.8578 37.7649 24.9461C39.1668 24.9461 40.5542 24.9461 41.9854 24.9461C41.9854 23.5587 41.9854 22.1714 41.9854 20.7402Z" fill="#484848"/>
<path d="M8.74796 20.7251C8.74796 22.1417 8.74796 23.529 8.74796 24.9455C10.1645 24.9455 11.5519 24.9455 12.9538 24.9455C12.983 23.1201 10.8363 20.9442 8.74796 20.7251Z" fill="#484848"/>
</svg>
