<svg width="22" height="21" viewBox="0 0 22 21" fill="none" xmlns="http://www.w3.org/2000/svg">
<path d="M0.0071428 21C0.0071428 20.8298 0.0071428 20.7374 0.0071428 20.6449C0.00428584 14.513 0.00142888 8.3811 4.05233e-07 2.24988C-0.000713834 0.924826 0.942796 0 2.29985 0C8.09376 0.00138967 13.8877 0.00416901 19.6809 0.00903285C21.0601 0.0104225 21.9993 0.927605 21.9993 2.26933C22 6.10829 21.9979 9.94726 21.9957 13.7862C21.995 15.1808 21.0708 16.0764 19.628 16.0778C15.4326 16.0813 11.2364 16.0847 7.04097 16.0785C6.606 16.0778 6.24817 16.2036 5.91176 16.4648C4.04759 17.9087 2.17629 19.3442 0.307123 20.7818C0.232128 20.8395 0.153562 20.8937 0.0071428 21Z" fill="white"/>
</svg>
