<svg width="25" height="26" viewBox="0 0 25 26" fill="none" xmlns="http://www.w3.org/2000/svg">
<path d="M0.855716 0C7.116 3.23877 13.377 6.47686 19.6372 9.71564C21.2307 10.5401 22.8221 11.3687 24.4148 12.1939C24.7187 12.351 24.9623 12.5496 24.9952 12.9286C25.0321 13.3517 24.8576 13.6442 24.4886 13.8347C23.4755 14.3578 22.4645 14.885 21.4527 15.4109C14.757 18.8911 8.06199 22.3734 1.36226 25.8449C1.15092 25.9544 0.885236 26.0013 0.64505 26C0.292149 25.9979 0.011037 25.6932 0.0271389 25.3313C0.0432408 24.9626 0.10161 24.5918 0.181449 24.2313C0.826196 21.2925 1.48101 18.3564 2.12978 15.4183C2.16064 15.2782 2.21297 15.2061 2.36728 15.1796C3.69032 14.953 5.01135 14.7143 6.33372 14.4809C7.82851 14.2177 9.32331 13.9564 10.8181 13.6945C11.9352 13.4986 13.0516 13.302 14.1686 13.1047C14.2076 13.0979 14.2451 13.0823 14.3424 13.053C14.2512 13.0075 14.2102 12.9741 14.1646 12.966C12.6128 12.6918 11.0603 12.4204 9.50781 12.1476C8.02106 11.8864 6.53499 11.6245 5.04892 11.3619C4.15392 11.2041 3.26027 11.0388 2.36393 10.8891C2.20693 10.8626 2.15997 10.785 2.12911 10.6469C1.43941 7.51156 0.744345 4.37687 0.0553173 1.24013C-0.0124449 0.931291 -0.0587379 0.597959 0.170714 0.343537C0.308251 0.191837 0.524285 0.112245 0.705432 0C0.75575 0 0.805398 0 0.855716 0Z" fill="white"/>
</svg>
