<svg width="17" height="15" viewBox="0 0 17 15" fill="none" xmlns="http://www.w3.org/2000/svg">
<path d="M16.9993 6.27063C16.9904 6.28439 16.9793 6.29726 16.9727 6.31235C16.8583 6.57238 16.6511 6.69796 16.4152 6.6496C16.1597 6.59723 16.0067 6.40642 16.0036 6.1242C15.9942 5.22561 15.8403 4.35409 15.5228 3.51274C15.1546 2.53694 14.6055 1.67607 13.8768 0.93057C13.753 0.803658 13.6515 0.668315 13.663 0.481497C13.6754 0.276485 13.7743 0.122505 13.9673 0.0439612C14.1797 -0.042126 14.3824 -0.00263239 14.5266 0.169986C14.912 0.631927 15.321 1.08056 15.6532 1.57977C16.436 2.75704 16.86 4.06787 16.9709 5.47899C16.9753 5.53313 16.99 5.58593 16.9997 5.63963C16.9993 5.84996 16.9993 6.0603 16.9993 6.27063Z" fill="#958E8E"/>
<path d="M8.48623 12.5296C6.94272 12.5296 5.39965 12.5296 3.85614 12.5291C3.7732 12.5291 3.68937 12.5296 3.6082 12.5167C3.27555 12.463 3.10656 12.1089 3.26534 11.7854C3.54078 11.225 3.81533 10.6641 4.10629 10.1116C4.22649 9.88352 4.27528 9.65676 4.27262 9.39983C4.26375 8.6033 4.23581 7.80367 4.28415 7.0098C4.38661 5.32134 5.24485 4.12012 6.75422 3.37773C6.88018 3.3156 6.95514 3.25214 6.99151 3.10083C7.16138 2.39926 7.81649 1.90892 8.5297 1.92623C9.25355 1.94353 9.86963 2.45295 10.0315 3.15674C10.047 3.22374 10.1065 3.30495 10.1672 3.33424C11.819 4.12722 12.6901 5.43006 12.7282 7.26851C12.7446 8.05394 12.7287 8.84027 12.734 9.62614C12.7344 9.72111 12.7584 9.8245 12.8005 9.9097C13.0968 10.515 13.4015 11.1162 13.7022 11.7197C13.9298 12.1759 13.712 12.5291 13.1997 12.5296C11.6278 12.5305 10.0572 12.5296 8.48623 12.5296Z" fill="#958E8E"/>
<path d="M0.00184615 5.92212C0.0901102 3.72024 0.884044 1.81745 2.41292 0.226611C2.67195 -0.0427443 2.96113 -0.0724754 3.18512 0.14008C3.40556 0.349085 3.3887 0.654384 3.13411 0.916195C2.30691 1.76642 1.70814 2.75331 1.34798 3.88487C1.12533 4.58466 1.01311 5.30265 0.997146 6.03616C0.995372 6.12358 0.993597 6.21455 0.970533 6.29797C0.906664 6.52917 0.68179 6.68181 0.457803 6.6583C0.209866 6.63211 0.0178135 6.43598 0.00228969 6.18748C-0.00258923 6.09917 0.00184615 6.01042 0.00184615 5.92212Z" fill="#958E8E"/>
<path d="M2.13316 5.86927C2.23029 4.25092 2.83661 2.85888 3.96409 1.6936C4.11178 1.54095 4.28565 1.47971 4.49057 1.53651C4.67685 1.58843 4.79217 1.71845 4.83519 1.90527C4.88177 2.10895 4.79749 2.27003 4.65778 2.41291C4.22001 2.85932 3.87139 3.36742 3.61103 3.93674C3.30543 4.60503 3.15418 5.30748 3.12979 6.04011C3.12669 6.12797 3.12757 6.21938 3.10495 6.30281C3.0433 6.53001 2.81089 6.68488 2.58823 6.65914C2.33941 6.6303 2.15312 6.43904 2.13493 6.18433C2.12695 6.0796 2.13316 5.97399 2.13316 5.86927Z" fill="#958E8E"/>
<path d="M14.8685 5.85787C14.8685 5.95194 14.8702 6.04602 14.868 6.14009C14.8618 6.43341 14.6489 6.65706 14.3735 6.66105C14.0989 6.66505 13.8798 6.44805 13.874 6.14985C13.8532 5.00632 13.5352 3.95907 12.8597 3.03075C12.6973 2.80799 12.5106 2.60209 12.3265 2.39619C12.1092 2.15257 12.0941 1.85837 12.3008 1.65557C12.5097 1.45056 12.8193 1.47275 13.0504 1.70927C14.1477 2.83062 14.7456 4.20269 14.8685 5.85787Z" fill="#958E8E"/>
<path d="M6.33203 13.5352C7.79172 13.5352 9.20394 13.5352 10.6171 13.5352C10.4906 13.97 9.56454 14.5576 8.8673 14.6383C7.82942 14.759 7.00266 14.3845 6.33203 13.5352Z" fill="#958E8E"/>
</svg>
