<svg width="8" height="9" viewBox="0 0 8 9" fill="none" xmlns="http://www.w3.org/2000/svg">
<path d="M3.49913 7.02575C2.47644 7.02575 1.45405 7.02575 0.431371 7.02546C0.376417 7.02546 0.320874 7.02575 0.267095 7.01722C0.0466896 6.98165 -0.0652766 6.74703 0.0399304 6.53269C0.222426 6.16135 0.404335 5.78972 0.597116 5.42367C0.676756 5.27255 0.709083 5.12231 0.707319 4.95207C0.701442 4.42432 0.682928 3.89451 0.71496 3.36851C0.782845 2.24979 1.35149 1.4539 2.35155 0.962013C2.43501 0.920851 2.48467 0.878807 2.50877 0.778548C2.62132 0.313713 3.05538 -0.0111724 3.52793 0.000294158C4.00753 0.0117607 4.41572 0.349288 4.52299 0.815594C4.53327 0.85999 4.57265 0.913795 4.61291 0.933199C5.7073 1.4586 6.28447 2.32183 6.30974 3.53992C6.32062 4.06033 6.31004 4.58132 6.31356 5.10202C6.31386 5.16494 6.32973 5.23344 6.35764 5.28989C6.55395 5.69093 6.75584 6.08932 6.95509 6.48918C7.10585 6.79142 6.96156 7.02546 6.62213 7.02575C5.58064 7.02634 4.54003 7.02575 3.49913 7.02575Z" fill="white"/>
<line x1="7.63768" y1="8.17678" x2="0.349421" y2="0.888521" stroke="#FBC000" stroke-width="0.5"/>
</svg>
