<svg width="23" height="23" viewBox="0 0 23 23" fill="none" xmlns="http://www.w3.org/2000/svg">
<path d="M0 5.06559C0.0498799 4.72095 0.0798078 4.37196 0.153477 4.03244C0.394946 2.9194 0.943114 1.97433 1.75833 1.18238C2.12949 0.822122 2.54515 0.521011 2.97668 0.237055C3.35218 -0.0102859 3.75378 -0.0361466 4.1761 0.0334981C4.53779 0.092901 4.8583 0.249346 5.1297 0.490798C5.24097 0.589888 5.32001 0.727641 5.40391 0.854384C6.34856 2.28159 7.29039 3.71059 8.2353 5.13779C8.40719 5.39768 8.58522 5.65321 8.63076 5.97148C8.68959 6.38244 8.57704 6.7281 8.23913 6.98773C7.63725 7.45015 7.09292 7.96711 6.70974 8.63309C6.36442 9.23326 6.23038 9.86646 6.48464 10.5304C6.62124 10.8866 6.79313 11.2325 6.98139 11.5648C7.99178 13.3479 9.37998 14.769 11.1345 15.8229C11.6435 16.1286 12.1766 16.399 12.7168 16.6461C13.2368 16.8839 13.7558 16.7736 14.2058 16.4569C14.5015 16.2487 14.7494 15.9701 15.0085 15.7128C15.2835 15.4396 15.5538 15.1607 15.8124 14.8719C16.19 14.45 16.8893 14.2953 17.4301 14.5585C17.7299 14.7045 18.0033 14.906 18.2832 15.0908C19.5192 15.9071 20.7531 16.7262 21.9876 17.5445C22.0727 17.6009 22.1523 17.6667 22.2411 17.7166C22.6941 17.9724 22.8678 18.4061 22.968 18.8775C23.0732 19.3725 22.9084 19.8044 22.6291 20.2105C21.9295 21.2275 21.0332 22.0092 19.9026 22.5095C19.0431 22.89 18.1384 23.0337 17.2011 22.9935C16.4954 22.9633 15.8122 22.8214 15.1356 22.6227C14.2925 22.3754 13.5502 21.927 12.8025 21.4887C11.7069 20.8468 10.6582 20.1332 9.64498 19.3684C8.57678 18.5618 7.55974 17.6951 6.59617 16.7646C5.42284 15.6316 4.34441 14.4154 3.38595 13.0944C2.52648 11.91 1.77649 10.6597 1.15824 9.33133C0.770197 8.49738 0.429734 7.64449 0.169592 6.76215C0.0918302 6.49894 0.0705992 6.21882 0.0266026 5.94613C0.0125339 5.85831 0.00869701 5.76895 0 5.6801C0 5.47526 0 5.27042 0 5.06559Z" fill="#F2C525"/>
</svg>
