<svg width="18" height="18" viewBox="0 0 18 18" fill="none" xmlns="http://www.w3.org/2000/svg">
<path d="M0.232 10.9753C3.20585 9.0384 6.17958 7.10106 9.15343 5.16418C9.91041 4.67122 10.6686 4.18016 11.4257 3.68766C11.57 3.59361 11.7163 3.53624 11.8841 3.61565C12.0716 3.70424 12.1497 3.85295 12.1348 4.06152C12.0941 4.63417 12.0556 5.20696 12.0163 5.7797C11.7566 9.57017 11.4978 13.3608 11.2333 17.1509C11.225 17.2704 11.1764 17.3983 11.1139 17.503C11.0222 17.6569 10.8217 17.7044 10.6736 17.6078C10.5227 17.5095 10.3818 17.3922 10.2506 17.268C9.18051 16.2586 8.1141 15.2454 7.04528 14.2343C6.99428 14.1861 6.97742 14.1454 7.00599 14.0713C7.25128 13.4365 7.49091 12.7995 7.73318 12.1633C8.00724 11.4442 8.28216 10.7257 8.55679 10.007C8.76194 9.46981 8.96663 8.93278 9.17121 8.39529C9.17837 8.37659 9.18146 8.35628 9.1942 8.30648C9.15154 8.33512 9.12698 8.34477 9.11181 8.36271C8.59702 8.97369 8.0832 9.58564 7.56881 10.1972C7.07621 10.783 6.5835 11.3682 6.0905 11.9533C5.79372 12.3057 5.49414 12.6558 5.20045 13.0108C5.14888 13.0729 5.10417 13.0743 5.03814 13.0536C3.54179 12.5792 2.04434 12.1074 0.547588 11.6324C0.400237 11.5856 0.248113 11.5233 0.200164 11.36C0.171761 11.2622 0.193895 11.148 0.193314 11.041C0.206267 11.019 0.219047 10.9973 0.232 10.9753Z" fill="white"/>
</svg>
