<svg width="25" height="22" viewBox="0 0 25 22" fill="none" xmlns="http://www.w3.org/2000/svg">
<path d="M16.9486 2.91196C16.6076 2.91196 16.2922 2.91404 15.9767 2.91126C15.5417 2.9078 15.2531 2.65564 15.2552 2.2857C15.2574 1.91646 15.546 1.67053 15.9838 1.66776C16.3275 1.66568 16.6713 1.66707 17.0299 1.66707C17.0716 1.57216 17.1091 1.47794 17.153 1.3865C17.571 0.517084 18.2677 0.0390786 19.2502 0.0127537C20.1053 -0.0101074 20.9626 0.00166955 21.8184 0.00928992C22.6523 0.0169103 23.2925 0.642473 23.3009 1.45924C23.3094 2.34043 23.308 3.22231 23.3016 4.1042C23.296 4.94521 22.6849 5.55345 21.8219 5.58393C21.5857 5.59225 21.348 5.58532 21.0708 5.58532C21.133 5.98296 21.1875 6.35359 21.249 6.72353C21.6487 9.14403 22.0518 11.5638 22.4451 13.985C22.4727 14.1562 22.5314 14.2303 22.7026 14.2822C23.656 14.569 24.3803 15.1433 24.8648 15.9996C25.1003 16.4159 25.0275 16.7069 24.6229 16.9743C24.1186 17.3075 23.6093 17.6338 23.105 17.9677C22.3666 18.4575 21.5532 18.6827 20.6612 18.6813C17.2633 18.6757 13.8654 18.6813 10.4674 18.6743C10.2411 18.6736 10.1414 18.7124 10.082 18.9556C9.63423 20.7886 8.01519 22.0204 6.11888 21.9975C4.28835 21.9753 2.67921 20.6639 2.2718 18.8642C2.25836 18.806 2.23714 18.7499 2.21592 18.6792C1.71797 18.6792 1.22427 18.6813 0.730563 18.6785C0.246053 18.6757 0.00132221 18.4353 0.000614893 17.9566C-0.00150705 16.6342 -0.00150705 15.3117 0.000614893 13.9892C0.00273683 12.2573 0.671148 10.8177 1.98958 9.66499C2.02212 9.63659 2.05182 9.60472 2.08153 9.57354C2.08578 9.56939 2.08224 9.5583 2.08224 9.54514C1.93087 9.48626 1.77102 9.43984 1.62673 9.36433C1.18607 9.13087 0.90244 8.76301 0.867074 8.27739C0.832416 7.80631 0.828879 7.32207 0.900318 6.85723C1.06371 5.79384 2.01646 4.99647 3.11775 4.99162C5.70368 4.97915 8.28962 4.97638 10.8756 4.99301C12.1028 5.00063 13.0986 6.00028 13.1312 7.20222C13.1397 7.50427 13.1404 7.8077 13.1326 8.10974C13.1185 8.64178 12.8681 9.04289 12.4218 9.34355C12.3213 9.41075 12.2202 9.54029 12.2039 9.65252C12.0822 10.4991 11.9648 11.347 11.8778 12.197C11.7328 13.6054 12.832 14.8593 14.2586 14.939C15.7185 15.0207 16.9401 13.9137 16.945 12.4707C16.9549 9.35048 16.9486 6.23028 16.9486 3.11009C16.9486 3.05259 16.9486 2.9937 16.9486 2.91196ZM18.4679 1.66707C18.748 1.66707 18.9679 1.66568 19.1886 1.66776C19.6243 1.67192 19.9129 1.92062 19.9122 2.28986C19.9115 2.6591 19.6236 2.90849 19.1872 2.91126C18.8724 2.91334 18.557 2.91196 18.2196 2.91196C18.2196 3.04012 18.2196 3.14195 18.2196 3.24379C18.2196 6.32865 18.2246 9.41421 18.2168 12.4991C18.2132 14.0003 17.2753 15.3747 15.8466 15.9102C14.3195 16.4824 12.9204 16.2109 11.7399 15.1018C10.7242 14.1471 10.4469 12.9459 10.6634 11.6061C10.7716 10.9341 10.8402 10.2566 10.9307 9.55068C10.8161 9.55068 10.7299 9.55068 10.6443 9.55068C9.02028 9.55068 7.39699 9.54791 5.773 9.55138C3.23728 9.55761 1.27873 11.4752 1.27166 13.9553C1.26883 15.027 1.27095 16.0987 1.27166 17.1704C1.27166 17.2535 1.27944 17.3366 1.28368 17.4232C6.56378 17.4232 11.8205 17.4232 17.0957 17.4232C17.2916 16.4658 17.7358 15.6511 18.5075 15.0249C19.2785 14.3993 20.1753 14.116 21.1677 14.1084C21.1677 14.0633 21.1712 14.0377 21.167 14.0128C20.6832 11.0817 20.1994 8.14992 19.7156 5.21885C19.6201 4.63901 19.8683 4.34736 20.4703 4.34251C20.894 4.33904 21.3176 4.34043 21.7413 4.34181C21.9344 4.34251 22.0356 4.26423 22.0341 4.06263C22.0306 3.21608 22.032 2.36883 22.0334 1.52228C22.0334 1.34008 21.9486 1.2521 21.7604 1.2521C20.913 1.25418 20.0657 1.24725 19.219 1.25834C18.9276 1.26249 18.685 1.3955 18.4679 1.66707ZM7.00231 8.30579C7.44297 8.30579 7.88433 8.30579 8.32499 8.30579C9.38313 8.30579 10.4413 8.30648 11.5001 8.3051C11.8241 8.3051 11.863 8.26492 11.8644 7.94417C11.8651 7.71071 11.8708 7.47794 11.8623 7.24448C11.8425 6.68127 11.4039 6.23652 10.8303 6.23444C8.27265 6.22682 5.715 6.22751 3.15806 6.23374C2.57311 6.23513 2.13458 6.68681 2.12043 7.26526C2.11478 7.48972 2.11831 7.71417 2.11902 7.93863C2.12043 8.26977 2.1558 8.30441 2.5045 8.30441C4.0033 8.30648 5.50281 8.30579 7.00231 8.30579ZM3.55557 18.6924C3.68218 19.7751 4.94545 20.7547 6.1988 20.7533C7.46419 20.7519 8.7126 19.7786 8.83355 18.6924C7.07375 18.6924 5.31537 18.6924 3.55557 18.6924ZM18.3964 17.4274C19.3046 17.4274 20.1598 17.453 21.0128 17.4149C21.3537 17.3997 21.7159 17.2951 22.0179 17.1378C22.513 16.8801 22.9678 16.5469 23.4382 16.2428C23.4523 16.2337 23.4488 16.1998 23.4551 16.1686C22.5392 15.2251 21.4039 15.1967 20.2461 15.5008C19.2749 15.7557 18.6857 16.4464 18.3964 17.4274Z" fill="white"/>
<path d="M21.2075 22C19.9746 21.9293 18.9023 21.3273 18.2141 20.1129C17.9899 19.7166 18.0762 19.3515 18.4157 19.1728C18.7573 18.9927 19.1011 19.1278 19.3295 19.5219C19.8247 20.3754 20.5794 20.8153 21.5774 20.7384C22.5499 20.6636 23.2261 20.1371 23.584 19.2414C23.6378 19.1063 23.6633 18.9594 23.6986 18.8174C23.7955 18.4246 24.0841 18.2106 24.4349 18.2729C24.8042 18.3394 25.0178 18.6421 24.9421 19.0502C24.7172 20.2667 24.0183 21.1389 22.8866 21.675C22.4134 21.9009 21.9042 21.9979 21.2075 22Z" fill="white"/>
<path d="M5.28515 14.1219C4.87986 14.1219 4.47456 14.1254 4.06998 14.1205C3.67106 14.1157 3.39662 13.8642 3.39167 13.5116C3.38672 13.1624 3.66186 12.886 4.05301 12.8812C4.88056 12.8715 5.70883 12.8722 6.53638 12.8812C6.92965 12.8853 7.20409 13.159 7.20126 13.5088C7.19843 13.8642 6.92611 14.1115 6.52648 14.1219C6.5088 14.1226 6.49112 14.1219 6.47343 14.1219C6.07734 14.1219 5.68124 14.1219 5.28515 14.1219Z" fill="white"/>
<path d="M5.30135 14.9456C5.70664 14.9456 6.11194 14.9414 6.51652 14.9463C6.92393 14.9511 7.20756 15.2178 7.2012 15.5781C7.19483 15.9293 6.91686 16.1856 6.52076 16.1877C5.70169 16.1925 4.88262 16.1925 4.06355 16.187C3.671 16.1842 3.39302 15.9196 3.39161 15.5684C3.39019 15.2171 3.66887 14.9525 4.05931 14.9463C4.4738 14.9407 4.88758 14.9456 5.30135 14.9456Z" fill="white"/>
</svg>
