<svg width="20" height="20" viewBox="0 0 20 20" fill="none" xmlns="http://www.w3.org/2000/svg">
<path d="M17.6319 5.13055C17.0813 5.37567 16.5735 5.59627 16.0719 5.823C13.9367 6.77282 11.8016 7.71651 9.66644 8.67246C9.41561 8.78276 9.19537 8.78276 8.94453 8.67246C6.38115 7.52655 3.81164 6.38677 1.24214 5.24698C1.16872 5.21634 1.08919 5.18571 0.979067 5.13668C0.979067 5.24698 0.979067 5.32665 0.979067 5.40631C0.979067 8.46411 0.979067 11.5219 0.972949 14.5797C0.972949 14.7574 1.01577 14.8432 1.18707 14.9229C3.82999 16.0872 6.4668 17.2576 9.1036 18.4341C9.25043 18.5016 9.36667 18.5077 9.5135 18.4341C9.73374 18.3238 9.9601 18.2319 10.1865 18.14C10.4679 18.0236 10.731 18.1216 10.8472 18.3667C10.9634 18.6241 10.8594 18.8937 10.578 19.0285C10.2599 19.1756 9.93563 19.3104 9.6175 19.4636C9.40949 19.5617 9.21372 19.5555 9.00571 19.4636C6.35667 18.281 3.70152 17.1044 1.05248 15.9278C0.844474 15.8359 0.636467 15.7318 0.422341 15.6521C0.11033 15.5357 0.000208206 15.3334 0.000208206 15.0148C0.00632608 12.6065 0.00632608 10.1983 0.00632608 7.79005C0.00632608 6.69929 0.0124439 5.6024 0.000208206 4.51164C-0.00590966 4.19299 0.122566 4.00303 0.416223 3.88047C3.25491 2.61813 6.09972 1.35579 8.9323 0.0873221C9.19537 -0.0291074 9.41561 -0.0291074 9.67256 0.0873221C12.5051 1.34966 15.3377 2.612 18.1703 3.86209C18.4762 3.9969 18.6047 4.19299 18.6047 4.53002C18.5985 6.5706 18.5985 8.61118 18.5985 10.6518C18.5985 11.0072 18.415 11.2217 18.1152 11.2217C17.8583 11.2217 17.6625 11.0501 17.6319 10.7927C17.6197 10.7008 17.6258 10.6089 17.6258 10.5169C17.6258 8.82566 17.6258 7.14049 17.6258 5.4492C17.6319 5.36341 17.6319 5.27762 17.6319 5.13055ZM5.84277 6.22131C6.99293 6.73605 8.08803 7.22016 9.18925 7.69813C9.26878 7.7349 9.39726 7.71038 9.48902 7.67362C11.8933 6.6135 14.2916 5.54112 16.6898 4.47487C16.7509 4.45036 16.806 4.41359 16.8855 4.3707C16.8244 4.34006 16.7938 4.32168 16.7571 4.30329C15.7048 3.83757 14.6525 3.36573 13.5941 2.90614C13.5023 2.86324 13.3555 2.88163 13.2576 2.92452C11.1531 3.84983 9.05466 4.78127 6.95623 5.71883C6.60139 5.87815 6.24655 6.03748 5.84277 6.22131ZM12.2359 2.29948C11.2632 1.8644 10.3272 1.44771 9.39114 1.04327C9.31772 1.01263 9.19537 1.0494 9.11583 1.08616C6.70539 2.15241 4.30107 3.21866 1.89675 4.29104C1.8478 4.31555 1.80498 4.34619 1.73157 4.38908C2.63089 4.79352 3.50575 5.17345 4.37449 5.57176C4.56414 5.65755 4.71709 5.65142 4.90674 5.56563C7.26212 4.51164 9.6175 3.46378 11.979 2.41591C12.0524 2.3914 12.1258 2.35463 12.2359 2.29948Z" fill="white"/>
<path d="M16.2952 16.069C17.1838 16.9536 18.0603 17.8321 18.9368 18.7106C19.0768 18.8509 19.2167 18.9851 19.3567 19.1315C19.5819 19.3694 19.5941 19.6623 19.3933 19.8636C19.1924 20.0588 18.8942 20.0466 18.6629 19.8148C17.7012 18.857 16.7456 17.8992 15.79 16.9414C15.7291 16.8803 15.6926 16.8071 15.6378 16.7339C14.591 17.4904 13.4893 17.7466 12.272 17.4538C11.3225 17.222 10.5677 16.6973 10.0078 15.8981C8.88785 14.3059 9.12523 12.1401 10.5556 10.8041C11.9737 9.48023 14.1588 9.41922 15.6744 10.6516C17.1351 11.8351 17.6951 14.1472 16.2952 16.069ZM13.2276 10.7553C11.5903 10.7492 10.2938 12.0364 10.2878 13.6714C10.2817 15.2698 11.5781 16.5875 13.1728 16.5997C14.7857 16.6119 16.1187 15.3003 16.1309 13.6897C16.143 12.073 14.8344 10.7553 13.2276 10.7553Z" fill="white"/>
</svg>
