<svg width="25" height="22" viewBox="0 0 25 22" fill="none" xmlns="http://www.w3.org/2000/svg">
<g clip-path="url(#clip0_5233_307)">
<path d="M0 20.0417C0 14.5219 0 9.00196 0 3.47595C0.195695 3.0537 0.532045 2.92519 0.984589 2.93131C3.02104 2.94967 5.05137 2.93743 7.08782 2.93743C7.17955 2.93743 7.2774 2.93743 7.37525 2.93743C7.37525 2.66817 7.36913 2.44174 7.37525 2.21532C7.41194 0.966915 8.31091 0.0306141 9.55235 0.0122553C11.5154 -0.0122231 13.4724 -0.0122231 15.4354 0.0122553C16.6035 0.0244945 17.4596 0.826163 17.6003 1.98889C17.637 2.29487 17.6064 2.61309 17.6064 2.93743C17.7593 2.93743 17.8571 2.93743 17.955 2.93743C20.022 2.93743 22.089 2.93743 24.1561 2.93743C24.7248 2.93743 25 3.20669 25 3.7697C25 9.08764 25.0061 14.3995 24.9939 19.7174C24.9939 20.054 24.9144 20.4212 24.7737 20.7271C24.364 21.6022 23.624 21.9878 22.67 21.9878C18.2363 21.9878 13.8026 21.9878 9.36889 21.9878C7.02666 21.9878 4.68444 21.9878 2.34222 21.9878C1.55944 21.9878 0.892857 21.7308 0.446429 21.076C0.232388 20.7761 0.140656 20.3906 0 20.0417ZM8.83684 13.2C7.48532 13.2 6.17661 13.2 4.86791 13.2C3.7182 13.2 2.94765 12.6431 2.58072 11.5477C2.25049 10.5625 1.92637 9.57109 1.59614 8.58583C1.56556 8.50016 1.53498 8.40836 1.49829 8.32269C1.48606 8.32269 1.47383 8.32881 1.4616 8.32881C1.4616 8.40836 1.4616 8.48792 1.4616 8.56135C1.4616 12.2515 1.4616 15.9355 1.4616 19.6256C1.4616 20.2498 1.73068 20.5191 2.34834 20.5191C9.11204 20.5191 15.8696 20.5191 22.6333 20.5191C23.2693 20.5191 23.5323 20.2498 23.5323 19.6134C23.5323 15.9232 23.5323 12.2392 23.5323 8.54911C23.5323 8.47568 23.5323 8.39612 23.5323 8.32269C23.4711 8.37776 23.4467 8.43896 23.4283 8.49404C23.0859 9.50989 22.7495 10.5319 22.407 11.5477C22.0462 12.6309 21.2757 13.1878 20.1382 13.1878C18.9029 13.1878 17.6676 13.1878 16.4261 13.1878C16.3405 13.1878 16.2549 13.1878 16.157 13.1878C16.157 13.4387 16.1632 13.659 16.157 13.8793C16.1509 14.3444 15.8574 14.6504 15.3926 14.6504C13.454 14.6565 11.5215 14.6565 9.58293 14.6504C9.1365 14.6504 8.84296 14.3383 8.83072 13.8915C8.83684 13.6773 8.83684 13.4509 8.83684 13.2ZM16.1632 11.7374C16.2732 11.7374 16.365 11.7374 16.4506 11.7374C17.6553 11.7374 18.8601 11.7374 20.0648 11.7374C20.6703 11.7374 20.8598 11.5967 21.0494 11.0337C21.7099 9.0448 22.3765 7.05593 23.0369 5.06705C23.1103 4.85287 23.1776 4.63868 23.2449 4.42449C16.0714 4.42449 8.92857 4.42449 1.76125 4.42449C1.7796 4.47957 1.78571 4.51629 1.80406 4.55301C2.53792 6.74995 3.26566 8.94689 3.99951 11.1438C4.14628 11.5783 4.37867 11.7374 4.83733 11.7374C6.091 11.7374 7.34467 11.7374 8.59834 11.7374C8.67784 11.7374 8.75122 11.7374 8.84296 11.7374C8.84296 11.4743 8.83684 11.2479 8.84296 11.0214C8.85519 10.5869 9.14873 10.281 9.58293 10.2748C11.5276 10.2687 13.4724 10.2687 15.4171 10.2748C15.8513 10.2748 16.1509 10.5808 16.1632 11.0153C16.1693 11.2417 16.1632 11.4682 16.1632 11.7374ZM8.83684 2.92519C11.2953 2.92519 13.717 2.92519 16.1632 2.92519C16.1632 2.70488 16.1632 2.50294 16.1632 2.30099C16.157 1.76246 15.8696 1.47484 15.3315 1.47484C14.6343 1.47484 13.931 1.47484 13.2339 1.47484C12.0291 1.47484 10.8305 1.47484 9.62573 1.47484C9.14873 1.47484 8.84907 1.7747 8.84296 2.25203C8.83684 2.47234 8.83684 2.68652 8.83684 2.92519ZM10.3107 13.1878C11.7845 13.1878 13.2277 13.1878 14.6771 13.1878C14.6771 12.6982 14.6771 12.227 14.6771 11.7497C13.2094 11.7497 11.76 11.7497 10.3107 11.7497C10.3107 12.2392 10.3107 12.7104 10.3107 13.1878Z" fill="white"/>
</g>
<defs>
<clipPath id="clip0_5233_307">
<rect width="25" height="22" fill="white"/>
</clipPath>
</defs>
</svg>
