<svg width="17" height="18" viewBox="0 0 17 18" fill="none" xmlns="http://www.w3.org/2000/svg">
<g id="Group 789">
<path id="Vector" d="M5.94141 11.0683C6.485 10.5008 6.98262 9.98208 7.49556 9.44659C7.89103 9.79393 8.35363 10.0453 8.91473 10.0613C9.47292 10.0781 9.99389 9.94704 10.3937 9.53952C11.5334 8.37942 12.6775 7.22161 13.7676 6.01124C14.4557 5.24723 14.4637 4.09171 13.9034 3.26296C13.3218 2.40374 12.3018 2.05944 11.3547 2.43192C11.076 2.54161 10.8264 2.72975 10.4725 2.93466C10.2595 2.6871 10.0275 2.39612 9.77353 2.128C9.52691 1.86673 9.2584 1.62831 9.00302 1.38303C10.6155 -0.486985 13.6086 -0.44509 15.2766 1.41427C16.8723 3.19364 16.9095 5.87337 15.3072 7.6535C14.2091 8.87378 13.0723 10.0598 11.9005 11.2024C10.3339 12.7288 7.81588 12.7349 6.19241 11.2816C6.10923 11.21 6.02459 11.1391 5.94141 11.0683Z" fill="#ffffff"/>
<path id="Vector_2" d="M10.5414 6.13928C10.0051 6.70067 9.5089 7.22016 9.05724 7.69319C8.62748 7.51114 8.22252 7.26205 7.78692 7.17141C7.04924 7.0183 6.39912 7.29252 5.86575 7.84782C4.86759 8.88756 3.86213 9.91969 2.8771 10.9724C2.02997 11.8781 1.95555 13.1181 2.66185 14.0459C3.34626 14.9455 4.51954 15.1778 5.48122 14.5974C5.62642 14.5098 5.75776 14.3956 5.86429 14.3156C6.37723 14.8556 6.8785 15.3827 7.39802 15.9297C6.48011 16.8536 5.328 17.3046 4.00222 17.1842C1.63669 16.9702 -0.0998767 14.8907 0.00446336 12.4265C0.05335 11.2657 0.477277 10.2579 1.26019 9.42991C2.31016 8.31932 3.35283 7.19883 4.43709 6.12481C6.11821 4.45969 8.71576 4.41704 10.3633 5.98694C10.4166 6.03874 10.4757 6.08368 10.5414 6.13928Z" fill="#ffffff"/>
</g>
</svg>
