<svg width="15" height="12" viewBox="0 0 15 12" fill="none" xmlns="http://www.w3.org/2000/svg">
<path id="Vector" d="M0 5.57255C0.0477122 5.3234 0.0844741 5.07211 0.145483 4.82546C0.428237 3.68195 1.07235 2.7279 1.99766 1.92898C3.12828 0.953119 4.47791 0.359024 6.00079 0.124532C8.26478 -0.224347 10.3766 0.149196 12.2632 1.37957C13.5382 2.21101 14.4341 3.30698 14.815 4.71322C15.2491 6.31713 14.9124 7.80165 13.8753 9.14212C12.7982 10.5341 11.2984 11.3648 9.50803 11.7787C8.8252 11.9367 8.12868 11.9993 7.42356 11.9979C5.1451 11.9939 2.86625 11.9936 0.587799 12C0.303872 12.0007 0.107939 11.9171 0.000391084 11.6751C0.000391084 11.5946 0.000391084 11.5146 0.000391084 11.4341C0.521706 10.849 1.04302 10.2638 1.56942 9.67259C1.52992 9.62862 1.48729 9.58036 1.44388 9.53282C0.804069 8.83113 0.353931 8.04222 0.14079 7.14643C0.084083 6.90908 0.0469301 6.6678 0.000782168 6.4283C0 6.14376 0 5.85815 0 5.57255ZM1.47439 11.1403C1.57255 11.1403 1.63121 11.1403 1.68948 11.1403C3.57255 11.1403 5.45562 11.14 7.33869 11.1403C7.88073 11.1403 8.41965 11.1056 8.95152 11.007C10.4947 10.7214 11.826 10.0855 12.8377 8.96554C13.9007 7.78914 14.2965 6.44439 13.9058 4.94414C13.6035 3.78275 12.876 2.8623 11.8369 2.16168C10.0184 0.935246 7.98163 0.608172 5.7943 1.04677C4.34924 1.33667 3.10951 1.97616 2.16035 3.02745C1.06844 4.23708 0.678922 5.61258 1.11224 7.15001C1.34885 7.98896 1.83888 8.69887 2.49864 9.31549C2.73016 9.53211 2.73915 9.74515 2.53031 9.97964C2.41338 10.1108 2.29293 10.2399 2.17443 10.37C1.94838 10.6191 1.72233 10.8679 1.47439 11.1403Z" fill="#FBC000"/>
</svg>
