<svg width="104" height="112" viewBox="0 0 104 112" fill="none" xmlns="http://www.w3.org/2000/svg">
<g id="Mask group">
<mask id="mask0_4102_677" style="mask-type:alpha" maskUnits="userSpaceOnUse" x="0" y="0" width="104" height="112">
<path id="Rectangle 1313" d="M0 5C0 2.23858 2.23858 0 5 0H98.3846C101.146 0 103.385 2.23858 103.385 5V87C103.385 100.807 92.1917 112 78.3846 112H5.00001C2.23858 112 0 109.761 0 107V5Z" fill="#F7D17E"/>
</mask>
<g mask="url(#mask0_4102_677)">
<g id="Group">
<g id="Group_2">
<path id="Vector" d="M101.744 5.74765C97.9924 6.48814 82.992 26.5849 82.992 26.5849L82.4639 27.9733C82.4639 27.9733 109.601 24.9569 110.581 23.7971C113.232 20.6664 104.826 5.14327 101.744 5.74765ZM83.1826 27.015C88.1319 20.6882 99.419 11.4429 101.853 9.48278C104.031 11.7043 107.309 18.2598 107.744 21.2217C104.624 21.8588 91.0993 26.0567 83.1826 27.015Z" fill="black"/>
</g>
<g id="Group_3">
<path id="Vector_2" d="M65.3844 9.17259C58.0013 4.35394 55.9758 4.3921 53.8251 5.61174C51.6744 6.83137 43.7413 18.211 47.2859 21.761C50.8305 25.311 78.9529 27.8429 78.9529 27.8429L79.5845 26.1223C79.5899 26.1223 72.7676 13.9858 65.3844 9.17259ZM52.1753 20.5142C50.5365 18.8807 54.62 12.0638 56.4767 10.6155C56.9504 10.3487 75.8711 22.3872 78.5119 26.498C67.9544 25.3546 53.7053 21.8699 52.1753 20.5142Z" fill="black"/>
</g>
<path id="Vector_3" d="M79.1863 33.1785H80.7708C82.3389 33.1785 83.6075 31.9098 83.6075 30.3417V25.6864C83.6075 24.1183 82.3389 22.8496 80.7708 22.8496H79.1863C77.6182 22.8496 76.3496 24.1183 76.3496 25.6864V30.3417C76.3442 31.9043 77.6182 33.1785 79.1863 33.1785Z" fill="black"/>
<path id="Vector_4" d="M139.17 28.0546L10.5252 27.668C7.10038 27.6571 4.47599 30.7062 4.9878 34.0929L6.98059 47.2203L13.4273 47.2094L17.3148 113.271C17.5217 116.805 20.451 119.565 23.9902 119.565H126.668L130.937 46.9644L137.013 46.9535L139.17 28.0546Z" fill="#249CAA"/>
<path id="Vector_5" d="M128.861 119.568H50.0478L45.8281 29.4297H139.468L135.542 113.301C135.379 116.808 132.439 119.568 128.861 119.568Z" fill="#24A6A4"/>
<path id="Vector_6" d="M143.336 46.9983L41.6818 47.2706L39.3623 27.7129L138.942 28.094C142.215 28.1049 144.774 30.9144 144.48 34.1704L143.336 46.9983Z" fill="#24A6A4"/>
<path id="Vector_7" d="M41.6807 47.2669L138.642 47L44.757 52.1236L41.6807 47.2669Z" fill="#249CAA"/>
<path id="Vector_8" d="M82.5288 27.8574H79.8281V47.1756H82.5288V27.8574Z" fill="black"/>
<path id="Vector_9" d="M91.0217 47.0859H87.6514V119.698H91.0217V47.0859Z" fill="black"/>
</g>
</g>
</g>
</svg>
