<svg width="32" height="32" viewBox="0 0 32 32" fill="none" xmlns="http://www.w3.org/2000/svg">
<circle cx="16" cy="16" r="16" fill="white"/>
<g clip-path="url(#clip0_864_2347)">
<path d="M10.7529 14.1027C10.7529 14.0234 10.7524 13.9425 10.7529 13.8616C10.7575 13.0044 10.7327 12.1454 10.772 11.2898C10.8891 8.74124 12.6008 6.62991 14.9343 6.11788C17.8762 5.47228 20.6979 7.54482 21.1762 10.7129C21.2284 11.0593 21.2397 11.4145 21.2444 11.7664C21.2547 12.4713 21.2475 13.1767 21.2475 13.8821C21.2475 13.9564 21.2475 14.0307 21.2475 14.0899C21.4771 14.147 21.6897 14.1764 21.8863 14.2529C22.585 14.5244 22.9937 15.1977 22.9978 16.0677C23.002 17.0009 22.9989 17.9347 22.9989 18.8684C22.9989 20.5902 23.0004 22.3119 22.9984 24.0337C22.9973 24.8339 22.7027 25.4634 22.0091 25.8087C21.7769 25.9239 21.5013 25.9899 21.2449 25.9904C17.7487 26.0021 14.2526 26.0021 10.7565 25.996C9.73628 25.9943 9.01126 25.193 9.00352 24.0753C8.99629 22.983 9.00197 21.8902 9.00197 20.7974C9.00197 19.2209 8.99887 17.6443 9.003 16.0677C9.00558 15.1362 9.4793 14.4352 10.2606 14.2002C10.4082 14.1559 10.563 14.1393 10.7529 14.1027ZM16.0102 15.375C14.3073 15.375 12.6044 15.375 10.9015 15.375C10.3504 15.375 10.1687 15.5679 10.1687 16.1547C10.1682 18.7615 10.1682 21.3682 10.1687 23.975C10.1687 24.548 10.3581 24.7497 10.8907 24.7497C14.2965 24.7497 17.7018 24.7497 21.1076 24.7497C21.6412 24.7497 21.8311 24.548 21.8316 23.9766C21.8321 21.3632 21.8321 18.7493 21.8316 16.1359C21.8316 15.5745 21.6433 15.3756 21.1184 15.3756C19.416 15.375 17.7131 15.375 16.0102 15.375ZM20.0786 14.1138C20.0786 13.7552 20.0838 13.4106 20.0776 13.0659C20.0652 12.3615 20.1024 11.6494 20.0208 10.954C19.7437 8.58553 17.5707 6.89646 15.3724 7.29933C13.3397 7.67173 11.9604 9.38628 11.9253 11.5962C11.9129 12.3776 11.9227 13.159 11.9232 13.9403C11.9232 13.9941 11.9305 14.0478 11.9356 14.1132C14.6438 14.1138 17.3437 14.1138 20.0786 14.1138Z" fill="#24A6A4"/>
<path d="M15.419 21.6464C15.419 21.6259 15.419 21.6048 15.419 21.5843C15.419 21.3771 15.4773 21.1393 15.4014 20.9714C15.3317 20.8174 15.116 20.7404 14.9664 20.6262C14.3167 20.1324 14.0757 19.2031 14.3843 18.3869C14.679 17.6077 15.4602 17.1395 16.2467 17.2697C17.0568 17.4038 17.6178 18.0028 17.7334 18.8584C17.8464 19.693 17.4439 20.4677 16.7028 20.8185C16.5986 20.8678 16.5795 20.9304 16.5805 21.0368C16.5847 21.4236 16.5842 21.811 16.5816 22.1983C16.579 22.6217 16.3643 22.87 16.0041 22.8727C15.6445 22.8755 15.4236 22.625 15.419 22.2066C15.4169 22.0199 15.419 21.8331 15.419 21.6464ZM15.9979 19.7418C16.3488 19.7429 16.58 19.4979 16.5811 19.125C16.5821 18.7543 16.3463 18.4988 16.0026 18.4977C15.6574 18.4966 15.421 18.7487 15.42 19.1195C15.4184 19.4935 15.6481 19.7407 15.9979 19.7418Z" fill="#24A6A4"/>
</g>
<defs>
<clipPath id="clip0_864_2347">
<rect width="14" height="20" fill="white" transform="translate(9 6)"/>
</clipPath>
</defs>
</svg>
