<svg width="32" height="32" viewBox="0 0 32 32" fill="none" xmlns="http://www.w3.org/2000/svg">
<circle cx="16" cy="16" r="16" fill="white"/>
<path d="M7.60875 10.2618L7.60874 10.2618C7.5738 10.4229 7.55491 10.5735 7.53324 10.7462C7.52334 10.8251 7.51286 10.9086 7.5 10.9999V11.0001V11.001V11.0019V11.0029V11.0038V11.0048V11.0057V11.0066V11.0076V11.0085V11.0095V11.0104V11.0113V11.0123V11.0132V11.0142V11.0151V11.016V11.017V11.0179V11.0189V11.0198V11.0207V11.0217V11.0226V11.0235V11.0245V11.0254V11.0264V11.0273V11.0282V11.0292V11.0301V11.0311V11.032V11.0329V11.0339V11.0348V11.0358V11.0367V11.0376V11.0386V11.0395V11.0405V11.0414V11.0423V11.0433V11.0442V11.0452V11.0461V11.047V11.048V11.0489V11.0498V11.0508V11.0517V11.0527V11.0536V11.0545V11.0555V11.0564V11.0574V11.0583V11.0592V11.0602V11.0611V11.0621V11.063V11.0639V11.0649V11.0658V11.0668V11.0677V11.0686V11.0696V11.0705V11.0715V11.0724V11.0733V11.0743V11.0752V11.0761V11.0771V11.078V11.079V11.0799V11.0808V11.0818V11.0827V11.0837V11.0846V11.0855V11.0865V11.0874V11.0884V11.0893V11.0902V11.0912V11.0921V11.0931V11.094V11.0949V11.0959V11.0968V11.0978V11.0987V11.0996V11.1006V11.1015V11.1024V11.1034V11.1043V11.1053V11.1062V11.1071V11.1081V11.109V11.11V11.1109V11.1118V11.1128V11.1137V11.1147V11.1156V11.1165V11.1175V11.1184V11.1194V11.1203V11.1212V11.1222V11.1231V11.1241V11.125V11.1259V11.1269V11.1278V11.1287V11.1297V11.1306V11.1316V11.1325V11.1334V11.1344V11.1353V11.1363V11.1372V11.1381V11.1391V11.14V11.141V11.1419V11.1428V11.1438V11.1447V11.1457V11.1466V11.1475V11.1485V11.1494V11.1504V11.1513V11.1522V11.1532V11.1541V11.1551V11.156V11.1569V11.1579V11.1588V11.1597V11.1607V11.1616V11.1626V11.1635V11.1644V11.1654V11.1663V11.1673V11.1682V11.1691V11.1701V11.171V11.172V11.1729V11.1738V11.1748V11.1757V11.1767V11.1776V11.1785V11.1795V11.1804V11.1814V11.1823V11.1832V11.1842V11.1851V11.186V11.187V11.1879V11.1889V11.1898V11.1907V11.1917V11.1926V11.1936V11.1945V11.1954V11.1964V11.1973V11.1983V11.1992V11.2001V11.2011V11.202V11.203V11.2039V11.2048V11.2058V11.2067V11.2077V11.2086V11.2095V11.2105V11.2114V11.2123V11.2133V11.2142V11.2152V11.2161V11.217V11.218V11.2189V11.2199V11.2208V11.2217V11.2227V11.2236V11.2246V11.2255V11.2264V11.2274V11.2283V11.2293V11.2302V11.2311V11.2321V11.233V11.234V11.2349V11.2358V11.2368V11.2377V11.2386V11.2396V11.2405V11.2415V11.2424V11.2433V11.2443V11.2452V11.2462V11.2471V11.248V11.249V11.2499V11.2509V11.2518V11.2527V11.2537V11.2546V11.2556V11.2565V11.2574V11.2584V11.2593V11.2603V11.2612V11.2621V11.2631V11.264V11.2649V11.2659V11.2668V11.2678V11.2687V11.2696V11.2706V11.2715V11.2725V11.2734V11.2743V11.2753V11.2762V11.2772V11.2781V11.279V11.28V11.2809V11.2819V11.2828V11.2837V11.2847V11.2856V11.2866V11.2875V11.2884V11.2894V11.2903V11.2912V11.2922V11.2931V11.2941V11.295V11.2959V11.2969V11.2978V11.2988V11.2997V11.3006V11.3016V11.3025V11.3035V11.3044V11.3053V11.3063V11.3072V11.3082V11.3091V11.31V11.311V11.3119V11.3129V11.3138V11.3147V11.3157V11.3166V11.3175V11.3185V11.3194V11.3204V11.3213V11.3222V11.3232V11.3241V11.3251V11.326V11.3269V11.3279V11.3288V11.3298V11.3307V11.3316V11.3326V11.3335V11.3345V11.3354V11.3363V11.3373V11.3382V11.3392V11.3401V11.341V11.342V11.3429V11.3439V11.3448V11.3457V11.3467V11.3476V11.3485V11.3495V11.3504V11.3514V11.3523V11.3532V11.3542V11.3551V11.3561V11.357V11.3579V11.3589V11.3598V11.3608V11.3617V11.3626V11.3636V11.3645V11.3655V11.3664V11.3673V11.3683V11.3692V11.3702V11.3711V11.372V11.373V11.3739V11.3748V11.3758V11.3767V11.3777V11.3786V11.3795V11.3805V11.3814V11.3824V11.3833V11.3842V11.3852V11.3861V11.3871V11.388V11.3889V11.3899V11.3908V11.3918V11.3927V11.3936V11.3946V11.3955V11.3965V11.3974V11.3983V11.3993V11.4002V11.4011V11.4021V11.403V11.404V11.4049V11.4058V11.4068V11.4077V11.4087V11.4096V11.4105V11.4115V11.4124V11.4134V11.4143V11.4152V11.4162V11.4171V11.4181V11.419V11.4199V11.4209V11.4216C7.503 11.4541 7.50475 11.4772 7.50617 11.496C7.50851 11.5269 7.50994 11.5458 7.51453 11.5744L7.02082 11.6535M7.60875 10.2618L8.35975 14.0918C8.06374 13.4556 7.80723 12.8118 7.61231 12.1507L7.61224 12.1505C7.57995 12.0412 7.56672 11.9432 7.54896 11.8116C7.53976 11.7434 7.52935 11.6663 7.51444 11.5739L7.02082 11.6535M7.60875 10.2618C7.77549 9.49322 8.1523 8.83988 8.72433 8.28412L7.60875 10.2618ZM7.02082 11.6535C7.03073 11.7149 7.03916 11.7768 7.0476 11.8388C7.06848 11.992 7.08938 12.1454 7.13272 12.2921L7 11.4453C7.00219 11.4676 7.00398 11.49 7.00577 11.5124C7.00956 11.5596 7.01335 11.6068 7.02082 11.6535ZM9.60461 7.60308L9.60442 7.6032C9.27748 7.81834 8.98208 8.03397 8.72448 8.28397L9.60461 7.60308ZM9.60461 7.60308C9.75676 7.50286 9.929 7.47702 10.1869 7.51955L10.1872 7.51961M9.60461 7.60308L10.1872 7.51961M10.1872 7.51961C10.3741 7.55029 10.5383 7.62972 10.682 7.7575M10.1872 7.51961L10.682 7.7575M13.2596 11.7442L13.2595 11.7441C13.2429 11.6281 13.1797 11.5261 13.028 11.2967C12.6481 10.7229 12.2665 10.1452 11.8851 9.56778C11.5268 9.02536 11.1687 8.48318 10.8122 7.94464L13.2596 11.7442ZM13.2596 11.7442C13.2836 11.9124 13.2455 11.9937 13.1434 12.0722M13.2596 11.7442L11.6081 15.4202M11.6081 15.4202L11.608 15.42C11.3397 14.7195 11.4971 14.0643 11.8177 13.507C12.1641 12.905 12.6475 12.4531 13.1434 12.0722M11.6081 15.4202C11.7262 15.7282 11.8727 16.0218 12.0287 16.2972L12.0287 16.2972C12.8621 17.768 14.0097 18.9427 15.4565 19.8117L15.4565 19.8118C15.875 20.0631 16.3096 20.2832 16.7443 20.4821M11.6081 15.4202L12.2511 13.7563C11.9808 14.226 11.876 14.7216 12.0749 15.2412C12.1818 15.5199 12.3164 15.7906 12.4637 16.0507C13.2544 17.4462 14.3409 18.5583 15.7139 19.3831C16.1123 19.6224 16.5295 19.834 16.9523 20.0274M13.1434 12.0722L13.448 12.4687L13.1434 12.0722C13.1434 12.0722 13.1434 12.0722 13.1434 12.0722ZM16.9523 20.0274L16.7443 20.4821C16.7443 20.4821 16.7443 20.4821 16.7443 20.4821M16.9523 20.0274C17.3593 20.2135 17.7654 20.1272 18.1176 19.8793C18.2991 19.7515 18.4577 19.5897 18.6155 19.4287C18.6588 19.3845 18.7021 19.3403 18.7458 19.297C18.961 19.0831 19.1726 18.8649 19.375 18.6389C19.6704 18.3087 20.2177 18.1876 20.6409 18.3936C20.8234 18.4825 20.9934 18.5976 21.163 18.7125C21.2115 18.7453 21.2599 18.7781 21.3086 18.8102C22.073 19.3151 22.8364 19.8213 23.5999 20.3275C23.8025 20.4619 24.0051 20.5962 24.2077 20.7305C24.2327 20.7471 24.2571 20.7647 24.2815 20.7822C24.3221 20.8115 24.3627 20.8408 24.406 20.8652M16.9523 20.0274L20.4221 18.8432M16.7443 20.4821C17.3501 20.7592 17.9447 20.6124 18.4054 20.2881L18.4054 20.2881C18.6287 20.1309 18.8301 19.9248 18.99 19.7613C19.0285 19.7219 19.0647 19.6849 19.0981 19.6517L19.0982 19.6517C19.3175 19.4337 19.5364 19.2081 19.7474 18.9724L19.7476 18.9723C19.897 18.8053 20.2039 18.737 20.4221 18.8432M16.7443 20.4821L20.4221 18.8432M20.4221 18.8432C20.5697 18.9151 20.701 19.0039 20.8633 19.1137C20.9161 19.1493 20.9721 19.1872 21.033 19.2274L21.033 19.2275C21.797 19.732 22.56 20.2379 23.3234 20.7441C23.526 20.8785 23.7287 21.0129 23.9314 21.1473L23.9319 21.1476C23.948 21.1582 23.9614 21.1679 23.982 21.1828C23.9913 21.1895 24.0021 21.1972 24.0152 21.2066C24.0509 21.2321 24.1017 21.2677 24.1609 21.301L24.406 20.8652M24.406 20.8652C24.7606 21.0654 24.8965 21.4048 24.975 21.7737M24.406 20.8652L24.1602 21.3006C24.3243 21.3932 24.4168 21.5528 24.4859 21.8776M24.975 21.7737L24.4859 21.8776M24.975 21.7737C25.0573 22.1611 24.9283 22.4991 24.7097 22.8169C24.1622 23.6128 23.4608 24.2246 22.5759 24.6162M24.975 21.7737L24.4859 21.8777C24.4859 21.8777 24.4859 21.8777 24.4859 21.8776M24.4859 21.8776C24.5286 22.0785 24.4752 22.2756 24.2978 22.5336C23.7978 23.2604 23.1662 23.8082 22.3736 24.1589L22.3735 24.159C21.7802 24.4217 21.1501 24.524 20.4832 24.4954L20.4832 24.4954C19.9837 24.474 19.4908 24.3732 18.9861 24.225L18.986 24.225C18.4187 24.0585 17.9107 23.7605 17.3384 23.4247C17.3165 23.4118 17.2944 23.3989 17.2722 23.3859L17.2721 23.3858C16.434 22.8948 15.6295 22.3476 14.8495 21.7588L22.5759 24.6162M22.5759 24.6162C21.9033 24.9139 21.1953 25.0264 20.4618 24.9949L22.5759 24.6162ZM10.0546 16.9542L10.0546 16.9542C10.7856 17.9617 11.6098 18.8916 12.5095 19.7605L12.1622 20.1201L12.5095 19.7605C13.2487 20.4743 14.0292 21.1394 14.8495 21.7588L10.0546 16.9542ZM10.0546 16.9542C9.39903 16.0508 8.82891 15.0998 8.35977 14.0918L10.0546 16.9542ZM10.682 7.7575C10.7 7.77354 10.7118 7.79153 10.7559 7.85892M10.682 7.7575L10.7559 7.85892M10.7559 7.85892C10.7706 7.8814 10.7889 7.90938 10.8122 7.94462L10.7559 7.85892Z" stroke="#24A6A4"/>
</svg>
