<svg width="21" height="21" viewBox="0 0 21 21" fill="none" xmlns="http://www.w3.org/2000/svg">
<g id="Frame" clip-path="url(#clip0_4102_714)">
<path id="Vector" d="M20.9204 16.5439C20.6288 15.0601 19.7167 14.0668 18.2588 13.6623C16.7817 13.2522 15.5062 13.6711 14.4692 14.7961C14.3443 14.9316 14.2606 14.9253 14.1164 14.8519C12.9552 14.2643 11.7908 13.6836 10.627 13.101C9.6025 12.5887 8.57797 12.0763 7.55344 11.5646C7.45417 11.5151 7.34554 11.4749 7.39548 11.3276C7.54845 10.876 7.54782 10.4157 7.47478 9.95043C7.40797 9.52525 7.41234 9.52588 7.80629 9.32709C8.85143 8.79969 9.89593 8.27104 10.9411 7.74301C11.0197 7.71103 11.1009 7.68406 11.1764 7.64581C12.1354 7.16607 13.0963 6.69009 14.0496 6.1997C14.2438 6.09998 14.3568 6.10187 14.5197 6.27558C16.1474 8.00953 18.9456 7.8653 20.3366 5.78643C21.0565 4.71094 21.1607 3.52884 20.6775 2.32165C19.942 0.482341 17.8761 -0.445153 16.0088 0.209549C14.1957 0.84481 13.1999 2.7506 13.5995 4.4833C13.6263 4.60057 13.6856 4.71282 13.4996 4.80312C12.5038 5.28537 11.5161 5.78518 10.5284 6.28435C10.1956 6.45242 9.85036 6.59666 9.53569 6.79984C8.66288 7.23254 7.78881 7.66211 6.91912 8.10046C6.7724 8.17446 6.68812 8.17572 6.56512 8.04089C5.66734 7.05382 4.55415 6.62864 3.22558 6.80047C0.876844 7.10524 -0.617805 9.63688 0.248767 11.8418C1.28578 14.4807 4.65592 15.1253 6.57262 12.9756C6.68624 12.8483 6.76553 12.8464 6.90601 12.9167C9.09866 14.0197 11.2938 15.1184 13.4908 16.2134C13.6188 16.2773 13.6469 16.3344 13.6163 16.4786C13.414 17.4356 13.562 18.3405 14.0621 19.1815C15.2864 21.2428 18.1009 21.5789 19.7348 20.0494C20.7705 19.0805 21.1901 17.9153 20.9204 16.5439ZM17.2836 1.49826C18.4992 1.50202 19.5075 2.52358 19.5063 3.75083C19.505 5.00004 18.4898 6.0078 17.2362 6.00341C16.0194 5.99902 15.0086 4.97495 15.0123 3.75021C15.0167 2.49912 16.0294 1.4945 17.2836 1.49826ZM3.79372 12.7593C2.56066 12.7718 1.53739 11.7596 1.53426 10.5242C1.53052 9.25434 2.53382 8.26539 3.77124 8.25661C4.99618 8.25097 6.02071 9.25372 6.02383 10.4741C6.02633 11.7973 4.99368 12.7467 3.79372 12.7593ZM17.2212 19.517C16.0019 19.5032 15.0042 18.4829 15.0142 17.2487C15.0242 15.9989 16.0144 14.9987 17.2961 15.0125C18.5136 15.0256 19.5138 16.0491 19.5056 17.2795C19.4975 18.5287 18.4736 19.5308 17.2212 19.517Z" fill="white"/>
</g>
<defs>
<clipPath id="clip0_4102_714">
<rect width="21" height="21" fill="white"/>
</clipPath>
</defs>
</svg>
