<svg width="70" height="70" viewBox="0 0 70 70" fill="none" xmlns="http://www.w3.org/2000/svg">
<g id="Group 556">
<path id="Vector" d="M69.2007 34.7935C69.3945 53.9498 52.9769 69.4119 34.4759 69.2943C15.3035 69.1697 -0.0621042 53.7215 0.000188735 34.4475C0.0624817 15.4641 15.5596 0.16121 34.642 0.0920281C53.1707 0.0228466 69.4292 15.4849 69.2007 34.7935ZM34.4689 55.4303C46.0139 55.4718 55.3579 46.1461 55.344 34.5997C55.3302 23.2747 45.9932 13.9629 34.6351 13.9491C23.2632 13.9352 13.8846 23.1848 13.85 34.5167C13.8085 44.7971 21.4843 55.2643 34.4689 55.4303Z" fill="url(#paint0_linear_862_1631)"/>
<path id="Vector_2" d="M34.4844 54.8781C21.852 54.7165 14.3844 44.5352 14.4181 34.529C14.4518 23.4992 23.5759 14.4896 34.6393 14.5098C45.6892 14.5233 54.773 23.5868 54.7864 34.6098C54.8066 45.8415 45.7162 54.9185 34.4844 54.8781ZM34.9692 40.6903C33.838 41.4108 31.2859 39.2964 31.1378 42.6498C31.0031 45.6328 33.1646 44.8786 34.572 44.7103C35.9928 44.5419 38.4236 46.1715 38.592 42.8855C38.7468 39.8957 36.5853 40.9731 34.9692 40.6903ZM42.0598 31.5123C41.878 30.004 40.9689 29.1892 39.3663 29.3441C37.9119 29.4855 37.2048 30.4215 37.2654 31.8557C37.3395 33.5391 38.363 34.2192 39.9387 34.098C41.4336 33.9836 42.0665 33.0476 42.0598 31.5123ZM29.6496 34.1317C31.1108 34.024 31.9458 33.2765 31.9458 31.7951C31.9458 30.1723 31.0637 29.27 29.4544 29.3306C27.8248 29.3912 27.0639 30.4012 27.1784 32.0039C27.2861 33.5122 28.249 34.1115 29.6496 34.1317Z" fill="#FEFEFE"/>
<path id="Vector_3" d="M41.8096 31.5627C41.8096 33.4125 41.239 34.5403 39.8975 34.6782C38.477 34.8242 37.5483 34.0048 37.4876 31.9765C37.433 30.2484 38.0703 29.1206 39.3815 28.9503C40.8262 28.7637 41.6457 29.7454 41.8096 31.5627Z" fill="#48B2A3"/>
<path id="Vector_4" d="M29.6395 34.6947C28.3718 34.6623 27.5003 33.951 27.4027 32.1403C27.2991 30.2245 27.9878 29.012 29.4627 28.9312C30.9255 28.8584 31.7178 29.9416 31.7178 31.8897C31.7178 33.6681 30.962 34.5653 29.6395 34.6947Z" fill="#48B2A3"/>
<path id="Vector_5" d="M34.4816 49.1113C31.2626 48.8519 28.2418 47.9847 25.6583 45.7464C24.8655 45.0645 23.8745 44.3901 25.0501 43.1301C25.8634 42.2629 26.5195 41.3142 27.8932 42.3666C32.2672 45.7093 36.778 45.7686 41.1657 42.4556C42.7103 41.2919 43.4279 42.2703 44.2549 43.2931C45.3757 44.6865 44.0772 45.2572 43.3664 45.865C40.7693 48.0737 37.728 48.9186 34.4816 49.1113Z" fill="#48B2A3"/>
</g>
<defs>
<linearGradient id="paint0_linear_862_1631" x1="-29.6377" y1="65.3589" x2="106.286" y2="0.355437" gradientUnits="userSpaceOnUse">
<stop stop-color="#8FAB7A"/>
<stop offset="0.8961" stop-color="#2EB5B2"/>
</linearGradient>
</defs>
</svg>
