<svg width="104" height="103" viewBox="0 0 104 103" fill="none" xmlns="http://www.w3.org/2000/svg">
<g id="Group 555">
<g id="Group 551">
<path id="Vector" d="M52.2199 0.00410721C78.7796 -0.35615 103.724 23.0297 103.508 51.7885C103.292 80.1151 78.9442 103.326 51.5616 102.997C23.3149 102.657 0.489207 79.7857 0.50978 51.3871C0.540639 22.8444 23.5926 -0.0576512 52.2199 0.00410721ZM21.8645 51.5518C21.4222 68.9471 34.9283 82.5957 52.1479 82.6266C69.4601 82.6471 82.8942 69.6367 83.0691 52.4782C83.244 35.1035 70.2213 21.846 53.084 21.3313C34.1363 20.7652 21.6176 36.4107 21.8645 51.5518Z" fill="url(#paint0_linear_862_1618)"/>
<circle id="Ellipse 272" cx="51.9319" cy="51.8215" r="32.1653" fill="white"/>
<path id="Vector_2" d="M53.617 70.7313C50.5287 70.8907 48.7291 71.0301 48.6362 68.8092C48.5549 67.0863 48.5317 65.3534 51.1788 65.1144C54.7199 64.7857 57.7967 63.6105 60.5947 61.788C63.358 59.9954 64.2751 62.4652 65.5755 63.5408C67.4331 65.0646 65.3317 65.7916 64.2984 66.5485C60.8501 69.0682 56.775 70.3529 53.617 70.7313Z" fill="#2EB5B2"/>
<path id="Vector_3" d="M40.5654 42.0194C42.4257 39.5143 44.1168 39.845 45.6389 41.779C46.7956 43.262 47.3706 45.2861 46.7483 47.6309C46.1124 50.0158 44.9015 51.5489 43.1698 51.4988C42.0942 51.4687 40.2543 51.589 41.9928 48.5027C43.5351 45.7571 42.1686 43.6428 40.5654 42.0194Z" fill="#2EB5B2"/>
<path id="Vector_4" d="M57.8983 51.5C57.0699 50.8659 54.2586 51.5099 56.6292 48.4779C57.96 46.7737 57.863 44.7623 56.2062 43.3355C53.7298 41.2052 55.8096 40.7692 57.0875 40.4026C59.0968 39.8279 60.8065 40.7692 62.0579 42.5626C63.2123 44.2272 63.4238 46.09 62.5954 48.0618C61.7142 50.1822 60.216 51.2523 57.8983 51.5Z" fill="#2EB5B2"/>
</g>
</g>
<defs>
<linearGradient id="paint0_linear_862_1618" x1="0.520169" y1="51.5033" x2="103.515" y2="51.5033" gradientUnits="userSpaceOnUse">
<stop offset="0.4721" stop-color="#5DB29A"/>
<stop offset="0.8156" stop-color="#2EB5B2"/>
</linearGradient>
</defs>
</svg>
