<svg width="70" height="70" viewBox="0 0 70 70" fill="none" xmlns="http://www.w3.org/2000/svg">
<g id="Group 554">
<path id="Vector" d="M69.2031 34.6519C69.2169 53.8688 53.7647 69.3087 34.5497 69.2949C15.3693 69.2811 -0.0345261 53.7858 5.81216e-05 34.5481C0.0415592 15.5387 15.48 0.119504 34.5013 0.091834C53.7025 0.0641639 69.1893 15.4903 69.2031 34.6519ZM55.3141 34.9286C55.4179 23.5354 46.2669 14.1414 34.9786 13.9615C22.7219 13.7678 13.9998 23.7083 13.8891 34.3752C13.7715 45.8029 22.8672 55.2385 34.1555 55.3976C45.7412 55.5636 55.2104 46.4048 55.3141 34.9286Z" fill="url(#paint0_linear_862_1643)"/>
<path id="Vector_2" d="M54.7857 34.9369C54.6846 46.116 45.4589 55.0378 34.1644 54.8761C23.1664 54.7211 14.2979 45.5298 14.4192 34.3978C14.527 24.007 23.0316 14.3238 34.9663 14.5125C45.9711 14.6944 54.8801 23.8386 54.7857 34.9369ZM34.5957 36.5002C30.7815 36.5002 26.9672 36.5474 23.1529 36.48C21.4749 36.453 21.0436 37.0797 21.293 38.7104C22.2499 44.9503 28.005 49.7616 34.6294 49.7548C41.2471 49.7481 47.0022 44.9099 47.9389 38.6767C48.1882 37.0123 47.6963 36.4396 46.0452 36.4665C42.2242 36.5339 38.41 36.4935 34.5957 36.5002ZM41.3347 24.0879C39.2995 23.7307 37.2374 24.0272 37.4193 26.6418C37.5676 28.8251 39.4747 30.2806 41.301 31.3385C42.0693 31.7833 45.4859 27.6795 45.3511 26.4733C45.0748 24.0744 43.4238 23.7375 41.3347 24.0879ZM28.032 24.0609C25.087 24.0542 23.8672 24.7348 23.8403 26.4666C23.8201 27.693 27.1357 31.7765 27.9107 31.3318C29.7437 30.2806 31.6036 28.8251 31.799 26.635C32.0079 24.2833 30.1952 23.7442 28.032 24.0609Z" fill="#FEFEFE"/>
<path id="Vector_3" d="M34.5887 36.1577C38.6968 36.1577 42.8049 36.2015 46.913 36.1357C48.6912 36.1065 49.221 36.7279 48.9525 38.5336C47.9436 45.2885 41.7452 50.5448 34.6178 50.5521C27.483 50.5594 21.2919 45.3324 20.254 38.5701C19.9855 36.801 20.45 36.1138 22.2572 36.1504C26.3653 36.2089 30.4734 36.165 34.5887 36.1577Z" fill="#2EB5B2"/>
<path id="Vector_4" d="M46.1346 25.9219C46.1346 25.8675 46.1346 25.821 46.1346 25.7666C46.0936 24.8196 45.738 24.0667 45.0201 23.5699C44.439 23.1663 43.8168 23.0421 43.1604 23.275C42.6477 23.4612 42.2511 23.8416 41.9161 24.3073C41.8341 24.416 41.7999 24.416 41.711 24.3073C41.5743 24.1366 41.4444 23.9658 41.2939 23.8183C40.747 23.2827 40.1111 23.0343 39.3864 23.2206C38.4771 23.4535 37.8549 24.0667 37.5883 25.0913C37.3968 25.8287 37.4857 26.5506 37.7455 27.257C38.0395 28.0642 38.4976 28.7551 39.0309 29.3683C39.8308 30.292 40.7265 31.076 41.6905 31.7591C41.7862 31.8289 41.8477 31.8212 41.9366 31.7591C42.9417 31.0372 43.8852 30.2299 44.7125 29.2441C45.1979 28.6619 45.6081 28.0177 45.8816 27.2725C46.0389 26.8378 46.1483 26.3954 46.1346 25.9219Z" fill="#2EB5B2"/>
<path id="Vector_5" d="M31.7184 25.9219C31.7184 25.8675 31.7184 25.821 31.7184 25.7666C31.6774 24.8196 31.3219 24.0667 30.6039 23.5699C30.0227 23.1663 29.4005 23.0421 28.744 23.275C28.2312 23.4612 27.8346 23.8416 27.4996 24.3073C27.4175 24.416 27.3833 24.416 27.2944 24.3073C27.1577 24.1366 27.0278 23.9658 26.8773 23.8183C26.3303 23.2827 25.6944 23.0343 24.9696 23.2206C24.0602 23.4535 23.4379 24.0667 23.1713 25.0913C22.9798 25.8287 23.0687 26.5506 23.3286 27.257C23.6226 28.0642 24.0807 28.7551 24.6141 29.3683C25.4141 30.292 26.3098 31.076 27.2739 31.7591C27.3696 31.8289 27.4312 31.8212 27.5201 31.7591C28.5252 31.0372 29.4688 30.2299 30.2962 29.2441C30.7817 28.6619 31.1919 28.0177 31.4654 27.2725C31.6227 26.8378 31.7253 26.3954 31.7184 25.9219Z" fill="#2EB5B2"/>
</g>
<defs>
<linearGradient id="paint0_linear_862_1643" x1="0.00365488" y1="34.6923" x2="69.2011" y2="34.6923" gradientUnits="userSpaceOnUse">
<stop stop-color="#2EB5B2"/>
<stop offset="0.7933" stop-color="#18BDC6"/>
</linearGradient>
</defs>
</svg>
