<svg width="70" height="70" viewBox="0 0 70 70" fill="none" xmlns="http://www.w3.org/2000/svg">
<g id="Group 558">
<path id="Vector" d="M34.8025 0.0919469C53.9698 0.147365 69.3065 15.7474 69.2026 35.0813C69.0987 54.048 53.5196 69.3571 34.3799 69.2947C15.2195 69.2324 -0.110237 53.6254 0.000597222 34.2846C0.111431 15.3457 15.6905 0.0365292 34.8025 0.0919469ZM34.5739 55.4819C46.1076 55.4888 55.4107 46.144 55.3899 34.5756C55.3691 23.2565 46.0244 13.8355 34.6778 13.9256C22.4306 14.0226 14.0765 22.8409 13.841 34.5271C13.6124 46.0886 23.0541 55.475 34.5739 55.4819Z" fill="url(#paint0_linear_862_1637)"/>
<path id="Vector_2" d="M34.5638 54.8783C23.3724 54.8715 14.1998 45.7536 14.4219 34.5227C14.6507 23.1707 22.7667 14.6046 34.6647 14.5104C45.6879 14.4229 54.7662 23.5745 54.7864 34.5698C54.8066 45.8142 45.7687 54.885 34.5638 54.8783ZM34.6984 41.4941C31.4951 41.669 28.5071 42.4361 25.9566 44.4414C25.2567 44.9932 23.9713 45.5113 25.0817 46.7764C25.896 47.705 26.6026 48.6 28.1235 47.5368C32.444 44.5289 36.8855 44.5827 41.1925 47.6176C42.5452 48.5731 43.1912 47.7118 43.992 46.9245C45.1495 45.7805 44.1737 45.1749 43.3931 44.5491C40.8493 42.5236 37.8681 41.7296 34.6984 41.4941ZM33.1304 31.2322C33.1909 30.1757 32.9352 29.5903 32.1142 29.4961C29.8598 29.2471 27.8745 28.1435 25.7345 27.5581C24.8933 27.3293 23.6483 26.6362 23.2445 28.1503C22.8744 29.5499 23.9309 29.7922 25.0144 29.9268C26.1786 30.0681 27.2285 30.3238 27.1679 31.8916C27.1006 33.6345 27.9351 34.7111 29.7588 34.5967C31.9661 34.4487 31.8988 32.0531 33.1304 31.2322ZM45.9504 28.7088C45.8696 27.0198 44.8131 27.1678 43.9988 27.3966C41.9597 27.9619 39.9812 28.729 37.9555 29.3077C36.9999 29.5836 35.5665 29.5836 36.051 30.9428C36.576 32.4098 37.3903 33.9844 39.1198 34.5295C40.1898 34.8659 41.5223 34.4891 41.6299 33.4932C41.8857 31.0371 42.8951 29.698 45.4255 29.5499C45.6543 29.5297 45.8494 28.877 45.9504 28.7088Z" fill="#FEFEFE"/>
<path id="Vector_3" d="M34.7215 41.9004C37.9405 42.1598 40.9614 43.027 43.5448 45.2653C44.3376 45.9472 45.3286 46.6217 44.1531 47.8817C43.3398 48.7488 42.6836 49.6975 41.3099 48.6451C36.9359 45.3024 32.4251 45.2431 28.0374 48.5561C26.4928 49.7198 25.7752 48.7414 24.9483 47.7186C23.8274 46.3252 25.1259 45.7545 25.8367 45.1467C28.4338 42.938 31.4752 42.0931 34.7215 41.9004Z" fill="#FBC000"/>
<path id="Vector_4" d="M33.1519 31.4181C31.9061 32.2173 31.981 34.5493 29.7345 34.6869C27.8896 34.7982 27.0454 33.7567 27.1135 32.0535C27.1748 30.5272 26.1128 30.2848 24.9351 30.1407C23.839 30.0097 22.7702 29.7739 23.1446 28.4113C23.5531 26.9374 24.8193 27.6121 25.6635 27.8349C27.8283 28.4113 29.8366 29.4791 32.1171 29.7215C32.9545 29.8197 33.2132 30.3896 33.1519 31.4181Z" fill="#FBC000"/>
<path id="Vector_5" d="M46.1351 28.9003C46.0333 29.0644 45.8364 29.7012 45.5989 29.7209C43.0535 29.8653 42.0353 31.1781 41.7706 33.5676C41.662 34.5325 40.318 34.9067 39.2388 34.5785C37.4943 34.0468 36.673 32.5107 36.1436 31.0797C35.6481 29.7537 37.0938 29.7537 38.0645 29.4845C40.1144 28.92 42.11 28.1717 44.1599 27.6203C44.988 27.3971 46.0536 27.2527 46.1351 28.9003Z" fill="#FBC000"/>
</g>
<defs>
<linearGradient id="paint0_linear_862_1637" x1="0.000597222" y1="34.6922" x2="69.2092" y2="34.6922" gradientUnits="userSpaceOnUse">
<stop stop-color="#FBC000"/>
<stop offset="0.7877" stop-color="#E79D42"/>
</linearGradient>
</defs>
</svg>
