<svg width="70" height="70" viewBox="0 0 70 70" fill="none" xmlns="http://www.w3.org/2000/svg">
<g id="Group 557">
<path id="Vector" d="M34.515 69.2949C15.3085 69.2672 -0.0552406 53.7564 0.000149299 34.4579C0.062463 15.4503 15.5716 0.0779573 34.6742 0.0918062C53.8807 0.11258 69.2652 15.6441 69.2029 34.9496C69.1337 53.9572 53.6176 69.3226 34.515 69.2949ZM34.2657 55.4598C45.863 55.5568 55.2793 46.3541 55.3624 34.8457C55.4455 23.4757 46.23 14.0446 34.9166 13.92C23.3539 13.7884 13.8615 23.0602 13.8199 34.541C13.7784 45.9594 22.9731 55.3698 34.2657 55.4598Z" fill="url(#paint0_linear_862_1625)"/>
<path id="Vector_2" d="M34.2859 54.8775C23.3058 54.7833 14.3711 45.6455 14.4182 34.5496C14.4652 23.3932 23.6826 14.3833 34.9183 14.5111C45.9051 14.6322 54.86 23.8037 54.786 34.8457C54.712 46.0358 45.5619 54.9717 34.2859 54.8775ZM41.0475 44.1988C41.6934 44.542 42.3325 44.5084 42.3594 43.2972C42.3863 42.0187 42.3258 40.7604 40.8322 40.3028C38.9349 39.7241 37.1049 40.101 35.2614 40.7065C33.169 41.3996 31.1372 42.5233 28.7891 41.9312C28.0221 41.7361 26.9927 40.9084 26.7438 42.4695C26.5621 43.5798 26.5554 44.6968 27.8203 45.3629C29.6974 46.3521 31.5341 45.881 33.3372 45.2351C35.7593 44.367 38.1477 43.3846 41.0475 44.1988ZM29.4754 29.2944C28.1567 29.4559 27.1609 30.1355 27.1811 31.7975C27.2013 33.2644 27.9952 34.0584 29.4484 34.1055C30.8546 34.1526 31.81 33.5201 31.9243 32.0263C32.0454 30.4316 31.2717 29.5299 29.4754 29.2944ZM39.6817 34.1392C40.9264 34.0854 41.9154 33.5403 42.023 32.0263C42.1307 30.445 41.3973 29.429 39.7692 29.3617C38.1679 29.2944 37.2865 30.1826 37.2798 31.7975C37.2731 33.2644 38.1006 34.0181 39.6817 34.1392Z" fill="#FEFEFE"/>
<path id="Vector_3" d="M41.8096 44.5447C38.6154 43.7443 35.9845 44.7087 33.3091 45.5485C31.3229 46.1718 29.2997 46.6376 27.232 45.6732C25.8461 45.0237 25.8461 43.9411 26.0462 42.852C26.3278 41.3299 27.4543 42.1369 28.2992 42.3272C30.8856 42.9111 33.1238 41.8088 35.4287 41.1331C37.4593 40.5426 39.4751 40.1752 41.5651 40.7394C43.2103 41.1856 43.277 42.4124 43.2474 43.659C43.2177 44.8465 42.5211 44.8793 41.8096 44.5447Z" fill="#FBC000"/>
<path id="Vector_4" d="M29.4793 28.9277C31.107 29.2022 31.8169 30.284 31.7067 32.1972C31.6027 33.9894 30.7338 34.7482 29.4549 34.6917C28.1392 34.6352 27.4111 33.6826 27.3927 31.9228C27.3805 29.9449 28.28 29.1296 29.4793 28.9277Z" fill="#FBC000"/>
<path id="Vector_5" d="M39.6698 34.6947C38.2312 34.5486 37.4844 33.6395 37.4844 31.8702C37.4905 29.9222 38.2924 28.8509 39.7494 28.932C41.2309 29.0132 41.8981 30.2388 41.8002 32.1461C41.7022 33.9642 40.8023 34.6216 39.6698 34.6947Z" fill="#FBC000"/>
</g>
<defs>
<linearGradient id="paint0_linear_862_1625" x1="0.00284956" y1="34.6921" x2="69.202" y2="34.6921" gradientUnits="userSpaceOnUse">
<stop stop-color="#C0A35B"/>
<stop offset="0.7011" stop-color="#A1A86E"/>
</linearGradient>
</defs>
</svg>
